<svg xmlns="http://www.w3.org/2000/svg" xmlns:xlink="http://www.w3.org/1999/xlink" width="950" zoomAndPan="magnify" viewBox="0 0 712.5 599.999999" height="800" preserveAspectRatio="xMidYMid meet" version="1.0"><defs><clipPath id="daf164fdea"><path d="M 56.390625 0.351562 L 656.390625 0.351562 L 656.390625 599.789062 L 56.390625 599.789062 Z M 56.390625 0.351562 " clip-rule="nonzero"/></clipPath><clipPath id="e587ea2547"><path d="M 536.390625 400.351562 L 536.390625 380.351562 L 456.390625 380.351562 L 456.390625 400.351562 L 436.390625 400.351562 L 436.390625 380.351562 C 436.390625 369.335938 445.375 360.351562 456.390625 360.351562 L 536.390625 360.351562 C 547.40625 360.351562 556.390625 369.335938 556.390625 380.351562 L 556.390625 400.351562 Z M 396.390625 400.351562 L 396.390625 380.351562 L 316.390625 380.351562 L 316.390625 400.351562 L 296.390625 400.351562 L 296.390625 380.351562 C 296.390625 369.335938 305.375 360.351562 316.390625 360.351562 L 396.390625 360.351562 C 407.40625 360.351562 416.390625 369.335938 416.390625 380.351562 L 416.390625 400.351562 Z M 256.390625 400.351562 L 256.390625 380.351562 L 176.390625 380.351562 L 176.390625 400.351562 L 156.390625 400.351562 L 156.390625 380.351562 C 156.390625 369.335938 165.375 360.351562 176.390625 360.351562 L 256.390625 360.351562 C 267.40625 360.351562 276.390625 369.335938 276.390625 380.351562 L 276.390625 400.351562 Z M 456.390625 320.351562 L 456.390625 260.351562 L 536.390625 260.351562 L 536.390625 320.351562 Z M 556.390625 260.351562 C 556.390625 249.335938 547.40625 240.351562 536.390625 240.351562 L 456.390625 240.351562 C 445.375 240.351562 436.390625 249.335938 436.390625 260.351562 L 436.390625 320.351562 C 436.390625 331.367188 445.375 340.351562 456.390625 340.351562 L 536.390625 340.351562 C 547.40625 340.351562 556.390625 331.367188 556.390625 320.351562 Z M 316.390625 320.351562 L 316.390625 260.351562 L 396.390625 260.351562 L 396.390625 320.351562 Z M 416.390625 260.351562 C 416.390625 249.335938 407.40625 240.351562 396.390625 240.351562 L 316.390625 240.351562 C 305.375 240.351562 296.390625 249.335938 296.390625 260.351562 L 296.390625 320.351562 C 296.390625 331.367188 305.375 340.351562 316.390625 340.351562 L 396.390625 340.351562 C 407.40625 340.351562 416.390625 331.367188 416.390625 320.351562 Z M 176.390625 320.351562 L 176.390625 260.351562 L 256.390625 260.351562 L 256.390625 320.351562 Z M 276.390625 260.351562 C 276.390625 249.335938 267.40625 240.351562 256.390625 240.351562 L 176.390625 240.351562 C 165.375 240.351562 156.390625 249.335938 156.390625 260.351562 L 156.390625 320.351562 C 156.390625 331.367188 165.375 340.351562 176.390625 340.351562 L 256.390625 340.351562 C 267.40625 340.351562 276.390625 331.367188 276.390625 320.351562 Z M 456.390625 200.351562 L 456.390625 140.351562 L 536.390625 140.351562 L 536.390625 200.351562 Z M 556.390625 140.351562 C 556.390625 129.335938 547.40625 120.351562 536.390625 120.351562 L 456.390625 120.351562 C 445.375 120.351562 436.390625 129.335938 436.390625 140.351562 L 436.390625 200.351562 C 436.390625 211.367188 445.375 220.351562 456.390625 220.351562 L 536.390625 220.351562 C 547.40625 220.351562 556.390625 211.367188 556.390625 200.351562 Z M 316.390625 200.351562 L 316.390625 140.351562 L 396.390625 140.351562 L 396.390625 200.351562 Z M 416.390625 140.351562 C 416.390625 129.335938 407.40625 120.351562 396.390625 120.351562 L 316.390625 120.351562 C 305.375 120.351562 296.390625 129.335938 296.390625 140.351562 L 296.390625 200.351562 C 296.390625 211.367188 305.375 220.351562 316.390625 220.351562 L 396.390625 220.351562 C 407.40625 220.351562 416.390625 211.367188 416.390625 200.351562 Z M 176.390625 200.351562 L 176.390625 140.351562 L 256.390625 140.351562 L 256.390625 200.351562 Z M 276.390625 140.351562 C 276.390625 129.335938 267.40625 120.351562 256.390625 120.351562 L 176.390625 120.351562 C 165.375 120.351562 156.390625 129.335938 156.390625 140.351562 L 156.390625 200.351562 C 156.390625 211.367188 165.375 220.351562 176.390625 220.351562 L 256.390625 220.351562 C 267.40625 220.351562 276.390625 211.367188 276.390625 200.351562 Z M 556.390625 100.351562 L 156.390625 100.351562 L 156.390625 80.351562 L 556.390625 80.351562 Z M 256.390625 40.351562 L 256.390625 60.351562 L 236.390625 60.351562 L 236.390625 40.351562 Z M 216.390625 40.351562 L 216.390625 60.351562 L 196.390625 60.351562 L 196.390625 40.351562 Z M 176.390625 40.351562 L 176.390625 60.351562 L 156.390625 60.351562 L 156.390625 40.351562 Z M 156.390625 0.351562 L 556.390625 0.351562 C 578.460938 0.351562 596.390625 18.28125 596.390625 40.351562 L 596.390625 400.351562 L 576.390625 400.351562 L 576.390625 40.351562 C 576.390625 29.335938 567.40625 20.351562 556.390625 20.351562 L 156.390625 20.351562 C 145.375 20.351562 136.390625 29.335938 136.390625 40.351562 L 136.390625 400.351562 L 116.390625 400.351562 L 116.390625 40.351562 C 116.390625 18.28125 134.320312 0.351562 156.390625 0.351562 Z M 636.390625 460.351562 C 636.390625 471.367188 627.40625 480.351562 616.390625 480.351562 L 96.390625 480.351562 C 85.375 480.351562 76.390625 471.367188 76.390625 460.351562 L 76.390625 440.351562 L 636.390625 440.351562 Z M 422.953125 580.351562 L 289.828125 580.351562 L 313.8125 500.351562 L 398.96875 500.351562 Z M 616.390625 80.351562 L 616.390625 100.351562 C 627.40625 100.351562 636.390625 109.335938 636.390625 120.351562 L 636.390625 420.351562 L 76.390625 420.351562 L 76.390625 120.351562 C 76.390625 109.335938 85.375 100.351562 96.390625 100.351562 L 96.390625 80.351562 C 74.320312 80.351562 56.390625 98.28125 56.390625 120.351562 L 56.390625 460.351562 C 56.390625 482.421875 74.320312 500.351562 96.390625 500.351562 L 292.953125 500.351562 L 268.96875 580.351562 L 246.390625 580.351562 L 246.390625 600.351562 L 466.390625 600.351562 L 466.390625 580.351562 L 443.8125 580.351562 L 419.828125 500.351562 L 616.390625 500.351562 C 638.460938 500.351562 656.390625 482.421875 656.390625 460.351562 L 656.390625 120.351562 C 656.390625 98.28125 638.460938 80.351562 616.390625 80.351562 Z M 616.390625 80.351562 " clip-rule="nonzero"/></clipPath><clipPath id="ca729851f3"><path d="M 536.390625 400.351562 L 536.390625 380.351562 L 456.390625 380.351562 L 456.390625 400.351562 L 436.390625 400.351562 L 436.390625 380.351562 C 436.390625 369.335938 445.375 360.351562 456.390625 360.351562 L 536.390625 360.351562 C 547.40625 360.351562 556.390625 369.335938 556.390625 380.351562 L 556.390625 400.351562 Z M 396.390625 400.351562 L 396.390625 380.351562 L 316.390625 380.351562 L 316.390625 400.351562 L 296.390625 400.351562 L 296.390625 380.351562 C 296.390625 369.335938 305.375 360.351562 316.390625 360.351562 L 396.390625 360.351562 C 407.40625 360.351562 416.390625 369.335938 416.390625 380.351562 L 416.390625 400.351562 Z M 256.390625 400.351562 L 256.390625 380.351562 L 176.390625 380.351562 L 176.390625 400.351562 L 156.390625 400.351562 L 156.390625 380.351562 C 156.390625 369.335938 165.375 360.351562 176.390625 360.351562 L 256.390625 360.351562 C 267.40625 360.351562 276.390625 369.335938 276.390625 380.351562 L 276.390625 400.351562 Z M 456.390625 320.351562 L 456.390625 260.351562 L 536.390625 260.351562 L 536.390625 320.351562 Z M 556.390625 260.351562 C 556.390625 249.335938 547.40625 240.351562 536.390625 240.351562 L 456.390625 240.351562 C 445.375 240.351562 436.390625 249.335938 436.390625 260.351562 L 436.390625 320.351562 C 436.390625 331.367188 445.375 340.351562 456.390625 340.351562 L 536.390625 340.351562 C 547.40625 340.351562 556.390625 331.367188 556.390625 320.351562 Z M 316.390625 320.351562 L 316.390625 260.351562 L 396.390625 260.351562 L 396.390625 320.351562 Z M 416.390625 260.351562 C 416.390625 249.335938 407.40625 240.351562 396.390625 240.351562 L 316.390625 240.351562 C 305.375 240.351562 296.390625 249.335938 296.390625 260.351562 L 296.390625 320.351562 C 296.390625 331.367188 305.375 340.351562 316.390625 340.351562 L 396.390625 340.351562 C 407.40625 340.351562 416.390625 331.367188 416.390625 320.351562 Z M 176.390625 320.351562 L 176.390625 260.351562 L 256.390625 260.351562 L 256.390625 320.351562 Z M 276.390625 260.351562 C 276.390625 249.335938 267.40625 240.351562 256.390625 240.351562 L 176.390625 240.351562 C 165.375 240.351562 156.390625 249.335938 156.390625 260.351562 L 156.390625 320.351562 C 156.390625 331.367188 165.375 340.351562 176.390625 340.351562 L 256.390625 340.351562 C 267.40625 340.351562 276.390625 331.367188 276.390625 320.351562 Z M 456.390625 200.351562 L 456.390625 140.351562 L 536.390625 140.351562 L 536.390625 200.351562 Z M 556.390625 140.351562 C 556.390625 129.335938 547.40625 120.351562 536.390625 120.351562 L 456.390625 120.351562 C 445.375 120.351562 436.390625 129.335938 436.390625 140.351562 L 436.390625 200.351562 C 436.390625 211.367188 445.375 220.351562 456.390625 220.351562 L 536.390625 220.351562 C 547.40625 220.351562 556.390625 211.367188 556.390625 200.351562 Z M 316.390625 200.351562 L 316.390625 140.351562 L 396.390625 140.351562 L 396.390625 200.351562 Z M 416.390625 140.351562 C 416.390625 129.335938 407.40625 120.351562 396.390625 120.351562 L 316.390625 120.351562 C 305.375 120.351562 296.390625 129.335938 296.390625 140.351562 L 296.390625 200.351562 C 296.390625 211.367188 305.375 220.351562 316.390625 220.351562 L 396.390625 220.351562 C 407.40625 220.351562 416.390625 211.367188 416.390625 200.351562 Z M 176.390625 200.351562 L 176.390625 140.351562 L 256.390625 140.351562 L 256.390625 200.351562 Z M 276.390625 140.351562 C 276.390625 129.335938 267.40625 120.351562 256.390625 120.351562 L 176.390625 120.351562 C 165.375 120.351562 156.390625 129.335938 156.390625 140.351562 L 156.390625 200.351562 C 156.390625 211.367188 165.375 220.351562 176.390625 220.351562 L 256.390625 220.351562 C 267.40625 220.351562 276.390625 211.367188 276.390625 200.351562 Z M 556.390625 100.351562 L 156.390625 100.351562 L 156.390625 80.351562 L 556.390625 80.351562 Z M 256.390625 40.351562 L 256.390625 60.351562 L 236.390625 60.351562 L 236.390625 40.351562 Z M 216.390625 40.351562 L 216.390625 60.351562 L 196.390625 60.351562 L 196.390625 40.351562 Z M 176.390625 40.351562 L 176.390625 60.351562 L 156.390625 60.351562 L 156.390625 40.351562 Z M 156.390625 0.351562 L 556.390625 0.351562 C 578.460938 0.351562 596.390625 18.28125 596.390625 40.351562 L 596.390625 400.351562 L 576.390625 400.351562 L 576.390625 40.351562 C 576.390625 29.335938 567.40625 20.351562 556.390625 20.351562 L 156.390625 20.351562 C 145.375 20.351562 136.390625 29.335938 136.390625 40.351562 L 136.390625 400.351562 L 116.390625 400.351562 L 116.390625 40.351562 C 116.390625 18.28125 134.320312 0.351562 156.390625 0.351562 Z M 636.390625 460.351562 C 636.390625 471.367188 627.40625 480.351562 616.390625 480.351562 L 96.390625 480.351562 C 85.375 480.351562 76.390625 471.367188 76.390625 460.351562 L 76.390625 440.351562 L 636.390625 440.351562 Z M 422.953125 580.351562 L 289.828125 580.351562 L 313.8125 500.351562 L 398.96875 500.351562 Z M 616.390625 80.351562 L 616.390625 100.351562 C 627.40625 100.351562 636.390625 109.335938 636.390625 120.351562 L 636.390625 420.351562 L 76.390625 420.351562 L 76.390625 120.351562 C 76.390625 109.335938 85.375 100.351562 96.390625 100.351562 L 96.390625 80.351562 C 74.320312 80.351562 56.390625 98.28125 56.390625 120.351562 L 56.390625 460.351562 C 56.390625 482.421875 74.320312 500.351562 96.390625 500.351562 L 292.953125 500.351562 L 268.96875 580.351562 L 246.390625 580.351562 L 246.390625 600.351562 L 466.390625 600.351562 L 466.390625 580.351562 L 443.8125 580.351562 L 419.828125 500.351562 L 616.390625 500.351562 C 638.460938 500.351562 656.390625 482.421875 656.390625 460.351562 L 656.390625 120.351562 C 656.390625 98.28125 638.460938 80.351562 616.390625 80.351562 " clip-rule="nonzero"/></clipPath><clipPath id="0f3a4caf25"><path d="M -243.609375 300.351562 L 356.390625 900.351562 L 956.390625 300.351562 L 356.390625 -299.648438 Z M -243.609375 300.351562 " clip-rule="nonzero"/></clipPath><linearGradient x1="-0.123677" gradientTransform="matrix(496.544518, -496.544518, 496.544518, 496.544518, 108.254568, 528.831621)" y1="0" x2="1.084109" gradientUnits="userSpaceOnUse" y2="0" id="37335b0a1d"><stop stop-opacity="1" stop-color="rgb(25.099182%, 27.49939%, 64.299011%)" offset="0"/><stop stop-opacity="1" stop-color="rgb(25.099182%, 27.49939%, 64.299011%)" offset="0.0625"/><stop stop-opacity="1" stop-color="rgb(25.099182%, 27.49939%, 64.299011%)" offset="0.09375"/><stop stop-opacity="1" stop-color="rgb(25.114441%, 27.49939%, 64.299011%)" offset="0.109375"/><stop stop-opacity="1" stop-color="rgb(25.335693%, 27.49939%, 64.299011%)" offset="0.113281"/><stop stop-opacity="1" stop-color="rgb(25.543213%, 27.49939%, 64.299011%)" offset="0.117188"/><stop stop-opacity="1" stop-color="rgb(25.720215%, 27.49939%, 64.299011%)" offset="0.125"/><stop stop-opacity="1" stop-color="rgb(25.900269%, 27.49939%, 64.299011%)" offset="0.132812"/><stop stop-opacity="1" stop-color="rgb(26.097107%, 27.49939%, 64.299011%)" offset="0.140625"/><stop stop-opacity="1" stop-color="rgb(26.312256%, 27.49939%, 64.299011%)" offset="0.148438"/><stop stop-opacity="1" stop-color="rgb(26.541138%, 27.49939%, 64.299011%)" offset="0.152344"/><stop stop-opacity="1" stop-color="rgb(26.748657%, 27.49939%, 64.299011%)" offset="0.15625"/><stop stop-opacity="1" stop-color="rgb(26.925659%, 27.49939%, 64.299011%)" offset="0.171875"/><stop stop-opacity="1" stop-color="rgb(27.2995%, 27.49939%, 64.299011%)" offset="0.179688"/><stop stop-opacity="1" stop-color="rgb(27.496338%, 27.49939%, 64.299011%)" offset="0.1875"/><stop stop-opacity="1" stop-color="rgb(27.676392%, 27.49939%, 64.299011%)" offset="0.195312"/><stop stop-opacity="1" stop-color="rgb(28.044128%, 27.49939%, 64.299011%)" offset="0.203125"/><stop stop-opacity="1" stop-color="rgb(28.416443%, 27.49939%, 64.299011%)" offset="0.210938"/><stop stop-opacity="1" stop-color="rgb(28.797913%, 27.49939%, 64.299011%)" offset="0.214844"/><stop stop-opacity="1" stop-color="rgb(28.997803%, 27.49939%, 64.299011%)" offset="0.21875"/><stop stop-opacity="1" stop-color="rgb(29.197693%, 27.2995%, 64.299011%)" offset="0.222656"/><stop stop-opacity="1" stop-color="rgb(29.399109%, 27.099609%, 64.299011%)" offset="0.226562"/><stop stop-opacity="1" stop-color="rgb(29.798889%, 27.099609%, 64.299011%)" offset="0.230469"/><stop stop-opacity="1" stop-color="rgb(30.198669%, 27.099609%, 64.299011%)" offset="0.234375"/><stop stop-opacity="1" stop-color="rgb(30.39856%, 27.099609%, 64.299011%)" offset="0.238281"/><stop stop-opacity="1" stop-color="rgb(30.599976%, 27.099609%, 64.299011%)" offset="0.242188"/><stop stop-opacity="1" stop-color="rgb(30.799866%, 27.087402%, 64.299011%)" offset="0.246094"/><stop stop-opacity="1" stop-color="rgb(30.999756%, 27.076721%, 64.299011%)" offset="0.25"/><stop stop-opacity="1" stop-color="rgb(31.199646%, 26.887512%, 64.299011%)" offset="0.253906"/><stop stop-opacity="1" stop-color="rgb(31.399536%, 26.699829%, 64.299011%)" offset="0.257812"/><stop stop-opacity="1" stop-color="rgb(31.399536%, 26.89209%, 64.299011%)" offset="0.265625"/><stop stop-opacity="1" stop-color="rgb(31.63147%, 27.09198%, 64.299011%)" offset="0.269531"/><stop stop-opacity="1" stop-color="rgb(31.864929%, 27.099609%, 64.299011%)" offset="0.273438"/><stop stop-opacity="1" stop-color="rgb(32.049561%, 27.099609%, 64.299011%)" offset="0.28125"/><stop stop-opacity="1" stop-color="rgb(32.380676%, 27.099609%, 64.299011%)" offset="0.289062"/><stop stop-opacity="1" stop-color="rgb(32.717896%, 26.899719%, 64.299011%)" offset="0.292969"/><stop stop-opacity="1" stop-color="rgb(32.90863%, 26.699829%, 64.299011%)" offset="0.296875"/><stop stop-opacity="1" stop-color="rgb(33.103943%, 26.699829%, 64.299011%)" offset="0.304688"/><stop stop-opacity="1" stop-color="rgb(33.499146%, 26.699829%, 64.299011%)" offset="0.308594"/><stop stop-opacity="1" stop-color="rgb(33.699036%, 26.699829%, 64.299011%)" offset="0.3125"/><stop stop-opacity="1" stop-color="rgb(33.924866%, 26.699829%, 64.299011%)" offset="0.316406"/><stop stop-opacity="1" stop-color="rgb(34.152222%, 26.699829%, 64.299011%)" offset="0.320312"/><stop stop-opacity="1" stop-color="rgb(34.324646%, 26.699829%, 64.299011%)" offset="0.328125"/><stop stop-opacity="1" stop-color="rgb(34.706116%, 26.699829%, 64.299011%)" offset="0.332031"/><stop stop-opacity="1" stop-color="rgb(34.913635%, 26.699829%, 64.299011%)" offset="0.335938"/><stop stop-opacity="1" stop-color="rgb(35.105896%, 26.699829%, 64.299011%)" offset="0.34375"/><stop stop-opacity="1" stop-color="rgb(35.687256%, 26.498413%, 64.299011%)" offset="0.347656"/><stop stop-opacity="1" stop-color="rgb(36.076355%, 26.298523%, 64.299011%)" offset="0.351562"/><stop stop-opacity="1" stop-color="rgb(36.286926%, 26.298523%, 64.299011%)" offset="0.355469"/><stop stop-opacity="1" stop-color="rgb(36.499023%, 26.298523%, 64.299011%)" offset="0.359375"/><stop stop-opacity="1" stop-color="rgb(36.698914%, 26.298523%, 64.299011%)" offset="0.363281"/><stop stop-opacity="1" stop-color="rgb(36.898804%, 26.298523%, 64.299011%)" offset="0.367188"/><stop stop-opacity="1" stop-color="rgb(37.098694%, 26.298523%, 64.299011%)" offset="0.371094"/><stop stop-opacity="1" stop-color="rgb(37.298584%, 26.298523%, 64.299011%)" offset="0.375"/><stop stop-opacity="1" stop-color="rgb(37.298584%, 26.298523%, 64.299011%)" offset="0.390625"/><stop stop-opacity="1" stop-color="rgb(37.64801%, 26.298523%, 64.299011%)" offset="0.394531"/><stop stop-opacity="1" stop-color="rgb(37.998962%, 26.298523%, 64.299011%)" offset="0.398438"/><stop stop-opacity="1" stop-color="rgb(38.198853%, 26.121521%, 64.299011%)" offset="0.402344"/><stop stop-opacity="1" stop-color="rgb(38.398743%, 25.944519%, 64.299011%)" offset="0.40625"/><stop stop-opacity="1" stop-color="rgb(38.61084%, 26.121521%, 64.299011%)" offset="0.410156"/><stop stop-opacity="1" stop-color="rgb(38.824463%, 26.298523%, 64.299011%)" offset="0.414062"/><stop stop-opacity="1" stop-color="rgb(39.015198%, 26.298523%, 64.299011%)" offset="0.421875"/><stop stop-opacity="1" stop-color="rgb(39.402771%, 26.298523%, 64.299011%)" offset="0.425781"/><stop stop-opacity="1" stop-color="rgb(39.599609%, 26.298523%, 64.299011%)" offset="0.429688"/><stop stop-opacity="1" stop-color="rgb(39.7995%, 26.098633%, 64.299011%)" offset="0.433594"/><stop stop-opacity="1" stop-color="rgb(39.99939%, 25.898743%, 64.299011%)" offset="0.4375"/><stop stop-opacity="1" stop-color="rgb(40.423584%, 25.898743%, 64.299011%)" offset="0.441406"/><stop stop-opacity="1" stop-color="rgb(40.849304%, 25.898743%, 64.299011%)" offset="0.445312"/><stop stop-opacity="1" stop-color="rgb(41.239929%, 25.698853%, 64.299011%)" offset="0.449219"/><stop stop-opacity="1" stop-color="rgb(41.630554%, 25.498962%, 64.299011%)" offset="0.453125"/><stop stop-opacity="1" stop-color="rgb(41.821289%, 25.498962%, 64.299011%)" offset="0.460938"/><stop stop-opacity="1" stop-color="rgb(42.205811%, 25.498962%, 64.299011%)" offset="0.46875"/><stop stop-opacity="1" stop-color="rgb(42.549133%, 25.498962%, 64.299011%)" offset="0.476562"/><stop stop-opacity="1" stop-color="rgb(42.926025%, 25.498962%, 64.299011%)" offset="0.480469"/><stop stop-opacity="1" stop-color="rgb(43.154907%, 25.498962%, 64.299011%)" offset="0.484375"/><stop stop-opacity="1" stop-color="rgb(43.527222%, 25.498962%, 64.299011%)" offset="0.488281"/><stop stop-opacity="1" stop-color="rgb(43.899536%, 25.498962%, 64.299011%)" offset="0.492188"/><stop stop-opacity="1" stop-color="rgb(44.108582%, 25.489807%, 64.299011%)" offset="0.496094"/><stop stop-opacity="1" stop-color="rgb(44.317627%, 25.480652%, 64.299011%)" offset="0.5"/><stop stop-opacity="1" stop-color="rgb(44.508362%, 25.289917%, 64.299011%)" offset="0.507812"/><stop stop-opacity="1" stop-color="rgb(45.088196%, 25.099182%, 64.299011%)" offset="0.511719"/><stop stop-opacity="1" stop-color="rgb(45.478821%, 25.099182%, 64.299011%)" offset="0.515625"/><stop stop-opacity="1" stop-color="rgb(45.689392%, 25.099182%, 64.299011%)" offset="0.519531"/><stop stop-opacity="1" stop-color="rgb(45.899963%, 25.099182%, 64.299011%)" offset="0.523437"/><stop stop-opacity="1" stop-color="rgb(46.11969%, 25.099182%, 64.299011%)" offset="0.527344"/><stop stop-opacity="1" stop-color="rgb(46.340942%, 25.099182%, 64.299011%)" offset="0.53125"/><stop stop-opacity="1" stop-color="rgb(46.531677%, 25.099182%, 64.299011%)" offset="0.539062"/><stop stop-opacity="1" stop-color="rgb(47.111511%, 25.099182%, 64.299011%)" offset="0.542969"/><stop stop-opacity="1" stop-color="rgb(47.502136%, 25.099182%, 64.299011%)" offset="0.546875"/><stop stop-opacity="1" stop-color="rgb(47.842407%, 24.905396%, 64.299011%)" offset="0.550781"/><stop stop-opacity="1" stop-color="rgb(48.184204%, 24.713135%, 64.299011%)" offset="0.554688"/><stop stop-opacity="1" stop-color="rgb(48.374939%, 24.705505%, 64.115906%)" offset="0.5625"/><stop stop-opacity="1" stop-color="rgb(48.806763%, 24.699402%, 63.916016%)" offset="0.566406"/><stop stop-opacity="1" stop-color="rgb(49.047852%, 24.699402%, 63.899231%)" offset="0.570312"/><stop stop-opacity="1" stop-color="rgb(49.237061%, 24.699402%, 63.899231%)" offset="0.578125"/><stop stop-opacity="1" stop-color="rgb(49.81842%, 24.699402%, 63.899231%)" offset="0.582031"/><stop stop-opacity="1" stop-color="rgb(50.209045%, 24.699402%, 63.899231%)" offset="0.585938"/><stop stop-opacity="1" stop-color="rgb(50.404358%, 24.699402%, 63.899231%)" offset="0.59375"/><stop stop-opacity="1" stop-color="rgb(50.985718%, 24.699402%, 63.899231%)" offset="0.597656"/><stop stop-opacity="1" stop-color="rgb(51.371765%, 24.699402%, 63.899231%)" offset="0.601563"/><stop stop-opacity="1" stop-color="rgb(51.585388%, 24.499512%, 63.899231%)" offset="0.605469"/><stop stop-opacity="1" stop-color="rgb(51.799011%, 24.299622%, 63.899231%)" offset="0.609375"/><stop stop-opacity="1" stop-color="rgb(51.998901%, 24.316406%, 63.916016%)" offset="0.613281"/><stop stop-opacity="1" stop-color="rgb(52.198792%, 24.333191%, 63.934326%)" offset="0.617188"/><stop stop-opacity="1" stop-color="rgb(52.355957%, 24.516296%, 64.115906%)" offset="0.625"/><stop stop-opacity="1" stop-color="rgb(52.905273%, 24.501038%, 64.299011%)" offset="0.628906"/><stop stop-opacity="1" stop-color="rgb(53.295898%, 24.302673%, 64.299011%)" offset="0.632812"/><stop stop-opacity="1" stop-color="rgb(53.486633%, 24.301147%, 64.109802%)" offset="0.640625"/><stop stop-opacity="1" stop-color="rgb(54.116821%, 24.299622%, 63.909912%)" offset="0.644531"/><stop stop-opacity="1" stop-color="rgb(54.5578%, 24.299622%, 63.899231%)" offset="0.648437"/><stop stop-opacity="1" stop-color="rgb(54.928589%, 24.299622%, 63.919067%)" offset="0.652344"/><stop stop-opacity="1" stop-color="rgb(55.299377%, 24.299622%, 63.938904%)" offset="0.65625"/><stop stop-opacity="1" stop-color="rgb(55.310059%, 24.299622%, 64.118958%)" offset="0.664062"/><stop stop-opacity="1" stop-color="rgb(55.709839%, 24.299622%, 64.299011%)" offset="0.667969"/><stop stop-opacity="1" stop-color="rgb(56.098938%, 24.299622%, 64.299011%)" offset="0.671875"/><stop stop-opacity="1" stop-color="rgb(56.289673%, 24.299622%, 64.299011%)" offset="0.679688"/><stop stop-opacity="1" stop-color="rgb(56.689453%, 24.299622%, 64.299011%)" offset="0.683594"/><stop stop-opacity="1" stop-color="rgb(56.898499%, 24.299622%, 64.299011%)" offset="0.6875"/><stop stop-opacity="1" stop-color="rgb(57.270813%, 24.099731%, 64.299011%)" offset="0.691406"/><stop stop-opacity="1" stop-color="rgb(57.644653%, 23.899841%, 64.299011%)" offset="0.695312"/><stop stop-opacity="1" stop-color="rgb(57.835388%, 23.899841%, 64.299011%)" offset="0.703125"/><stop stop-opacity="1" stop-color="rgb(58.41217%, 23.899841%, 64.299011%)" offset="0.707031"/><stop stop-opacity="1" stop-color="rgb(58.799744%, 23.899841%, 64.299011%)" offset="0.710938"/><stop stop-opacity="1" stop-color="rgb(58.99353%, 23.899841%, 64.299011%)" offset="0.71875"/><stop stop-opacity="1" stop-color="rgb(59.579468%, 23.899841%, 64.299011%)" offset="0.722656"/><stop stop-opacity="1" stop-color="rgb(59.970093%, 23.899841%, 64.299011%)" offset="0.726563"/><stop stop-opacity="1" stop-color="rgb(60.409546%, 23.873901%, 64.299011%)" offset="0.730469"/><stop stop-opacity="1" stop-color="rgb(60.850525%, 23.847961%, 64.299011%)" offset="0.734375"/><stop stop-opacity="1" stop-color="rgb(61.04126%, 23.672485%, 64.299011%)" offset="0.742188"/><stop stop-opacity="1" stop-color="rgb(61.61499%, 23.498535%, 64.299011%)" offset="0.746094"/><stop stop-opacity="1" stop-color="rgb(61.999512%, 23.498535%, 64.299011%)" offset="0.75"/><stop stop-opacity="1" stop-color="rgb(62.19635%, 23.498535%, 64.299011%)" offset="0.753906"/><stop stop-opacity="1" stop-color="rgb(62.393188%, 23.498535%, 64.299011%)" offset="0.757812"/><stop stop-opacity="1" stop-color="rgb(62.545776%, 23.498535%, 64.299011%)" offset="0.765625"/><stop stop-opacity="1" stop-color="rgb(62.927246%, 23.698425%, 64.299011%)" offset="0.769531"/><stop stop-opacity="1" stop-color="rgb(63.156128%, 23.899841%, 64.299011%)" offset="0.773437"/><stop stop-opacity="1" stop-color="rgb(63.346863%, 23.698425%, 64.299011%)" offset="0.777344"/><stop stop-opacity="1" stop-color="rgb(63.537598%, 23.498535%, 64.299011%)" offset="0.78125"/><stop stop-opacity="1" stop-color="rgb(63.928223%, 23.498535%, 64.299011%)" offset="0.785156"/><stop stop-opacity="1" stop-color="rgb(64.318848%, 23.498535%, 64.299011%)" offset="0.789062"/><stop stop-opacity="1" stop-color="rgb(64.709473%, 23.498535%, 64.299011%)" offset="0.792969"/><stop stop-opacity="1" stop-color="rgb(65.100098%, 23.498535%, 64.299011%)" offset="0.796875"/><stop stop-opacity="1" stop-color="rgb(65.489197%, 23.498535%, 64.299011%)" offset="0.800781"/><stop stop-opacity="1" stop-color="rgb(65.879822%, 23.498535%, 64.299011%)" offset="0.804688"/><stop stop-opacity="1" stop-color="rgb(66.270447%, 23.680115%, 64.299011%)" offset="0.808594"/><stop stop-opacity="1" stop-color="rgb(66.661072%, 23.861694%, 64.299011%)" offset="0.8125"/><stop stop-opacity="1" stop-color="rgb(67.095947%, 23.880005%, 64.498901%)" offset="0.816406"/><stop stop-opacity="1" stop-color="rgb(67.532349%, 23.899841%, 64.698792%)" offset="0.820312"/><stop stop-opacity="1" stop-color="rgb(67.677307%, 23.899841%, 64.698792%)" offset="0.828125"/><stop stop-opacity="1" stop-color="rgb(68.214417%, 23.901367%, 64.698792%)" offset="0.832031"/><stop stop-opacity="1" stop-color="rgb(68.605042%, 23.904419%, 64.698792%)" offset="0.835938"/><stop stop-opacity="1" stop-color="rgb(68.80188%, 24.101257%, 64.698792%)" offset="0.839844"/><stop stop-opacity="1" stop-color="rgb(68.998718%, 24.299622%, 64.698792%)" offset="0.84375"/><stop stop-opacity="1" stop-color="rgb(69.38324%, 24.299622%, 64.881897%)" offset="0.847656"/><stop stop-opacity="1" stop-color="rgb(69.767761%, 24.299622%, 65.066528%)" offset="0.851563"/><stop stop-opacity="1" stop-color="rgb(70.207214%, 24.299622%, 65.081787%)" offset="0.855469"/><stop stop-opacity="1" stop-color="rgb(70.648193%, 24.299622%, 65.098572%)" offset="0.859375"/><stop stop-opacity="1" stop-color="rgb(70.838928%, 24.299622%, 65.098572%)" offset="0.867188"/><stop stop-opacity="1" stop-color="rgb(71.420288%, 24.299622%, 65.098572%)" offset="0.871094"/><stop stop-opacity="1" stop-color="rgb(71.810913%, 24.299622%, 65.098572%)" offset="0.875"/><stop stop-opacity="1" stop-color="rgb(72.151184%, 24.494934%, 65.098572%)" offset="0.878906"/><stop stop-opacity="1" stop-color="rgb(72.492981%, 24.691772%, 65.098572%)" offset="0.882812"/><stop stop-opacity="1" stop-color="rgb(72.88208%, 24.694824%, 65.098572%)" offset="0.886719"/><stop stop-opacity="1" stop-color="rgb(73.272705%, 24.699402%, 65.098572%)" offset="0.890625"/><stop stop-opacity="1" stop-color="rgb(73.712158%, 24.699402%, 65.298462%)" offset="0.894531"/><stop stop-opacity="1" stop-color="rgb(74.153137%, 24.699402%, 65.499878%)" offset="0.898437"/><stop stop-opacity="1" stop-color="rgb(74.543762%, 24.899292%, 65.499878%)" offset="0.902344"/><stop stop-opacity="1" stop-color="rgb(74.934387%, 25.099182%, 65.499878%)" offset="0.90625"/><stop stop-opacity="1" stop-color="rgb(75.125122%, 25.099182%, 65.499878%)" offset="0.914062"/><stop stop-opacity="1" stop-color="rgb(75.706482%, 25.099182%, 65.499878%)" offset="0.917969"/><stop stop-opacity="1" stop-color="rgb(76.097107%, 25.099182%, 65.499878%)" offset="0.921875"/><stop stop-opacity="1" stop-color="rgb(76.298523%, 25.299072%, 65.699768%)" offset="0.925781"/><stop stop-opacity="1" stop-color="rgb(76.499939%, 25.498962%, 65.899658%)" offset="0.929688"/><stop stop-opacity="1" stop-color="rgb(76.499939%, 25.498962%, 65.899658%)" offset="0.9375"/><stop stop-opacity="1" stop-color="rgb(76.499939%, 25.498962%, 65.899658%)" offset="1"/></linearGradient></defs><g clip-path="url(#daf164fdea)"><g clip-path="url(#e587ea2547)"><g clip-path="url(#ca729851f3)"><g clip-path="url(#0f3a4caf25)"><path fill="url(#37335b0a1d)" d="M -243.328125 300.070312 L 356.390625 899.789062 L 956.109375 300.070312 L 356.390625 -299.648438 Z M -243.328125 300.070312 " fill-rule="nonzero"/></g></g></g></g></svg>