<svg xmlns="http://www.w3.org/2000/svg" xmlns:xlink="http://www.w3.org/1999/xlink" width="950" zoomAndPan="magnify" viewBox="0 0 712.5 599.999999" height="800" preserveAspectRatio="xMidYMid meet" version="1.0"><defs><clipPath id="028c4b6fbc"><path d="M 56.390625 0.351562 L 656.390625 0.351562 L 656.390625 599.789062 L 56.390625 599.789062 Z M 56.390625 0.351562 " clip-rule="nonzero"/></clipPath><clipPath id="d4f0547280"><path d="M 511.585938 196.902344 C 511.585938 196.910156 511.585938 196.914062 511.585938 196.914062 L 521.804688 196.910156 C 521.847656 196.910156 521.886719 196.902344 521.929688 196.902344 C 521.972656 196.902344 522.011719 196.90625 522.054688 196.910156 L 532.277344 196.902344 L 532.277344 186.558594 L 511.585938 186.558594 C 500.179688 186.558594 490.898438 177.277344 490.898438 165.867188 L 490.898438 155.523438 C 490.898438 144.117188 500.179688 134.832031 511.585938 134.832031 C 511.585938 129.121094 516.21875 124.488281 521.929688 124.488281 C 527.644531 124.488281 532.277344 129.121094 532.277344 134.832031 C 543.683594 134.832031 552.964844 144.117188 552.964844 155.523438 C 552.964844 161.234375 548.332031 165.867188 542.621094 165.867188 C 536.90625 165.867188 532.277344 161.234375 532.277344 155.523438 L 511.585938 155.523438 L 511.585938 165.867188 L 532.277344 165.867188 C 543.683594 165.867188 552.964844 175.148438 552.964844 186.558594 L 552.964844 196.902344 C 552.964844 208.308594 543.683594 217.59375 532.277344 217.59375 C 532.277344 223.304688 527.644531 227.9375 521.929688 227.9375 C 516.21875 227.9375 511.585938 223.304688 511.585938 217.59375 C 500.179688 217.59375 490.898438 208.308594 490.898438 196.902344 C 490.898438 191.191406 495.527344 186.558594 501.242188 186.558594 C 506.953125 186.558594 511.585938 191.191406 511.585938 196.902344 Z M 501.242188 62.417969 C 495.527344 62.417969 490.898438 67.050781 490.898438 72.765625 C 490.898438 84.171875 500.179688 93.453125 511.585938 93.453125 C 511.585938 99.167969 516.21875 103.800781 521.929688 103.800781 C 527.644531 103.800781 532.277344 99.167969 532.277344 93.453125 C 543.683594 93.453125 552.964844 84.171875 552.964844 72.765625 L 552.964844 62.417969 C 552.964844 51.011719 543.683594 41.730469 532.277344 41.730469 L 511.585938 41.730469 L 511.585938 31.386719 L 532.277344 31.386719 C 532.277344 37.097656 536.90625 41.730469 542.621094 41.730469 C 548.332031 41.730469 552.964844 37.097656 552.964844 31.386719 C 552.964844 19.976562 543.683594 10.695312 532.277344 10.695312 C 532.277344 4.984375 527.644531 0.351562 521.929688 0.351562 C 516.21875 0.351562 511.585938 4.984375 511.585938 10.695312 C 500.179688 10.695312 490.898438 19.976562 490.898438 31.386719 L 490.898438 41.730469 C 490.898438 53.136719 500.179688 62.417969 511.585938 62.417969 L 532.277344 62.417969 L 532.277344 72.765625 L 522.054688 72.769531 C 522.015625 72.769531 521.972656 72.765625 521.929688 72.765625 C 521.886719 72.765625 521.847656 72.769531 521.804688 72.769531 L 511.585938 72.777344 C 511.585938 72.777344 511.585938 72.773438 511.585938 72.765625 C 511.585938 67.050781 506.953125 62.417969 501.242188 62.417969 Z M 635.722656 103.800781 L 615.035156 103.800781 L 615.035156 93.453125 L 635.722656 93.453125 C 635.722656 99.167969 640.355469 103.800781 646.070312 103.800781 C 651.78125 103.800781 656.414062 99.167969 656.414062 93.453125 C 656.414062 82.046875 647.132812 72.765625 635.722656 72.765625 C 635.722656 67.050781 631.09375 62.417969 625.378906 62.417969 C 619.667969 62.417969 615.035156 67.050781 615.035156 72.765625 C 603.625 72.765625 594.34375 82.046875 594.34375 93.453125 L 594.34375 103.800781 C 594.34375 115.207031 603.625 124.488281 615.035156 124.488281 L 635.722656 124.488281 L 635.722656 134.832031 L 625.503906 134.839844 C 625.460938 134.839844 625.421875 134.832031 625.378906 134.832031 C 625.335938 134.832031 625.296875 134.839844 625.253906 134.839844 L 615.035156 134.847656 C 615.035156 134.847656 615.035156 134.84375 615.035156 134.832031 C 615.035156 129.121094 610.402344 124.488281 604.691406 124.488281 C 598.976562 124.488281 594.34375 129.121094 594.34375 134.832031 C 594.34375 146.242188 603.625 155.523438 615.035156 155.523438 C 615.035156 161.234375 619.667969 165.867188 625.378906 165.867188 C 631.09375 165.867188 635.722656 161.234375 635.722656 155.523438 C 647.132812 155.523438 656.414062 146.242188 656.414062 134.832031 L 656.414062 124.488281 C 656.414062 113.082031 647.132812 103.800781 635.722656 103.800781 Z M 552.964844 414.144531 L 532.277344 414.144531 L 532.277344 434.832031 L 552.964844 434.832031 Z M 552.964844 455.523438 L 532.277344 455.523438 L 532.277344 476.214844 L 552.964844 476.214844 Z M 408.136719 250.039062 C 396.152344 253.878906 387.449219 265.125 387.449219 278.367188 L 387.449219 300.351562 C 387.449219 294.636719 382.816406 290.007812 377.101562 290.007812 L 201.242188 290.007812 C 195.527344 290.007812 190.898438 294.636719 190.898438 300.351562 C 190.898438 306.0625 195.527344 310.695312 201.242188 310.695312 L 377.101562 310.695312 C 382.816406 310.695312 387.449219 306.0625 387.449219 300.351562 L 387.449219 362.417969 C 387.449219 356.707031 382.816406 352.074219 377.101562 352.074219 L 201.242188 352.074219 C 195.527344 352.074219 190.898438 356.707031 190.898438 362.417969 C 190.898438 368.132812 195.527344 372.765625 201.242188 372.765625 L 377.101562 372.765625 C 382.816406 372.765625 387.449219 368.132812 387.449219 362.417969 L 387.449219 424.488281 C 387.449219 418.777344 382.816406 414.144531 377.101562 414.144531 L 201.242188 414.144531 C 195.527344 414.144531 190.898438 418.777344 190.898438 424.488281 C 190.898438 430.203125 195.527344 434.832031 201.242188 434.832031 L 377.101562 434.832031 C 382.816406 434.832031 387.449219 430.203125 387.449219 424.488281 L 387.449219 486.558594 C 387.449219 480.84375 382.816406 476.214844 377.101562 476.214844 L 201.242188 476.214844 C 195.527344 476.214844 190.898438 480.84375 190.898438 486.558594 C 190.898438 492.269531 195.527344 496.902344 201.242188 496.902344 L 377.101562 496.902344 C 382.816406 496.902344 387.449219 492.269531 387.449219 486.558594 L 387.449219 558.972656 L 97.792969 558.972656 L 97.792969 114.144531 L 149.515625 114.144531 C 149.515625 119.855469 154.148438 124.488281 159.863281 124.488281 L 346.070312 124.488281 C 351.78125 124.488281 356.414062 119.855469 356.414062 114.144531 L 408.136719 114.144531 Z M 177.523438 448.207031 C 173.480469 444.167969 166.933594 444.167969 162.890625 448.207031 L 139.171875 471.929688 L 136.144531 468.898438 C 132.101562 464.859375 125.554688 464.859375 121.511719 468.898438 C 117.472656 472.9375 117.472656 479.488281 121.511719 483.527344 L 131.855469 493.871094 C 133.878906 495.894531 136.523438 496.902344 139.171875 496.902344 C 141.820312 496.902344 144.46875 495.894531 146.488281 493.871094 L 177.523438 462.839844 C 181.5625 458.796875 181.5625 452.25 177.523438 448.207031 Z M 177.523438 386.140625 C 173.480469 382.101562 166.933594 382.101562 162.890625 386.140625 L 139.171875 409.859375 L 136.144531 406.828125 C 132.101562 402.789062 125.554688 402.789062 121.511719 406.828125 C 117.472656 410.871094 117.472656 417.417969 121.511719 421.460938 L 131.855469 431.804688 C 133.878906 433.824219 136.523438 434.832031 139.171875 434.832031 C 141.820312 434.832031 144.46875 433.824219 146.488281 431.804688 L 177.523438 400.769531 C 181.5625 396.726562 181.5625 390.179688 177.523438 386.140625 Z M 177.523438 324.070312 C 173.480469 320.03125 166.933594 320.03125 162.890625 324.070312 L 139.171875 347.789062 L 136.144531 344.761719 C 132.101562 340.722656 125.554688 340.722656 121.511719 344.761719 C 117.472656 348.800781 117.472656 355.347656 121.511719 359.390625 L 131.855469 369.734375 C 133.878906 371.753906 136.523438 372.765625 139.171875 372.765625 C 141.820312 372.765625 144.46875 371.753906 146.488281 369.734375 L 177.523438 338.699219 C 181.5625 334.660156 181.5625 328.109375 177.523438 324.070312 Z M 177.523438 262 C 173.480469 257.964844 166.933594 257.964844 162.890625 262 L 139.171875 285.722656 L 136.144531 282.691406 C 132.101562 278.652344 125.554688 278.652344 121.511719 282.691406 C 117.472656 286.730469 117.472656 293.28125 121.511719 297.320312 L 131.855469 307.664062 C 133.878906 309.6875 136.523438 310.695312 139.171875 310.695312 C 141.820312 310.695312 144.46875 309.6875 146.488281 307.664062 L 177.523438 276.632812 C 181.5625 272.589844 181.5625 266.042969 177.523438 262 Z M 263.308594 196.902344 L 263.308594 176.214844 C 269.015625 176.214844 273.65625 180.855469 273.65625 186.558594 C 273.65625 192.269531 278.285156 196.902344 284 196.902344 C 289.714844 196.902344 294.34375 192.269531 294.34375 186.558594 C 294.34375 169.445312 280.421875 155.523438 263.308594 155.523438 C 263.308594 149.808594 258.679688 145.179688 252.964844 145.179688 C 247.253906 145.179688 242.621094 149.808594 242.621094 155.523438 C 225.507812 155.523438 211.585938 169.445312 211.585938 186.558594 C 211.585938 203.667969 225.507812 217.59375 242.621094 217.59375 L 242.621094 238.28125 C 236.917969 238.28125 232.277344 233.640625 232.277344 227.9375 C 232.277344 222.222656 227.644531 217.59375 221.929688 217.59375 C 216.21875 217.59375 211.585938 222.222656 211.585938 227.9375 C 211.585938 245.046875 225.507812 258.972656 242.621094 258.972656 C 242.621094 264.683594 247.253906 269.316406 252.964844 269.316406 C 258.679688 269.316406 263.308594 264.683594 263.308594 258.972656 C 280.421875 258.972656 294.34375 245.046875 294.34375 227.9375 C 294.34375 210.824219 280.421875 196.902344 263.308594 196.902344 Z M 449.515625 517.59375 L 470.207031 517.59375 L 470.207031 496.902344 L 449.515625 496.902344 Z M 552.964844 496.902344 L 532.277344 496.902344 L 532.277344 517.59375 L 552.964844 517.59375 Z M 449.515625 558.972656 L 470.207031 558.972656 L 470.207031 538.28125 L 449.515625 538.28125 Z M 449.515625 476.214844 L 470.207031 476.214844 L 470.207031 455.523438 L 449.515625 455.523438 Z M 428.828125 103.800781 L 428.828125 248.625 L 449.515625 248.625 L 449.515625 88.28125 C 449.515625 79.726562 442.554688 72.765625 434 72.765625 L 356.414062 72.765625 L 356.414062 93.453125 L 418.484375 93.453125 C 424.195312 93.453125 428.828125 98.085938 428.828125 103.800781 Z M 335.722656 62.417969 L 294.34375 62.417969 C 288.632812 62.417969 284 57.789062 284 52.074219 C 284 34.964844 270.078125 21.039062 252.964844 21.039062 C 235.855469 21.039062 221.929688 34.964844 221.929688 52.074219 C 221.929688 57.789062 217.300781 62.417969 211.585938 62.417969 L 170.207031 62.417969 L 170.207031 103.800781 L 335.722656 103.800781 Z M 232.277344 186.558594 C 232.277344 192.261719 236.917969 196.902344 242.621094 196.902344 L 242.621094 176.214844 C 236.914062 176.214844 232.277344 180.855469 232.277344 186.558594 Z M 387.449219 579.660156 L 87.449219 579.660156 C 81.734375 579.660156 77.101562 575.03125 77.101562 569.316406 L 77.101562 103.800781 C 77.101562 98.085938 81.734375 93.453125 87.449219 93.453125 L 149.515625 93.453125 L 149.515625 72.765625 L 71.929688 72.765625 C 63.375 72.765625 56.414062 79.726562 56.414062 88.28125 L 56.414062 584.832031 C 56.414062 593.390625 63.375 600.351562 71.929688 600.351562 L 388.859375 600.351562 C 387.945312 597.496094 387.445312 594.453125 387.445312 591.300781 L 387.445312 579.660156 Z M 263.308594 238.28125 C 269.015625 238.28125 273.65625 233.640625 273.65625 227.9375 C 273.65625 222.234375 269.015625 217.59375 263.308594 217.59375 Z M 573.65625 476.214844 L 594.34375 476.214844 L 594.34375 455.523438 L 573.65625 455.523438 Z M 573.65625 517.59375 L 594.34375 517.59375 L 594.34375 496.902344 L 573.65625 496.902344 Z M 449.515625 434.832031 L 470.207031 434.832031 L 470.207031 414.144531 L 449.515625 414.144531 Z M 532.277344 538.28125 L 532.277344 558.972656 L 594.34375 558.972656 L 594.34375 538.28125 Z M 635.722656 278.367188 L 635.722656 591.300781 C 635.722656 596.289062 631.664062 600.351562 626.671875 600.351562 L 417.191406 600.351562 C 412.199219 600.351562 408.136719 596.289062 408.136719 591.300781 L 408.136719 278.367188 C 408.136719 273.378906 412.199219 269.316406 417.191406 269.316406 L 626.671875 269.316406 C 631.664062 269.316406 635.722656 273.378906 635.722656 278.367188 Z M 615.035156 403.800781 C 615.035156 398.085938 610.402344 393.453125 604.691406 393.453125 L 439.171875 393.453125 C 433.460938 393.453125 428.828125 398.085938 428.828125 403.800781 L 428.828125 569.316406 C 428.828125 575.03125 433.460938 579.660156 439.171875 579.660156 L 604.691406 579.660156 C 610.402344 579.660156 615.035156 575.03125 615.035156 569.316406 Z M 615.035156 300.351562 C 615.035156 294.636719 610.402344 290.007812 604.691406 290.007812 L 439.171875 290.007812 C 433.460938 290.007812 428.828125 294.636719 428.828125 300.351562 L 428.828125 362.417969 C 428.828125 368.132812 433.460938 372.765625 439.171875 372.765625 L 604.691406 372.765625 C 610.402344 372.765625 615.035156 368.132812 615.035156 362.417969 Z M 449.515625 352.074219 L 594.34375 352.074219 L 594.34375 310.695312 L 449.515625 310.695312 Z M 573.65625 434.832031 L 594.34375 434.832031 L 594.34375 414.144531 L 573.65625 414.144531 Z M 490.898438 434.832031 L 511.585938 434.832031 L 511.585938 414.144531 L 490.898438 414.144531 Z M 490.898438 517.59375 L 511.585938 517.59375 L 511.585938 496.902344 L 490.898438 496.902344 Z M 490.898438 558.972656 L 511.585938 558.972656 L 511.585938 538.28125 L 490.898438 538.28125 Z M 490.898438 476.214844 L 511.585938 476.214844 L 511.585938 455.523438 L 490.898438 455.523438 Z M 490.898438 476.214844 " clip-rule="nonzero"/></clipPath><linearGradient x1="42.967499" gradientTransform="matrix(1.293103, 0, 0, 1.293103, 15.011244, -20.338721)" y1="490.515485" x2="506.742019" gradientUnits="userSpaceOnUse" y2="26.742046" id="401b76c290"><stop stop-opacity="1" stop-color="rgb(0%, 94.099426%, 100%)" offset="0"/><stop stop-opacity="1" stop-color="rgb(0.0579834%, 94.029236%, 100%)" offset="0.0078125"/><stop stop-opacity="1" stop-color="rgb(0.785828%, 93.173218%, 100%)" offset="0.0117188"/><stop stop-opacity="1" stop-color="rgb(1.454163%, 92.38739%, 100%)" offset="0.015625"/><stop stop-opacity="1" stop-color="rgb(2.122498%, 91.601562%, 100%)" offset="0.0195312"/><stop stop-opacity="1" stop-color="rgb(2.790833%, 90.815735%, 100%)" offset="0.0234375"/><stop stop-opacity="1" stop-color="rgb(3.459167%, 90.029907%, 100%)" offset="0.0273438"/><stop stop-opacity="1" stop-color="rgb(4.127502%, 89.24408%, 100%)" offset="0.03125"/><stop stop-opacity="1" stop-color="rgb(4.795837%, 88.458252%, 100%)" offset="0.0351563"/><stop stop-opacity="1" stop-color="rgb(5.464172%, 87.672424%, 100%)" offset="0.0390625"/><stop stop-opacity="1" stop-color="rgb(6.132507%, 86.885071%, 100%)" offset="0.0429688"/><stop stop-opacity="1" stop-color="rgb(6.800842%, 86.099243%, 100%)" offset="0.046875"/><stop stop-opacity="1" stop-color="rgb(7.467651%, 85.313416%, 100%)" offset="0.0507813"/><stop stop-opacity="1" stop-color="rgb(8.135986%, 84.527588%, 100%)" offset="0.0546875"/><stop stop-opacity="1" stop-color="rgb(8.804321%, 83.74176%, 100%)" offset="0.0585938"/><stop stop-opacity="1" stop-color="rgb(9.472656%, 82.955933%, 100%)" offset="0.0625"/><stop stop-opacity="1" stop-color="rgb(10.140991%, 82.170105%, 100%)" offset="0.0664062"/><stop stop-opacity="1" stop-color="rgb(10.809326%, 81.384277%, 100%)" offset="0.0703125"/><stop stop-opacity="1" stop-color="rgb(11.477661%, 80.596924%, 100%)" offset="0.0742188"/><stop stop-opacity="1" stop-color="rgb(12.145996%, 79.811096%, 100%)" offset="0.078125"/><stop stop-opacity="1" stop-color="rgb(12.814331%, 79.025269%, 100%)" offset="0.0820312"/><stop stop-opacity="1" stop-color="rgb(13.482666%, 78.239441%, 100%)" offset="0.0859375"/><stop stop-opacity="1" stop-color="rgb(14.151001%, 77.453613%, 100%)" offset="0.0898438"/><stop stop-opacity="1" stop-color="rgb(14.819336%, 76.667786%, 100%)" offset="0.09375"/><stop stop-opacity="1" stop-color="rgb(15.486145%, 75.881958%, 100%)" offset="0.0976562"/><stop stop-opacity="1" stop-color="rgb(16.15448%, 75.09613%, 100%)" offset="0.101562"/><stop stop-opacity="1" stop-color="rgb(16.822815%, 74.310303%, 100%)" offset="0.105469"/><stop stop-opacity="1" stop-color="rgb(17.49115%, 73.524475%, 100%)" offset="0.109375"/><stop stop-opacity="1" stop-color="rgb(18.159485%, 72.737122%, 100%)" offset="0.113281"/><stop stop-opacity="1" stop-color="rgb(18.82782%, 71.951294%, 100%)" offset="0.117188"/><stop stop-opacity="1" stop-color="rgb(19.496155%, 71.165466%, 100%)" offset="0.121094"/><stop stop-opacity="1" stop-color="rgb(20.16449%, 70.379639%, 100%)" offset="0.125"/><stop stop-opacity="1" stop-color="rgb(20.832825%, 69.593811%, 100%)" offset="0.128906"/><stop stop-opacity="1" stop-color="rgb(21.50116%, 68.807983%, 100%)" offset="0.132812"/><stop stop-opacity="1" stop-color="rgb(22.169495%, 68.022156%, 100%)" offset="0.136719"/><stop stop-opacity="1" stop-color="rgb(22.83783%, 67.236328%, 100%)" offset="0.140625"/><stop stop-opacity="1" stop-color="rgb(23.506165%, 66.4505%, 100%)" offset="0.144531"/><stop stop-opacity="1" stop-color="rgb(24.1745%, 65.664673%, 100%)" offset="0.148438"/><stop stop-opacity="1" stop-color="rgb(24.841309%, 64.877319%, 100%)" offset="0.152344"/><stop stop-opacity="1" stop-color="rgb(25.509644%, 64.091492%, 100%)" offset="0.15625"/><stop stop-opacity="1" stop-color="rgb(26.177979%, 63.305664%, 100%)" offset="0.160156"/><stop stop-opacity="1" stop-color="rgb(26.846313%, 62.519836%, 100%)" offset="0.164062"/><stop stop-opacity="1" stop-color="rgb(27.514648%, 61.734009%, 100%)" offset="0.167969"/><stop stop-opacity="1" stop-color="rgb(28.182983%, 60.948181%, 100%)" offset="0.171875"/><stop stop-opacity="1" stop-color="rgb(28.851318%, 60.162354%, 100%)" offset="0.175781"/><stop stop-opacity="1" stop-color="rgb(29.519653%, 59.376526%, 100%)" offset="0.179688"/><stop stop-opacity="1" stop-color="rgb(30.187988%, 58.589172%, 100%)" offset="0.183594"/><stop stop-opacity="1" stop-color="rgb(30.856323%, 57.803345%, 100%)" offset="0.1875"/><stop stop-opacity="1" stop-color="rgb(31.524658%, 57.017517%, 100%)" offset="0.191406"/><stop stop-opacity="1" stop-color="rgb(32.192993%, 56.231689%, 100%)" offset="0.195312"/><stop stop-opacity="1" stop-color="rgb(32.859802%, 55.445862%, 100%)" offset="0.199219"/><stop stop-opacity="1" stop-color="rgb(33.528137%, 54.660034%, 100%)" offset="0.203125"/><stop stop-opacity="1" stop-color="rgb(34.196472%, 53.874207%, 100%)" offset="0.207031"/><stop stop-opacity="1" stop-color="rgb(34.864807%, 53.088379%, 100%)" offset="0.210938"/><stop stop-opacity="1" stop-color="rgb(35.533142%, 52.302551%, 100%)" offset="0.214844"/><stop stop-opacity="1" stop-color="rgb(36.201477%, 51.516724%, 100%)" offset="0.21875"/><stop stop-opacity="1" stop-color="rgb(36.869812%, 50.72937%, 100%)" offset="0.222656"/><stop stop-opacity="1" stop-color="rgb(37.538147%, 49.943542%, 100%)" offset="0.226563"/><stop stop-opacity="1" stop-color="rgb(38.206482%, 49.157715%, 100%)" offset="0.230469"/><stop stop-opacity="1" stop-color="rgb(38.874817%, 48.371887%, 100%)" offset="0.234375"/><stop stop-opacity="1" stop-color="rgb(39.543152%, 47.58606%, 100%)" offset="0.238281"/><stop stop-opacity="1" stop-color="rgb(40.211487%, 46.800232%, 100%)" offset="0.242188"/><stop stop-opacity="1" stop-color="rgb(40.879822%, 46.014404%, 100%)" offset="0.246094"/><stop stop-opacity="1" stop-color="rgb(41.548157%, 45.228577%, 100%)" offset="0.25"/><stop stop-opacity="1" stop-color="rgb(42.214966%, 44.442749%, 100%)" offset="0.253906"/><stop stop-opacity="1" stop-color="rgb(42.883301%, 43.656921%, 100%)" offset="0.257813"/><stop stop-opacity="1" stop-color="rgb(43.551636%, 42.869568%, 100%)" offset="0.261719"/><stop stop-opacity="1" stop-color="rgb(44.219971%, 42.08374%, 100%)" offset="0.265625"/><stop stop-opacity="1" stop-color="rgb(44.888306%, 41.297913%, 100%)" offset="0.269531"/><stop stop-opacity="1" stop-color="rgb(45.556641%, 40.512085%, 100%)" offset="0.273438"/><stop stop-opacity="1" stop-color="rgb(46.224976%, 39.726257%, 100%)" offset="0.277344"/><stop stop-opacity="1" stop-color="rgb(46.893311%, 38.94043%, 100%)" offset="0.28125"/><stop stop-opacity="1" stop-color="rgb(47.561646%, 38.154602%, 100%)" offset="0.285156"/><stop stop-opacity="1" stop-color="rgb(48.22998%, 37.368774%, 100%)" offset="0.289062"/><stop stop-opacity="1" stop-color="rgb(48.898315%, 36.581421%, 100%)" offset="0.292969"/><stop stop-opacity="1" stop-color="rgb(49.56665%, 35.795593%, 100%)" offset="0.296875"/><stop stop-opacity="1" stop-color="rgb(50.233459%, 35.009766%, 100%)" offset="0.300781"/><stop stop-opacity="1" stop-color="rgb(50.901794%, 34.223938%, 100%)" offset="0.304688"/><stop stop-opacity="1" stop-color="rgb(51.570129%, 33.43811%, 100%)" offset="0.308594"/><stop stop-opacity="1" stop-color="rgb(52.238464%, 32.652283%, 100%)" offset="0.3125"/><stop stop-opacity="1" stop-color="rgb(52.906799%, 31.866455%, 100%)" offset="0.316406"/><stop stop-opacity="1" stop-color="rgb(53.575134%, 31.080627%, 100%)" offset="0.320313"/><stop stop-opacity="1" stop-color="rgb(54.243469%, 30.2948%, 100%)" offset="0.324219"/><stop stop-opacity="1" stop-color="rgb(54.911804%, 29.508972%, 100%)" offset="0.328125"/><stop stop-opacity="1" stop-color="rgb(55.580139%, 28.721619%, 100%)" offset="0.332031"/><stop stop-opacity="1" stop-color="rgb(56.248474%, 27.935791%, 100%)" offset="0.335938"/><stop stop-opacity="1" stop-color="rgb(56.916809%, 27.149963%, 100%)" offset="0.339844"/><stop stop-opacity="1" stop-color="rgb(57.585144%, 26.364136%, 100%)" offset="0.34375"/><stop stop-opacity="1" stop-color="rgb(58.253479%, 25.578308%, 100%)" offset="0.347656"/><stop stop-opacity="1" stop-color="rgb(58.921814%, 24.79248%, 100%)" offset="0.351563"/><stop stop-opacity="1" stop-color="rgb(59.588623%, 24.006653%, 100%)" offset="0.355469"/><stop stop-opacity="1" stop-color="rgb(60.256958%, 23.220825%, 100%)" offset="0.359375"/><stop stop-opacity="1" stop-color="rgb(60.925293%, 22.434998%, 100%)" offset="0.363281"/><stop stop-opacity="1" stop-color="rgb(61.593628%, 21.64917%, 100%)" offset="0.367188"/><stop stop-opacity="1" stop-color="rgb(62.261963%, 20.861816%, 100%)" offset="0.371094"/><stop stop-opacity="1" stop-color="rgb(62.930298%, 20.075989%, 100%)" offset="0.375"/><stop stop-opacity="1" stop-color="rgb(63.598633%, 19.290161%, 100%)" offset="0.378906"/><stop stop-opacity="1" stop-color="rgb(64.266968%, 18.504333%, 100%)" offset="0.382813"/><stop stop-opacity="1" stop-color="rgb(64.935303%, 17.718506%, 100%)" offset="0.386719"/><stop stop-opacity="1" stop-color="rgb(65.603638%, 16.932678%, 100%)" offset="0.390625"/><stop stop-opacity="1" stop-color="rgb(66.271973%, 16.146851%, 100%)" offset="0.394531"/><stop stop-opacity="1" stop-color="rgb(66.940308%, 15.361023%, 100%)" offset="0.398438"/><stop stop-opacity="1" stop-color="rgb(67.607117%, 14.573669%, 100%)" offset="0.402344"/><stop stop-opacity="1" stop-color="rgb(68.275452%, 13.787842%, 100%)" offset="0.40625"/><stop stop-opacity="1" stop-color="rgb(68.943787%, 13.002014%, 100%)" offset="0.410156"/><stop stop-opacity="1" stop-color="rgb(69.612122%, 12.216187%, 100%)" offset="0.414063"/><stop stop-opacity="1" stop-color="rgb(70.280457%, 11.430359%, 100%)" offset="0.417969"/><stop stop-opacity="1" stop-color="rgb(70.948792%, 10.644531%, 100%)" offset="0.421875"/><stop stop-opacity="1" stop-color="rgb(71.617126%, 9.858704%, 100%)" offset="0.425781"/><stop stop-opacity="1" stop-color="rgb(72.285461%, 9.072876%, 100%)" offset="0.429688"/><stop stop-opacity="1" stop-color="rgb(72.953796%, 8.287048%, 100%)" offset="0.433594"/><stop stop-opacity="1" stop-color="rgb(73.622131%, 7.501221%, 100%)" offset="0.4375"/><stop stop-opacity="1" stop-color="rgb(74.290466%, 6.713867%, 100%)" offset="0.441406"/><stop stop-opacity="1" stop-color="rgb(74.958801%, 5.92804%, 100%)" offset="0.445313"/><stop stop-opacity="1" stop-color="rgb(75.627136%, 5.142212%, 100%)" offset="0.449219"/><stop stop-opacity="1" stop-color="rgb(76.295471%, 4.356384%, 100%)" offset="0.453125"/><stop stop-opacity="1" stop-color="rgb(76.96228%, 3.570557%, 100%)" offset="0.457031"/><stop stop-opacity="1" stop-color="rgb(77.630615%, 2.784729%, 100%)" offset="0.460938"/><stop stop-opacity="1" stop-color="rgb(78.29895%, 1.998901%, 100%)" offset="0.464844"/><stop stop-opacity="1" stop-color="rgb(78.967285%, 1.213074%, 100%)" offset="0.46875"/><stop stop-opacity="1" stop-color="rgb(79.519653%, 0.671387%, 99.943542%)" offset="0.472656"/><stop stop-opacity="1" stop-color="rgb(80.073547%, 0.1297%, 99.888611%)" offset="0.476563"/><stop stop-opacity="1" stop-color="rgb(80.238342%, 0.416565%, 99.645996%)" offset="0.480469"/><stop stop-opacity="1" stop-color="rgb(80.403137%, 0.70343%, 99.404907%)" offset="0.484375"/><stop stop-opacity="1" stop-color="rgb(80.566406%, 0.990295%, 99.162292%)" offset="0.488281"/><stop stop-opacity="1" stop-color="rgb(80.731201%, 1.277161%, 98.919678%)" offset="0.492187"/><stop stop-opacity="1" stop-color="rgb(80.89447%, 1.564026%, 98.677063%)" offset="0.496094"/><stop stop-opacity="1" stop-color="rgb(81.059265%, 1.850891%, 98.435974%)" offset="0.5"/><stop stop-opacity="1" stop-color="rgb(81.22406%, 2.137756%, 98.193359%)" offset="0.503906"/><stop stop-opacity="1" stop-color="rgb(81.388855%, 2.424622%, 97.952271%)" offset="0.507812"/><stop stop-opacity="1" stop-color="rgb(81.552124%, 2.711487%, 97.709656%)" offset="0.511719"/><stop stop-opacity="1" stop-color="rgb(81.716919%, 2.998352%, 97.467041%)" offset="0.515625"/><stop stop-opacity="1" stop-color="rgb(81.880188%, 3.283691%, 97.224426%)" offset="0.519531"/><stop stop-opacity="1" stop-color="rgb(82.044983%, 3.570557%, 96.983337%)" offset="0.523437"/><stop stop-opacity="1" stop-color="rgb(82.209778%, 3.857422%, 96.740723%)" offset="0.527344"/><stop stop-opacity="1" stop-color="rgb(82.374573%, 4.144287%, 96.499634%)" offset="0.53125"/><stop stop-opacity="1" stop-color="rgb(82.537842%, 4.431152%, 96.257019%)" offset="0.535156"/><stop stop-opacity="1" stop-color="rgb(82.702637%, 4.718018%, 96.014404%)" offset="0.539062"/><stop stop-opacity="1" stop-color="rgb(82.865906%, 5.004883%, 95.77179%)" offset="0.542969"/><stop stop-opacity="1" stop-color="rgb(83.030701%, 5.291748%, 95.530701%)" offset="0.546875"/><stop stop-opacity="1" stop-color="rgb(83.19397%, 5.578613%, 95.288086%)" offset="0.550781"/><stop stop-opacity="1" stop-color="rgb(83.358765%, 5.865479%, 95.046997%)" offset="0.554688"/><stop stop-opacity="1" stop-color="rgb(83.52356%, 6.152344%, 94.804382%)" offset="0.558594"/><stop stop-opacity="1" stop-color="rgb(83.688354%, 6.439209%, 94.561768%)" offset="0.5625"/><stop stop-opacity="1" stop-color="rgb(83.851624%, 6.724548%, 94.319153%)" offset="0.566406"/><stop stop-opacity="1" stop-color="rgb(84.016418%, 7.011414%, 94.078064%)" offset="0.570312"/><stop stop-opacity="1" stop-color="rgb(84.179688%, 7.298279%, 93.835449%)" offset="0.574219"/><stop stop-opacity="1" stop-color="rgb(84.344482%, 7.585144%, 93.592834%)" offset="0.578125"/><stop stop-opacity="1" stop-color="rgb(84.509277%, 7.872009%, 93.35022%)" offset="0.582031"/><stop stop-opacity="1" stop-color="rgb(84.674072%, 8.158875%, 93.109131%)" offset="0.585938"/><stop stop-opacity="1" stop-color="rgb(84.837341%, 8.44574%, 92.866516%)" offset="0.589844"/><stop stop-opacity="1" stop-color="rgb(85.002136%, 8.732605%, 92.625427%)" offset="0.59375"/><stop stop-opacity="1" stop-color="rgb(85.165405%, 9.01947%, 92.382812%)" offset="0.597656"/><stop stop-opacity="1" stop-color="rgb(85.3302%, 9.306335%, 92.140198%)" offset="0.601562"/><stop stop-opacity="1" stop-color="rgb(85.494995%, 9.593201%, 91.897583%)" offset="0.605469"/><stop stop-opacity="1" stop-color="rgb(85.65979%, 9.880066%, 91.656494%)" offset="0.609375"/><stop stop-opacity="1" stop-color="rgb(85.823059%, 10.166931%, 91.413879%)" offset="0.613281"/><stop stop-opacity="1" stop-color="rgb(85.987854%, 10.453796%, 91.172791%)" offset="0.617187"/><stop stop-opacity="1" stop-color="rgb(86.151123%, 10.739136%, 90.930176%)" offset="0.621094"/><stop stop-opacity="1" stop-color="rgb(86.315918%, 11.026001%, 90.687561%)" offset="0.625"/><stop stop-opacity="1" stop-color="rgb(86.480713%, 11.312866%, 90.444946%)" offset="0.628906"/><stop stop-opacity="1" stop-color="rgb(86.645508%, 11.599731%, 90.203857%)" offset="0.632812"/><stop stop-opacity="1" stop-color="rgb(86.808777%, 11.886597%, 89.961243%)" offset="0.636719"/><stop stop-opacity="1" stop-color="rgb(86.973572%, 12.173462%, 89.720154%)" offset="0.640625"/><stop stop-opacity="1" stop-color="rgb(87.136841%, 12.460327%, 89.477539%)" offset="0.644531"/><stop stop-opacity="1" stop-color="rgb(87.301636%, 12.747192%, 89.234924%)" offset="0.648438"/><stop stop-opacity="1" stop-color="rgb(87.464905%, 13.034058%, 88.99231%)" offset="0.652344"/><stop stop-opacity="1" stop-color="rgb(87.6297%, 13.320923%, 88.751221%)" offset="0.65625"/><stop stop-opacity="1" stop-color="rgb(87.794495%, 13.607788%, 88.508606%)" offset="0.660156"/><stop stop-opacity="1" stop-color="rgb(87.95929%, 13.894653%, 88.265991%)" offset="0.664062"/><stop stop-opacity="1" stop-color="rgb(88.122559%, 14.181519%, 88.023376%)" offset="0.667969"/><stop stop-opacity="1" stop-color="rgb(88.287354%, 14.468384%, 87.782288%)" offset="0.671875"/><stop stop-opacity="1" stop-color="rgb(88.450623%, 14.753723%, 87.539673%)" offset="0.675781"/><stop stop-opacity="1" stop-color="rgb(88.615417%, 15.040588%, 87.298584%)" offset="0.679688"/><stop stop-opacity="1" stop-color="rgb(88.780212%, 15.327454%, 87.055969%)" offset="0.683594"/><stop stop-opacity="1" stop-color="rgb(88.945007%, 15.614319%, 86.813354%)" offset="0.6875"/><stop stop-opacity="1" stop-color="rgb(89.108276%, 15.901184%, 86.57074%)" offset="0.691406"/><stop stop-opacity="1" stop-color="rgb(89.273071%, 16.188049%, 86.329651%)" offset="0.695313"/><stop stop-opacity="1" stop-color="rgb(89.43634%, 16.474915%, 86.087036%)" offset="0.699219"/><stop stop-opacity="1" stop-color="rgb(89.601135%, 16.76178%, 85.845947%)" offset="0.703125"/><stop stop-opacity="1" stop-color="rgb(89.76593%, 17.048645%, 85.603333%)" offset="0.707031"/><stop stop-opacity="1" stop-color="rgb(89.930725%, 17.33551%, 85.360718%)" offset="0.710937"/><stop stop-opacity="1" stop-color="rgb(90.093994%, 17.622375%, 85.118103%)" offset="0.714844"/><stop stop-opacity="1" stop-color="rgb(90.258789%, 17.909241%, 84.877014%)" offset="0.71875"/><stop stop-opacity="1" stop-color="rgb(90.422058%, 18.196106%, 84.634399%)" offset="0.722656"/><stop stop-opacity="1" stop-color="rgb(90.586853%, 18.482971%, 84.393311%)" offset="0.726562"/><stop stop-opacity="1" stop-color="rgb(90.751648%, 18.768311%, 84.150696%)" offset="0.730469"/><stop stop-opacity="1" stop-color="rgb(90.916443%, 19.055176%, 83.908081%)" offset="0.734375"/><stop stop-opacity="1" stop-color="rgb(91.079712%, 19.342041%, 83.665466%)" offset="0.738281"/><stop stop-opacity="1" stop-color="rgb(91.244507%, 19.628906%, 83.424377%)" offset="0.742188"/><stop stop-opacity="1" stop-color="rgb(91.407776%, 19.915771%, 83.181763%)" offset="0.746094"/><stop stop-opacity="1" stop-color="rgb(91.572571%, 20.202637%, 82.940674%)" offset="0.75"/><stop stop-opacity="1" stop-color="rgb(91.73584%, 20.489502%, 82.698059%)" offset="0.753906"/><stop stop-opacity="1" stop-color="rgb(91.900635%, 20.776367%, 82.455444%)" offset="0.757812"/><stop stop-opacity="1" stop-color="rgb(92.06543%, 21.063232%, 82.21283%)" offset="0.761719"/><stop stop-opacity="1" stop-color="rgb(92.230225%, 21.350098%, 81.971741%)" offset="0.765625"/><stop stop-opacity="1" stop-color="rgb(92.393494%, 21.636963%, 81.729126%)" offset="0.769531"/><stop stop-opacity="1" stop-color="rgb(92.558289%, 21.923828%, 81.486511%)" offset="0.773438"/><stop stop-opacity="1" stop-color="rgb(92.721558%, 22.210693%, 81.243896%)" offset="0.777344"/><stop stop-opacity="1" stop-color="rgb(92.886353%, 22.497559%, 81.002808%)" offset="0.78125"/><stop stop-opacity="1" stop-color="rgb(93.051147%, 22.782898%, 80.760193%)" offset="0.785156"/><stop stop-opacity="1" stop-color="rgb(93.215942%, 23.069763%, 80.519104%)" offset="0.789063"/><stop stop-opacity="1" stop-color="rgb(93.379211%, 23.356628%, 80.276489%)" offset="0.792969"/><stop stop-opacity="1" stop-color="rgb(93.544006%, 23.643494%, 80.033875%)" offset="0.796875"/><stop stop-opacity="1" stop-color="rgb(93.707275%, 23.930359%, 79.79126%)" offset="0.800781"/><stop stop-opacity="1" stop-color="rgb(93.87207%, 24.217224%, 79.550171%)" offset="0.804687"/><stop stop-opacity="1" stop-color="rgb(94.036865%, 24.504089%, 79.307556%)" offset="0.808594"/><stop stop-opacity="1" stop-color="rgb(94.20166%, 24.790955%, 79.066467%)" offset="0.8125"/><stop stop-opacity="1" stop-color="rgb(94.364929%, 25.07782%, 78.823853%)" offset="0.816406"/><stop stop-opacity="1" stop-color="rgb(94.529724%, 25.364685%, 78.581238%)" offset="0.820312"/><stop stop-opacity="1" stop-color="rgb(94.692993%, 25.65155%, 78.338623%)" offset="0.824219"/><stop stop-opacity="1" stop-color="rgb(94.857788%, 25.938416%, 78.097534%)" offset="0.828125"/><stop stop-opacity="1" stop-color="rgb(95.022583%, 26.223755%, 77.854919%)" offset="0.832031"/><stop stop-opacity="1" stop-color="rgb(95.187378%, 26.51062%, 77.613831%)" offset="0.835938"/><stop stop-opacity="1" stop-color="rgb(95.350647%, 26.797485%, 77.371216%)" offset="0.839844"/><stop stop-opacity="1" stop-color="rgb(95.515442%, 27.084351%, 77.128601%)" offset="0.84375"/><stop stop-opacity="1" stop-color="rgb(95.678711%, 27.371216%, 76.885986%)" offset="0.847656"/><stop stop-opacity="1" stop-color="rgb(95.843506%, 27.658081%, 76.644897%)" offset="0.851562"/><stop stop-opacity="1" stop-color="rgb(96.006775%, 27.944946%, 76.402283%)" offset="0.855469"/><stop stop-opacity="1" stop-color="rgb(96.17157%, 28.231812%, 76.159668%)" offset="0.859375"/><stop stop-opacity="1" stop-color="rgb(96.336365%, 28.518677%, 75.917053%)" offset="0.863281"/><stop stop-opacity="1" stop-color="rgb(96.50116%, 28.805542%, 75.675964%)" offset="0.867188"/><stop stop-opacity="1" stop-color="rgb(96.664429%, 29.092407%, 75.43335%)" offset="0.871094"/><stop stop-opacity="1" stop-color="rgb(96.829224%, 29.379272%, 75.192261%)" offset="0.875"/><stop stop-opacity="1" stop-color="rgb(96.992493%, 29.666138%, 74.949646%)" offset="0.878906"/><stop stop-opacity="1" stop-color="rgb(97.157288%, 29.953003%, 74.707031%)" offset="0.882813"/><stop stop-opacity="1" stop-color="rgb(97.227478%, 30.075073%, 74.603271%)" offset="0.890625"/><stop stop-opacity="1" stop-color="rgb(97.299194%, 30.198669%, 74.499512%)" offset="0.90625"/><stop stop-opacity="1" stop-color="rgb(97.299194%, 30.198669%, 74.499512%)" offset="0.9375"/><stop stop-opacity="1" stop-color="rgb(97.299194%, 30.198669%, 74.499512%)" offset="1"/></linearGradient></defs><g clip-path="url(#028c4b6fbc)"><g clip-path="url(#d4f0547280)"><path fill="url(#401b76c290)" d="M 56.414062 0.351562 L 56.414062 599.789062 L 656.390625 599.789062 L 656.390625 0.351562 Z M 56.414062 0.351562 " fill-rule="nonzero"/></g></g></svg>