<svg xmlns="http://www.w3.org/2000/svg" width="950" height="800" version="1.0" viewBox="0 0 712.5 600"><defs><clipPath id="a"><path d="M113.363.352h486v599.437h-486Zm0 0"/></clipPath><clipPath id="b"><path d="M523.242 578.035h-185.05c-1.169 0-2.337-.11-3.473-.312a6.78 6.78 0 0 1-5.457-7.899 6.795 6.795 0 0 1 7.898-5.453c.34.067.692.094 1.031.094h185.051c.352 0 .692-.028 1.031-.094a6.789 6.789 0 0 1 7.899 5.453 6.784 6.784 0 0 1-5.457 7.899c-1.14.203-2.309.312-3.473.312Zm-254.441 0h-11.957c-53.528 0-97.078-43.55-97.078-97.074 0-53.527 43.55-97.078 97.078-97.078h76.976c1.168 0 2.336.11 3.477.312a6.78 6.78 0 0 1 5.453 7.899c-.676 3.691-4.219 6.12-7.898 5.457a5.123 5.123 0 0 0-1.032-.098h-76.976c-46.051 0-83.508 37.457-83.508 83.508 0 46.047 37.457 83.504 83.508 83.504H268.8c.351 0 .691-.028 1.031-.094a6.789 6.789 0 0 1 7.898 5.453 6.78 6.78 0 0 1-5.457 7.899 19.694 19.694 0 0 1-3.472.312Zm256.707-24.847c-.406 0-.817-.043-1.223-.11a5.417 5.417 0 0 0-1.031-.094H338.19c-.34 0-.691.028-1.03.094-3.68.664-7.22-1.765-7.9-5.457-.679-3.691 1.766-7.219 5.458-7.898a20.068 20.068 0 0 1 3.472-.313h185.051c1.153 0 2.332.11 3.473.313a6.786 6.786 0 0 1 5.457 7.898 6.783 6.783 0 0 1-6.664 5.567Zm-254.442 0c-.406 0-.816-.043-1.222-.11a5.417 5.417 0 0 0-1.031-.094h-11.958c-39.71 0-72.023-32.3-72.023-72.011s32.313-72.024 72.023-72.024h76.98c.353 0 .692-.027 1.032-.094 3.676-.664 7.219 1.762 7.899 5.454a6.78 6.78 0 0 1-5.457 7.898 19.46 19.46 0 0 1-3.473.313h-76.98c-32.231 0-58.454 26.222-58.454 58.453 0 32.234 26.223 58.437 58.453 58.437h11.957c1.157 0 2.336.11 3.477.313a6.78 6.78 0 0 1 5.453 7.898c-.597 3.274-3.46 5.567-6.676 5.567Zm209.098-130.68h-76.976c-1.168 0-2.336-.11-3.477-.313a6.786 6.786 0 0 1-5.457-7.898 6.79 6.79 0 0 1 7.902-5.457c.336.07.692.098 1.031.098h76.977c46.047 0 83.508-37.458 83.508-83.508 0-46.047-37.461-83.504-83.508-83.504h-28.637c-.351 0-.691.027-1.03.094-3.677.68-7.22-1.762-7.9-5.454a6.78 6.78 0 0 1 5.458-7.898c1.14-.203 2.32-.313 3.488-.313h28.637c53.523 0 97.074 43.551 97.074 97.075 0 53.527-43.55 97.078-97.09 97.078Zm-79.23-24.852a6.78 6.78 0 0 1-6.664-5.562c-.68-3.692 1.765-7.219 5.457-7.899a19.795 19.795 0 0 1 3.472-.312h76.977c32.234 0 58.453-26.219 58.453-58.453 0-32.23-26.219-58.45-58.453-58.45h-28.633c-1.168 0-2.336-.109-3.488-.312a6.794 6.794 0 0 1-5.457-7.898c.664-3.692 4.222-6.122 7.898-5.457.34.066.68.093 1.031.093h28.637c39.711 0 72.024 32.317 72.024 72.024 0 39.71-32.301 72.023-72.024 72.023h-76.976c-.356 0-.696.027-1.032.098-.41.066-.816.105-1.222.105Zm-18.786-130.664h-170.27a6.787 6.787 0 0 1-6.784-6.785 6.787 6.787 0 0 1 6.785-6.785h170.285c.352 0 .691-.027 1.031-.098 3.676-.664 7.22 1.766 7.899 5.457.68 3.692-1.766 7.219-5.457 7.899-1.14.203-2.305.312-3.489.312Zm2.27-24.863c-.41 0-.816-.04-1.238-.11a5.276 5.276 0 0 0-1.032-.093H230.066a6.787 6.787 0 0 1-6.785-6.785 6.787 6.787 0 0 1 6.785-6.786h152.098c1.168 0 2.332.11 3.488.313 3.692.676 6.121 4.207 5.453 7.898a6.816 6.816 0 0 1-6.687 5.563Zm-80.914 358.07c-22.871 0-41.477-18.605-41.477-41.476 0-22.868 18.606-41.473 41.477-41.473 22.867 0 41.473 18.605 41.473 41.473 0 22.87-18.606 41.476-41.473 41.476Zm0-69.379c-15.39 0-27.906 12.516-27.906 27.903 0 15.39 12.515 27.902 27.906 27.902 15.387 0 27.902-12.512 27.902-27.902 0-15.387-12.527-27.903-27.902-27.903Zm65.008-86.152c-22.871 0-41.477-18.606-41.477-41.473 0-22.867 18.606-41.472 41.477-41.472 22.867 0 41.472 18.605 41.472 41.472 0 22.868-18.605 41.473-41.472 41.473Zm0-69.375c-15.39 0-27.907 12.512-27.907 27.902s12.516 27.903 27.907 27.903c15.39 0 27.902-12.512 27.902-27.903 0-15.39-12.512-27.902-27.902-27.902Zm48.34-86.137c-22.868 0-41.473-18.61-41.473-41.476 0-22.868 18.605-41.473 41.473-41.473 22.87 0 41.476 18.606 41.476 41.473 0 22.867-18.605 41.476-41.476 41.476Zm0-69.39c-15.391 0-27.903 12.511-27.903 27.902 0 15.387 12.512 27.902 27.903 27.902 15.39 0 27.902-12.515 27.902-27.902 0-15.39-12.524-27.902-27.902-27.902ZM557.93 600.199c-22.867 0-41.477-18.605-41.477-41.476 0-22.868 18.61-41.473 41.477-41.473 22.867 0 41.476 18.605 41.476 41.473 0 22.87-18.593 41.476-41.476 41.476Zm0-69.379c-15.39 0-27.903 12.516-27.903 27.903 0 15.39 12.512 27.902 27.903 27.902 15.39 0 27.902-12.512 27.902-27.902 0-15.387-12.512-27.903-27.902-27.903ZM211.879 266.992a6.79 6.79 0 0 1-5.578-2.93c-5.238-7.59-12.051-16.789-19.27-26.519-31.094-41.938-73.668-99.383-73.668-138.66 0-54.328 44.203-98.528 98.532-98.528 54.328 0 98.53 44.2 98.53 98.528 0 39.289-42.573 96.722-73.667 138.672-7.223 9.746-14.047 18.945-19.274 26.52a6.885 6.885 0 0 1-5.605 2.917Zm0-253.082c-46.848 0-84.957 38.11-84.957 84.961 0 34.809 41.039 90.168 70.992 130.582 4.953 6.692 9.73 13.125 13.953 19 4.235-5.875 8.996-12.308 13.95-19 29.968-40.414 71.007-95.773 71.007-130.582.016-46.851-38.11-84.96-84.945-84.96Zm0 145.692c-33.48 0-60.73-27.239-60.73-60.73 0-33.497 27.238-60.735 60.73-60.735 33.496 0 60.734 27.238 60.734 60.734 0 33.492-27.25 60.73-60.734 60.73Zm0-107.895c-26 0-47.16 21.16-47.16 47.164 0 26 21.16 47.16 47.16 47.16 26.004 0 47.164-21.16 47.164-47.16 0-26.004-21.16-47.164-47.164-47.164Zm0 0"/></clipPath><linearGradient id="c" x1="12.785" x2="412.679" y1="80.165" y2="480.059" gradientTransform="matrix(1.35716 0 0 1.35714 22.163 -34.592)" gradientUnits="userSpaceOnUse"><stop offset="0" stop-color="#009FFF"/><stop offset=".031" stop-color="#009FFF"/><stop offset=".047" stop-color="#009FFF"/><stop offset=".055" stop-color="#009FFF"/><stop offset=".059" stop-color="#019EFE"/><stop offset=".063" stop-color="#029EFD"/><stop offset=".066" stop-color="#039EFC"/><stop offset=".07" stop-color="#049DFC"/><stop offset=".074" stop-color="#059DFB"/><stop offset=".078" stop-color="#069CFA"/><stop offset=".082" stop-color="#079CF9"/><stop offset=".086" stop-color="#089BF9"/><stop offset=".09" stop-color="#099BF8"/><stop offset=".094" stop-color="#0A9AF7"/><stop offset=".098" stop-color="#0B9AF6"/><stop offset=".102" stop-color="#0C99F6"/><stop offset=".105" stop-color="#0D99F5"/><stop offset=".109" stop-color="#0E98F4"/><stop offset=".113" stop-color="#0F98F3"/><stop offset=".117" stop-color="#1097F3"/><stop offset=".121" stop-color="#1197F2"/><stop offset=".125" stop-color="#1296F1"/><stop offset=".129" stop-color="#1396F0"/><stop offset=".133" stop-color="#1495F0"/><stop offset=".137" stop-color="#1595EF"/><stop offset=".141" stop-color="#1695EE"/><stop offset=".145" stop-color="#1794ED"/><stop offset=".148" stop-color="#1894EC"/><stop offset=".152" stop-color="#1993EC"/><stop offset=".156" stop-color="#1A93EB"/><stop offset=".16" stop-color="#1B92EA"/><stop offset=".164" stop-color="#1C92E9"/><stop offset=".168" stop-color="#1D91E9"/><stop offset=".172" stop-color="#1E91E8"/><stop offset=".176" stop-color="#1F90E7"/><stop offset=".18" stop-color="#2090E6"/><stop offset=".184" stop-color="#218FE6"/><stop offset=".188" stop-color="#228FE5"/><stop offset=".191" stop-color="#238EE4"/><stop offset=".195" stop-color="#248EE3"/><stop offset=".199" stop-color="#258DE3"/><stop offset=".203" stop-color="#268DE2"/><stop offset=".207" stop-color="#278CE1"/><stop offset=".211" stop-color="#288CE0"/><stop offset=".215" stop-color="#298CE0"/><stop offset=".219" stop-color="#2A8BDF"/><stop offset=".223" stop-color="#2B8BDE"/><stop offset=".227" stop-color="#2C8ADD"/><stop offset=".23" stop-color="#2D8ADC"/><stop offset=".234" stop-color="#2E89DC"/><stop offset=".238" stop-color="#2F89DB"/><stop offset=".242" stop-color="#3088DA"/><stop offset=".246" stop-color="#3188D9"/><stop offset=".25" stop-color="#3287D9"/><stop offset=".254" stop-color="#3387D8"/><stop offset=".258" stop-color="#3486D7"/><stop offset=".262" stop-color="#3586D6"/><stop offset=".266" stop-color="#3685D6"/><stop offset=".27" stop-color="#3785D5"/><stop offset=".273" stop-color="#3884D4"/><stop offset=".277" stop-color="#3984D3"/><stop offset=".281" stop-color="#3A83D3"/><stop offset=".285" stop-color="#3B83D2"/><stop offset=".289" stop-color="#3C83D1"/><stop offset=".293" stop-color="#3D82D0"/><stop offset=".297" stop-color="#3E82D0"/><stop offset=".301" stop-color="#3F81CF"/><stop offset=".305" stop-color="#4081CE"/><stop offset=".309" stop-color="#4180CD"/><stop offset=".313" stop-color="#4280CD"/><stop offset=".316" stop-color="#437FCC"/><stop offset=".32" stop-color="#447FCB"/><stop offset=".324" stop-color="#457ECA"/><stop offset=".328" stop-color="#467EC9"/><stop offset=".332" stop-color="#477DC9"/><stop offset=".336" stop-color="#487DC8"/><stop offset=".34" stop-color="#497CC7"/><stop offset=".344" stop-color="#4A7CC6"/><stop offset=".348" stop-color="#4B7BC6"/><stop offset=".352" stop-color="#4C7BC5"/><stop offset=".355" stop-color="#4D7AC4"/><stop offset=".359" stop-color="#4E7AC3"/><stop offset=".363" stop-color="#4F7AC3"/><stop offset=".367" stop-color="#5079C2"/><stop offset=".371" stop-color="#5179C1"/><stop offset=".375" stop-color="#5278C0"/><stop offset=".379" stop-color="#5378C0"/><stop offset=".383" stop-color="#5477BF"/><stop offset=".387" stop-color="#5577BE"/><stop offset=".391" stop-color="#5676BD"/><stop offset=".395" stop-color="#5776BD"/><stop offset=".398" stop-color="#5875BC"/><stop offset=".402" stop-color="#5975BB"/><stop offset=".406" stop-color="#5A74BA"/><stop offset=".41" stop-color="#5B74BA"/><stop offset=".414" stop-color="#5C73B9"/><stop offset=".418" stop-color="#5D73B8"/><stop offset=".422" stop-color="#5E72B7"/><stop offset=".426" stop-color="#5F72B6"/><stop offset=".43" stop-color="#6071B6"/><stop offset=".434" stop-color="#6171B5"/><stop offset=".438" stop-color="#6270B4"/><stop offset=".441" stop-color="#6370B3"/><stop offset=".445" stop-color="#6470B3"/><stop offset=".449" stop-color="#656FB2"/><stop offset=".453" stop-color="#666FB1"/><stop offset=".457" stop-color="#676EB0"/><stop offset=".461" stop-color="#686EB0"/><stop offset=".465" stop-color="#696DAF"/><stop offset=".469" stop-color="#6A6DAE"/><stop offset=".473" stop-color="#6B6CAD"/><stop offset=".477" stop-color="#6C6CAD"/><stop offset=".48" stop-color="#6D6BAC"/><stop offset=".484" stop-color="#6E6BAB"/><stop offset=".488" stop-color="#6F6AAA"/><stop offset=".492" stop-color="#706AAA"/><stop offset=".496" stop-color="#7169A9"/><stop offset=".5" stop-color="#7269A8"/><stop offset=".504" stop-color="#7368A7"/><stop offset=".508" stop-color="#7468A7"/><stop offset=".512" stop-color="#7567A6"/><stop offset=".516" stop-color="#7667A5"/><stop offset=".52" stop-color="#7767A4"/><stop offset=".523" stop-color="#7866A3"/><stop offset=".527" stop-color="#7966A3"/><stop offset=".531" stop-color="#7A65A2"/><stop offset=".535" stop-color="#7B65A1"/><stop offset=".539" stop-color="#7C64A0"/><stop offset=".543" stop-color="#7D64A0"/><stop offset=".547" stop-color="#7E639F"/><stop offset=".551" stop-color="#7F639E"/><stop offset=".555" stop-color="#80629D"/><stop offset=".559" stop-color="#81629D"/><stop offset=".563" stop-color="#82619C"/><stop offset=".566" stop-color="#83619B"/><stop offset=".57" stop-color="#84609A"/><stop offset=".574" stop-color="#85609A"/><stop offset=".578" stop-color="#865F99"/><stop offset=".582" stop-color="#875F98"/><stop offset=".586" stop-color="#885E97"/><stop offset=".59" stop-color="#895E97"/><stop offset=".594" stop-color="#8A5E96"/><stop offset=".598" stop-color="#8B5D95"/><stop offset=".602" stop-color="#8C5D94"/><stop offset=".605" stop-color="#8D5C93"/><stop offset=".609" stop-color="#8E5C93"/><stop offset=".613" stop-color="#8F5B92"/><stop offset=".617" stop-color="#905B91"/><stop offset=".621" stop-color="#915A90"/><stop offset=".625" stop-color="#925A90"/><stop offset=".629" stop-color="#93598F"/><stop offset=".633" stop-color="#94598E"/><stop offset=".637" stop-color="#95588D"/><stop offset=".641" stop-color="#96588D"/><stop offset=".645" stop-color="#97578C"/><stop offset=".648" stop-color="#98578B"/><stop offset=".652" stop-color="#99568A"/><stop offset=".656" stop-color="#9A568A"/><stop offset=".66" stop-color="#9B5589"/><stop offset=".664" stop-color="#9C5588"/><stop offset=".668" stop-color="#9D5587"/><stop offset=".672" stop-color="#9E5487"/><stop offset=".676" stop-color="#9F5486"/><stop offset=".68" stop-color="#A05385"/><stop offset=".684" stop-color="#A15384"/><stop offset=".688" stop-color="#A25284"/><stop offset=".691" stop-color="#A35283"/><stop offset=".695" stop-color="#A45182"/><stop offset=".699" stop-color="#A55181"/><stop offset=".703" stop-color="#A65080"/><stop offset=".707" stop-color="#A75080"/><stop offset=".711" stop-color="#A84F7F"/><stop offset=".715" stop-color="#A94F7E"/><stop offset=".719" stop-color="#AA4E7D"/><stop offset=".723" stop-color="#AB4E7D"/><stop offset=".727" stop-color="#AC4D7C"/><stop offset=".73" stop-color="#AD4D7B"/><stop offset=".734" stop-color="#AE4C7A"/><stop offset=".738" stop-color="#AF4C7A"/><stop offset=".742" stop-color="#B04C79"/><stop offset=".746" stop-color="#B14B78"/><stop offset=".75" stop-color="#B24B77"/><stop offset=".754" stop-color="#B34A77"/><stop offset=".758" stop-color="#B44A76"/><stop offset=".762" stop-color="#B54975"/><stop offset=".766" stop-color="#B64974"/><stop offset=".77" stop-color="#B74874"/><stop offset=".773" stop-color="#B84873"/><stop offset=".777" stop-color="#B94772"/><stop offset=".781" stop-color="#BA4771"/><stop offset=".785" stop-color="#BB4671"/><stop offset=".789" stop-color="#BC4670"/><stop offset=".793" stop-color="#BD456F"/><stop offset=".797" stop-color="#BE456E"/><stop offset=".801" stop-color="#BF446D"/><stop offset=".805" stop-color="#C0446D"/><stop offset=".809" stop-color="#C1436C"/><stop offset=".813" stop-color="#C2436B"/><stop offset=".816" stop-color="#C3436A"/><stop offset=".82" stop-color="#C4426A"/><stop offset=".824" stop-color="#C54269"/><stop offset=".828" stop-color="#C64168"/><stop offset=".832" stop-color="#C74167"/><stop offset=".836" stop-color="#C84067"/><stop offset=".84" stop-color="#C94066"/><stop offset=".844" stop-color="#CA3F65"/><stop offset=".848" stop-color="#CB3F64"/><stop offset=".852" stop-color="#CC3E64"/><stop offset=".855" stop-color="#CD3E63"/><stop offset=".859" stop-color="#CE3D62"/><stop offset=".863" stop-color="#CF3D61"/><stop offset=".867" stop-color="#D03C61"/><stop offset=".871" stop-color="#D13C60"/><stop offset=".875" stop-color="#D23B5F"/><stop offset=".879" stop-color="#D33B5E"/><stop offset=".883" stop-color="#D43A5E"/><stop offset=".887" stop-color="#D53A5D"/><stop offset=".891" stop-color="#D63A5C"/><stop offset=".895" stop-color="#D7395B"/><stop offset=".898" stop-color="#D8395A"/><stop offset=".902" stop-color="#D9385A"/><stop offset=".906" stop-color="#DA3859"/><stop offset=".91" stop-color="#DB3758"/><stop offset=".914" stop-color="#DC3757"/><stop offset=".918" stop-color="#DD3657"/><stop offset=".922" stop-color="#DE3656"/><stop offset=".926" stop-color="#DF3555"/><stop offset=".93" stop-color="#E03554"/><stop offset=".934" stop-color="#E13454"/><stop offset=".938" stop-color="#E23453"/><stop offset=".941" stop-color="#E33352"/><stop offset=".945" stop-color="#E43351"/><stop offset=".949" stop-color="#E53251"/><stop offset=".953" stop-color="#E63250"/><stop offset=".957" stop-color="#E7314F"/><stop offset=".961" stop-color="#E8314E"/><stop offset=".965" stop-color="#E9314E"/><stop offset=".969" stop-color="#EA304D"/><stop offset=".973" stop-color="#EB304C"/><stop offset=".977" stop-color="#EC2F4B"/><stop offset=".984" stop-color="#EC2F4B"/><stop offset="1" stop-color="#EC2F4B"/></linearGradient></defs><g clip-path="url(#a)"><g clip-path="url(#b)"><path fill="url(#c)" d="M113.363.355V599.79h486V.355Zm0 0"/></g></g></svg>