<svg xmlns="http://www.w3.org/2000/svg" width="950" height="800" version="1.0" viewBox="0 0 712.5 600"><defs><clipPath id="a"><path d="M176 380h41v41h-41Zm0 0"/></clipPath><clipPath id="b"><path d="M206.512 400.465c-5.516 0-9.989-4.473-9.989-9.985a9.98 9.98 0 0 0-9.988-9.988 9.98 9.98 0 0 0-9.988 9.988c0 16.52 13.445 29.961 29.965 29.961a9.98 9.98 0 0 0 9.988-9.988 9.98 9.98 0 0 0-9.988-9.988Zm0 0"/></clipPath><clipPath id="d"><path d="M126 280h51v51h-51Zm0 0"/></clipPath><clipPath id="e"><path d="M166.563 280.617c-22.036 0-39.954 17.918-39.954 39.95a9.98 9.98 0 0 0 9.989 9.988 9.98 9.98 0 0 0 9.988-9.989c0-11.015 8.957-19.976 19.976-19.976a9.978 9.978 0 0 0 9.985-9.985 9.978 9.978 0 0 0-9.984-9.988Zm0 0"/></clipPath><clipPath id="g"><path d="M96 350h31v31H96Zm0 0"/></clipPath><clipPath id="h"><path d="M116.625 360.516a9.98 9.98 0 0 0-9.988-9.989 9.98 9.98 0 0 0-9.989 9.989c0 11.015 8.957 19.976 19.977 19.976a9.978 9.978 0 0 0 9.984-9.988 9.978 9.978 0 0 0-9.984-9.988Zm0 0"/></clipPath><clipPath id="j"><path d="M235 290h63v30h-63Zm0 0"/></clipPath><clipPath id="k"><path d="M238.191 302.309c-3.906 3.906-3.906 10.226 0 14.12a9.973 9.973 0 0 0 14.121 0c7.551-7.546 20.696-7.546 28.247 0a9.953 9.953 0 0 0 7.062 2.93 9.95 9.95 0 0 0 7.059-2.93c3.906-3.894 3.906-10.214 0-14.12-15.082-15.102-41.407-15.102-56.489 0Zm0 0"/></clipPath><clipPath id="m"><path d="M386 360h41v41h-41Zm0 0"/></clipPath><clipPath id="n"><path d="M396.273 360.516a9.98 9.98 0 0 0-9.988 9.988c0 16.52 13.445 29.96 29.965 29.96a9.978 9.978 0 0 0 9.984-9.984 9.978 9.978 0 0 0-9.984-9.988c-5.516 0-9.988-4.476-9.988-9.988a9.98 9.98 0 0 0-9.989-9.988Zm0 0"/></clipPath><clipPath id="p"><path d="M316 310h51v51h-51Zm0 0"/></clipPath><clipPath id="q"><path d="M366.313 320.566a9.98 9.98 0 0 0-9.989-9.988 9.98 9.98 0 0 0-9.988 9.988c0 11.016-8.961 19.977-19.977 19.977a9.973 9.973 0 0 0-9.984 9.984 9.976 9.976 0 0 0 9.984 9.989c22.036 0 39.954-17.918 39.954-39.95Zm0 0"/></clipPath><clipPath id="s"><path d="M356 270h51v51h-51Zm0 0"/></clipPath><clipPath id="t"><path d="M366.313 290.605c11.015 0 19.972 8.957 19.972 19.973a9.98 9.98 0 0 0 9.988 9.988 9.98 9.98 0 0 0 9.989-9.988c0-22.031-17.918-39.95-39.95-39.95a9.98 9.98 0 0 0-9.988 9.99 9.98 9.98 0 0 0 9.988 9.987Zm0 0"/></clipPath><clipPath id="v"><path d="M326 430h41v41h-41Zm0 0"/></clipPath><clipPath id="w"><path d="M356.324 450.402c-5.515 0-9.988-4.472-9.988-9.984a9.98 9.98 0 0 0-9.988-9.988 9.98 9.98 0 0 0-9.989 9.988c0 16.52 13.446 29.96 29.965 29.96a9.98 9.98 0 0 0 9.988-9.987 9.98 9.98 0 0 0-9.988-9.989Zm0 0"/></clipPath><clipPath id="y"><path d="M256 400h21v21h-21Zm0 0"/></clipPath><clipPath id="z"><path d="M276.422 410.453c0 .656-.063 1.305-.192 1.95a10.166 10.166 0 0 1-.566 1.874 10.056 10.056 0 0 1-2.168 3.239c-.46.464-.965.879-1.512 1.242a10.037 10.037 0 0 1-3.601 1.492 9.864 9.864 0 0 1-1.945.191 9.874 9.874 0 0 1-1.95-.191 10.037 10.037 0 0 1-3.602-1.492 9.618 9.618 0 0 1-1.511-1.242 9.988 9.988 0 0 1-2.734-5.114 9.903 9.903 0 0 1-.192-1.949c0-.656.063-1.305.192-1.95a9.914 9.914 0 0 1 1.492-3.598 9.83 9.83 0 0 1 1.242-1.514c.46-.461.965-.875 1.512-1.243a10.037 10.037 0 0 1 1.726-.921 9.79 9.79 0 0 1 1.875-.567 9.878 9.878 0 0 1 1.95-.195c.652 0 1.304.066 1.945.195a9.79 9.79 0 0 1 1.875.567c.605.25 1.18.558 1.726.921.547.368 1.051.782 1.512 1.243a9.83 9.83 0 0 1 1.242 1.515 9.913 9.913 0 0 1 1.684 5.547Zm0 0"/></clipPath><clipPath id="B"><path d="M336 370h21v21h-21Zm0 0"/></clipPath><clipPath id="C"><path d="M356.324 380.492c0 .656-.066 1.305-.191 1.95a10.14 10.14 0 0 1-.57 1.87 9.895 9.895 0 0 1-.922 1.727 9.83 9.83 0 0 1-1.243 1.516c-.464.46-.968.875-1.515 1.242a9.895 9.895 0 0 1-1.727.922c-.605.25-1.23.441-1.87.566a9.907 9.907 0 0 1-1.95.195 9.907 9.907 0 0 1-1.95-.195 9.875 9.875 0 0 1-1.874-.566c-.606-.25-1.18-.559-1.727-.922a10.48 10.48 0 0 1-1.512-1.242 9.83 9.83 0 0 1-1.242-1.516 9.895 9.895 0 0 1-.922-1.726 10.14 10.14 0 0 1-.57-1.872 10.209 10.209 0 0 1-.191-1.949c0-.656.066-1.305.191-1.949a10.088 10.088 0 0 1 1.492-3.602 9.988 9.988 0 0 1 4.48-3.675 9.886 9.886 0 0 1 3.825-.762 9.903 9.903 0 0 1 3.82.762c.606.25 1.184.558 1.727.921a9.988 9.988 0 0 1 3.68 4.48c.25.606.44 1.231.57 1.876.125.644.191 1.293.191 1.95Zm0 0"/></clipPath><clipPath id="E"><path d="M176 340h21v21h-21Zm0 0"/></clipPath><clipPath id="F"><path d="M196.523 350.527c0 .657-.062 1.309-.191 1.95a10.037 10.037 0 0 1-1.492 3.602 9.988 9.988 0 0 1-6.355 4.246 9.903 9.903 0 0 1-1.95.19 9.903 9.903 0 0 1-1.95-.19 9.913 9.913 0 0 1-3.598-1.492 9.83 9.83 0 0 1-1.514-1.243c-.461-.461-.875-.969-1.243-1.512a10.037 10.037 0 0 1-1.492-3.601 10.178 10.178 0 0 1-.191-1.95c0-.656.066-1.304.191-1.945a10.088 10.088 0 0 1 1.492-3.602c.368-.546.782-1.05 1.243-1.515.464-.461.968-.875 1.515-1.242a9.895 9.895 0 0 1 1.727-.922 9.837 9.837 0 0 1 1.87-.567 9.903 9.903 0 0 1 1.95-.191c.656 0 1.305.062 1.95.191a9.875 9.875 0 0 1 1.874.567c.606.25 1.18.558 1.727.922a10.48 10.48 0 0 1 1.512 1.242 9.83 9.83 0 0 1 1.242 1.515c.363.543.672 1.122.922 1.727.254.606.441 1.23.57 1.875.129.64.191 1.29.191 1.945Zm0 0"/></clipPath><clipPath id="H"><path d="M56.7.965h599.25v598.824H56.7Zm0 0"/></clipPath><clipPath id="I"><path d="M645.96.965H396.274c-22.03 0-39.949 17.918-39.949 39.953v79.898H246.461a9.98 9.98 0 0 0-9.988 9.989v55.68c-27.727 8.968-51.625 28.156-65.88 54.312a61.94 61.94 0 0 0-4.03-.129c-39.223 0-72.801 29.16-78.864 67.383a59.853 59.853 0 0 0-31 52.465c0 33.05 26.875 59.925 59.926 59.925a58.41 58.41 0 0 0 24.469-5.351c9.976 26.926 35.594 45.3 65.418 45.3 10.824 0 21.48-2.546 31.18-7.39 12.683 6.96 27.695 9.16 41.878 5.895 6.801 21.152 24.868 36.722 46.79 40.449v20.972c0 22.032 17.917 39.95 39.952 39.95 1.286 0 2.407.879 2.715 2.117l4.375 17.52a26.78 26.78 0 0 0 26.016 20.312c14.793 0 26.816-12.024 26.816-26.817v-81.156c17.891-10.379 29.965-29.703 29.965-51.824h129.836a9.98 9.98 0 0 0 9.988-9.988v-29.965h49.938a9.978 9.978 0 0 0 9.988-9.985V10.953a9.98 9.98 0 0 0-9.988-9.988ZM396.274 20.94h239.7v39.95h-239.7c-11.015 0-19.976-8.957-19.976-19.973 0-11.02 8.96-19.977 19.976-19.977ZM256.45 140.793h99.875v69.91h-7.68c-20.824-19.086-48.042-29.96-77.214-29.96-5.055 0-10.047.378-14.98 1.038Zm149.813 432.605a6.847 6.847 0 0 1-6.844 6.844 6.846 6.846 0 0 1-6.64-5.183l-4.376-17.528a22.735 22.735 0 0 0-22.09-17.238c-11.019 0-19.976-8.961-19.976-19.977v-5.421a39.529 39.529 0 0 0 19.976 5.421c14.422 0 27.555-7.859 34.575-20.156a57.87 57.87 0 0 0 5.375-.668Zm6.37-96.52c-.269.114-.507.263-.769.392a38.574 38.574 0 0 1-15.129 3.105 34.344 34.344 0 0 0-1.91-.18c-4.375-.437-8.308 2.578-9.758 6.692-2.796 8.05-10.336 13.453-18.753 13.453-8.422 0-15.961-5.402-18.758-13.453a10.01 10.01 0 0 0-9.43-6.7c-.11 0-.207 0-.32.008-.657.02-1.285.09-1.457.172-18.715 0-34.465-13.125-38.543-31.113 11.558-9.328 18.57-23.438 18.57-38.8 0-24.2-17.3-44.423-40.18-48.977-2.02-17.391-16.82-30.922-34.726-30.922a9.98 9.98 0 0 0-9.989 9.988 9.978 9.978 0 0 0 9.989 9.984c8.258 0 14.98 6.723 14.98 14.985v4.992a9.98 9.98 0 0 0 9.988 9.988c16.516 0 29.961 13.442 29.961 29.961 0 12.067-7.191 22.902-18.308 27.617-.469.2-.79.567-1.207.828-11.465 3.157-23.52 1.07-33.207-5.664a9.956 9.956 0 0 0-10.957-.296c-7.942 4.882-17 7.48-26.207 7.48-24.403 0-45.582-18.188-49.29-42.32a9.963 9.963 0 0 0-6.202-7.77 9.94 9.94 0 0 0-9.848 1.45c-7.23 5.671-15.711 8.687-24.547 8.687-22.035 0-39.953-17.918-39.953-39.95 0-15.98 9.508-30.39 24.223-36.702a9.982 9.982 0 0 0 6.011-8.34c2.586-30.75 28.781-54.832 59.656-54.832 2.465 0 5.16.21 8.477.668.11.023.211-.02.32 0 10.368 1.53 19.887 5.753 28.036 12.156-10.266 9.148-16.86 22.324-16.86 37.113a9.98 9.98 0 0 0 9.988 9.988 9.98 9.98 0 0 0 9.989-9.988c0-16.52 13.441-29.96 29.96-29.96a9.98 9.98 0 0 0 9.989-9.99 9.98 9.98 0 0 0-9.988-9.987c-5.102 0-9.938 1-14.582 2.425-8.739-8.406-19.024-14.628-30.352-18.336 10.797-16.898 26.649-29.703 44.934-37.03v22.98a9.98 9.98 0 0 0 9.988 9.988 9.98 9.98 0 0 0 9.988-9.988v-28.664c4.922-.801 9.906-1.301 14.98-1.301 14.942 0 29.204 3.605 42.048 9.988h-7.09a9.98 9.98 0 0 0-9.989 9.988 9.98 9.98 0 0 0 9.989 9.989h33.898c1.047 1.129 2.117 2.238 3.113 3.414a80.194 80.194 0 0 0-30.152 16.828c-8.988-6.43-19.953-10.254-31.828-10.254a9.976 9.976 0 0 0-9.988 9.984 9.98 9.98 0 0 0 9.988 9.989c19.273 0 34.957 15.68 34.957 34.957a9.976 9.976 0 0 0 9.984 9.988 9.98 9.98 0 0 0 9.989-9.988c0-11.145-3.356-21.512-9.09-30.192 9.37-8.082 20.957-13.293 33.308-14.484.09-.008.16-.059.25-.078.25 0 .493.07.75.05 1.567-.109 3.145-.242 4.747-.242 33.046 0 59.921 26.88 59.921 59.926 0 .54-.046 1.07-.078 1.598l-.09 1.32c-.218 4.414 2.497 8.469 6.672 9.926 9.516 3.336 17.489 9.43 23.29 17.121h-29.794a9.973 9.973 0 0 0-9.984 9.984 9.976 9.976 0 0 0 9.984 9.989h38.813c.668 3.257 1.14 6.574 1.14 9.988 0 5.562-1.011 10.926-2.726 16-.043.078-.063.168-.09.258-4.156 12.066-12.777 22.285-24.66 28.285-.09.043-.14.133-.23.172a50.114 50.114 0 0 1-22.231 5.222c-13.344 0-25.879-5.203-35.309-14.632a9.98 9.98 0 0 0-14.12 0c-3.907 3.894-3.907 10.218 0 14.125 13.19 13.203 30.75 20.484 49.429 20.484h19.973c0 16.27-9.797 30.23-23.59 36.46Zm163.415-56.437h-111.07a69.04 69.04 0 0 0 14.332-19.976h96.738Zm19.976-39.949V358.68C607.617 354.543 616 343.559 616 330.555c0-16.52-13.445-29.965-29.965-29.965s-29.96 13.445-29.96 29.965c0 13.004 8.378 23.988 19.972 28.125v21.812H485.39c.468-3.277.77-6.601.77-9.988 0-3.375-.25-6.711-.72-9.988h20.696a9.98 9.98 0 0 0 9.988-9.989v-41.785c11.594-4.137 19.973-15.12 19.973-28.125 0-16.52-13.442-29.965-29.961-29.965-16.52 0-29.965 13.446-29.965 29.965 0 13.004 8.379 23.988 19.976 28.125v31.801h-16.847c-6.844-14.324-18.41-26.2-33.16-33.172-1.559-39.219-31.532-71.18-69.844-75.992v-.7h199.75a9.98 9.98 0 0 0 9.988-9.988v-31.8c11.598-4.133 19.977-15.121 19.977-28.125 0-16.52-13.446-29.961-29.965-29.961-16.52 0-29.961 13.441-29.961 29.96 0 13.005 8.379 23.993 19.976 28.126v21.812H376.298v-69.91h51.777c4.133 11.594 15.121 19.973 28.125 19.973 16.52 0 29.961-13.442 29.961-29.961 0-16.52-13.441-29.965-29.96-29.965-13.005 0-23.993 8.383-28.126 19.976h-51.777V75.312c5.902 3.438 12.664 5.555 19.976 5.555h239.7v299.625Zm-9.988-39.949c-5.512 0-9.988-4.477-9.988-9.988 0-5.516 4.476-9.989 9.988-9.989s9.988 4.473 9.988 9.989c0 5.511-4.476 9.988-9.988 9.988Zm-79.898-49.938c-5.516 0-9.989-4.476-9.989-9.988 0-5.515 4.473-9.988 9.989-9.988 5.511 0 9.988 4.473 9.988 9.988 0 5.512-4.477 9.988-9.988 9.988Zm69.91-119.851c-5.512 0-9.985-4.473-9.985-9.988 0-5.512 4.473-9.989 9.985-9.989 5.515 0 9.988 4.477 9.988 9.989 0 5.515-4.472 9.988-9.988 9.988Zm-129.836-39.95c0-5.515 4.473-9.988 9.988-9.988 5.512 0 9.988 4.473 9.988 9.989 0 5.511-4.476 9.988-9.988 9.988-5.515 0-9.988-4.477-9.988-9.988Zm0 0"/></clipPath><linearGradient id="c" x1="13.793" x2="17.794" y1="40.206" y2="44.206" gradientTransform="matrix(9.9875 0 0 9.9875 36.723 -19.009)" gradientUnits="userSpaceOnUse"><stop offset="0" stop-color="#9D89D6"/><stop offset=".031" stop-color="#9D89D6"/><stop offset=".063" stop-color="#9C89D6"/><stop offset=".094" stop-color="#9B8AD6"/><stop offset=".125" stop-color="#9B8AD6"/><stop offset=".156" stop-color="#9A8BD7"/><stop offset=".188" stop-color="#998BD7"/><stop offset=".219" stop-color="#998CD7"/><stop offset=".25" stop-color="#988CD7"/><stop offset=".281" stop-color="#978DD7"/><stop offset=".313" stop-color="#978DD8"/><stop offset=".344" stop-color="#968ED8"/><stop offset=".375" stop-color="#958ED8"/><stop offset=".406" stop-color="#958ED8"/><stop offset=".438" stop-color="#948FD8"/><stop offset=".469" stop-color="#938FD8"/><stop offset=".5" stop-color="#9290D9"/><stop offset=".5" stop-color="#9290D9"/><stop offset=".5" stop-color="#9290D9"/><stop offset=".531" stop-color="#9190D9"/><stop offset=".563" stop-color="#9191D9"/><stop offset=".594" stop-color="#9091D9"/><stop offset=".625" stop-color="#9092D9"/><stop offset=".656" stop-color="#8F92DA"/><stop offset=".688" stop-color="#8E93DA"/><stop offset=".719" stop-color="#8E93DA"/><stop offset=".75" stop-color="#8D93DA"/><stop offset=".781" stop-color="#8C94DA"/><stop offset=".813" stop-color="#8B94DA"/><stop offset=".844" stop-color="#8B95DB"/><stop offset=".875" stop-color="#8A95DB"/><stop offset=".906" stop-color="#8996DB"/><stop offset=".938" stop-color="#8996DB"/><stop offset=".969" stop-color="#8897DB"/><stop offset="1" stop-color="#8797DC"/></linearGradient><linearGradient id="f" x1="9" x2="14" y1="30" y2="35" gradientTransform="matrix(9.9875 0 0 9.9875 36.723 -19.009)" gradientUnits="userSpaceOnUse"><stop offset="0" stop-color="#C76DCB"/><stop offset=".031" stop-color="#C76DCB"/><stop offset=".063" stop-color="#C66ECB"/><stop offset=".094" stop-color="#C56FCB"/><stop offset=".125" stop-color="#C46FCC"/><stop offset=".156" stop-color="#C370CC"/><stop offset=".188" stop-color="#C270CC"/><stop offset=".219" stop-color="#C171CC"/><stop offset=".25" stop-color="#C171CD"/><stop offset=".281" stop-color="#C072CD"/><stop offset=".313" stop-color="#BF73CD"/><stop offset=".344" stop-color="#BE73CD"/><stop offset=".375" stop-color="#BD74CD"/><stop offset=".406" stop-color="#BC74CE"/><stop offset=".438" stop-color="#BB75CE"/><stop offset=".469" stop-color="#BA75CE"/><stop offset=".5" stop-color="#BA76CE"/><stop offset=".5" stop-color="#B976CE"/><stop offset=".5" stop-color="#B977CF"/><stop offset=".531" stop-color="#B877CF"/><stop offset=".563" stop-color="#B877CF"/><stop offset=".594" stop-color="#B778CF"/><stop offset=".625" stop-color="#B678CF"/><stop offset=".656" stop-color="#B579D0"/><stop offset=".688" stop-color="#B47AD0"/><stop offset=".719" stop-color="#B37AD0"/><stop offset=".75" stop-color="#B37BD0"/><stop offset=".781" stop-color="#B27BD0"/><stop offset=".813" stop-color="#B17CD1"/><stop offset=".844" stop-color="#B07CD1"/><stop offset=".875" stop-color="#AF7DD1"/><stop offset=".906" stop-color="#AE7ED1"/><stop offset=".938" stop-color="#AD7ED2"/><stop offset=".969" stop-color="#AC7FD2"/><stop offset="1" stop-color="#AC7FD2"/></linearGradient><linearGradient id="i" x1="5.897" x2="8.897" y1="37.103" y2="40.103" gradientTransform="matrix(9.9875 0 0 9.9875 36.723 -19.009)" gradientUnits="userSpaceOnUse"><stop offset="0" stop-color="#BC75CE"/><stop offset=".031" stop-color="#BC75CE"/><stop offset=".063" stop-color="#BB75CE"/><stop offset=".094" stop-color="#BB75CE"/><stop offset=".125" stop-color="#BA76CE"/><stop offset=".156" stop-color="#BA76CE"/><stop offset=".188" stop-color="#B976CE"/><stop offset=".219" stop-color="#B977CF"/><stop offset=".25" stop-color="#B877CF"/><stop offset=".281" stop-color="#B777CF"/><stop offset=".313" stop-color="#B778CF"/><stop offset=".344" stop-color="#B678CF"/><stop offset=".375" stop-color="#B678CF"/><stop offset=".406" stop-color="#B579CF"/><stop offset=".438" stop-color="#B579D0"/><stop offset=".469" stop-color="#B47AD0"/><stop offset=".5" stop-color="#B47AD0"/><stop offset=".5" stop-color="#B47AD0"/><stop offset=".5" stop-color="#B37AD0"/><stop offset=".531" stop-color="#B37AD0"/><stop offset=".563" stop-color="#B37BD0"/><stop offset=".594" stop-color="#B27BD0"/><stop offset=".625" stop-color="#B27BD0"/><stop offset=".656" stop-color="#B17CD1"/><stop offset=".688" stop-color="#B17CD1"/><stop offset=".719" stop-color="#B07CD1"/><stop offset=".75" stop-color="#B07DD1"/><stop offset=".781" stop-color="#AF7DD1"/><stop offset=".813" stop-color="#AF7DD1"/><stop offset=".844" stop-color="#AE7ED1"/><stop offset=".875" stop-color="#AE7ED2"/><stop offset=".906" stop-color="#AD7ED2"/><stop offset=".938" stop-color="#AC7FD2"/><stop offset=".969" stop-color="#AC7FD2"/><stop offset="1" stop-color="#AB7FD2"/></linearGradient><linearGradient id="l" x1="20.281" x2="25.159" y1="30.16" y2="35.038" gradientTransform="matrix(9.9875 0 0 9.9875 36.723 -19.009)" gradientUnits="userSpaceOnUse"><stop offset="0" stop-color="#A782D3"/><stop offset=".031" stop-color="#A782D3"/><stop offset=".063" stop-color="#A683D4"/><stop offset=".094" stop-color="#A584D4"/><stop offset=".125" stop-color="#A484D4"/><stop offset=".156" stop-color="#A385D4"/><stop offset=".188" stop-color="#A285D4"/><stop offset=".219" stop-color="#A286D5"/><stop offset=".25" stop-color="#A186D5"/><stop offset=".281" stop-color="#A087D5"/><stop offset=".313" stop-color="#9F87D5"/><stop offset=".34" stop-color="#9E88D6"/><stop offset=".344" stop-color="#9E88D6"/><stop offset=".375" stop-color="#9D89D6"/><stop offset=".406" stop-color="#9D89D6"/><stop offset=".438" stop-color="#9C8AD6"/><stop offset=".469" stop-color="#9B8AD6"/><stop offset=".5" stop-color="#9A8BD7"/><stop offset=".531" stop-color="#998BD7"/><stop offset=".563" stop-color="#988CD7"/><stop offset=".594" stop-color="#978DD7"/><stop offset=".625" stop-color="#978DD8"/><stop offset=".656" stop-color="#968ED8"/><stop offset=".66" stop-color="#958ED8"/><stop offset=".688" stop-color="#948ED8"/><stop offset=".719" stop-color="#948FD8"/><stop offset=".75" stop-color="#938FD8"/><stop offset=".781" stop-color="#9290D9"/><stop offset=".813" stop-color="#9190D9"/><stop offset=".844" stop-color="#9191D9"/><stop offset=".875" stop-color="#9092D9"/><stop offset=".906" stop-color="#8F92DA"/><stop offset=".938" stop-color="#8E93DA"/><stop offset=".969" stop-color="#8D93DA"/><stop offset="1" stop-color="#8C94DA"/></linearGradient><linearGradient id="o" x1="34.794" x2="38.794" y1="38.206" y2="42.206" gradientTransform="matrix(9.9875 0 0 9.9875 36.723 -19.009)" gradientUnits="userSpaceOnUse"><stop offset="0" stop-color="#68ACE4"/><stop offset=".031" stop-color="#68ACE4"/><stop offset=".063" stop-color="#67ACE4"/><stop offset=".094" stop-color="#66ADE4"/><stop offset=".125" stop-color="#66ADE4"/><stop offset=".156" stop-color="#65AEE5"/><stop offset=".188" stop-color="#64AEE5"/><stop offset=".219" stop-color="#64AFE5"/><stop offset=".25" stop-color="#63AFE5"/><stop offset=".281" stop-color="#62AFE5"/><stop offset=".313" stop-color="#62B0E5"/><stop offset=".344" stop-color="#61B0E6"/><stop offset=".375" stop-color="#60B1E6"/><stop offset=".406" stop-color="#5FB1E6"/><stop offset=".438" stop-color="#5FB2E6"/><stop offset=".469" stop-color="#5EB2E6"/><stop offset=".5" stop-color="#5DB3E7"/><stop offset=".5" stop-color="#5DB3E7"/><stop offset=".5" stop-color="#5DB3E7"/><stop offset=".531" stop-color="#5CB3E7"/><stop offset=".563" stop-color="#5CB4E7"/><stop offset=".594" stop-color="#5BB4E7"/><stop offset=".625" stop-color="#5BB4E7"/><stop offset=".656" stop-color="#5AB5E7"/><stop offset=".688" stop-color="#59B5E8"/><stop offset=".719" stop-color="#58B6E8"/><stop offset=".75" stop-color="#58B6E8"/><stop offset=".781" stop-color="#57B7E8"/><stop offset=".813" stop-color="#56B7E8"/><stop offset=".844" stop-color="#56B8E9"/><stop offset=".875" stop-color="#55B8E9"/><stop offset=".906" stop-color="#54B9E9"/><stop offset=".938" stop-color="#54B9E9"/><stop offset=".969" stop-color="#53BAE9"/><stop offset="1" stop-color="#52BAE9"/></linearGradient><linearGradient id="r" x1="28" x2="33" y1="33" y2="38" gradientTransform="matrix(9.9875 0 0 9.9875 36.723 -19.009)" gradientUnits="userSpaceOnUse"><stop offset="0" stop-color="#8A96DB"/><stop offset=".031" stop-color="#8996DB"/><stop offset=".063" stop-color="#8896DB"/><stop offset=".094" stop-color="#8897DB"/><stop offset=".125" stop-color="#8798DC"/><stop offset=".156" stop-color="#8698DC"/><stop offset=".188" stop-color="#8599DC"/><stop offset=".219" stop-color="#8499DC"/><stop offset=".25" stop-color="#839ADD"/><stop offset=".281" stop-color="#829ADD"/><stop offset=".313" stop-color="#819BDD"/><stop offset=".344" stop-color="#819CDD"/><stop offset=".375" stop-color="#809CDE"/><stop offset=".406" stop-color="#7F9DDE"/><stop offset=".438" stop-color="#7E9DDE"/><stop offset=".469" stop-color="#7D9EDE"/><stop offset=".5" stop-color="#7C9EDE"/><stop offset=".5" stop-color="#7C9FDF"/><stop offset=".5" stop-color="#7B9FDF"/><stop offset=".531" stop-color="#7B9FDF"/><stop offset=".563" stop-color="#7AA0DF"/><stop offset=".594" stop-color="#7AA0DF"/><stop offset=".625" stop-color="#79A1DF"/><stop offset=".656" stop-color="#78A1E0"/><stop offset=".688" stop-color="#77A2E0"/><stop offset=".719" stop-color="#76A2E0"/><stop offset=".75" stop-color="#75A3E0"/><stop offset=".781" stop-color="#74A4E1"/><stop offset=".813" stop-color="#73A4E1"/><stop offset=".844" stop-color="#73A5E1"/><stop offset=".875" stop-color="#72A5E1"/><stop offset=".906" stop-color="#71A6E1"/><stop offset=".938" stop-color="#70A6E2"/><stop offset=".969" stop-color="#6FA7E2"/><stop offset="1" stop-color="#6EA8E2"/></linearGradient><linearGradient id="u" x1="32.31" x2="37.31" y1="28.69" y2="33.69" gradientTransform="matrix(9.9875 0 0 9.9875 36.723 -19.009)" gradientUnits="userSpaceOnUse"><stop offset="0" stop-color="#8A96DB"/><stop offset=".031" stop-color="#8996DB"/><stop offset=".063" stop-color="#8896DB"/><stop offset=".094" stop-color="#8897DB"/><stop offset=".125" stop-color="#8798DC"/><stop offset=".156" stop-color="#8698DC"/><stop offset=".188" stop-color="#8599DC"/><stop offset=".219" stop-color="#8499DC"/><stop offset=".25" stop-color="#839ADD"/><stop offset=".281" stop-color="#829ADD"/><stop offset=".313" stop-color="#819BDD"/><stop offset=".344" stop-color="#819CDD"/><stop offset=".375" stop-color="#809CDE"/><stop offset=".406" stop-color="#7F9DDE"/><stop offset=".438" stop-color="#7E9DDE"/><stop offset=".469" stop-color="#7D9EDE"/><stop offset=".5" stop-color="#7C9EDE"/><stop offset=".5" stop-color="#7C9FDF"/><stop offset=".5" stop-color="#7B9FDF"/><stop offset=".531" stop-color="#7B9FDF"/><stop offset=".563" stop-color="#7AA0DF"/><stop offset=".594" stop-color="#7AA0DF"/><stop offset=".625" stop-color="#79A1DF"/><stop offset=".656" stop-color="#78A1E0"/><stop offset=".688" stop-color="#77A2E0"/><stop offset=".719" stop-color="#76A2E0"/><stop offset=".75" stop-color="#75A3E0"/><stop offset=".781" stop-color="#74A4E1"/><stop offset=".813" stop-color="#73A4E1"/><stop offset=".844" stop-color="#73A5E1"/><stop offset=".875" stop-color="#72A5E1"/><stop offset=".906" stop-color="#71A6E1"/><stop offset=".938" stop-color="#70A6E2"/><stop offset=".969" stop-color="#6FA7E2"/><stop offset="1" stop-color="#6EA8E2"/></linearGradient><linearGradient id="x" x1="28.794" x2="32.794" y1="45.206" y2="49.206" gradientTransform="matrix(9.9875 0 0 9.9875 36.723 -19.009)" gradientUnits="userSpaceOnUse"><stop offset="0" stop-color="#65ADE4"/><stop offset=".031" stop-color="#65AEE5"/><stop offset=".063" stop-color="#64AEE5"/><stop offset=".094" stop-color="#64AFE5"/><stop offset=".125" stop-color="#63AFE5"/><stop offset=".156" stop-color="#62AFE5"/><stop offset=".188" stop-color="#62B0E5"/><stop offset=".219" stop-color="#61B0E6"/><stop offset=".25" stop-color="#60B1E6"/><stop offset=".281" stop-color="#5FB1E6"/><stop offset=".313" stop-color="#5FB2E6"/><stop offset=".344" stop-color="#5EB2E6"/><stop offset=".375" stop-color="#5DB3E7"/><stop offset=".406" stop-color="#5DB3E7"/><stop offset=".438" stop-color="#5CB4E7"/><stop offset=".469" stop-color="#5BB4E7"/><stop offset=".5" stop-color="#5BB4E7"/><stop offset=".5" stop-color="#5AB5E7"/><stop offset=".5" stop-color="#5AB5E7"/><stop offset=".531" stop-color="#5AB5E8"/><stop offset=".563" stop-color="#59B5E8"/><stop offset=".594" stop-color="#58B6E8"/><stop offset=".625" stop-color="#58B6E8"/><stop offset=".656" stop-color="#57B7E8"/><stop offset=".688" stop-color="#56B7E8"/><stop offset=".719" stop-color="#56B8E9"/><stop offset=".75" stop-color="#55B8E9"/><stop offset=".781" stop-color="#54B9E9"/><stop offset=".813" stop-color="#54B9E9"/><stop offset=".844" stop-color="#53BAE9"/><stop offset=".875" stop-color="#52BAE9"/><stop offset=".906" stop-color="#51BAEA"/><stop offset=".938" stop-color="#51BBEA"/><stop offset=".969" stop-color="#50BBEA"/><stop offset="1" stop-color="#4FBCEA"/></linearGradient><linearGradient id="A" x1="22" x2="24" y1="42" y2="44" gradientTransform="matrix(9.9875 0 0 9.9875 36.723 -19.009)" gradientUnits="userSpaceOnUse"><stop offset="0" stop-color="#819BDD"/><stop offset=".063" stop-color="#819BDD"/><stop offset=".125" stop-color="#809CDD"/><stop offset=".188" stop-color="#809CDE"/><stop offset=".25" stop-color="#7F9DDE"/><stop offset=".313" stop-color="#7E9DDE"/><stop offset=".375" stop-color="#7D9EDE"/><stop offset=".438" stop-color="#7D9EDE"/><stop offset=".5" stop-color="#7C9EDE"/><stop offset=".5" stop-color="#7C9FDF"/><stop offset=".5" stop-color="#7B9FDF"/><stop offset=".563" stop-color="#7B9FDF"/><stop offset=".625" stop-color="#7B9FDF"/><stop offset=".688" stop-color="#7AA0DF"/><stop offset=".75" stop-color="#79A0DF"/><stop offset=".813" stop-color="#79A1DF"/><stop offset=".875" stop-color="#78A1E0"/><stop offset=".938" stop-color="#77A2E0"/><stop offset="1" stop-color="#76A2E0"/></linearGradient><linearGradient id="D" x1="30" x2="32" y1="39" y2="41" gradientTransform="matrix(9.9875 0 0 9.9875 36.723 -19.009)" gradientUnits="userSpaceOnUse"><stop offset="0" stop-color="#73A4E1"/><stop offset=".063" stop-color="#73A4E1"/><stop offset=".125" stop-color="#72A5E1"/><stop offset=".188" stop-color="#72A5E1"/><stop offset=".25" stop-color="#71A6E1"/><stop offset=".313" stop-color="#70A6E2"/><stop offset=".375" stop-color="#70A7E2"/><stop offset=".438" stop-color="#6FA7E2"/><stop offset=".5" stop-color="#6EA8E2"/><stop offset=".5" stop-color="#6EA8E2"/><stop offset=".5" stop-color="#6DA8E2"/><stop offset=".563" stop-color="#6DA8E2"/><stop offset=".625" stop-color="#6DA9E3"/><stop offset=".688" stop-color="#6CA9E3"/><stop offset=".75" stop-color="#6BA9E3"/><stop offset=".813" stop-color="#6BAAE3"/><stop offset=".875" stop-color="#6AAAE3"/><stop offset=".938" stop-color="#69ABE3"/><stop offset="1" stop-color="#69ABE4"/></linearGradient><linearGradient id="G" x1="14" x2="16" y1="36" y2="38" gradientTransform="matrix(9.9875 0 0 9.9875 36.723 -19.009)" gradientUnits="userSpaceOnUse"><stop offset="0" stop-color="#A881D3"/><stop offset=".063" stop-color="#A882D3"/><stop offset=".125" stop-color="#A782D3"/><stop offset=".188" stop-color="#A783D3"/><stop offset=".25" stop-color="#A683D4"/><stop offset=".313" stop-color="#A583D4"/><stop offset=".375" stop-color="#A584D4"/><stop offset=".438" stop-color="#A484D4"/><stop offset=".5" stop-color="#A385D4"/><stop offset=".5" stop-color="#A385D4"/><stop offset=".5" stop-color="#A285D4"/><stop offset=".563" stop-color="#A285D5"/><stop offset=".625" stop-color="#A286D5"/><stop offset=".688" stop-color="#A186D5"/><stop offset=".75" stop-color="#A087D5"/><stop offset=".813" stop-color="#A087D5"/><stop offset=".875" stop-color="#9F88D5"/><stop offset=".938" stop-color="#9E88D6"/><stop offset="1" stop-color="#9E88D6"/></linearGradient><linearGradient id="J" x1="7.234" x2="67.212" y1="-3.233" y2="56.745" gradientTransform="matrix(9.9875 0 0 9.9875 36.723 -19.009)" gradientUnits="userSpaceOnUse"><stop offset="0" stop-color="#F84DBE"/><stop offset=".125" stop-color="#F84DBE"/><stop offset=".141" stop-color="#F84DBE"/><stop offset=".148" stop-color="#F84DBE"/><stop offset=".152" stop-color="#F64FBF"/><stop offset=".156" stop-color="#F54FBF"/><stop offset=".16" stop-color="#F350BF"/><stop offset=".164" stop-color="#F251C0"/><stop offset=".168" stop-color="#F152C0"/><stop offset=".172" stop-color="#EF53C0"/><stop offset=".176" stop-color="#EE54C1"/><stop offset=".18" stop-color="#ED55C1"/><stop offset=".184" stop-color="#EB55C1"/><stop offset=".188" stop-color="#EA56C2"/><stop offset=".191" stop-color="#E957C2"/><stop offset=".195" stop-color="#E758C2"/><stop offset=".199" stop-color="#E659C3"/><stop offset=".203" stop-color="#E55AC3"/><stop offset=".207" stop-color="#E35BC3"/><stop offset=".211" stop-color="#E25BC4"/><stop offset=".215" stop-color="#E15CC4"/><stop offset=".219" stop-color="#E05DC4"/><stop offset=".223" stop-color="#DE5EC5"/><stop offset=".227" stop-color="#DD5FC5"/><stop offset=".23" stop-color="#DC60C5"/><stop offset=".234" stop-color="#DA61C6"/><stop offset=".238" stop-color="#D961C6"/><stop offset=".242" stop-color="#D862C6"/><stop offset=".246" stop-color="#D663C7"/><stop offset=".25" stop-color="#D564C7"/><stop offset=".254" stop-color="#D465C7"/><stop offset=".258" stop-color="#D266C8"/><stop offset=".262" stop-color="#D167C8"/><stop offset=".266" stop-color="#D067C9"/><stop offset=".27" stop-color="#CF68C9"/><stop offset=".273" stop-color="#CD69C9"/><stop offset=".277" stop-color="#CC6ACA"/><stop offset=".281" stop-color="#CB6BCA"/><stop offset=".285" stop-color="#C96CCA"/><stop offset=".289" stop-color="#C86DCB"/><stop offset=".293" stop-color="#C76DCB"/><stop offset=".297" stop-color="#C56ECB"/><stop offset=".301" stop-color="#C46FCC"/><stop offset=".305" stop-color="#C370CC"/><stop offset=".309" stop-color="#C171CC"/><stop offset=".313" stop-color="#C072CD"/><stop offset=".316" stop-color="#BF73CD"/><stop offset=".32" stop-color="#BE73CD"/><stop offset=".324" stop-color="#BC74CE"/><stop offset=".328" stop-color="#BB75CE"/><stop offset=".332" stop-color="#BA76CE"/><stop offset=".336" stop-color="#B877CF"/><stop offset=".34" stop-color="#B778CF"/><stop offset=".344" stop-color="#B679CF"/><stop offset=".348" stop-color="#B479D0"/><stop offset=".352" stop-color="#B37AD0"/><stop offset=".355" stop-color="#B27BD0"/><stop offset=".359" stop-color="#B07CD1"/><stop offset=".363" stop-color="#AF7DD1"/><stop offset=".367" stop-color="#AE7ED1"/><stop offset=".371" stop-color="#AD7FD2"/><stop offset=".375" stop-color="#AB7FD2"/><stop offset=".379" stop-color="#AA80D2"/><stop offset=".383" stop-color="#A981D3"/><stop offset=".387" stop-color="#A782D3"/><stop offset=".391" stop-color="#A683D3"/><stop offset=".395" stop-color="#A584D4"/><stop offset=".398" stop-color="#A385D4"/><stop offset=".402" stop-color="#A286D5"/><stop offset=".406" stop-color="#A186D5"/><stop offset=".41" stop-color="#9F87D5"/><stop offset=".414" stop-color="#9E88D6"/><stop offset=".418" stop-color="#9D89D6"/><stop offset=".422" stop-color="#9C8AD6"/><stop offset=".426" stop-color="#9A8BD7"/><stop offset=".43" stop-color="#998CD7"/><stop offset=".434" stop-color="#988CD7"/><stop offset=".438" stop-color="#968DD8"/><stop offset=".441" stop-color="#958ED8"/><stop offset=".445" stop-color="#948FD8"/><stop offset=".449" stop-color="#9290D9"/><stop offset=".453" stop-color="#9191D9"/><stop offset=".457" stop-color="#9092D9"/><stop offset=".461" stop-color="#8E92DA"/><stop offset=".465" stop-color="#8D93DA"/><stop offset=".469" stop-color="#8C94DA"/><stop offset=".473" stop-color="#8B95DB"/><stop offset=".477" stop-color="#8996DB"/><stop offset=".48" stop-color="#8897DB"/><stop offset=".484" stop-color="#8798DC"/><stop offset=".488" stop-color="#8598DC"/><stop offset=".492" stop-color="#8499DC"/><stop offset=".496" stop-color="#839ADD"/><stop offset=".5" stop-color="#819BDD"/><stop offset=".504" stop-color="#809CDD"/><stop offset=".508" stop-color="#7F9DDE"/><stop offset=".512" stop-color="#7D9EDE"/><stop offset=".516" stop-color="#7C9EDE"/><stop offset=".52" stop-color="#7B9FDF"/><stop offset=".523" stop-color="#7AA0DF"/><stop offset=".527" stop-color="#78A1DF"/><stop offset=".531" stop-color="#77A2E0"/><stop offset=".535" stop-color="#76A3E0"/><stop offset=".539" stop-color="#74A4E1"/><stop offset=".543" stop-color="#73A4E1"/><stop offset=".547" stop-color="#72A5E1"/><stop offset=".551" stop-color="#70A6E2"/><stop offset=".555" stop-color="#6FA7E2"/><stop offset=".559" stop-color="#6EA8E2"/><stop offset=".563" stop-color="#6CA9E3"/><stop offset=".566" stop-color="#6BAAE3"/><stop offset=".57" stop-color="#6AAAE3"/><stop offset=".574" stop-color="#69ABE4"/><stop offset=".578" stop-color="#67ACE4"/><stop offset=".582" stop-color="#66ADE4"/><stop offset=".586" stop-color="#65AEE5"/><stop offset=".59" stop-color="#63AFE5"/><stop offset=".594" stop-color="#62B0E5"/><stop offset=".598" stop-color="#61B0E6"/><stop offset=".602" stop-color="#5FB1E6"/><stop offset=".605" stop-color="#5EB2E6"/><stop offset=".609" stop-color="#5DB3E7"/><stop offset=".613" stop-color="#5BB4E7"/><stop offset=".617" stop-color="#5AB5E7"/><stop offset=".621" stop-color="#59B6E8"/><stop offset=".625" stop-color="#58B6E8"/><stop offset=".629" stop-color="#56B7E8"/><stop offset=".633" stop-color="#55B8E9"/><stop offset=".637" stop-color="#54B9E9"/><stop offset=".641" stop-color="#52BAE9"/><stop offset=".645" stop-color="#51BBEA"/><stop offset=".648" stop-color="#50BCEA"/><stop offset=".652" stop-color="#4EBDEA"/><stop offset=".656" stop-color="#4DBDEB"/><stop offset=".66" stop-color="#4CBEEB"/><stop offset=".664" stop-color="#4ABFEB"/><stop offset=".668" stop-color="#49C0EC"/><stop offset=".672" stop-color="#48C1EC"/><stop offset=".676" stop-color="#46C2ED"/><stop offset=".68" stop-color="#45C3ED"/><stop offset=".684" stop-color="#44C3ED"/><stop offset=".688" stop-color="#43C4EE"/><stop offset=".691" stop-color="#41C5EE"/><stop offset=".695" stop-color="#40C6EE"/><stop offset=".699" stop-color="#3FC7EF"/><stop offset=".703" stop-color="#3DC8EF"/><stop offset=".707" stop-color="#3CC9EF"/><stop offset=".711" stop-color="#3BC9F0"/><stop offset=".715" stop-color="#39CAF0"/><stop offset=".719" stop-color="#38CBF0"/><stop offset=".723" stop-color="#37CCF1"/><stop offset=".727" stop-color="#35CDF1"/><stop offset=".73" stop-color="#34CEF1"/><stop offset=".734" stop-color="#33CFF2"/><stop offset=".738" stop-color="#32CFF2"/><stop offset=".742" stop-color="#30D0F2"/><stop offset=".746" stop-color="#2FD1F3"/><stop offset=".75" stop-color="#2ED2F3"/><stop offset=".754" stop-color="#2CD3F3"/><stop offset=".758" stop-color="#2BD4F4"/><stop offset=".762" stop-color="#2AD5F4"/><stop offset=".766" stop-color="#28D5F4"/><stop offset=".77" stop-color="#27D6F5"/><stop offset=".773" stop-color="#26D7F5"/><stop offset=".777" stop-color="#24D8F5"/><stop offset=".781" stop-color="#23D9F6"/><stop offset=".785" stop-color="#22DAF6"/><stop offset=".789" stop-color="#21DBF6"/><stop offset=".793" stop-color="#1FDBF7"/><stop offset=".797" stop-color="#1EDCF7"/><stop offset=".801" stop-color="#1DDDF7"/><stop offset=".805" stop-color="#1BDEF8"/><stop offset=".809" stop-color="#1ADFF8"/><stop offset=".813" stop-color="#19E0F9"/><stop offset=".816" stop-color="#17E1F9"/><stop offset=".82" stop-color="#16E1F9"/><stop offset=".824" stop-color="#15E2FA"/><stop offset=".828" stop-color="#13E3FA"/><stop offset=".832" stop-color="#12E4FA"/><stop offset=".836" stop-color="#11E5FB"/><stop offset=".84" stop-color="#10E6FB"/><stop offset=".844" stop-color="#0EE7FB"/><stop offset=".848" stop-color="#0DE7FC"/><stop offset=".852" stop-color="#0CE8FC"/><stop offset=".855" stop-color="#0AE9FC"/><stop offset=".859" stop-color="#09EAFD"/><stop offset=".863" stop-color="#08EBFD"/><stop offset=".867" stop-color="#06ECFD"/><stop offset=".871" stop-color="#05EDFE"/><stop offset=".875" stop-color="#04EDFE"/><stop offset=".879" stop-color="#02EEFE"/><stop offset=".883" stop-color="#01EFFF"/><stop offset=".887" stop-color="#01F0FF"/><stop offset=".891" stop-color="#00F0FF"/><stop offset=".906" stop-color="#00F0FF"/><stop offset=".938" stop-color="#00F0FF"/><stop offset="1" stop-color="#00F0FF"/></linearGradient></defs><g clip-path="url(#a)"><g clip-path="url(#b)"><path fill="url(#c)" d="M176.547 380.492v39.95H216.5v-39.95Zm0 0"/></g></g><g clip-path="url(#d)"><g clip-path="url(#e)"><path fill="url(#f)" d="M126.61 280.617v49.938h49.937v-49.938Zm0 0"/></g></g><g clip-path="url(#g)"><g clip-path="url(#h)"><path fill="url(#i)" d="M96.648 350.527v29.965h29.961v-29.965Zm0 0"/></g></g><g clip-path="url(#j)"><g clip-path="url(#k)"><path fill="url(#l)" d="M234.285 287.207v33.129h64.3v-33.129Zm0 0"/></g></g><g clip-path="url(#m)"><g clip-path="url(#n)"><path fill="url(#o)" d="M386.285 360.516v39.949h39.95v-39.95Zm0 0"/></g></g><g clip-path="url(#p)"><g clip-path="url(#q)"><path fill="url(#r)" d="M316.375 310.578v49.938h49.938v-49.938Zm0 0"/></g></g><g clip-path="url(#s)"><g clip-path="url(#t)"><path fill="url(#u)" d="M356.324 270.629v49.937h49.938V270.63Zm0 0"/></g></g><g clip-path="url(#v)"><g clip-path="url(#w)"><path fill="url(#x)" d="M326.36 430.43v39.949h39.952v-39.95Zm0 0"/></g></g><g clip-path="url(#y)"><g clip-path="url(#z)"><path fill="url(#A)" d="M256.45 400.465v19.976h19.972v-19.976Zm0 0"/></g></g><g clip-path="url(#B)"><g clip-path="url(#C)"><path fill="url(#D)" d="M336.348 370.504v19.976h19.976v-19.976Zm0 0"/></g></g><g clip-path="url(#E)"><g clip-path="url(#F)"><path fill="url(#G)" d="M176.547 340.543v19.973h19.976v-19.973Zm0 0"/></g></g><g clip-path="url(#H)"><g clip-path="url(#I)"><path fill="url(#J)" d="M56.7.965v598.824h599.25V.965Zm0 0"/></g></g></svg>