<svg xmlns="http://www.w3.org/2000/svg" width="512" height="512" style="shape-rendering:geometricPrecision;text-rendering:geometricPrecision;image-rendering:optimizeQuality;fill-rule:evenodd;clip-rule:evenodd"><path fill="#45304c" d="M251.5-.5h16c-14.171 9.656-24.004 22.656-29.5 39-2.372 13.367.128 25.7 7.5 37-48.16-14.833-69.66 2.834-64.5 53-4.331 7.31-7.498 14.977-9.5 23-2.493-1.274-5.159-1.94-8-2a282.776 282.776 0 0 0-14.5-69 25.238 25.238 0 0 1 0-10c6.64-13.973 17.473-22.806 32.5-26.5a116.471 116.471 0 0 0 10-14.5c8.992-11.8 20.659-19.967 35-24.5a241.598 241.598 0 0 1 25-5.5Z" style="opacity:1"/><path fill="#56415e" d="M267.5-.5h24a335.532 335.532 0 0 1 25 4.5c1.809 4.571.309 7.738-4.5 9.5-.749 1.135-.583 2.135.5 3 13.236 4.108 24.236 11.442 33 22 9.272 11.207 15.939 23.873 20 38a244.823 244.823 0 0 0-13.5 39 198.398 198.398 0 0 0-4.5 34c-2.995-.206-5.662.46-8 2-2.301-7.613-5.468-14.946-9.5-22 3.978-53.112-19.188-70.612-69.5-52.5a45.514 45.514 0 0 1-15-.5v-1c-7.372-11.3-9.872-23.633-7.5-37 5.496-16.344 15.329-29.344 29.5-39Z" style="opacity:.997"/><path fill="#fe9000" d="M191.5 29.5a116.471 116.471 0 0 1-10 14.5c-15.027 3.694-25.86 12.527-32.5 26.5a25.238 25.238 0 0 0 0 10 282.776 282.776 0 0 1 14.5 69c-5.862-.311-9.696 2.356-11.5 8a25.238 25.238 0 0 0 0 10 302.048 302.048 0 0 1 11 32c3.093 4.295 7.26 5.962 12.5 5 2.322 19.966 8.656 38.633 19 56a347.865 347.865 0 0 0-48 28.5c-12.124 10.416-18.791 23.582-20 39.5a1097.43 1097.43 0 0 1-43 15.5c-21.584 6.75-35.584 20.917-42 42.5-9.5-16.342-16.833-33.675-22-52 25.876-21.283 54.876-37.45 87-48.5 12.487-5.16 23.32-12.66 32.5-22.5 6.378-8.485 8.045-17.818 5-28a338.165 338.165 0 0 0-14-33c-5.069-11.156-7.069-22.822-6-35 5.931-14.364 6.931-29.03 3-44-7.308-16.809-18.475-30.476-33.5-41 28.196-25.44 60.863-43.106 98-53Z" style="opacity:.995"/><path fill="#fe9001" d="M345.5 38.5c26.935 10.122 50.935 24.788 72 44-16.052 11.108-27.552 25.775-34.5 44a74.602 74.602 0 0 0-1 23c3.628 10.43 5.295 21.096 5 32a125.73 125.73 0 0 1-6 21 338.165 338.165 0 0 0-14 33c-3.045 10.182-1.378 19.515 5 28 9.352 9.596 20.185 17.096 32.5 22.5 25.225 9.112 48.891 21.112 71 36 5.55 4.27 10.883 8.77 16 13.5-5.443 17.879-12.776 34.879-22 51-5.611-20.111-18.278-33.611-38-40.5a1316.005 1316.005 0 0 1-47-17.5c-1.002-17.82-8.668-31.987-23-42.5a379.514 379.514 0 0 0-45-26.5c10.391-16.841 16.391-35.175 18-55 5.769.866 10.269-1.134 13.5-6a197.97 197.97 0 0 1 10-30c.879-4.787.545-9.453-1-14-2.285-3.392-5.452-5.059-9.5-5a198.398 198.398 0 0 1 4.5-34 244.823 244.823 0 0 1 13.5-39c-4.061-14.127-10.728-26.793-20-38Z" style="opacity:.996"/><path fill="#fed8a0" d="M245.5 75.5v1c-5.553 4.743-9.387 10.743-11.5 18a369.128 369.128 0 0 0-2 34 97.643 97.643 0 0 0-9 21c-.667 6-.667 12 0 18a1783.577 1783.577 0 0 0 7 57c7.559 29.703 24.392 52.37 50.5 68 7.854-3.861 14.854-8.861 21-15a212.934 212.934 0 0 1 11.5 25c5.288 23.728.788 45.394-13.5 65-22.076 12.611-45.409 15.444-70 8.5-5.839-2.084-11.173-4.917-16-8.5 21.08-10.264 34.246-26.93 39.5-50a152.29 152.29 0 0 0 1.5-19c-17.955-.813-32.955-7.813-45-21a180.487 180.487 0 0 1-15-17c-10.344-17.367-16.678-36.034-19-56a1951.9 1951.9 0 0 1-4-53c2.002-8.023 5.169-15.69 9.5-23-5.16-50.166 16.34-67.833 64.5-53Z" style="opacity:1"/><path fill="#fbe5c9" d="M339.5 151.5a1424.639 1424.639 0 0 1-5 53c-1.609 19.825-7.609 38.159-18 55-4.97 5.975-9.97 11.975-15 18-6.146 6.139-13.146 11.139-21 15-26.108-15.63-42.941-38.297-50.5-68a1783.577 1783.577 0 0 1-7-57c-.667-6-.667-12 0-18a97.643 97.643 0 0 1 9-21 369.128 369.128 0 0 1 2-34c2.113-7.257 5.947-13.257 11.5-18a45.514 45.514 0 0 0 15 .5c50.312-18.112 73.478-.612 69.5 52.5 4.032 7.054 7.199 14.387 9.5 22Z" style="opacity:1"/><path fill="#ffb231" d="M93.5 82.5c15.025 10.524 26.192 24.191 33.5 41 3.931 14.97 2.931 29.636-3 44-1.069 12.178.931 23.844 6 35a338.165 338.165 0 0 1 14 33c3.045 10.182 1.378 19.515-5 28-9.18 9.84-20.013 17.34-32.5 22.5-32.124 11.05-61.124 27.217-87 48.5-21.557-83.389-5.724-158.722 47.5-226a195.21 195.21 0 0 1 26.5-26ZM417.5 82.5c45.694 40.369 72.861 91.036 81.5 152 3.93 34.183 1.43 67.85-7.5 101a231.701 231.701 0 0 0-16-13.5c-22.109-14.888-45.775-26.888-71-36-12.315-5.404-23.148-12.904-32.5-22.5-6.378-8.485-8.045-17.818-5-28a338.165 338.165 0 0 1 14-33 125.73 125.73 0 0 0 6-21c.295-10.904-1.372-21.57-5-32a74.602 74.602 0 0 1 1-23c6.948-18.225 18.448-32.892 34.5-44Z" style="opacity:1"/><path fill="#fed8a0" d="M347.5 149.5c4.048-.059 7.215 1.608 9.5 5 1.545 4.547 1.879 9.213 1 14a197.97 197.97 0 0 0-10 30c-3.231 4.866-7.731 6.866-13.5 6a1424.639 1424.639 0 0 0 5-53c2.338-1.54 5.005-2.206 8-2Z" style="opacity:1"/><path fill="#f8c889" d="M163.5 149.5c2.841.06 5.507.726 8 2a1951.9 1951.9 0 0 0 4 53c-5.24.962-9.407-.705-12.5-5a302.048 302.048 0 0 0-11-32 25.238 25.238 0 0 1 0-10c1.804-5.644 5.638-8.311 11.5-8Z" style="opacity:1"/><path fill="#b26847" d="M316.5 259.5a379.514 379.514 0 0 1 45 26.5c14.332 10.513 21.998 24.68 23 42.5-.784 22.742-11.118 39.575-31 50.5a167.601 167.601 0 0 1-24 12.5c-.667 22.83-1.333 45.496-2 68 .167-24.669 0-49.336-.5-74-3.51-5.289-8.01-6.289-13.5-3l-2.5 3a98.432 98.432 0 0 0-.5 14c-8.794 3.282-17.794 5.449-27 6.5-2.523-1.36-4.523-3.193-6-5.5v-6a10.134 10.134 0 0 1 1.5-4c7.783-6.943 14.617-14.609 20.5-23 14.288-19.606 18.788-41.272 13.5-65a212.934 212.934 0 0 0-11.5-25c5.03-6.025 10.03-12.025 15-18Z" style="opacity:1"/><path fill="#945230" d="M194.5 260.5a180.487 180.487 0 0 0 15 17 272.769 272.769 0 0 1-9.5 20c-6.057 16.742-5.89 33.409.5 50a196.99 196.99 0 0 1-20 1.5c-16.484 3.442-23.817 13.609-22 30.5-21.054-10.435-31.721-27.435-32-51 1.209-15.918 7.876-29.084 20-39.5a347.865 347.865 0 0 1 48-28.5Z" style="opacity:1"/><path fill="#f8c889" d="M209.5 277.5c12.045 13.187 27.045 20.187 45 21a152.29 152.29 0 0 1-1.5 19c-5.254 23.07-18.42 39.736-39.5 50h-2a88.371 88.371 0 0 1-11-20c-6.39-16.591-6.557-33.258-.5-50a272.769 272.769 0 0 0 9.5-20Z" style="opacity:1"/><path fill="#753616" d="M126.5 328.5c.279 23.565 10.946 40.565 32 51v1c-17.311 1.496-31.145 9.163-41.5 23-2.867 4.602-4.534 9.602-5 15-.5 15.663-.667 31.33-.5 47-29.02-21.349-52.352-47.682-70-79 6.416-21.583 20.416-35.75 42-42.5a1097.43 1097.43 0 0 0 43-15.5Z" style="opacity:.996"/><path fill="#945230" d="M384.5 328.5a1316.005 1316.005 0 0 0 47 17.5c19.722 6.889 32.389 20.389 38 40.5-8.722 16.122-19.388 30.788-32 44-4.601-17.094-14.601-29.928-30-38.5-5.314-1.26-9.147.574-11.5 5.5a2519.42 2519.42 0 0 0-.5 71c-35.494 24.5-74.827 38.5-118 42v-110c1.477 2.307 3.477 4.14 6 5.5 9.206-1.051 18.206-3.218 27-6.5-.167 20.669 0 41.336.5 62 3.438 6.55 8.271 7.716 14.5 3.5 1.361-1.584 2.028-3.418 2-5.5.667-22.504 1.333-45.17 2-68a167.601 167.601 0 0 0 24-12.5c19.882-10.925 30.216-27.758 31-50.5Z" style="opacity:.998"/><path fill="#b26948" d="M200.5 347.5a88.371 88.371 0 0 0 11 20c5.549 8.056 12.049 15.39 19.5 22 1.903 1.941 2.736 4.274 2.5 7v4c-2.177 4.176-5.677 6.176-10.5 6a103.254 103.254 0 0 1-20.5-6c-.667 20.163-1.333 40.163-2 60 .167-25.336 0-50.669-.5-76-6.225-5.872-11.558-5.205-16 2a18.453 18.453 0 0 0-.5 6 143.798 143.798 0 0 1-25-12v-1c-1.817-16.891 5.516-27.058 22-30.5a196.99 196.99 0 0 0 20-1.5Z" style="opacity:1"/><path fill="#fedc41" d="M211.5 367.5h2c4.827 3.583 10.161 6.416 16 8.5 24.591 6.944 47.924 4.111 70-8.5-5.883 8.391-12.717 16.057-20.5 23a10.134 10.134 0 0 0-1.5 4c-.977 2.787-1.31 5.787-1 9-14.007 2.641-28.007 2.641-42 0 .302-2.559-.032-4.893-1-7 .236-2.726-.597-5.059-2.5-7-7.451-6.61-13.951-13.944-19.5-22Z" style="opacity:1"/><path fill="#93512f" d="M158.5 380.5a143.798 143.798 0 0 0 25 12c-.167 23.002 0 46.002.5 69 3.04 5.868 7.54 7.368 13.5 4.5 1.66-1.488 2.66-3.321 3-5.5.667-19.837 1.333-39.837 2-60 6.63 2.71 13.464 4.71 20.5 6 4.823.176 8.323-1.824 10.5-6v110c-45.025-3.56-85.691-18.56-122-45-.167-15.67 0-31.337.5-47 .466-5.398 2.133-10.398 5-15 10.355-13.837 24.189-21.504 41.5-23Z" style="opacity:.997"/><path fill="#dcebfb" d="M200.5 460.5c-.34 2.179-1.34 4.012-3 5.5-5.96 2.868-10.46 1.368-13.5-4.5a2379.52 2379.52 0 0 1-.5-69 18.453 18.453 0 0 1 .5-6c4.442-7.205 9.775-7.872 16-2 .5 25.331.667 50.664.5 76Z" style="opacity:1"/><path fill="#ddebfc" d="M327.5 459.5c.028 2.082-.639 3.916-2 5.5-6.229 4.216-11.062 3.05-14.5-3.5-.5-20.664-.667-41.331-.5-62a98.432 98.432 0 0 1 .5-14l2.5-3c5.49-3.289 9.99-2.289 13.5 3 .5 24.664.667 49.331.5 74Z" style="opacity:1"/><path fill="#753616" d="M437.5 430.5c-4.402 5.909-9.402 11.409-15 16.5a275.28 275.28 0 0 1-27 21.5c-.167-23.669 0-47.336.5-71 2.353-4.926 6.186-6.76 11.5-5.5 15.399 8.572 25.399 21.406 30 38.5Z" style="opacity:1"/><path fill="#fcc538" d="M277.5 394.5v117h-44v-115c.968 2.107 1.302 4.441 1 7 13.993 2.641 27.993 2.641 42 0-.31-3.213.023-6.213 1-9Z" style="opacity:.999"/></svg>