<svg xmlns="http://www.w3.org/2000/svg" width="512" height="512" style="shape-rendering:geometricPrecision;text-rendering:geometricPrecision;image-rendering:optimizeQuality;fill-rule:evenodd;clip-rule:evenodd"><path fill="#fae17f" d="M232.5-.5h46c89.644 10.888 157.144 55.221 202.5 133 16.695 31.471 26.861 64.804 30.5 100v14l-137-136c-22.179-26.347-48.846-46.847-80-61.5-12.677-5.376-25.677-7.542-39-6.5-19.754 1.877-36.754 9.71-51 23.5-26.845 4.513-41.678 20.346-44.5 47.5a226.874 226.874 0 0 0 1.5 41c-7.395 5.799-10.728 13.465-10 23 .52 8.332 1.02 16.665 1.5 25 1.666 7.037 5.499 12.37 11.5 16 6.333 7 13 13.667 20 20a199.407 199.407 0 0 0 15 22v69c-29.335-.167-58.669 0-88 .5-20.055 4.388-32.555 16.554-37.5 36.5-.5 22.998-.667 45.998-.5 69-43.201-43.411-67.868-95.744-74-157v-46C10.387 142.857 54.72 75.357 132.5 30c31.471-16.695 64.804-26.861 100-30.5Z" style="opacity:.995"/><path fill="#af5e22" d="M255.5 42.5v108c-20.12-.191-39.787-3.191-59-9a1458.129 1458.129 0 0 0-11.5 53l-20-22a398.44 398.44 0 0 1-3.5-18 226.874 226.874 0 0 1-1.5-41c2.822-27.154 17.655-42.987 44.5-47.5 14.246-13.79 31.246-21.623 51-23.5Z" style="opacity:1"/><path fill="#89491d" d="M374.5 110.5a130.308 130.308 0 0 1-23.5 17l-1.5 24c-.732 7.364-2.232 14.698-4.5 22a583.14 583.14 0 0 1-19.5 21 430.938 430.938 0 0 1-10-51 230.866 230.866 0 0 1-60 7v-108c13.323-1.042 26.323 1.124 39 6.5 31.154 14.653 57.821 35.153 80 61.5Z" style="opacity:1"/><path fill="#eec859" d="m374.5 110.5 137 136v32c-6.133 61.257-30.799 113.59-74 157 .167-23.002 0-46.002-.5-69-5.188-20.856-18.354-33.023-39.5-36.5-28.665-.5-57.331-.667-86-.5v-68c9.535-12.392 17.035-26.059 22.5-41 17.697-.707 26.031-10.041 25-28 .667-8.333.667-16.667 0-25-1.755-5.17-4.755-9.504-9-13a4.934 4.934 0 0 1-.5-3l1.5-24a130.308 130.308 0 0 0 23.5-17Z" style="opacity:1"/><path fill="#fec296" d="M255.5 150.5v138c-22.553-1.943-41.22-11.276-56-28a199.407 199.407 0 0 1-15-22 581.46 581.46 0 0 1-7.5-18 260.364 260.364 0 0 0-12.5-2c-6.001-3.63-9.834-8.963-11.5-16-.48-8.335-.98-16.668-1.5-25-.728-9.535 2.605-17.201 10-23a398.44 398.44 0 0 0 3.5 18l20 22a1458.129 1458.129 0 0 1 11.5-53c19.213 5.809 38.88 8.809 59 9Z" style="opacity:1"/><path fill="#e9a577" d="M349.5 151.5a4.934 4.934 0 0 0 .5 3c4.245 3.496 7.245 7.83 9 13 .667 8.333.667 16.667 0 25 1.031 17.959-7.303 27.293-25 28-5.465 14.941-12.965 28.608-22.5 41-15.227 15.946-33.894 24.946-56 27v-138a230.866 230.866 0 0 0 60-7 430.938 430.938 0 0 0 10 51 583.14 583.14 0 0 0 19.5-21c2.268-7.302 3.768-14.636 4.5-22Z" style="opacity:1"/><path fill="#efc75b" d="M164.5 218.5c4.207.569 8.373 1.236 12.5 2a581.46 581.46 0 0 0 7.5 18c-7-6.333-13.667-13-20-20Z" style="opacity:1"/><path fill="#eaa678" d="M199.5 260.5c14.78 16.724 33.447 26.057 56 28v41h-56v-69Z" style="opacity:1"/><path fill="#d38c5b" d="M311.5 261.5v68h-56v-41c22.106-2.054 40.773-11.054 56-27Z" style="opacity:1"/><path fill="#fec397" d="M199.5 330.5v-1h56v31c-23.837-.582-42.503-10.582-56-30Z" style="opacity:1"/><path fill="#eaa678" d="M255.5 329.5h55c-9.524 15.951-23.524 25.784-42 29.5a345.467 345.467 0 0 1-13 1.5v-31Z" style="opacity:1"/><path fill="#336b90" d="M199.5 329.5v176c-15.331-2.889-29.997-7.556-44-14a1296.178 1296.178 0 0 0 1-72h-32v56c-19.3-10.288-36.3-23.622-51-40-.167-23.002 0-46.002.5-69 4.945-19.946 17.445-32.112 37.5-36.5 29.331-.5 58.665-.667 88-.5Z" style="opacity:.999"/><path fill="#205077" d="M311.5 329.5c28.669-.167 57.335 0 86 .5 21.146 3.477 34.312 15.644 39.5 36.5.5 22.998.667 45.998.5 69-14.7 16.378-31.7 29.712-51 40v-56h-32c-.331 24.172.002 48.172 1 72-12.726 5.908-26.059 10.241-40 13h-4v-175Z" style="opacity:.999"/><path fill="#fffefe" d="M199.5 330.5c13.497 19.418 32.163 29.418 56 30v151h-23a344.081 344.081 0 0 1-33-6v-175Z" style="opacity:.997"/><path fill="#cecece" d="M310.5 329.5h1v175h4a308.28 308.28 0 0 1-37 7h-23v-151c4.335-.417 8.668-.917 13-1.5 18.476-3.716 32.476-13.549 42-29.5Z" style="opacity:1"/><path fill="#205077" d="M155.5 491.5c-11.094-4.046-21.427-9.379-31-16v-56h32c.331 24.172-.002 48.172-1 72Z" style="opacity:1"/><path fill="#163c66" d="M386.5 475.5c-9.573 6.621-19.906 11.954-31 16a1296.178 1296.178 0 0 1-1-72h32v56Z" style="opacity:1"/></svg>