<svg xmlns="http://www.w3.org/2000/svg" width="512" height="512" style="shape-rendering:geometricPrecision;text-rendering:geometricPrecision;image-rendering:optimizeQuality;fill-rule:evenodd;clip-rule:evenodd"><path fill="#e9af49" d="M241.5-.5h30c19.071 3.366 36.405 10.866 52 22.5 4.247 3.742 7.914 7.908 11 12.5 6.973 10.055 12.14 21.055 15.5 33l32 58c11.282 26.311 11.282 52.644 0 79a388.39 388.39 0 0 0-18.5 38c-14.29 8.031-27.29 6.364-39-5a289.624 289.624 0 0 0 16-48c4.742.364 8.908-.97 12.5-4 1.79-12.794-1.71-23.794-10.5-33a376.593 376.593 0 0 1-15.5-17c-7.083-12.34-10.083-25.674-9-40-3.203-15.203-12.369-24.37-27.5-27.5a90.496 90.496 0 0 0-19 0 80.502 80.502 0 0 1-15.5 3.5 77.965 77.965 0 0 0-15.5-3c0-.667-.333-1-1-1a221.649 221.649 0 0 1-10.5-14c-9.251-16.145-9.751-32.478-1.5-49-.124-.607-.457-.94-1-1 4.94-1.588 9.94-2.92 15-4Z" style="opacity:.997"/><path fill="#e99839" d="M226.5 3.5c.543.06.876.393 1 1-8.251 16.522-7.751 32.855 1.5 49a221.649 221.649 0 0 0 10.5 14c-12.955-2.22-24.455.78-34.5 9a45.111 45.111 0 0 0-8 14 2827.548 2827.548 0 0 1-5 35 87.45 87.45 0 0 1-6 11 376.593 376.593 0 0 1-15.5 17c-9.102 9.685-11.769 20.851-8 33.5 3.036 2.006 6.369 2.84 10 2.5 5.478 21.914 13.644 42.914 24.5 63a462.002 462.002 0 0 0 14.5 20c-4.093.882-7.76 2.549-11 5-12.362 2.847-23.362 8.347-33 16.5a1080.409 1080.409 0 0 0-25 33.5 33.691 33.691 0 0 0-9 2c-.718-7.971.449-15.637 3.5-23a147.374 147.374 0 0 0 15-33c1.572-11.703.238-23.036-4-34a680.917 680.917 0 0 0-16-31c-12.57-26.298-13.57-52.965-3-80a911.951 911.951 0 0 1 28-50 259.089 259.089 0 0 0 12-29 82.827 82.827 0 0 1 9.5-16c12.359-15.529 28.359-25.529 48-30Z" style="opacity:.999"/><path fill="#38273f" d="M178.5 33.5a82.827 82.827 0 0 0-9.5 16 259.089 259.089 0 0 1-12 29 911.951 911.951 0 0 0-28 50c-10.57 27.035-9.57 53.702 3 80a680.917 680.917 0 0 1 16 31c4.238 10.964 5.572 22.297 4 34a147.374 147.374 0 0 1-15 33c-3.051 7.363-4.218 15.029-3.5 23-45.166 4.184-72.832 28.184-83 72-10.428-15.523-18.762-32.19-25-50 5.5-7.666 12.167-14.166 20-19.5 14.702-7.34 29.368-14.673 44-22 15.814-14.109 21.647-31.609 17.5-52.5a1438.663 1438.663 0 0 0-15-40c-5.442-24.622-4.442-48.956 3-73l9-26c2.592-13.97-.575-26.303-9.5-37 24.569-21.63 52.569-37.63 84-48ZM334.5 34.5c30.757 10.035 58.09 25.701 82 47-9.151 10.648-12.318 22.982-9.5 37a304.957 304.957 0 0 1 14 46c2.482 17.8 1.815 35.467-2 53a1437.072 1437.072 0 0 0-15 40c-4.008 34.451 10.825 56.285 44.5 65.5 15.135 5.981 27.469 15.481 37 28.5-6.238 17.81-14.572 34.477-25 50-5.186-28.689-20.852-49.523-47-62.5a345.785 345.785 0 0 0-35-9.5 112.97 112.97 0 0 0-.5-15 306.124 306.124 0 0 0-14-30c-5.788-13.965-5.955-27.965-.5-42a388.39 388.39 0 0 1 18.5-38c11.282-26.356 11.282-52.689 0-79l-32-58c-3.36-11.945-8.527-22.945-15.5-33Z" style="opacity:.998"/><path fill="#fed8a0" d="M239.5 67.5c.667 0 1 .333 1 1-15.712 50.308-15.879 100.642-.5 151 8.941 24.947 23.441 46.114 43.5 63.5a4.934 4.934 0 0 0 3 .5c-8.658 6.569-18.491 10.569-29.5 12-15.432-2.799-28.932-9.466-40.5-20a168.522 168.522 0 0 1-2 6 32.462 32.462 0 0 0-.5-8c-.671-.752-1.504-1.086-2.5-1a462.002 462.002 0 0 1-14.5-20c-10.856-20.086-19.022-41.086-24.5-63a253.35 253.35 0 0 1-2-36 376.593 376.593 0 0 0 15.5-17 87.45 87.45 0 0 0 6-11 2827.548 2827.548 0 0 0 5-35 45.111 45.111 0 0 1 8-14c10.045-8.22 21.545-11.22 34.5-9Z" style="opacity:1"/><path fill="#fbe5c9" d="M342.5 152.5a217.884 217.884 0 0 1-2 37 289.624 289.624 0 0 1-16 48c-5.927 12.865-13.593 24.532-23 35-1.904.238-3.238 1.238-4 3l-11 8a4.934 4.934 0 0 1-3-.5c-20.059-17.386-34.559-38.553-43.5-63.5-15.379-50.358-15.212-100.692.5-151a77.965 77.965 0 0 1 15.5 3 80.502 80.502 0 0 0 15.5-3.5 90.496 90.496 0 0 1 19 0c15.131 3.13 24.297 12.297 27.5 27.5-1.083 14.326 1.917 27.66 9 40a376.593 376.593 0 0 0 15.5 17Z" style="opacity:1"/><path fill="#55405d" d="M94.5 81.5c8.925 10.697 12.092 23.03 9.5 37l-9 26c-7.442 24.044-8.442 48.378-3 73a1438.663 1438.663 0 0 1 15 40c4.147 20.891-1.686 38.391-17.5 52.5a40625.218 40625.218 0 0 1-44 22c-7.833 5.334-14.5 11.834-20 19.5C-.88 275.742 6.62 203.409 48 134.5c12.816-19.985 28.316-37.652 46.5-53ZM416.5 81.5c37.848 32.648 63.348 73.315 76.5 122 9.591 40.589 9.924 81.256 1 122-2.167 8.998-5 17.665-8.5 26-9.531-13.019-21.865-22.519-37-28.5-33.675-9.215-48.508-31.049-44.5-65.5a1437.072 1437.072 0 0 1 15-40c3.815-17.533 4.482-35.2 2-53a304.957 304.957 0 0 0-14-46c-2.818-14.018.349-26.352 9.5-37Z" style="opacity:1"/><path fill="#fece8d" d="M170.5 153.5a253.35 253.35 0 0 0 2 36c-3.631.34-6.964-.494-10-2.5-3.769-12.649-1.102-23.815 8-33.5Z" style="opacity:1"/><path fill="#fecf8f" d="M342.5 152.5c8.79 9.206 12.29 20.206 10.5 33-3.592 3.03-7.758 4.364-12.5 4a217.884 217.884 0 0 0 2-37Z" style="opacity:1"/><path fill="#e9983a" d="M324.5 237.5c11.71 11.364 24.71 13.031 39 5-5.455 14.035-5.288 28.035.5 42a306.124 306.124 0 0 1 14 30c.499 4.989.666 9.989.5 15a81.802 81.802 0 0 1-10-2 289.12 289.12 0 0 0-25-34.5c-9.475-7.571-20.142-12.737-32-15.5-3.02-2.177-6.353-3.843-10-5 9.407-10.468 17.073-22.135 23-35Z" style="opacity:1"/><path fill="#bec7f4" d="M211.5 272.5c.996-.086 1.829.248 2.5 1 .497 2.646.664 5.313.5 8-.247 3.354-1.247 6.354-3 9-4.071-.38-7.738.62-11 3v-16c3.24-2.451 6.907-4.118 11-5Z" style="opacity:1"/><path fill="#bfc7f3" d="M301.5 272.5c3.647 1.157 6.98 2.823 10 5v16c-3.262-2.38-6.929-3.38-11-3-2.52-4.649-3.52-9.649-3-15 .762-1.762 2.096-2.762 4-3Z" style="opacity:1"/><path fill="#fdcd8e" d="m286.5 283.5 11-8c-.52 5.351.48 10.351 3 15-18.135 5.457-36.802 7.457-56 6a113.373 113.373 0 0 1-22-2.5c-4.029-.416-7.696-1.583-11-3.5 1.753-2.646 2.753-5.646 3-9a168.522 168.522 0 0 0 2-6c11.568 10.534 25.068 17.201 40.5 20 11.009-1.431 20.842-5.431 29.5-12Z" style="opacity:1"/><path fill="#d2dbf9" d="M200.5 277.5v16a1542.892 1542.892 0 0 0 2 51v18a314.118 314.118 0 0 0-24 18 2.428 2.428 0 0 0-.5-2c-5.657-6.507-12.49-11.174-20.5-14a311.903 311.903 0 0 1-24-5.5c-4.057-1.947-5.557-5.114-4.5-9.5 5.426-7.268 9.926-14.601 13.5-22a1080.409 1080.409 0 0 1 25-33.5c9.638-8.153 20.638-13.653 33-16.5ZM311.5 277.5c11.858 2.763 22.525 7.929 32 15.5a289.12 289.12 0 0 1 25 34.5 392.41 392.41 0 0 0 14.5 22c1.124 4.921-.709 8.088-5.5 9.5a827.986 827.986 0 0 0-25 6c-7.753 3.602-14.086 8.768-19 15.5a309.077 309.077 0 0 0-24-18v-18a1542.892 1542.892 0 0 0 2-51v-16Z" style="opacity:1"/><path fill="#945230" d="M211.5 290.5c3.304 1.917 6.971 3.084 11 3.5a113.373 113.373 0 0 0 22 2.5c3.477.823 7.144 1.323 11 1.5-14.24 15.655-15.74 32.488-4.5 50.5l4.5 4.5c3.986.499 7.986.666 12 .5-22.282 2.326-43.949-.674-65-9a1542.892 1542.892 0 0 1-2-51c3.262-2.38 6.929-3.38 11-3Z" style="opacity:1"/><path fill="#b26847" d="M300.5 290.5c4.071-.38 7.738.62 11 3a1542.892 1542.892 0 0 1-2 51c-13.504 5.209-27.504 8.209-42 9a72.367 72.367 0 0 1-12-.5l-4.5-4.5c-11.24-18.012-9.74-34.845 4.5-50.5-3.856-.177-7.523-.677-11-1.5 19.198 1.457 37.865-.543 56-6Z" style="opacity:1"/><path fill="#a7b6ee" d="M142.5 327.5c-3.574 7.399-8.074 14.732-13.5 22-1.057 4.386.443 7.553 4.5 9.5a311.903 311.903 0 0 0 24 5.5c-11.567 3.618-22.233 9.118-32 16.5-8.329 6.664-13.829 15.164-16.5 25.5-.18 18.74-.68 37.407-1.5 56-22.839-16.836-41.839-37.169-57-61 10.168-43.816 37.834-67.816 83-72a33.691 33.691 0 0 1 9-2Z" style="opacity:.997"/><path fill="#bdc7f6" d="M368.5 327.5a81.802 81.802 0 0 0 10 2 345.785 345.785 0 0 1 35 9.5c26.148 12.977 41.814 33.811 47 62.5a193.6 193.6 0 0 1-26 33c-2.721-9.556-7.721-17.723-15-24.5a57.668 57.668 0 0 0-12-8c-5.314-1.26-9.147.574-11.5 5.5a602.277 602.277 0 0 0 .5 60c-15.641 11.324-32.641 20.324-51 27a610.19 610.19 0 0 0 28.5-68c1.694-9.782-1.473-17.615-9.5-23.5a24345.898 24345.898 0 0 1-31-22.5c4.914-6.732 11.247-11.898 19-15.5a827.986 827.986 0 0 1 25-6c4.791-1.412 6.624-4.579 5.5-9.5a392.41 392.41 0 0 1-14.5-22Z" style="opacity:.997"/><path fill="#823c26" d="M202.5 344.5c21.051 8.326 42.718 11.326 65 9 14.496-.791 28.496-3.791 42-9v18a1328.225 1328.225 0 0 1-17 143c.14 1.53.807 2.53 2 3a673.803 673.803 0 0 1-17 3h-44c-4.157-.949-8.49-1.616-13-2a1051.282 1051.282 0 0 1-18-147v-18Z" style="opacity:.999"/><path fill="#ddedfe" d="M309.5 362.5a309.077 309.077 0 0 1 24 18 24345.898 24345.898 0 0 0 31 22.5c8.027 5.885 11.194 13.718 9.5 23.5a610.19 610.19 0 0 1-28.5 68c-16.237 7.073-33.237 11.74-51 14-1.193-.47-1.86-1.47-2-3a1328.225 1328.225 0 0 0 17-143Z" style="opacity:.998"/><path fill="#ddedfd" d="M202.5 362.5a1051.282 1051.282 0 0 0 18 147 267.982 267.982 0 0 1-54-14 779.852 779.852 0 0 1-28.5-69c-1.694-9.782 1.473-17.615 9.5-23.5a24345.898 24345.898 0 0 0 31-22.5 314.118 314.118 0 0 1 24-18Z" style="opacity:.998"/><path fill="#bec8f7" d="M157.5 364.5c8.01 2.826 14.843 7.493 20.5 14 .464.594.631 1.261.5 2a24345.898 24345.898 0 0 1-31 22.5c-8.027 5.885-11.194 13.718-9.5 23.5a779.852 779.852 0 0 0 28.5 69c-21.38-8.184-41.047-19.184-59-33 .82-18.593 1.32-37.26 1.5-56 2.671-10.336 8.171-18.836 16.5-25.5 9.767-7.382 20.433-12.882 32-16.5Z" style="opacity:.995"/><path fill="#a8b7ef" d="M434.5 434.5a223.242 223.242 0 0 1-38 33 602.277 602.277 0 0 1-.5-60c2.353-4.926 6.186-6.76 11.5-5.5a57.668 57.668 0 0 1 12 8c7.279 6.777 12.279 14.944 15 24.5Z" style="opacity:1"/></svg>