<svg xmlns="http://www.w3.org/2000/svg" width="512" height="512" style="shape-rendering:geometricPrecision;text-rendering:geometricPrecision;image-rendering:optimizeQuality;fill-rule:evenodd;clip-rule:evenodd"><path fill="#945230" d="M252.5-.5h18c20.146 2.887 38.48 10.387 55 22.5 4.602 4.094 8.602 8.594 12 13.5 8.139 10.959 12.972 23.292 14.5 37a1133.779 1133.779 0 0 0-2.5 59 49.369 49.369 0 0 0-11 1c-1.698-7.405-4.532-14.405-8.5-21a334.196 334.196 0 0 0-2-34c-4.966-17.757-16.799-26.09-35.5-25a110.35 110.35 0 0 0-32 6.5c-5.815.877-11.482.377-17-1.5a26.329 26.329 0 0 1-5-2c1.175.219 2.175-.114 3-1-8.588-13.048-9.088-26.382-1.5-40a89.859 89.859 0 0 1 12.5-15Z" style="opacity:.996"/><path fill="#753616" d="M238.5-.5h14a89.859 89.859 0 0 0-12.5 15c-7.588 13.618-7.088 26.952 1.5 40-.825.886-1.825 1.219-3 1a92.188 92.188 0 0 0-30-2.5c-14.05 2.383-22.55 10.55-25.5 24.5a334.196 334.196 0 0 0-2 34c-4.058 7.099-7.225 14.432-9.5 22-2.413-1.551-5.079-2.217-8-2a192.779 192.779 0 0 1-1.5-55 48.725 48.725 0 0 1 6-15c3.752-4.092 7.752-7.759 12-11 .004-6.577 1.171-12.91 3.5-19 8.58-15.314 21.58-24.813 39-28.5a738.971 738.971 0 0 1 16-3.5Z" style="opacity:1"/><path fill="#4ab0f6" d="M183.5 31.5c-2.329 6.09-3.496 12.423-3.5 19-4.248 3.241-8.248 6.908-12 11a48.725 48.725 0 0 0-6 15 192.779 192.779 0 0 0 1.5 55c-6.147-.005-9.981 2.995-11.5 9a16.242 16.242 0 0 0 0 8 302.308 302.308 0 0 1 11 32c3.157 4.825 7.657 6.825 13.5 6v5c1.665 24.019 10.331 45.019 26 63v1a101.212 101.212 0 0 0-21 10c-3.418 1.129-6.251 3.129-8.5 6a85.18 85.18 0 0 0-10.5 20.5 22.59 22.59 0 0 0 2 7.5 223593.96 223593.96 0 0 0-79 29.5c-4.51 1.418-8.51 3.585-12 6.5-17.212 10.562-28.88 25.562-35 45-9.132-15.947-15.799-32.947-20-51 22.428-22.066 48.428-38.899 78-50.5 10.313-5.64 19.479-12.806 27.5-21.5a68.669 68.669 0 0 0 7-14 114.982 114.982 0 0 0 1-29 408.87 408.87 0 0 1-7.5-57.5 382.542 382.542 0 0 0 2.5-40.5c-3.546-17.033-12.712-30.033-27.5-39 24.659-21.005 52.659-36.338 84-46ZM337.5 35.5a242.786 242.786 0 0 1 56 27.5 269.37 269.37 0 0 1 18 14.5c-14.788 8.967-23.954 21.967-27.5 39a605.007 605.007 0 0 0 2.5 42.5 454.065 454.065 0 0 1-7.5 55.5c-4.93 21.822 1.236 39.655 18.5 53.5a179.617 179.617 0 0 0 15 10c30.232 11.93 56.899 29.097 80 51.5-4.201 18.053-10.868 35.053-20 51-6.121-19.438-17.788-34.438-35-45-2.933-2.404-6.266-4.237-10-5.5a11616.677 11616.677 0 0 1-81-30.5c1.758-3.477 2.258-7.143 1.5-11a215.783 215.783 0 0 0-10-17c-2.249-2.871-5.082-4.871-8.5-6a101.212 101.212 0 0 0-21-10v-1c15.281-18.155 23.948-39.155 26-63v-5c5.843.825 10.343-1.175 13.5-6a302.308 302.308 0 0 1 11-32c1.95-8.721-1.216-14.387-9.5-17 .323-19.73 1.156-39.396 2.5-59-1.528-13.708-6.361-26.041-14.5-37Z" style="opacity:.997"/><path fill="#fea97a" d="M238.5 55.5a26.329 26.329 0 0 0 5 2c-8.453 6.896-13.286 15.896-14.5 27l-1 27a91.495 91.495 0 0 0-9 24 30.485 30.485 0 0 0 0 11 264.063 264.063 0 0 1 4.5 37l-2 2c-11.143 6.503-18.143 16.17-21 29-10.66-4.995-18.66-12.662-24-23v-5a1141.157 1141.157 0 0 1-5-53c2.275-7.568 5.442-14.901 9.5-22 .09-11.391.757-22.724 2-34 2.95-13.95 11.45-22.117 25.5-24.5a92.188 92.188 0 0 1 30 2.5Z" style="opacity:1"/><path fill="#fec6aa" d="M338.5 132.5c1.121 5.918 1.288 11.918.5 18a428.024 428.024 0 0 0-4.5 36v5c-4.951 9.617-12.284 16.951-22 22-3.166-13.867-11.166-23.7-24-29.5a504.035 504.035 0 0 0-24.5-6.5c-3.3-.101-5.8 1.233-7.5 4-1.834-2.917-4.5-4.25-8-4a359.144 359.144 0 0 1-25 6 264.063 264.063 0 0 0-4.5-37 30.485 30.485 0 0 1 0-11 91.495 91.495 0 0 1 9-24l1-27c1.214-11.104 6.047-20.104 14.5-27 5.518 1.877 11.185 2.377 17 1.5a110.35 110.35 0 0 1 32-6.5c18.701-1.09 30.534 7.243 35.5 25a334.196 334.196 0 0 1 2 34c3.968 6.595 6.802 13.595 8.5 21Z" style="opacity:1"/><path fill="#72c2f8" d="M99.5 77.5c14.788 8.967 23.954 21.967 27.5 39a382.542 382.542 0 0 1-2.5 40.5 408.87 408.87 0 0 0 7.5 57.5c.891 9.728.557 19.394-1 29a68.669 68.669 0 0 1-7 14c-8.021 8.694-17.187 15.86-27.5 21.5-29.572 11.601-55.572 28.434-78 50.5-21.922-94.821 1.744-176.321 71-244.5a101.995 101.995 0 0 1 10-7.5ZM411.5 77.5c49.344 40.653 78.511 92.987 87.5 157 2 21.333 2 42.667 0 64-1.231 10.66-3.398 20.994-6.5 31-23.101-22.403-49.768-39.57-80-51.5a179.617 179.617 0 0 1-15-10c-17.264-13.845-23.43-31.678-18.5-53.5a454.065 454.065 0 0 0 7.5-55.5 605.007 605.007 0 0 1-2.5-42.5c3.546-17.033 12.712-30.033 27.5-39Z" style="opacity:1"/><path fill="#fa9461" d="M163.5 131.5c2.921-.217 5.587.449 8 2a1141.157 1141.157 0 0 0 5 53c-5.843.825-10.343-1.175-13.5-6a302.308 302.308 0 0 0-11-32 16.242 16.242 0 0 1 0-8c1.519-6.005 5.353-9.005 11.5-9Z" style="opacity:1"/><path fill="#fdaa7c" d="M349.5 131.5c8.284 2.613 11.45 8.279 9.5 17a302.308 302.308 0 0 0-11 32c-3.157 4.825-7.657 6.825-13.5 6a428.024 428.024 0 0 1 4.5-36c.788-6.082.621-12.082-.5-18a49.369 49.369 0 0 1 11-1Z" style="opacity:1"/><path fill="#945230" d="M334.5 191.5c-2.052 23.845-10.719 44.845-26 63-12.436 12.555-27.103 21.555-44 27a157.4 157.4 0 0 1-14-8.5c-7.467-8.562-10.133-18.395-8-29.5.667 0 1-.333 1-1 6.196-2.041 9.696-6.374 10.5-13 1.667-1.333 3.333-1.333 5 0 2.791 12.645 10.291 16.812 22.5 12.5 9.008-3.652 14.175-10.152 15.5-19.5-8.755-9.629-19.589-15.462-32.5-17.5-3.516-2.871-6.183-6.371-8-10.5-3.73 8.708-10.396 13.208-20 13.5-2.891 1.274-5.558 2.774-8 4.5h-1c-8.467-7.283-10.134-15.949-5-26-.124-.607-.457-.94-1-1l2-2a359.144 359.144 0 0 0 25-6c3.5-.25 6.166 1.083 8 4 1.7-2.767 4.2-4.101 7.5-4a504.035 504.035 0 0 1 24.5 6.5c12.834 5.8 20.834 15.633 24 29.5 9.716-5.049 17.049-12.383 22-22Z" style="opacity:1"/><path fill="#763717" d="M221.5 185.5c.543.06.876.393 1 1-5.134 10.051-3.467 18.717 5 26-4.566 3.057-8.733 6.724-12.5 11 .267 4.208 1.934 7.875 5 11 6.244 6.207 13.744 9.207 22.5 9-2.133 11.105.533 20.938 8 29.5a157.4 157.4 0 0 0 14 8.5c-9.22 1.739-18.22.906-27-2.5-13.23-6.084-24.896-14.25-35-24.5-15.669-17.981-24.335-38.981-26-63 5.34 10.338 13.34 18.005 24 23 2.857-12.83 9.857-22.497 21-29Z" style="opacity:1"/><path fill="#fdc5a9" d="M243.5 242.5c-6.564-9.129-11.564-19.129-15-30 2.442-1.726 5.109-3.226 8-4.5 9.604-.292 16.27-4.792 20-13.5 1.817 4.129 4.484 7.629 8 10.5 12.911 2.038 23.745 7.871 32.5 17.5-1.325 9.348-6.492 15.848-15.5 19.5-12.209 4.312-19.709.145-22.5-12.5-1.667-1.333-3.333-1.333-5 0-.804 6.626-4.304 10.959-10.5 13Z" style="opacity:1"/><path fill="#fca87a" d="M227.5 212.5h1c3.436 10.871 8.436 20.871 15 30 0 .667-.333 1-1 1-8.756.207-16.256-2.793-22.5-9-3.066-3.125-4.733-6.792-5-11 3.767-4.276 7.934-7.943 12.5-11Z" style="opacity:1"/><path fill="#fd4557" d="M308.5 255.5a101.212 101.212 0 0 1 21 10 8217.635 8217.635 0 0 0-18 8 63.62 63.62 0 0 1-3-18ZM202.5 255.5a63.643 63.643 0 0 1-3 18 8548.6 8548.6 0 0 0-18-8 101.212 101.212 0 0 1 21-10Z" style="opacity:1"/><path fill="#fda87a" d="M202.5 254.5c10.104 10.25 21.77 18.416 35 24.5 8.78 3.406 17.78 4.239 27 2.5 16.897-5.445 31.564-14.445 44-27v1a63.62 63.62 0 0 0 3 18c-20.172 8.167-41.172 11.833-63 11-17.049-.68-33.383-4.347-49-11a63.643 63.643 0 0 0 3-18v-1Z" style="opacity:1"/><path fill="#fe7186" d="M181.5 265.5a8548.6 8548.6 0 0 1 18 8c15.617 6.653 31.951 10.32 49 11-21.633 13.526-26.967 31.86-16 55-27.32-5.651-49.986-18.985-68-40a22.59 22.59 0 0 1-2-7.5 85.18 85.18 0 0 1 10.5-20.5c2.249-2.871 5.082-4.871 8.5-6Z" style="opacity:1"/><path fill="#f89fb0" d="M329.5 265.5c3.418 1.129 6.251 3.129 8.5 6a215.783 215.783 0 0 1 10 17c.758 3.857.258 7.523-1.5 11-30.458 33.825-68.458 47.492-114 41v-1c-10.967-23.14-5.633-41.474 16-55 21.828.833 42.828-2.833 63-11a8217.635 8217.635 0 0 1 18-8Z" style="opacity:1"/><path fill="#e70154" d="M164.5 299.5c18.014 21.015 40.68 34.349 68 40v1c-23.004 2.056-44.004 9.556-63 22.5-8.98 6.802-14.813 15.636-17.5 26.5-.5 14.663-.667 29.33-.5 44v1h-43c.167-16.67 0-33.337-.5-50-1.781-11.691-6.448-22.025-14-31-6.25-6.842-13.083-12.842-20.5-18 3.49-2.915 7.49-5.082 12-6.5 26.354-9.847 52.688-19.68 79-29.5Z" style="opacity:1"/><path fill="#fe4155" d="M346.5 299.5a11616.677 11616.677 0 0 0 81 30.5c3.734 1.263 7.067 3.096 10 5.5-13.121 8.624-23.288 19.958-30.5 34a63.546 63.546 0 0 0-4 15c-.5 16.33-.667 32.663-.5 49h-251c-.167-14.67 0-29.337.5-44 2.687-10.864 8.52-19.698 17.5-26.5 18.996-12.944 39.996-20.444 63-22.5 45.542 6.492 83.542-7.175 114-41Z" style="opacity:1"/><path fill="#fe4155" d="M73.5 335.5c7.417 5.158 14.25 11.158 20.5 18 7.552 8.975 12.219 19.309 14 31 .5 16.663.667 33.33.5 50v28c-30.19-21.519-53.523-48.853-70-82 6.12-19.438 17.788-34.438 35-45Z" style="opacity:.993"/><path fill="#fe7086" d="M437.5 335.5c17.212 10.562 28.879 25.562 35 45-16.308 32.247-38.974 59.247-68 81-1.972-8.94-2.639-18.273-2-28-.167-16.337 0-32.67.5-49a63.546 63.546 0 0 1 4-15c7.212-14.042 17.379-25.376 30.5-34Z" style="opacity:.995"/><path fill="#cc0053" d="M108.5 434.5h43v54c-15.838-6.408-30.171-15.075-43-26v-28Z" style="opacity:.99"/><path fill="#e80054" d="M151.5 433.5h251c-.639 9.727.028 19.06 2 28-37.541 28.596-79.875 45.262-127 50h-44c-28.69-2.785-56.023-10.452-82-23v-55Z" style="opacity:.995"/></svg>