<svg xmlns="http://www.w3.org/2000/svg" width="512" height="512" style="shape-rendering:geometricPrecision;text-rendering:geometricPrecision;image-rendering:optimizeQuality;fill-rule:evenodd;clip-rule:evenodd"><path fill="#46314c" d="M238.5-.5h21c-20.039 16.69-23.372 36.356-10 59a198.248 198.248 0 0 1-19-4.5c-13.085-3.266-25.418-1.6-37 5-4.91 4.987-8.41 10.82-10.5 17.5a334.202 334.202 0 0 0-2 34c-4.331 7.31-7.498 14.977-9.5 23-2.413-1.551-5.079-2.217-8-2a221.267 221.267 0 0 1-2.5-51c1.208-12.77 7.208-22.436 18-29 .421-6.944 1.921-13.61 4.5-20 6.83-13.318 17.496-22.152 32-26.5 7.694-2.3 15.36-4.134 23-5.5Z" style="opacity:1"/><path fill="#56415e" d="M259.5-.5h11c20.598 3.13 39.264 10.963 56 23.5 4.247 3.742 7.914 7.908 11 12.5 8.447 11.237 13.28 23.904 14.5 38a570.625 570.625 0 0 0-2.5 58 32.462 32.462 0 0 0-8 .5c-.916.278-1.582.778-2 1.5-2.301-7.613-5.468-14.946-9.5-22l-1-28c-3.041-20.706-15.041-31.04-36-31a108.418 108.418 0 0 0-32.5 6.5 60.94 60.94 0 0 1-11 .5v-1c-13.372-22.644-10.039-42.31 10-59Z" style="opacity:.995"/><path fill="#88cd65" d="M183.5 31.5c-2.579 6.39-4.079 13.056-4.5 20-10.792 6.564-16.792 16.23-18 29a221.267 221.267 0 0 0 2.5 51c-5.862-.311-9.696 2.356-11.5 8-.667 3-.667 6 0 9a239.478 239.478 0 0 1 11 33c3.109 4.268 7.275 5.934 12.5 5 2.124 19.704 8.458 38.037 19 55a420.312 420.312 0 0 0-47 28.5c-12.752 10.578-20.085 24.078-22 40.5a4233.233 4233.233 0 0 1-49 18.5c-6.104 2.967-11.77 6.467-17 10.5a43.003 43.003 0 0 0-11.5 13 126.116 126.116 0 0 0-9.5 28c-9.132-15.947-15.799-32.947-20-51a204.819 204.819 0 0 1 35-28.5 58023.308 58023.308 0 0 0 56-30c19.202-13.249 26.702-31.415 22.5-54.5a1210.691 1210.691 0 0 0-7-43l-.5-15c.98-14.015 1.814-28.015 2.5-42-3.546-17.033-12.712-30.033-27.5-39 24.659-21.005 52.659-36.338 84-46Z" style="opacity:.997"/><path fill="#88cd65" d="M337.5 35.5a242.786 242.786 0 0 1 56 27.5 269.37 269.37 0 0 1 18 14.5c-14.788 8.967-23.954 21.967-27.5 39 .648 14.143 1.482 28.31 2.5 42.5a381.68 381.68 0 0 1-7.5 55.5c-4.913 21.792 1.254 39.626 18.5 53.5a179.617 179.617 0 0 0 15 10c30.232 11.93 56.899 29.097 80 51.5-4.201 18.053-10.868 35.053-20 51a126.096 126.096 0 0 0-9.5-28 43.002 43.002 0 0 0-11.5-13c-5.229-4.033-10.896-7.533-17-10.5a862.585 862.585 0 0 1-49-18.5c-2.004-18.179-10.338-32.679-25-43.5a482.3 482.3 0 0 0-44-25.5c10.388-16.831 16.388-35.165 18-55 5.769.866 10.269-1.134 13.5-6a198.008 198.008 0 0 1 10-30c.667-4 .667-8 0-12-1.488-3.99-4.322-6.324-8.5-7a570.625 570.625 0 0 1 2.5-58c-1.22-14.096-6.053-26.763-14.5-38Z" style="opacity:.998"/><path fill="#feaca2" d="M249.5 58.5v1c-7.252 5.87-11.419 13.537-12.5 23l-1 29a79.468 79.468 0 0 0-9 22c-.667 5-.667 10 0 15a2804.42 2804.42 0 0 0 9 63c7.947 26.58 23.614 47.247 47 62a126.955 126.955 0 0 0 18.5-14 453.203 453.203 0 0 1 10.5 22c6.296 24.349 2.129 46.683-12.5 67-21.8 13.556-45.133 16.723-70 9.5-5.839-2.084-11.173-4.917-16-8.5 16.563-5.395 27.73-16.395 33.5-33 5.037-11.482 7.537-23.482 7.5-36-11.132-.533-21.465-3.7-31-9.5a229.685 229.685 0 0 1-14-10.5 327.934 327.934 0 0 1-15-19c-10.542-16.963-16.876-35.296-19-55l-4-53c2.002-8.023 5.169-15.69 9.5-23 .09-11.39.757-22.724 2-34 2.09-6.68 5.59-12.513 10.5-17.5 11.582-6.6 23.915-8.266 37-5a198.248 198.248 0 0 0 19 4.5Z" style="opacity:1"/><path fill="#fec0ba" d="M339.5 133.5a128.507 128.507 0 0 1-.5 16 215.885 215.885 0 0 0-4.5 37c-1.612 19.835-7.612 38.169-18 55-4.97 5.975-9.97 11.975-15 18a126.955 126.955 0 0 1-18.5 14c-23.386-14.753-39.053-35.42-47-62a2804.42 2804.42 0 0 1-9-63c-.667-5-.667-10 0-15a79.468 79.468 0 0 1 9-22l1-29c1.081-9.463 5.248-17.13 12.5-23a60.94 60.94 0 0 0 11-.5 108.418 108.418 0 0 1 32.5-6.5c20.959-.04 32.959 10.294 36 31l1 28c4.032 7.054 7.199 14.387 9.5 22Z" style="opacity:1"/><path fill="#b3d566" d="M99.5 77.5c14.788 8.967 23.954 21.967 27.5 39a2022.979 2022.979 0 0 1-2.5 42l.5 15a1210.691 1210.691 0 0 1 7 43c4.202 23.085-3.298 41.251-22.5 54.5a58023.308 58023.308 0 0 1-56 30 204.819 204.819 0 0 0-35 28.5c-21.922-94.821 1.744-176.321 71-244.5a101.995 101.995 0 0 1 10-7.5ZM411.5 77.5c49.344 40.653 78.511 92.987 87.5 157 2 21.333 2 42.667 0 64-1.231 10.66-3.398 20.994-6.5 31-23.101-22.403-49.768-39.57-80-51.5a179.617 179.617 0 0 1-15-10c-17.246-13.874-23.413-31.708-18.5-53.5a381.68 381.68 0 0 0 7.5-55.5 1648.086 1648.086 0 0 1-2.5-42.5c3.546-17.033 12.712-30.033 27.5-39Z" style="opacity:1"/><path fill="#fd9889" d="M163.5 131.5c2.921-.217 5.587.449 8 2l4 53c-5.225.934-9.391-.732-12.5-5a239.478 239.478 0 0 0-11-33c-.667-3-.667-6 0-9 1.804-5.644 5.638-8.311 11.5-8Z" style="opacity:1"/><path fill="#feada2" d="M349.5 131.5c4.178.676 7.012 3.01 8.5 7 .667 4 .667 8 0 12a198.008 198.008 0 0 0-10 30c-3.231 4.866-7.731 6.866-13.5 6a215.885 215.885 0 0 1 4.5-37c.499-5.323.666-10.656.5-16 .418-.722 1.084-1.222 2-1.5a32.462 32.462 0 0 1 8-.5Z" style="opacity:1"/><path fill="#d2dbfa" d="M316.5 241.5a482.3 482.3 0 0 1 44 25.5c14.662 10.821 22.996 25.321 25 43.5-1.452 20.979-11.119 37.145-29 48.5a580.772 580.772 0 0 1-28 15.5h-1c1.009-9.158-2.991-12.992-12-11.5a14.51 14.51 0 0 0-4.5 4.5 98.432 98.432 0 0 0-.5 14 1246.839 1246.839 0 0 0-23.5 7c-4.137-.642-7.303-2.642-9.5-6v-7a223.713 223.713 0 0 0 22-27c14.629-20.317 18.796-42.651 12.5-67a453.203 453.203 0 0 0-10.5-22c5.03-6.025 10.03-12.025 15-18Z" style="opacity:1"/><path fill="#bdc7f6" d="M194.5 241.5a327.934 327.934 0 0 0 15 19l-9.5 19c-6.383 18.642-5.55 36.976 2.5 55a196.99 196.99 0 0 1-20 1.5c-13.978 3.471-21.645 12.304-23 26.5l-3-2c-19.504-11.012-29.837-27.678-31-50 1.915-16.422 9.248-29.922 22-40.5a420.312 420.312 0 0 1 47-28.5Z" style="opacity:1"/><path fill="#fe988a" d="M209.5 260.5a229.685 229.685 0 0 0 14 10.5c9.535 5.8 19.868 8.967 31 9.5.037 12.518-2.463 24.518-7.5 36-5.77 16.605-16.937 27.605-33.5 33h-2a173.004 173.004 0 0 1-9-15c-8.05-18.024-8.883-36.358-2.5-55l9.5-19Z" style="opacity:1"/><path fill="#266fc6" d="M125.5 310.5c1.163 22.322 11.496 38.988 31 50a253.46 253.46 0 0 1-17 6.5c-5.167 2.5-9 6.333-11.5 11.5a402.528 402.528 0 0 0-1.5 48 11.743 11.743 0 0 0-3 5 420.766 420.766 0 0 0-1 41 95.872 95.872 0 0 1-23-17c.167-20.669 0-41.336-.5-62-3.296-12.26-8.963-23.26-17-33a221.817 221.817 0 0 0-22.5-21c5.23-4.033 10.896-7.533 17-10.5a4233.233 4233.233 0 0 0 49-18.5Z" style="opacity:.998"/><path fill="#3e7fdd" d="M385.5 310.5a862.585 862.585 0 0 0 49 18.5c6.104 2.967 11.771 6.467 17 10.5-16.014 11.51-28.18 26.177-36.5 44a135.67 135.67 0 0 1-3 10c-.5 20.664-.667 41.331-.5 62a95.872 95.872 0 0 1-23 17v-9c.167-11.005 0-22.005-.5-33-1.018-2.428-2.852-3.762-5.5-4a729.55 729.55 0 0 0-54-1v-51a580.772 580.772 0 0 0 28-15.5c17.881-11.355 27.548-27.521 29-48.5Z" style="opacity:.999"/><path fill="#d2dbfa" d="M202.5 334.5a173.004 173.004 0 0 0 9 15c5.883 8.391 12.717 16.057 20.5 23a10.134 10.134 0 0 1 1.5 4v6c-2.044 4.026-5.377 6.026-10 6a223.81 223.81 0 0 1-23-6 112.97 112.97 0 0 0-.5-15c-3.51-5.289-8.01-6.289-13.5-3-2.643 2.766-3.643 6.099-3 10a201.37 201.37 0 0 1-24-12c1.355-14.196 9.022-23.029 23-26.5a196.99 196.99 0 0 0 20-1.5Z" style="opacity:1"/><path fill="#548bec" d="M451.5 339.5a43.002 43.002 0 0 1 11.5 13 126.096 126.096 0 0 1 9.5 28c-14.804 29.473-35.137 54.473-61 75-.167-20.669 0-41.336.5-62a135.67 135.67 0 0 0 3-10c8.32-17.823 20.486-32.49 36.5-44Z" style="opacity:.994"/><path fill="#548bec" d="M59.5 339.5a221.817 221.817 0 0 1 22.5 21c8.037 9.74 13.704 20.74 17 33 .5 20.664.667 41.331.5 62-25.863-20.527-46.196-45.527-61-75a126.116 126.116 0 0 1 9.5-28 43.003 43.003 0 0 1 11.5-13Z" style="opacity:.993"/><path fill="#47324d" d="M299.5 348.5a223.713 223.713 0 0 1-22 27c-.979 3.125-1.313 6.458-1 10-14.007 2.628-28.007 2.628-42 0 .31-3.213-.023-6.213-1-9a10.134 10.134 0 0 0-1.5-4c-7.783-6.943-14.617-14.609-20.5-23h2c4.827 3.583 10.161 6.416 16 8.5 24.867 7.223 48.2 4.056 70-9.5Z" style="opacity:1"/><path fill="#3e7fdd" d="m156.5 360.5 3 2a201.37 201.37 0 0 0 24 12v52h-57a402.528 402.528 0 0 1 1.5-48c2.5-5.167 6.333-9 11.5-11.5a253.46 253.46 0 0 0 17-6.5Z" style="opacity:1"/><path fill="#dbecfe" d="M200.5 382.5v62c-4.824 6.067-9.99 6.4-15.5 1a69.558 69.558 0 0 1-1.5-19v-52c-.643-3.901.357-7.234 3-10 5.49-3.289 9.99-2.289 13.5 3 .499 4.989.666 9.989.5 15Z" style="opacity:1"/><path fill="#dcedfe" d="M327.5 374.5v52a162.597 162.597 0 0 1-.5 18c-5.997 6.829-11.497 6.496-16.5-1v-62a98.432 98.432 0 0 1 .5-14 14.51 14.51 0 0 1 4.5-4.5c9.009-1.492 13.009 2.342 12 11.5Z" style="opacity:1"/><path fill="#3f7fdd" d="M200.5 382.5a223.81 223.81 0 0 0 23 6c4.623.026 7.956-1.974 10-6v128a154.598 154.598 0 0 1-33-5v-123Z" style="opacity:.998"/><path fill="#3e7fdd" d="M310.5 381.5v124a132.393 132.393 0 0 1-33 5v-128c2.197 3.358 5.363 5.358 9.5 6a1246.839 1246.839 0 0 1 23.5-7Z" style="opacity:.998"/><path fill="#6b5477" d="M277.5 375.5v136h-44v-135c.977 2.787 1.31 5.787 1 9 13.993 2.628 27.993 2.628 42 0-.313-3.542.021-6.875 1-10Z" style="opacity:.998"/><path fill="#5994e5" d="M327.5 374.5h1v51a729.55 729.55 0 0 1 54 1h-55v-52Z" style="opacity:1"/><path fill="#93c4fe" d="M126.5 426.5h57a69.558 69.558 0 0 0 1.5 19c5.51 5.4 10.676 5.067 15.5-1v21c-1.872 3.029-4.539 5.195-8 6.5a960.77 960.77 0 0 1-62 0c-2.833-1.5-5-3.667-6.5-6.5a577.896 577.896 0 0 1-.5-34 11.743 11.743 0 0 1 3-5ZM327.5 426.5h55c2.648.238 4.482 1.572 5.5 4 .5 10.995.667 21.995.5 33-1.051 4.222-3.718 7.055-8 8.5a960.77 960.77 0 0 1-62 0c-3.192-2.028-5.859-4.528-8-7.5v-21c5.003 7.496 10.503 7.829 16.5 1 .499-5.991.666-11.991.5-18Z" style="opacity:1"/><path fill="#72aafb" d="M123.5 431.5c-.167 11.338 0 22.672.5 34 1.5 2.833 3.667 5 6.5 6.5a960.77 960.77 0 0 0 62 0c3.461-1.305 6.128-3.471 8-6.5v40c-28.196-6.106-54.196-17.106-78-33a420.766 420.766 0 0 1 1-41Z" style="opacity:.98"/><path fill="#72aafb" d="M388.5 463.5v9c-23.809 15.897-49.809 26.897-78 33v-41c2.141 2.972 4.808 5.472 8 7.5a960.77 960.77 0 0 0 62 0c4.282-1.445 6.949-4.278 8-8.5Z" style="opacity:.979"/></svg>