<svg xmlns="http://www.w3.org/2000/svg" width="512" height="512" style="shape-rendering:geometricPrecision;text-rendering:geometricPrecision;image-rendering:optimizeQuality;fill-rule:evenodd;clip-rule:evenodd"><path fill="#fae180" d="M232.5-.5h46c89.644 10.888 157.144 55.221 202.5 133 16.695 31.471 26.861 64.804 30.5 100v12l-143-142c-25.689-31.978-59.022-50.311-100-55-22.293-3.43-42.959 1.07-62 13.5-42.984.65-60.817 22.15-53.5 64.5a213.335 213.335 0 0 0 6.5 28c-3.259 4.856-5.759 10.19-7.5 16a289.765 289.765 0 0 0 1 33c1.666 7.037 5.499 12.37 11.5 16 6.333 7 13 13.667 20 20a199.407 199.407 0 0 0 15 22v64c-32.668-.167-65.335 0-98 .5-24.165 5.163-39.665 19.663-46.5 43.5-.5 15.33-.667 30.663-.5 46-31.575-39.838-49.908-85.172-55-136v-46C10.387 142.857 54.72 75.357 132.5 30c31.471-16.695 64.804-26.861 100-30.5Z" style="opacity:.995"/><path fill="#515151" d="M268.5 47.5h-13c-.66 33.35.007 66.35 2 99-.342.838-1.008 1.172-2 1-21.17 1.696-41.837-.637-62-7a4.457 4.457 0 0 0-1.5 2 596.42 596.42 0 0 1-7.5 45 484.236 484.236 0 0 1-15.5-14 270.131 270.131 0 0 1-9.5-20 213.335 213.335 0 0 1-6.5-28c-7.317-42.35 10.516-63.85 53.5-64.5 19.041-12.43 39.707-16.93 62-13.5Z" style="opacity:1"/><path fill="#3d3d3d" d="M268.5 47.5c40.978 4.689 74.311 23.022 100 55-2.898 3.128-6.232 5.794-10 8a161.5 161.5 0 0 1-9 44 272.881 272.881 0 0 1-9.5 20l-16 14a5658.352 5658.352 0 0 0-9-56c-18.446 7.57-37.613 12.236-57.5 14-1.993-32.65-2.66-65.65-2-99h13Z" style="opacity:1"/><path fill="#eec859" d="m368.5 102.5 143 142v34c-5.09 50.293-23.09 95.293-54 135a377.022 377.022 0 0 0-1.5-45c-6.941-24.277-22.774-38.777-47.5-43.5-32.332-.5-64.665-.667-97-.5v-63c9.535-12.392 17.035-26.059 22.5-41 17.697-.707 26.031-10.041 25-28 .667-8.333.667-16.667 0-25-1.711-5.431-4.877-9.765-9.5-13a161.5 161.5 0 0 0 9-44c3.768-2.206 7.102-4.872 10-8Z" style="opacity:1"/><path fill="#e9a577" d="M349.5 154.5c4.623 3.235 7.789 7.569 9.5 13 .667 8.333.667 16.667 0 25 1.031 17.959-7.303 27.293-25 28-5.465 14.941-12.965 28.608-22.5 41-15.227 15.946-33.894 24.946-56 27v-141c.992.172 1.658-.162 2-1 19.887-1.764 39.054-6.43 57.5-14a5658.352 5658.352 0 0 1 9 56l16-14a272.881 272.881 0 0 0 9.5-20Z" style="opacity:1"/><path fill="#fec296" d="M255.5 147.5v141c-22.553-1.943-41.22-11.276-56-28a199.407 199.407 0 0 1-15-22 581.46 581.46 0 0 1-7.5-18 260.364 260.364 0 0 0-12.5-2c-6.001-3.63-9.834-8.963-11.5-16a289.765 289.765 0 0 1-1-33c1.741-5.81 4.241-11.144 7.5-16a270.131 270.131 0 0 0 9.5 20 484.236 484.236 0 0 0 15.5 14 596.42 596.42 0 0 0 7.5-45 4.457 4.457 0 0 1 1.5-2c20.163 6.363 40.83 8.696 62 7Z" style="opacity:1"/><path fill="#efc85b" d="M164.5 218.5c4.207.569 8.373 1.236 12.5 2a581.46 581.46 0 0 0 7.5 18c-7-6.333-13.667-13-20-20Z" style="opacity:1"/><path fill="#e9a577" d="M199.5 260.5c14.78 16.724 33.447 26.057 56 28v72l-56-36v-64Z" style="opacity:1"/><path fill="#d28b5b" d="M311.5 261.5v63a1549.988 1549.988 0 0 0-56 36v-72c22.106-2.054 40.773-11.054 56-27Z" style="opacity:1"/><path fill="#5bbb95" d="M199.5 324.5v181c-19.32-3.772-37.653-10.105-55-19a931.31 931.31 0 0 0 1-61h-32v43c-22.773-14.432-42.44-32.432-59-54-.167-15.337 0-30.67.5-46 6.835-23.837 22.335-38.337 46.5-43.5 32.665-.5 65.332-.667 98-.5Z" style="opacity:.999"/><path fill="#399d72" d="M311.5 324.5c32.335-.167 64.668 0 97 .5 24.726 4.723 40.559 19.223 47.5 43.5a377.022 377.022 0 0 1 1.5 45c-16.826 21.497-36.493 39.83-59 55v-43h-33a931.31 931.31 0 0 0 1 61c-16.069 8.358-33.069 14.358-51 18h-4v-180Z" style="opacity:.999"/><path fill="#c12156" d="m199.5 324.5 56 36v151h-23a344.081 344.081 0 0 1-33-6v-181Z" style="opacity:.998"/><path fill="#990541" d="M311.5 324.5v180h4a308.28 308.28 0 0 1-37 7h-23v-151a1549.988 1549.988 0 0 1 56-36Z" style="opacity:1"/><path fill="#399e73" d="M144.5 486.5c-11.16-4.741-21.494-10.741-31-18v-43h32a931.31 931.31 0 0 1-1 61Z" style="opacity:1"/><path fill="#207f54" d="M398.5 468.5a188.05 188.05 0 0 1-32 18 931.31 931.31 0 0 1-1-61h33v43Z" style="opacity:1"/></svg>