<svg xmlns="http://www.w3.org/2000/svg" width="512" height="512" style="shape-rendering:geometricPrecision;text-rendering:geometricPrecision;image-rendering:optimizeQuality;fill-rule:evenodd;clip-rule:evenodd"><path fill="#5bbb96" d="M232.5-.5h46c89.644 10.888 157.144 55.221 202.5 133 16.695 31.471 26.861 64.804 30.5 100v12l-165-164c-15.461-20.58-36.128-32.746-62-36.5a160.806 160.806 0 0 0-29-2.5c-26.02-.663-50.02 5.837-72 19.5-23.009 18.341-31.843 42.175-26.5 71.5a258.562 258.562 0 0 1 4.5 22c-6.803 5.275-10.136 12.275-10 21 .6 8.994 1.1 17.994 1.5 27 1.425 6.57 4.925 11.57 10.5 15a178.919 178.919 0 0 0 22 23 202.624 202.624 0 0 0 14 20v49a410.856 410.856 0 0 0-37 30c-24.669-.167-49.336 0-74 .5-17.391 4.391-28.558 15.224-33.5 32.5a882.407 882.407 0 0 0-.5 42c-31.575-39.838-49.908-85.172-55-136v-46C10.387 142.857 54.72 75.357 132.5 30c31.471-16.695 64.804-26.861 100-30.5Z" style="opacity:.997"/><path fill="#515151" d="M255.5 41.5c-.332 37.17.002 74.17 1 111 0 .667-.333 1-1 1a890.888 890.888 0 0 1-21.5-27 623.144 623.144 0 0 0-20 27 507.834 507.834 0 0 0-15.5-26 6105.384 6105.384 0 0 1-22.5 58 354.03 354.03 0 0 0-14.5-31 258.562 258.562 0 0 0-4.5-22c-5.343-29.325 3.491-53.159 26.5-71.5 21.98-13.663 45.98-20.163 72-19.5Z" style="opacity:1"/><path fill="#3d3d3d" d="M255.5 41.5c9.739-.044 19.406.79 29 2.5 25.872 3.754 46.539 15.92 62 36.5 5.898 11.426 8.898 23.593 9 36.5a204.376 204.376 0 0 1-6 37.5 1726.957 1726.957 0 0 0-13.5 32c-7.839-19.675-15.672-39.342-23.5-59a507.834 507.834 0 0 1-15.5 26 576.239 576.239 0 0 0-20.5-26c-6.69 8.352-13.357 16.686-20 25-.998-36.83-1.332-73.83-1-111Z" style="opacity:1"/><path fill="#309167" d="m346.5 80.5 165 164v34c-5.091 50.294-23.091 95.294-54 135a309.553 309.553 0 0 0-1.5-41c-5.822-19.822-18.989-30.989-39.5-33.5a2311.03 2311.03 0 0 0-68-.5 1219.606 1219.606 0 0 0-37-29v-48c9.535-12.392 17.035-26.059 22.5-41 10.831.422 18.498-4.244 23-14a171.89 171.89 0 0 0 2-39c-1.711-5.431-4.877-9.765-9.5-13a204.376 204.376 0 0 0 6-37.5c-.102-12.907-3.102-25.074-9-36.5Z" style="opacity:1"/><path fill="#fec296" d="M255.5 153.5v135c-22.553-1.943-41.22-11.276-56-28a202.624 202.624 0 0 1-14-20 265.933 265.933 0 0 1-8.5-20 63.266 63.266 0 0 1-13.5-3c-5.575-3.43-9.075-8.43-10.5-15-.4-9.006-.9-18.006-1.5-27-.136-8.725 3.197-15.725 10-21a354.03 354.03 0 0 1 14.5 31 6105.384 6105.384 0 0 0 22.5-58 507.834 507.834 0 0 1 15.5 26 623.144 623.144 0 0 1 20-27 890.888 890.888 0 0 0 21.5 27Z" style="opacity:1"/><path fill="#e9a577" d="M349.5 154.5c4.623 3.235 7.789 7.569 9.5 13a171.89 171.89 0 0 1-2 39c-4.502 9.756-12.169 14.422-23 14-5.465 14.941-12.965 28.608-22.5 41-15.227 15.946-33.894 24.946-56 27v-135c.667 0 1-.333 1-1 6.643-8.314 13.31-16.648 20-25a576.239 576.239 0 0 1 20.5 26 507.834 507.834 0 0 0 15.5-26c7.828 19.658 15.661 39.325 23.5 59a1726.957 1726.957 0 0 1 13.5-32Z" style="opacity:1"/><path fill="#39946a" d="M163.5 217.5a63.266 63.266 0 0 0 13.5 3 265.933 265.933 0 0 0 8.5 20 178.919 178.919 0 0 1-22-23Z" style="opacity:1"/><path fill="#e9a578" d="M199.5 260.5c14.78 16.724 33.447 26.057 56 28v79h-1c-18.361-19.36-36.694-38.693-55-58v-49Z" style="opacity:1"/><path fill="#d28b5b" d="M311.5 261.5v48l-55 58h-1v-79c22.106-2.054 40.773-11.054 56-27Z" style="opacity:1"/><path fill="#346b90" d="M199.5 309.5c18.306 19.307 36.639 38.64 55 58v2a3198.053 3198.053 0 0 0-45.5 27 3685.812 3685.812 0 0 1-46.5-57 410.856 410.856 0 0 1 37-30Z" style="opacity:1"/><path fill="#173c66" d="M311.5 309.5a1219.606 1219.606 0 0 1 37 29 1264.08 1264.08 0 0 1-46.5 58 2715.971 2715.971 0 0 0-42.5-25.5c-1.563-.759-2.563-1.926-3-3.5l55-58Z" style="opacity:1"/><path fill="#fefefe" d="M162.5 339.5a3685.812 3685.812 0 0 0 46.5 57 3198.053 3198.053 0 0 1 45.5-27 5041.406 5041.406 0 0 1 1 142h-23c-30.247-3.147-59.247-11.147-87-24v-62h-32v43c-22.773-14.432-42.44-32.432-59-54-.167-14.004 0-28.004.5-42 4.942-17.276 16.109-28.109 33.5-32.5 24.664-.5 49.331-.667 74-.5Z" style="opacity:.996"/><path fill="#dadada" d="M348.5 338.5c22.669-.167 45.336 0 68 .5 20.511 2.511 33.678 13.678 39.5 33.5a309.553 309.553 0 0 1 1.5 41c-16.826 21.497-36.493 39.83-59 55v-43h-33a931.31 931.31 0 0 0 1 61c-27.843 13.615-57.176 21.948-88 25h-23c.332-47.503-.001-94.836-1-142v-2h2c.437 1.574 1.437 2.741 3 3.5a2715.971 2715.971 0 0 1 42.5 25.5 1264.08 1264.08 0 0 0 46.5-58Z" style="opacity:1"/><path fill="#dbdbdb" d="M145.5 487.5c-11.363-5.341-22.03-11.674-32-19v-43h32v62Z" style="opacity:1"/><path fill="silver" d="M398.5 468.5a188.05 188.05 0 0 1-32 18 931.31 931.31 0 0 1-1-61h33v43Z" style="opacity:1"/></svg>