<svg xmlns="http://www.w3.org/2000/svg" width="512" height="512" style="shape-rendering:geometricPrecision;text-rendering:geometricPrecision;image-rendering:optimizeQuality;fill-rule:evenodd;clip-rule:evenodd"><path fill="#543e5b" d="M238.5-.5h17c-8.557 7.066-15.057 15.733-19.5 26-2.548 10.592-1.381 20.759 3.5 30.5-.07.765-.403 1.265-1 1.5-13.302-3.657-26.635-3.823-40-.5-11.819 5.768-18.653 15.268-20.5 28.5a332.355 332.355 0 0 1-2 33 148.23 148.23 0 0 0-9.5 21 21.028 21.028 0 0 0-7-2c-3.888-18.538-4.721-37.204-2.5-56a57.995 57.995 0 0 1 6-16 81.461 81.461 0 0 1 13-12c.084-7.333 1.584-14.333 4.5-21 4.023-7.862 9.69-14.362 17-19.5 12.965-7.045 26.632-11.544 41-13.5Z" style="opacity:1"/><path fill="#665364" d="M255.5-.5h15c28.535 3.1 52.202 15.433 71 37 8.752 11.854 13.919 25.187 15.5 40a1401.438 1401.438 0 0 0-3.5 61c-3.532-.19-6.865.477-10 2a122.813 122.813 0 0 0-9.5-24c4.174-54.677-19.659-72.843-71.5-54.5-7.62 1.172-14.954.34-22-2.5-.992.172-1.658-.162-2-1 .597-.235.93-.735 1-1.5-4.881-9.741-6.048-19.908-3.5-30.5 4.443-10.267 10.943-18.934 19.5-26Z" style="opacity:.995"/><path fill="#5aaa5f" d="M180.5 32.5c-2.916 6.667-4.416 13.667-4.5 21a81.461 81.461 0 0 0-13 12 57.995 57.995 0 0 0-6 16c-2.221 18.796-1.388 37.462 2.5 56-10.276 1.507-14.442 7.507-12.5 18a82.399 82.399 0 0 0 3.5 9 607.363 607.363 0 0 0 8.5 26c3.093 4.295 7.26 5.962 12.5 5 2.489 26.31 12.155 49.643 29 70l-3 20c-1.238-.912-2.572-1.079-4-.5a3291.558 3291.558 0 0 0-13 11.5c-2.027-3.336-4.693-3.836-8-1.5l-26 20a93.459 93.459 0 0 0-8 8.5 294.02 294.02 0 0 0-29 14.5c-31.163 1.4-55.163 14.9-72 40.5-9.74-17.54-16.74-36.206-21-56 8.385-7.192 17.718-13.025 28-17.5a921.99 921.99 0 0 1 56-19c30.028-9.215 40.861-29.048 32.5-59.5a4389.601 4389.601 0 0 0-30-83 228.493 228.493 0 0 1-2-49 119.106 119.106 0 0 1 4.5-20c-.124-.607-.457-.94-1-1 22.618-18.315 47.951-31.982 76-41Z" style="opacity:.997"/><path fill="#5aaa5f" d="M341.5 36.5c23.545 8.43 44.878 20.43 64 36 7.875 31.459 6.375 62.459-4.5 93a472.915 472.915 0 0 0-23 61c-8.068 27.181.765 46.347 26.5 57.5a3384.642 3384.642 0 0 1 62 21c10.282 4.475 19.615 10.308 28 17.5-4.261 19.794-11.261 38.46-21 56-16.793-25.073-40.459-38.239-71-39.5a640.138 640.138 0 0 0-30-15.5 93.459 93.459 0 0 0-8-8.5l-26-20c-3.307-2.336-5.973-1.836-8 1.5a85.96 85.96 0 0 1-13-11.5c-1.428-.579-2.762-.412-4 .5a180.963 180.963 0 0 1-3-20c16.704-20.453 26.371-43.787 29-70 5.24.962 9.407-.705 12.5-5a602.803 602.803 0 0 0 8.5-26c4.452-6.981 4.952-14.314 1.5-22-2.03-3.063-4.864-4.729-8.5-5a1401.438 1401.438 0 0 1 3.5-61c-1.581-14.813-6.748-28.146-15.5-40Z" style="opacity:.998"/><path fill="#fbac6d" d="M238.5 57.5c.342.838 1.008 1.172 2 1-9.033 6.714-14.533 15.714-16.5 27l-1 30a157.239 157.239 0 0 0-9 22c-.667 7-.667 14 0 21a1028.438 1028.438 0 0 1 6 52c6.243 29.23 21.077 53.064 44.5 71.5a140.729 140.729 0 0 0 14 7.5c12.128-6.063 22.794-14.063 32-24a180.963 180.963 0 0 0 3 20c.009 19.301-6.158 36.301-18.5 51l-19 19a10.134 10.134 0 0 0-1.5 4h-38c-.563-2.795-1.896-5.128-4-7 2.216-.703 4.049-2.036 5.5-4 10.425-16.446 15.925-34.446 16.5-54-22.252-1.955-40.252-11.622-54-29-16.845-20.357-26.511-43.69-29-70a174.944 174.944 0 0 0-3.5-32c-5.664 3.521-11.497 3.855-17.5 1a82.399 82.399 0 0 1-3.5-9c-1.942-10.493 2.224-16.493 12.5-18 2.437.256 4.771.923 7 2a148.23 148.23 0 0 1 9.5-21 332.355 332.355 0 0 0 2-33c1.847-13.232 8.681-22.732 20.5-28.5 13.365-3.323 26.698-3.157 40 .5Z" style="opacity:1"/><path fill="#f8b98e" d="M343.5 139.5a229.416 229.416 0 0 1-1 25 118.148 118.148 0 0 0-3 31c-2.629 26.213-12.296 49.547-29 70-9.206 9.937-19.872 17.937-32 24a140.729 140.729 0 0 1-14-7.5c-23.423-18.436-38.257-42.27-44.5-71.5a1028.438 1028.438 0 0 0-6-52c-.667-7-.667-14 0-21a157.239 157.239 0 0 1 9-22l1-30c1.967-11.286 7.467-20.286 16.5-27 7.046 2.84 14.38 3.672 22 2.5 51.841-18.343 75.674-.177 71.5 54.5a122.813 122.813 0 0 1 9.5 24Z" style="opacity:1"/><path fill="#80c56c" d="M104.5 73.5c.543.06.876.393 1 1a119.106 119.106 0 0 0-4.5 20 228.493 228.493 0 0 0 2 49 4389.601 4389.601 0 0 1 30 83c8.361 30.452-2.472 50.285-32.5 59.5a921.99 921.99 0 0 0-56 19c-10.282 4.475-19.615 10.308-28 17.5-18.428-92.537 5.906-171.703 73-237.5 4.7-4.336 9.7-8.169 15-11.5ZM405.5 72.5c55.669 43.642 87.169 100.975 94.5 172 1.98 26.313.146 52.313-5.5 78-8.385-7.192-17.718-13.025-28-17.5a3384.642 3384.642 0 0 0-62-21c-25.735-11.153-34.568-30.319-26.5-57.5a472.915 472.915 0 0 1 23-61c10.875-30.541 12.375-61.541 4.5-93Z" style="opacity:1"/><path fill="#f9ac6d" d="M353.5 137.5c3.636.271 6.47 1.937 8.5 5 3.452 7.686 2.952 15.019-1.5 22-.06-.543-.393-.876-1-1-5.495 3.5-11.162 3.833-17 1a229.416 229.416 0 0 0 1-25c3.135-1.523 6.468-2.19 10-2Z" style="opacity:1"/><path fill="#fb995b" d="M360.5 164.5a602.803 602.803 0 0 1-8.5 26c-3.093 4.295-7.26 5.962-12.5 5a118.148 118.148 0 0 1 3-31c5.838 2.833 11.505 2.5 17-1 .607.124.94.457 1 1ZM171.5 195.5c-5.24.962-9.407-.705-12.5-5a607.363 607.363 0 0 1-8.5-26c6.003 2.855 11.836 2.521 17.5-1a174.944 174.944 0 0 1 3.5 32Z" style="opacity:1"/><path fill="#fc995b" d="M200.5 265.5c13.748 17.378 31.748 27.045 54 29-.575 19.554-6.075 37.554-16.5 54-1.451 1.964-3.284 3.297-5.5 4l-11-10c-15.404-15.817-23.404-34.817-24-57l3-20Z" style="opacity:1"/><path fill="#dae1fc" d="M197.5 285.5c.596 22.183 8.596 41.183 24 57-6.102-.767-11.769.399-17 3.5a110.18 110.18 0 0 0-12 13 2.428 2.428 0 0 1-2 .5c0-.667-.333-1-1-1a746.004 746.004 0 0 1-9-62c4.302-3.826 8.635-7.659 13-11.5 1.428-.579 2.762-.412 4 .5Z" style="opacity:1"/><path fill="#e8edfd" d="M330.5 296.5a481.36 481.36 0 0 1-14.5 84 82.399 82.399 0 0 1-3.5 9 57.09 57.09 0 0 1-7 5.5c-1.667.667-3.333.667-5 0-4.805-3.486-8.805-7.653-12-12.5a299.564 299.564 0 0 0-12.5-17 10.098 10.098 0 0 1-1.5-6 10.134 10.134 0 0 1 1.5-4l19-19c12.342-14.699 18.509-31.699 18.5-51 1.238-.912 2.572-1.079 4-.5a85.96 85.96 0 0 0 13 11.5Z" style="opacity:1"/><path fill="#665364" d="M372.5 323.5c-.66 1.464-.993 3.131-1 5a336.856 336.856 0 0 1 .5 67c-.833 1.5-2 2.667-3.5 3.5a597.9 597.9 0 0 0-31 11c-1.218 1.438-1.885 3.105-2 5a239.366 239.366 0 0 0 17.5 27.5c1.373 2.195 1.706 4.529 1 7a589.656 589.656 0 0 1-62.5 60c-4.853.313-9.52.979-14 2h-21a688.114 688.114 0 0 0 25.5-43c2.006-3.036 2.84-6.369 2.5-10 .617.111 1.117.444 1.5 1a355.372 355.372 0 0 0 26.5-70 82.399 82.399 0 0 0 3.5-9 481.36 481.36 0 0 0 14.5-84c2.027-3.336 4.693-3.836 8-1.5l26 20a93.459 93.459 0 0 1 8 8.5Z" style="opacity:.999"/><path fill="#30144a" d="M138.5 323.5c.624.417.957 1.084 1 2a619.042 619.042 0 0 0-2.5 52c-16.929 10.618-28.262 25.618-34 45a179.42 179.42 0 0 0-5.5 32c-25.647-20.968-45.647-46.302-60-76 16.837-25.6 40.837-39.1 72-40.5a294.02 294.02 0 0 1 29-14.5Z" style="opacity:1"/><path fill="#543e5a" d="M372.5 323.5a640.138 640.138 0 0 1 30 15.5c30.541 1.261 54.207 14.427 71 39.5-12.529 25.378-29.196 47.711-50 67-4.859-4.13-9.859-8.296-15-12.5-7.424-1.037-12.924 1.796-16.5 8.5-.5 9.661-.666 19.328-.5 29-30.158 20.731-63.492 33.731-100 39a589.656 589.656 0 0 0 62.5-60c.706-2.471.373-4.805-1-7a239.366 239.366 0 0 1-17.5-27.5c.115-1.895.782-3.562 2-5a597.9 597.9 0 0 1 31-11c1.5-.833 2.667-2 3.5-3.5a336.856 336.856 0 0 0-.5-67c.007-1.869.34-3.536 1-5Z" style="opacity:.996"/><path fill="#e8edfd" d="m221.5 342.5 11 10c2.104 1.872 3.437 4.205 4 7v1c.009 1.808-.491 3.475-1.5 5a299.564 299.564 0 0 0-12.5 17c-3.195 4.847-7.195 9.014-12 12.5-1.667.667-3.333.667-5 0-2.808-1.316-5.141-3.15-7-5.5-3.582-9.656-6.249-19.656-8-30a2.428 2.428 0 0 0 2-.5 110.18 110.18 0 0 1 12-13c5.231-3.101 10.898-4.267 17-3.5Z" style="opacity:1"/><path fill="#685464" d="M236.5 360.5v-1h38a10.098 10.098 0 0 0 1.5 6 299.564 299.564 0 0 1 12.5 17l-8.5 17a53.864 53.864 0 0 1-6.5 6c-10.05-.544-15.883-5.877-17.5-16-1.704-10.25.463-19.583 6.5-28a169.926 169.926 0 0 0-26-1Z" style="opacity:1"/><path fill="#543e5b" d="M189.5 358.5c.667 0 1 .333 1 1 1.751 10.344 4.418 20.344 8 30a395.635 395.635 0 0 0 26.5 71c.77 1.098 1.603 1.098 2.5 0-.34 3.631.494 6.964 2.5 10a627.389 627.389 0 0 0 24.5 41h-21c-4.48-1.021-9.147-1.687-14-2a589.656 589.656 0 0 1-62.5-60c-.667-2-.667-4 0-6l18-26c.706-2.471.373-4.805-1-7L144.5 400c-2.557-.685-4.391-2.185-5.5-4.5a90.455 90.455 0 0 1 0-19c13.498-13.091 29.665-18.257 48.5-15.5 1.256-.417 1.923-1.25 2-2.5Z" style="opacity:.999"/><path fill="#422953" d="M180.5 296.5a746.004 746.004 0 0 0 9 62c-.077 1.25-.744 2.083-2 2.5-18.835-2.757-35.002 2.409-48.5 15.5a90.455 90.455 0 0 0 0 19c1.109 2.315 2.943 3.815 5.5 4.5l29.5 10.5c1.373 2.195 1.706 4.529 1 7l-18 26c-.667 2-.667 4 0 6a589.656 589.656 0 0 0 62.5 60c-45.975-6.995-86.641-25.328-122-55a179.42 179.42 0 0 1 5.5-32c5.738-19.382 17.071-34.382 34-45a619.042 619.042 0 0 1 2.5-52c-.043-.916-.376-1.583-1-2a93.459 93.459 0 0 1 8-8.5l26-20c3.307-2.336 5.973-1.836 8 1.5Z" style="opacity:.992"/><path fill="#bdc6f5" d="m222.5 382.5 8.5 17a73.412 73.412 0 0 0 7.5 7 187.255 187.255 0 0 0-8 32 187.56 187.56 0 0 0-3 22c-.897 1.098-1.73 1.098-2.5 0a395.635 395.635 0 0 1-26.5-71c1.859 2.35 4.192 4.184 7 5.5 1.667.667 3.333.667 5 0 4.805-3.486 8.805-7.653 12-12.5Z" style="opacity:1"/><path fill="#bdc7f5" d="M288.5 382.5c3.195 4.847 7.195 9.014 12 12.5 1.667.667 3.333.667 5 0a57.09 57.09 0 0 0 7-5.5 355.372 355.372 0 0 1-26.5 70c-.383-.556-.883-.889-1.5-1a137.03 137.03 0 0 0-3-21 187.231 187.231 0 0 0-8-32 53.864 53.864 0 0 0 6.5-6l8.5-17Z" style="opacity:1"/><path fill="#543e5b" d="M236.5 360.5c8.692-.331 17.359.002 26 1-6.037 8.417-8.204 17.75-6.5 28 1.617 10.123 7.45 15.456 17.5 16a187.231 187.231 0 0 1 8 32c-9.79 11.889-22.123 15.723-37 11.5-5.392-2.563-10.059-6.063-14-10.5a187.255 187.255 0 0 1 8-32 73.412 73.412 0 0 1-7.5-7l-8.5-17a299.564 299.564 0 0 1 12.5-17c1.009-1.525 1.509-3.192 1.5-5Z" style="opacity:1"/><path fill="#422953" d="M423.5 445.5a152.135 152.135 0 0 1-32 25c-.166-9.672 0-19.339.5-29 3.576-6.704 9.076-9.537 16.5-8.5 5.141 4.204 10.141 8.37 15 12.5ZM281.5 437.5a137.03 137.03 0 0 1 3 21c.34 3.631-.494 6.964-2.5 10a688.114 688.114 0 0 1-25.5 43h-2a627.389 627.389 0 0 1-24.5-41c-2.006-3.036-2.84-6.369-2.5-10a187.56 187.56 0 0 1 3-22c3.941 4.437 8.608 7.937 14 10.5 14.877 4.223 27.21.389 37-11.5Z" style="opacity:1"/></svg>