<svg xmlns="http://www.w3.org/2000/svg" width="512" height="512" style="shape-rendering:geometricPrecision;text-rendering:geometricPrecision;image-rendering:optimizeQuality;fill-rule:evenodd;clip-rule:evenodd"><path fill="#794645" d="M355.5-.5h9c2.262 2.185 3.762 4.852 4.5 8 6.142 20.694 4.975 41.027-3.5 61-11.815 20.073-29.482 28.74-53 26-38.001-.167-76.001 0-114 .5-30.091 7.769-43.091 27.103-39 58 .539 8.263-3.128 13.597-11 16-6.325.5-12.658.666-19 .5a7956.927 7956.927 0 0 1-4.5-86c4.922-28.25 21.755-43.084 50.5-44.5 10.052-13.046 23.052-21.712 39-26a33434.98 33434.98 0 0 1 109-3c11.526-1.231 22.192-4.731 32-10.5Z" style="opacity:.994"/><path fill="#845252" d="M365.5 68.5c19.803 7 28.303 21 25.5 42a1358.237 1358.237 0 0 0-9.5 59c-6.675.166-13.342 0-20-.5-6.835-2.672-10.169-7.672-10-15 4.732-25.851-4.601-44.518-28-56a130.697 130.697 0 0 0-11-2.5v-1c23.518 2.74 41.185-5.927 53-26Z" style="opacity:.994"/><path fill="#f0a572" d="M312.5 94.5v1h-7c-.524 8.357-4.857 13.524-13 15.5l-78 1c-18.283 4.616-29.449 16.116-33.5 34.5-.667 23-.667 46 0 69 9.163 51.325 38.996 82.992 89.5 95-26.65 3.451-51.317-1.882-74-16-29.539-19.255-45.872-46.588-49-82-9.135.9-17.802-.6-26-4.5-7.855-7.006-10.021-15.506-6.5-25.5 3.162-6.336 7.996-10.669 14.5-13 6.342.166 12.675 0 19-.5 7.872-2.403 11.539-7.737 11-16-4.091-30.897 8.909-50.231 39-58 37.999-.5 75.999-.667 114-.5Z" style="opacity:.993"/><path fill="#f7b97d" d="M312.5 95.5c3.688.672 7.355 1.505 11 2.5 23.399 11.482 32.732 30.149 28 56-.169 7.328 3.165 12.328 10 15 6.658.5 13.325.666 20 .5 13.638 5.612 18.472 15.612 14.5 30-2.562 5.561-6.728 9.394-12.5 11.5a94.41 94.41 0 0 1-20 1.5c-3.128 35.412-19.461 62.745-49 82-13.52 8.286-28.186 13.62-44 16-50.504-12.008-80.337-43.675-89.5-95-.667-23-.667-46 0-69 4.051-18.384 15.217-29.884 33.5-34.5l78-1c8.143-1.976 12.476-7.143 13-15.5h7Z" style="opacity:.998"/><path fill="#875553" d="M194.5 144.5c7.008-.166 14.008 0 21 .5 8.893 4.797 9.226 10.13 1 16-7.667.667-15.333.667-23 0-6.829-5.997-6.496-11.497 1-16.5ZM294.5 144.5c7.008-.166 14.008 0 21 .5 8.893 4.797 9.226 10.13 1 16-7.667.667-15.333.667-23 0-6.829-5.997-6.496-11.497 1-16.5Z" style="opacity:1"/><path fill="#62444f" d="M201.5 170.5c4.723-.947 8.556.386 11.5 4a64.218 64.218 0 0 1 0 16c-2.955 3.777-6.788 4.943-11.5 3.5a11.532 11.532 0 0 1-3.5-4.5c-.667-5-.667-10 0-15a19.552 19.552 0 0 0 3.5-4ZM301.5 170.5c4.723-.947 8.556.386 11.5 4 .667 5 .667 10 0 15-2.435 4.724-6.269 6.224-11.5 4.5l-3.5-3.5a64.218 64.218 0 0 1 0-16 19.552 19.552 0 0 0 3.5-4Z" style="opacity:1"/><path fill="#fefdfc" d="M222.5 224.5c21.669-.167 43.336 0 65 .5 2.564 1.062 4.231 2.896 5 5.5-6.071 18.047-18.738 27.381-38 28-11.712-.773-21.545-5.44-29.5-14a44.75 44.75 0 0 1-6.5-14 18.196 18.196 0 0 1 4-6Z" style="opacity:1"/><path fill="#df976c" d="M196.5 294.5c22.683 14.118 47.35 19.451 74 16 15.814-2.38 30.48-7.714 44-16v8c-.923 3.564-1.256 7.231-1 11-27.559 14.007-56.559 18.173-87 12.5-6.931 1.43-10.931 5.596-12 12.5l-18-10c.499-4.98.832-9.98 1-15-.014-3.739-.68-7.072-2-10 .903-2.891 1.236-5.891 1-9Z" style="opacity:.996"/><path fill="#fecd5c" d="M195.5 303.5c1.32 2.928 1.986 6.261 2 10-.168 5.02-.501 10.02-1 15-1.318 4.425-3.151 8.759-5.5 13a424.237 424.237 0 0 1-16.5 18 39.74 39.74 0 0 0-9 12c-4.812 7.252-7.978 15.252-9.5 24a6724.82 6724.82 0 0 0-.5 116h-42a1356.633 1356.633 0 0 0-15-61 19.96 19.96 0 0 1 2.5-9 1248.51 1248.51 0 0 0 29.5-30 204.568 204.568 0 0 1-14.5-23c-.791-4.426-.457-8.759 1-13a222.495 222.495 0 0 1 8.5-18c16.2-27.116 39.533-45.116 70-54ZM314.5 302.5c23.661 7.58 43.828 20.58 60.5 39a82.763 82.763 0 0 1 10.5 16 76.473 76.473 0 0 1 10 25.5c-.156 4.136-1.323 7.969-3.5 11.5l-11.5 17a1248.51 1248.51 0 0 0 29.5 30 19.967 19.967 0 0 1 2.5 9 1356.633 1356.633 0 0 0-15 61h-42c.167-38.668 0-77.335-.5-116-1.555-8.169-4.389-15.836-8.5-23a49.074 49.074 0 0 0-10-13 305.702 305.702 0 0 0-14.5-15c-3.268-4.536-5.435-9.536-6.5-15-1.683-5.159-2.349-10.492-2-16-.256-3.769.077-7.436 1-11Z" style="opacity:.996"/><path fill="#f0a673" d="M313.5 313.5c-.349 5.508.317 10.841 2 16a25.93 25.93 0 0 0-9 3.5l-51 28.5a1215.368 1215.368 0 0 1-41-23c1.069-6.904 5.069-11.07 12-12.5 30.441 5.673 59.441 1.507 87-12.5Z" style="opacity:1"/><path fill="#e8e6e7" d="m196.5 328.5 18 10a1215.368 1215.368 0 0 0 41 23l51-28.5a25.93 25.93 0 0 1 9-3.5c1.065 5.464 3.232 10.464 6.5 15a305.702 305.702 0 0 1 14.5 15 2012.267 2012.267 0 0 0-35 38.5c-2.53 1.422-5.197 1.755-8 1a214.557 214.557 0 0 1-13-11.5 441.89 441.89 0 0 0-25-25 441.89 441.89 0 0 0-25 25 77.418 77.418 0 0 1-14 11.5c-1.667.667-3.333.667-5 0a2030.01 2030.01 0 0 1-37-39.5 424.237 424.237 0 0 0 16.5-18c2.349-4.241 4.182-8.575 5.5-13Z" style="opacity:1"/><path fill="#ffdc76" d="M125.5 357.5a222.495 222.495 0 0 0-8.5 18c-1.457 4.241-1.791 8.574-1 13a204.568 204.568 0 0 0 14.5 23 1248.51 1248.51 0 0 1-29.5 30 19.96 19.96 0 0 0-2.5 9 1356.633 1356.633 0 0 1 15 61h-40c-8.983-2.818-14.817-8.818-17.5-18a1936.153 1936.153 0 0 1 0-88c4.553-19.553 16.387-32.386 35.5-38.5a652.382 652.382 0 0 1 34-9.5ZM385.5 357.5a299.703 299.703 0 0 1 46 14.5c12.501 7.843 20.334 19.01 23.5 33.5.667 29.333.667 58.667 0 88-2.683 9.182-8.517 15.182-17.5 18h-40a1356.633 1356.633 0 0 1 15-61 19.967 19.967 0 0 0-2.5-9 1248.51 1248.51 0 0 1-29.5-30l11.5-17c2.177-3.531 3.344-7.364 3.5-11.5a76.473 76.473 0 0 0-10-25.5Z" style="opacity:.995"/><path fill="#d8d4d7" d="M174.5 359.5a2030.01 2030.01 0 0 0 37 39.5c1.667.667 3.333.667 5 0a77.418 77.418 0 0 0 14-11.5 128.359 128.359 0 0 1 6 17 55.364 55.364 0 0 1-12 9.5c-10.508 3.478-19.841 1.644-28-5.5a1287.797 1287.797 0 0 1-28.5-32 19.177 19.177 0 0 1-2.5-5 39.74 39.74 0 0 1 9-12ZM336.5 359.5a49.074 49.074 0 0 1 10 13 542.324 542.324 0 0 0-31.5 36c-7.371 6.301-15.871 8.468-25.5 6.5-5.965-2.133-10.965-5.633-15-10.5a128.359 128.359 0 0 1 6-17 214.557 214.557 0 0 0 13 11.5c2.803.755 5.47.422 8-1a2012.267 2012.267 0 0 1 35-38.5Z" style="opacity:1"/><path fill="#6b4f5a" d="M280.5 387.5a128.359 128.359 0 0 0-6 17c-.966 3.294-2.966 5.628-6 7h-26c-3.034-1.372-5.034-3.706-6-7a128.359 128.359 0 0 0-6-17 441.89 441.89 0 0 1 25-25 441.89 441.89 0 0 1 25 25Z" style="opacity:1"/><path fill="#e8e6e8" d="M165.5 371.5a19.177 19.177 0 0 0 2.5 5 1287.797 1287.797 0 0 0 28.5 32c8.159 7.144 17.492 8.978 28 5.5a55.364 55.364 0 0 0 12-9.5c.966 3.294 2.966 5.628 6 7a10240.596 10240.596 0 0 1-12 100h-75c-.167-38.668 0-77.335.5-116 1.522-8.748 4.688-16.748 9.5-24ZM346.5 372.5c4.111 7.164 6.945 14.831 8.5 23 .5 38.665.667 77.332.5 116h-75a10254.162 10254.162 0 0 1-12-100c3.034-1.372 5.034-3.706 6-7 4.035 4.867 9.035 8.367 15 10.5 9.629 1.968 18.129-.199 25.5-6.5a542.324 542.324 0 0 1 31.5-36Z" style="opacity:1"/><path fill="#61444f" d="M242.5 411.5h26c3.837 33.359 7.837 66.692 12 100h-50c4.164-33.314 8.164-66.648 12-100Z" style="opacity:1"/></svg>