<svg xmlns="http://www.w3.org/2000/svg" width="512" height="512" style="shape-rendering:geometricPrecision;text-rendering:geometricPrecision;image-rendering:optimizeQuality;fill-rule:evenodd;clip-rule:evenodd"><path fill="#945230" d="M253.5-.5h17c20.146 2.887 38.48 10.387 55 22.5 4.602 4.094 8.602 8.594 12 13.5 8.139 10.959 12.972 23.292 14.5 37a1133.779 1133.779 0 0 0-2.5 59 49.369 49.369 0 0 0-11 1c-1.698-7.405-4.532-14.405-8.5-21a334.196 334.196 0 0 0-2-34c-4.966-17.757-16.799-26.09-35.5-25a110.35 110.35 0 0 0-32 6.5c-5.815.877-11.482.377-17-1.5v-1c-12.185-21.8-8.851-40.8 10-57Z" style="opacity:.996"/><path fill="#753616" d="M238.5-.5h15c-18.851 16.2-22.185 35.2-10 57a1039.36 1039.36 0 0 1-20-3.5c-12.177-2.081-23.011.752-32.5 8.5-3.721 4.775-6.388 10.109-8 16a334.196 334.196 0 0 0-2 34c-4.058 7.099-7.225 14.432-9.5 22-2.413-1.551-5.079-2.217-8-2a188.031 188.031 0 0 1-1.5-55 48.725 48.725 0 0 1 6-15c3.752-4.092 7.752-7.759 12-11 .004-6.577 1.171-12.91 3.5-19 8.58-15.314 21.58-24.813 39-28.5a738.971 738.971 0 0 1 16-3.5Z" style="opacity:1"/><path fill="#4ab0f6" d="M183.5 31.5c-2.329 6.09-3.496 12.423-3.5 19-4.248 3.241-8.248 6.908-12 11a48.725 48.725 0 0 0-6 15 188.031 188.031 0 0 0 1.5 55c-6.147-.005-9.981 2.995-11.5 9a16.242 16.242 0 0 0 0 8 302.308 302.308 0 0 1 11 32c3.157 4.825 7.657 6.825 13.5 6 1.605 19.814 7.605 38.148 18 55a697.64 697.64 0 0 0-43 25.5c-15.191 10.548-23.525 25.048-25 43.5a1094.3 1094.3 0 0 1-43 15.5c-20.03 6.031-33.53 18.864-40.5 38.5a87.097 87.097 0 0 0-4.5 16c-9.132-15.947-15.799-32.947-20-51 22.428-22.066 48.428-38.899 78-50.5 10.313-5.64 19.479-12.806 27.5-21.5a68.669 68.669 0 0 0 7-14 114.982 114.982 0 0 0 1-29 408.87 408.87 0 0 1-7.5-57.5 382.542 382.542 0 0 0 2.5-40.5c-3.546-17.033-12.712-30.033-27.5-39 24.659-21.005 52.659-36.338 84-46Z" style="opacity:.996"/><path fill="#4ab0f6" d="M337.5 35.5a242.786 242.786 0 0 1 56 27.5 269.37 269.37 0 0 1 18 14.5c-14.788 8.967-23.954 21.967-27.5 39a605.007 605.007 0 0 0 2.5 42.5 454.065 454.065 0 0 1-7.5 55.5c-4.93 21.822 1.236 39.655 18.5 53.5a179.617 179.617 0 0 0 15 10c30.232 11.93 56.899 29.097 80 51.5-4.201 18.053-10.868 35.053-20 51-3.006-24.48-15.673-41.646-38-51.5a1487.373 1487.373 0 0 1-50-18.5c-.717-12.321-4.884-23.321-12.5-33a121.34 121.34 0 0 0-20.5-16.5 450.217 450.217 0 0 0-35-19.5c10.385-16.824 16.385-35.157 18-55 5.843.825 10.343-1.175 13.5-6a302.308 302.308 0 0 1 11-32c1.95-8.721-1.216-14.387-9.5-17 .323-19.73 1.156-39.396 2.5-59-1.528-13.708-6.361-26.041-14.5-37Z" style="opacity:.997"/><path fill="#fea97a" d="M243.5 56.5v1c-8.453 6.896-13.286 15.896-14.5 27l-1 27a91.495 91.495 0 0 0-9 24 30.485 30.485 0 0 0 0 11c2.727 20.329 5.393 40.663 8 61 7.814 28.79 24.314 50.957 49.5 66.5 5.205.074 9.872-1.593 14-5 3.834-3.002 7.5-6.169 11-9.5a453.203 453.203 0 0 1 10.5 22c6.787 24.446 2.62 46.78-12.5 67-20.442 12.684-42.442 16.184-66 10.5-6.226-1.455-11.892-3.955-17-7.5 16.742-11.104 27.909-26.437 33.5-46a227.237 227.237 0 0 0 5.5-26c-18.218-.111-33.552-6.778-46-20a12993.34 12993.34 0 0 1-15-18c-10.395-16.852-16.395-35.186-18-55a974.296 974.296 0 0 1-5-53c2.275-7.568 5.442-14.901 9.5-22 .09-11.391.757-22.724 2-34 1.612-5.891 4.279-11.225 8-16 9.489-7.748 20.323-10.581 32.5-8.5a1039.36 1039.36 0 0 0 20 3.5Z" style="opacity:1"/><path fill="#fec6aa" d="M338.5 132.5a33.344 33.344 0 0 1 1 7.5 1728.037 1728.037 0 0 0-5 46.5c-1.615 19.843-7.615 38.176-18 55-4.97 5.975-9.97 11.975-15 18a150.774 150.774 0 0 1-11 9.5c-4.128 3.407-8.795 5.074-14 5-25.186-15.543-41.686-37.71-49.5-66.5a10512.035 10512.035 0 0 0-8-61 30.485 30.485 0 0 1 0-11 91.495 91.495 0 0 1 9-24l1-27c1.214-11.104 6.047-20.104 14.5-27 5.518 1.877 11.185 2.377 17 1.5a110.35 110.35 0 0 1 32-6.5c18.701-1.09 30.534 7.243 35.5 25a334.196 334.196 0 0 1 2 34c3.968 6.595 6.802 13.595 8.5 21Z" style="opacity:1"/><path fill="#72c2f8" d="M99.5 77.5c14.788 8.967 23.954 21.967 27.5 39a382.542 382.542 0 0 1-2.5 40.5 408.87 408.87 0 0 0 7.5 57.5c.891 9.728.557 19.394-1 29a68.669 68.669 0 0 1-7 14c-8.021 8.694-17.187 15.86-27.5 21.5-29.572 11.601-55.572 28.434-78 50.5-21.922-94.821 1.744-176.321 71-244.5a101.995 101.995 0 0 1 10-7.5ZM411.5 77.5c49.344 40.653 78.511 92.987 87.5 157 2 21.333 2 42.667 0 64-1.231 10.66-3.398 20.994-6.5 31-23.101-22.403-49.768-39.57-80-51.5a179.617 179.617 0 0 1-15-10c-17.264-13.845-23.43-31.678-18.5-53.5a454.065 454.065 0 0 0 7.5-55.5 605.007 605.007 0 0 1-2.5-42.5c3.546-17.033 12.712-30.033 27.5-39Z" style="opacity:1"/><path fill="#fa9461" d="M163.5 131.5c2.921-.217 5.587.449 8 2a974.296 974.296 0 0 0 5 53c-5.843.825-10.343-1.175-13.5-6a302.308 302.308 0 0 0-11-32 16.242 16.242 0 0 1 0-8c1.519-6.005 5.353-9.005 11.5-9Z" style="opacity:1"/><path fill="#fdaa7c" d="M349.5 131.5c8.284 2.613 11.45 8.279 9.5 17a302.308 302.308 0 0 0-11 32c-3.157 4.825-7.657 6.825-13.5 6a1728.037 1728.037 0 0 1 5-46.5 33.344 33.344 0 0 0-1-7.5 49.369 49.369 0 0 1 11-1Z" style="opacity:1"/><path fill="#fe7186" d="M316.5 241.5a450.217 450.217 0 0 1 35 19.5 121.34 121.34 0 0 1 20.5 16.5c7.616 9.679 11.783 20.679 12.5 33-.668 21.169-10.001 37.336-28 48.5a261.806 261.806 0 0 1-27 14.5c-.667 22.83-1.333 45.496-2 68 .167-24.669 0-49.336-.5-74-3.366-5.109-7.866-6.276-13.5-3.5a20.499 20.499 0 0 1-2.5 3.5 98.432 98.432 0 0 0-.5 14 1246.839 1246.839 0 0 0-23.5 7c-4.044-.516-7.044-2.516-9-6-.5 42.665-.667 85.332-.5 128a3905.727 3905.727 0 0 1-1-125c-.015-4.06.485-8.06 1.5-12 8.522-7.341 15.689-15.675 21.5-25 15.12-20.22 19.287-42.554 12.5-67a453.203 453.203 0 0 0-10.5-22c5.03-6.025 10.03-12.025 15-18Z" style="opacity:1"/><path fill="#fe4155" d="M194.5 241.5c4.97 5.975 9.97 11.975 15 18a303.945 303.945 0 0 1-10 21c-25.976 3.145-38.476 17.812-37.5 44-4.325 12.068-12.825 18.068-25.5 18-6.711-9.483-10.044-20.149-10-32 1.475-18.452 9.809-32.952 25-43.5a697.64 697.64 0 0 1 43-25.5Z" style="opacity:1"/><path fill="#fc9360" d="M209.5 259.5c12.448 13.222 27.782 19.889 46 20a227.237 227.237 0 0 1-5.5 26c-5.591 19.563-16.758 34.896-33.5 46l-5-2c-15.554-20.991-19.554-43.991-12-69a303.945 303.945 0 0 0 10-21Z" style="opacity:1"/><path fill="#fe7287" d="M199.5 280.5c-7.554 25.009-3.554 48.009 12 69 5.883 8.391 12.717 16.057 20.5 23 1.899 4.121 2.732 8.454 2.5 13 .332 41.837-.001 83.503-1 125 .167-42.668 0-85.335-.5-128-1.8 4.151-4.967 6.151-9.5 6a94.487 94.487 0 0 1-21-6c-.667 20.163-1.333 40.163-2 60 .167-25.336 0-50.669-.5-76-6.273-5.865-11.606-5.198-16 2a18.453 18.453 0 0 0-.5 6 143.798 143.798 0 0 1-25-12 269.633 269.633 0 0 0-15-11.5c-2.923-2.416-5.257-5.25-7-8.5 12.675.068 21.175-5.932 25.5-18-.976-26.188 11.524-40.855 37.5-44Z" style="opacity:1"/><path fill="#e70054" d="M126.5 310.5c-.044 11.851 3.289 22.517 10 32 1.743 3.25 4.077 6.084 7 8.5a269.633 269.633 0 0 1 15 11.5c-17.905 4.863-31.072 15.53-39.5 32a984.807 984.807 0 0 0-1.5 75c-33.781-23.111-60.115-52.778-79-89a87.097 87.097 0 0 1 4.5-16c6.97-19.636 20.47-32.469 40.5-38.5a1094.3 1094.3 0 0 0 43-15.5Z" style="opacity:.997"/><path fill="#fe4155" d="M384.5 310.5a1487.373 1487.373 0 0 0 50 18.5c22.327 9.854 34.994 27.02 38 51.5-9.277 19.267-21.277 36.601-36 52-3.004-17.831-12.337-31.331-28-40.5-5.701-1.565-9.867.268-12.5 5.5a818.961 818.961 0 0 0 .5 70c-35.579 25.197-75.245 39.53-119 43-.167-42.668 0-85.335.5-128 1.956 3.484 4.956 5.484 9 6a1246.839 1246.839 0 0 1 23.5-7c-.167 20.669 0 41.336.5 62 4.825 7.561 10.159 7.894 16 1a4.934 4.934 0 0 0 .5-3c.667-22.504 1.333-45.17 2-68a261.806 261.806 0 0 0 27-14.5c17.999-11.164 27.332-27.331 28-48.5Z" style="opacity:.996"/><path fill="#d4daf8" d="M299.5 348.5c-5.811 9.325-12.978 17.659-21.5 25a47.208 47.208 0 0 0-1.5 12c-14.002 2.666-28.002 2.666-42 0 .232-4.546-.601-8.879-2.5-13-7.783-6.943-14.617-14.609-20.5-23l5 2c5.108 3.545 10.774 6.045 17 7.5 23.558 5.684 45.558 2.184 66-10.5Z" style="opacity:1"/><path fill="#fe4155" d="M158.5 362.5a143.798 143.798 0 0 0 25 12c-.167 22.669 0 45.336.5 68 2.961 7.264 7.794 8.764 14.5 4.5a9.175 9.175 0 0 0 2-4.5c.667-19.837 1.333-39.837 2-60a94.487 94.487 0 0 0 21 6c4.533.151 7.7-1.849 9.5-6 .5 42.665.667 85.332.5 128-42.455-3.371-81.122-17.038-116-41a984.807 984.807 0 0 1 1.5-75c8.428-16.47 21.595-27.137 39.5-32Z" style="opacity:.996"/><path fill="#deeafb" d="M200.5 442.5a9.175 9.175 0 0 1-2 4.5c-6.706 4.264-11.539 2.764-14.5-4.5a2311.03 2311.03 0 0 1-.5-68 18.453 18.453 0 0 1 .5-6c4.394-7.198 9.727-7.865 16-2 .5 25.331.667 50.664.5 76Z" style="opacity:1"/><path fill="#deebfc" d="M327.5 441.5a4.934 4.934 0 0 1-.5 3c-5.841 6.894-11.175 6.561-16-1-.5-20.664-.667-41.331-.5-62a98.432 98.432 0 0 1 .5-14 20.499 20.499 0 0 0 2.5-3.5c5.634-2.776 10.134-1.609 13.5 3.5.5 24.664.667 49.331.5 74Z" style="opacity:1"/><path fill="#ddedfe" d="M234.5 385.5c13.998 2.666 27.998 2.666 42 0-.332 41.837.001 83.503 1 125v1h-44v-1a3905.727 3905.727 0 0 0 1-125Z" style="opacity:.998"/><path fill="#e80154" d="M436.5 432.5a248.951 248.951 0 0 1-40 35 818.961 818.961 0 0 1-.5-70c2.633-5.232 6.799-7.065 12.5-5.5 15.663 9.169 24.996 22.669 28 40.5Z" style="opacity:1"/></svg>