<svg xmlns="http://www.w3.org/2000/svg" width="512" height="512" style="shape-rendering:geometricPrecision;text-rendering:geometricPrecision;image-rendering:optimizeQuality;fill-rule:evenodd;clip-rule:evenodd"><path fill="#ea6d4a" d="M233.5-.5h44c100.305 12.482 171.805 64.482 214.5 156 10.297 25.187 16.797 51.187 19.5 78v44c-8.519 77.551-43.852 139.718-106 186.5a138.954 138.954 0 0 1-19 11.5c-9.609-17.531-22.275-32.531-38-45a34.253 34.253 0 0 0-11-8c0-.667-.333-1-1-1a345.475 345.475 0 0 1-21-13 312.323 312.323 0 0 1-21-21 121.635 121.635 0 0 1-11-23c48.415-26.43 76.915-67.096 85.5-122 .5-13.996.667-27.996.5-42v-13c.167-19.003 0-38.003-.5-57-8.35-51.349-37.516-84.182-87.5-98.5-48.659-9.009-88.159 5.824-118.5 44.5-10.222 14.116-16.889 29.782-20 47a835.216 835.216 0 0 0-1.5 68v9c-5.562 67.028 19.104 119.528 74 157.5l13 6.5a125.587 125.587 0 0 1-12 23 101.245 101.245 0 0 0-7.5 9 236.714 236.714 0 0 0-13.5 12 329.703 329.703 0 0 0-21 13c-.667 0-1 .333-1 1a34.253 34.253 0 0 0-11 8c-.667 0-1 .333-1 1-15.252 12.249-27.586 26.916-37 44C60.337 436.588 20.17 380.254 4 306.5a599.055 599.055 0 0 1-4.5-29v-44C11.982 133.195 63.982 61.695 155.5 19c25.187-10.297 51.187-16.797 78-19.5Z" style="opacity:.993"/><path fill="#543e36" d="M369.5 187.5c-2.311-11.09-6.144-21.757-11.5-32a233.858 233.858 0 0 1-36-45c-23.541 27.018-52.708 44.684-87.5 53-25.924-4.931-51.924-5.265-78-1 .763-.768 1.763-1.268 3-1.5a121.805 121.805 0 0 1-7.5-2.5c-5.524 10.452-9.024 21.452-10.5 33a835.216 835.216 0 0 1 1.5-68c3.111-17.218 9.778-32.884 20-47 30.341-38.676 69.841-53.509 118.5-44.5 49.984 14.318 79.15 47.151 87.5 98.5.5 18.997.667 37.997.5 57Z" style="opacity:1"/><path fill="#e9bf9a" d="M369.5 187.5v13c-1.973 23.087-10.307 43.587-25 61.5-6.244 5.618-13.577 8.118-22 7.5-5.527.292-10.861-.541-16-2.5l-29-17c-14.655-4.666-29.322-4.666-44 0a253.964 253.964 0 0 0-23 14c-22.591 11.659-40.425 6.826-53.5-14.5-8.435-15.441-13.602-31.774-15.5-49v-9c1.476-11.548 4.976-22.548 10.5-33 2.447.906 4.947 1.739 7.5 2.5-1.237.232-2.237.732-3 1.5-.663 2.141-.997 4.475-1 7a186.789 186.789 0 0 1 4.5 27 85.345 85.345 0 0 0 7 23c8.997 8.183 19.663 11.85 32 11 18.917 2.047 32.584-5.287 41-22a468.09 468.09 0 0 0 8-23c4.396-6.311 9.229-6.644 14.5-1a160.046 160.046 0 0 0 12.5 31c5.257 7.577 12.423 12.411 21.5 14.5 13.384 1.616 26.384.283 39-4 7.528-3.864 12.028-10.031 13.5-18.5a202.914 202.914 0 0 0 4-28c.415-1.791 1.415-3.124 3-4 .667-4 .667-8 0-12l-1.5-1.5c-33.136-4.541-65.97-3.041-98.5 4.5a270.873 270.873 0 0 1-21.5-3c34.792-8.316 63.959-25.982 87.5-53a233.858 233.858 0 0 0 36 45c5.356 10.243 9.189 20.91 11.5 32Z" style="opacity:1"/><path fill="#201f1e" d="M234.5 163.5a270.873 270.873 0 0 0 21.5 3c32.53-7.541 65.364-9.041 98.5-4.5l1.5 1.5c.667 4 .667 8 0 12-1.585.876-2.585 2.209-3 4a202.914 202.914 0 0 1-4 28c-1.472 8.469-5.972 14.636-13.5 18.5-12.616 4.283-25.616 5.616-39 4-9.077-2.089-16.243-6.923-21.5-14.5a160.046 160.046 0 0 1-12.5-31c-5.271-5.644-10.104-5.311-14.5 1a468.09 468.09 0 0 1-8 23c-8.416 16.713-22.083 24.047-41 22-12.337.85-23.003-2.817-32-11a85.345 85.345 0 0 1-7-23 186.789 186.789 0 0 0-4.5-27c.003-2.525.337-4.859 1-7 26.076-4.265 52.076-3.931 78 1Z" style="opacity:1"/><path fill="#eabf9a" d="M296.5 164.5c11.671-.167 23.338 0 35 .5 8.38 2.23 12.88 7.73 13.5 16.5 1.153 11.751-.514 23.084-5 34-5.746 6.039-12.913 9.206-21.5 9.5-24.522 4.836-40.022-4.664-46.5-28.5a74.212 74.212 0 0 1-2-22c7.808-6.212 16.641-9.545 26.5-10Z" style="opacity:1"/><path fill="#e9bf9a" d="M176.5 165.5c15.337-.167 30.67 0 46 .5 7.003 1.108 13.17 3.941 18.5 8.5.853 14.925-2.814 28.592-11 41-4.986 5.41-11.153 8.577-18.5 9.5-9.036.717-18.036.384-27-1-9.6-1.934-15.1-7.768-16.5-17.5-3.882-12.302-3.216-24.302 2-36 1.965-2.05 4.132-3.717 6.5-5Z" style="opacity:1"/><path fill="#543e36" d="M141.5 200.5c1.898 17.226 7.065 33.559 15.5 49 13.075 21.326 30.909 26.159 53.5 14.5a253.964 253.964 0 0 1 23-14c14.678-4.666 29.345-4.666 44 0l29 17c5.139 1.959 10.473 2.792 16 2.5 8.423.618 15.756-1.882 22-7.5 14.693-17.913 23.027-38.413 25-61.5.167 14.004 0 28.004-.5 42-8.585 54.904-37.085 95.57-85.5 122-18.386 7.941-36.719 7.941-55 0l-13-6.5c-54.896-37.972-79.562-90.472-74-157.5Z" style="opacity:1"/><path fill="#e7bd99" d="M248.5 273.5c11.449-.627 22.449 1.206 33 5.5 1.304.804 1.971 1.971 2 3.5a17.303 17.303 0 0 1-4 4.5c-14.167 3.814-28.5 4.481-43 2-11.456-3.838-11.789-8.172-1-13 4.488-.76 8.822-1.594 13-2.5Z" style="opacity:1"/><path fill="#ebc09b" d="M228.5 364.5c18.281 7.941 36.614 7.941 55 0a121.635 121.635 0 0 0 11 23 1167.228 1167.228 0 0 1-39 24 1167.228 1167.228 0 0 1-39-24 125.587 125.587 0 0 0 12-23Z" style="opacity:1"/><path fill="#e6ebf0" d="M216.5 387.5a1167.228 1167.228 0 0 0 39 24 1167.228 1167.228 0 0 0 39-24 312.323 312.323 0 0 0 21 21 933.736 933.736 0 0 1-33.5 47 6942.961 6942.961 0 0 0-13.5-21 215.37 215.37 0 0 0-13-21 215.37 215.37 0 0 0-13 21 6942.961 6942.961 0 0 0-13.5 21 933.736 933.736 0 0 1-33.5-47 236.714 236.714 0 0 1 13.5-12c2.364-3.19 4.864-6.19 7.5-9Z" style="opacity:1"/><path fill="#c7d3e1" d="M195.5 408.5a933.736 933.736 0 0 0 33.5 47 6942.961 6942.961 0 0 1 13.5-21 60.364 60.364 0 0 0 5.5 8l.5 9a1512.177 1512.177 0 0 0-4 60h-11a251.518 251.518 0 0 1-59-13v-77a329.703 329.703 0 0 1 21-13ZM315.5 408.5a345.475 345.475 0 0 0 21 13v77a251.518 251.518 0 0 1-59 13h-11a1512.177 1512.177 0 0 0-4-60l.5-9a60.364 60.364 0 0 0 5.5-8 6942.961 6942.961 0 0 1 13.5 21 933.736 933.736 0 0 0 33.5-47Z" style="opacity:1"/><path fill="#171a23" d="M268.5 434.5a60.364 60.364 0 0 1-5.5 8l-.5 9a1512.177 1512.177 0 0 1 4 60h-22a1512.177 1512.177 0 0 1 4-60l-.5-9a60.364 60.364 0 0 1-5.5-8 215.37 215.37 0 0 1 13-21 215.37 215.37 0 0 1 13 21Z" style="opacity:1"/><path fill="#828f9d" d="M174.5 421.5v77c-1.291.237-2.291-.096-3-1 1.991-24.644 2.657-49.644 2-75 0-.667.333-1 1-1Z" style="opacity:1"/><path fill="#8694a2" d="M336.5 421.5c.667 0 1 .333 1 1-.657 25.356.009 50.356 2 75-.709.904-1.709 1.237-3 1v-77Z" style="opacity:1"/><path fill="#445363" d="M173.5 422.5c.657 25.356-.009 50.356-2 75a23.954 23.954 0 0 1-9-3v-64a34.253 34.253 0 0 1 11-8Z" style="opacity:1"/><path fill="#445463" d="M337.5 422.5a34.253 34.253 0 0 1 11 8v64a23.954 23.954 0 0 1-9 3c-1.991-24.644-2.657-49.644-2-75Z" style="opacity:1"/><path fill="#96a3b1" d="M162.5 430.5v64c-.992.172-1.658-.162-2-1a961.42 961.42 0 0 0 1-62c0-.667.333-1 1-1Z" style="opacity:1"/><path fill="#c8d2df" d="M161.5 431.5a961.42 961.42 0 0 1-1 62c-12.876-4.438-24.876-10.438-36-18 9.414-17.084 21.748-31.751 37-44Z" style="opacity:1"/><path fill="#c5d0dd" d="M348.5 430.5c15.725 12.469 28.391 27.469 38 45-11.791 7.896-24.458 14.229-38 19v-64Z" style="opacity:1"/></svg>