<svg xmlns="http://www.w3.org/2000/svg" width="512" height="512" style="shape-rendering:geometricPrecision;text-rendering:geometricPrecision;image-rendering:optimizeQuality;fill-rule:evenodd;clip-rule:evenodd"><path fill="#45304c" d="M241.5-.5h13c-8.618 7.564-14.451 16.898-17.5 28a49.226 49.226 0 0 0 0 14 133.822 133.822 0 0 0 5.5 15 957.249 957.249 0 0 0-19-3.5c-22.78-3.213-36.613 6.287-41.5 28.5l-1 30c-4.252 6.941-7.419 14.274-9.5 22-3.082-1.681-6.415-2.348-10-2a579.334 579.334 0 0 1 1.5-57c3.48-16.293 10.646-30.626 21.5-43 15.34-17.17 34.34-27.837 57-32Z" style="opacity:1"/><path fill="#56415e" d="M254.5-.5h15c22.671 4.168 41.671 14.835 57 32 11.791 14.255 19.291 30.588 22.5 49 .5 16.997.667 33.997.5 51-3.109-.236-6.109.097-9 1l-10.5-21c4.477-52.842-18.357-70.342-68.5-52.5-6.663 1.17-12.996.337-19-2.5a133.822 133.822 0 0 1-5.5-15 49.226 49.226 0 0 1 0-14c3.049-11.102 8.882-20.436 17.5-28Z" style="opacity:.996"/><path fill="#7e6dd0" d="M184.5 31.5c-10.854 12.374-18.02 26.707-21.5 43a579.334 579.334 0 0 0-1.5 57c-4.062.224-6.895 2.224-8.5 6-1.504 3.539-1.837 7.205-1 11a168.117 168.117 0 0 1 10 31c3.193 5.685 8.026 8.018 14.5 7v4c1.641 24.613 10.308 46.279 26 65a201.002 201.002 0 0 0-2 14c-2.837-1.116-5.504-.616-8 1.5-9.519 5.859-18.019 13.026-25.5 21.5a10.134 10.134 0 0 0-1.5 4c-.904.709-1.237 1.709-1 3a13273.022 13273.022 0 0 1-87 30.5c-19.669 9.501-33.669 24.335-42 44.5-7.812-14.092-13.479-29.092-17-45 23.102-22.403 49.768-39.57 80-51.5 9.505-5.513 18.005-12.346 25.5-20.5 8.203-13.177 10.87-27.51 8-43a462.493 462.493 0 0 1-7-48 121.19 121.19 0 0 1 0-22c7.508-28.666-.992-50.999-25.5-67 24.874-21.278 53.208-36.611 85-46ZM326.5 31.5c31.792 9.389 60.126 24.722 85 46-24.52 16.041-33.02 38.375-25.5 67 .667 8.333.667 16.667 0 25a942.15 942.15 0 0 1-8 51c-2.21 19.412 4.29 35.246 19.5 47.5a179.617 179.617 0 0 0 15 10c30.232 11.93 56.899 29.097 80 51.5-3.521 15.908-9.188 30.908-17 45-7.942-19.443-21.276-33.943-40-43.5a2756.85 2756.85 0 0 1-88-31.5 44.093 44.093 0 0 0-2-3c-7.809-11.921-18.142-21.088-31-27.5-1.428-.579-2.762-.412-4 .5a116.31 116.31 0 0 1-2-15c15.483-18.424 24.15-39.758 26-64v-4c6.372.73 11.206-1.604 14.5-7a168.117 168.117 0 0 1 10-31c1.942-8.762-1.224-14.429-9.5-17 .167-17.003 0-34.003-.5-51-3.209-18.412-10.709-34.745-22.5-49Z" style="opacity:.997"/><path fill="#fea97a" d="M242.5 56.5a102.027 102.027 0 0 1-7.5 10 47.92 47.92 0 0 0-6 18l-1 27a113.206 113.206 0 0 0-9 23c-.667 4-.667 8 0 12a512.543 512.543 0 0 1 4.5 37l-2 2c-4.849 2.336-9.016 5.669-12.5 10a60.969 60.969 0 0 0-8.5 19c-11.075-5.075-19.075-13.075-24-24v-4a313.799 313.799 0 0 0-4.5-36 145.053 145.053 0 0 1-.5-17c2.081-7.726 5.248-15.059 9.5-22l1-30c4.887-22.213 18.72-31.713 41.5-28.5a957.249 957.249 0 0 1 19 3.5Z" style="opacity:1"/><path fill="#fec6aa" d="M340.5 132.5a2288.341 2288.341 0 0 0-6 54v4c-4.534 10.203-11.867 17.87-22 23-4.05-16.216-14.05-26.716-30-31.5a392.902 392.902 0 0 0-19-4.5c-3.298-.37-5.632.963-7 4-1.834-2.917-4.5-4.25-8-4-8.343 2.004-16.676 4.004-25 6a512.543 512.543 0 0 0-4.5-37c-.667-4-.667-8 0-12a113.206 113.206 0 0 1 9-23l1-27a47.92 47.92 0 0 1 6-18 102.027 102.027 0 0 0 7.5-10c6.004 2.837 12.337 3.67 19 2.5 50.143-17.842 72.977-.342 68.5 52.5l10.5 21Z" style="opacity:1"/><path fill="#9488e7" d="M99.5 77.5c24.508 16.001 33.008 38.334 25.5 67a121.19 121.19 0 0 0 0 22 462.493 462.493 0 0 0 7 48c2.87 15.49.203 29.823-8 43-7.495 8.154-15.995 14.987-25.5 20.5-30.232 11.93-56.898 29.097-80 51.5-21.922-94.821 1.744-176.321 71-244.5a101.995 101.995 0 0 1 10-7.5ZM411.5 77.5c49.344 40.653 78.511 92.987 87.5 157 2 21.333 2 42.667 0 64-1.231 10.66-3.398 20.994-6.5 31-23.101-22.403-49.768-39.57-80-51.5a179.617 179.617 0 0 1-15-10c-15.21-12.254-21.71-28.088-19.5-47.5a942.15 942.15 0 0 0 8-51c.667-8.333.667-16.667 0-25-7.52-28.625.98-50.959 25.5-67Z" style="opacity:1"/><path fill="#fa9361" d="M161.5 131.5c3.585-.348 6.918.319 10 2-.166 5.676.001 11.343.5 17a313.799 313.799 0 0 1 4.5 36c-6.474 1.018-11.307-1.315-14.5-7a168.117 168.117 0 0 0-10-31c-.837-3.795-.504-7.461 1-11 1.605-3.776 4.438-5.776 8.5-6Z" style="opacity:1"/><path fill="#fda97c" d="M349.5 131.5c8.276 2.571 11.442 8.238 9.5 17a168.117 168.117 0 0 0-10 31c-3.294 5.396-8.128 7.73-14.5 7a2288.341 2288.341 0 0 1 6-54c2.891-.903 5.891-1.236 9-1Z" style="opacity:1"/><path fill="#57415e" d="M334.5 190.5c-1.85 24.242-10.517 45.576-26 64-12.638 12.824-27.638 21.824-45 27a1194.47 1194.47 0 0 0-13-8.5c-7.736-8.442-10.402-18.275-8-29.5 6.275-2.107 9.775-6.44 10.5-13 1.733-2.102 3.733-2.435 6-1 2.791 12.645 10.291 16.812 22.5 12.5 9.008-3.652 14.175-10.152 15.5-19.5-8.755-9.629-19.589-15.462-32.5-17.5-3.516-2.871-6.183-6.371-8-10.5-3.73 8.708-10.396 13.208-20 13.5-2.891 1.274-5.558 2.774-8 4.5h-1c-8.467-7.283-10.134-15.949-5-26-.124-.607-.457-.94-1-1l2-2c8.324-1.996 16.657-3.996 25-6 3.5-.25 6.166 1.083 8 4 1.368-3.037 3.702-4.37 7-4a392.902 392.902 0 0 1 19 4.5c15.95 4.784 25.95 15.284 30 31.5 10.133-5.13 17.466-12.797 22-23Z" style="opacity:1"/><path fill="#46314c" d="M221.5 185.5c.543.06.876.393 1 1-5.134 10.051-3.467 18.717 5 26-4.566 3.057-8.733 6.724-12.5 11 .267 4.208 1.934 7.875 5 11 6.223 6.195 13.723 9.195 22.5 9-2.402 11.225.264 21.058 8 29.5a1194.47 1194.47 0 0 1 13 8.5c-5.031 1.283-10.031 1.283-15 0-6.829-.665-13.163-2.832-19-6.5a156.553 156.553 0 0 1-27-19.5c-15.692-18.721-24.359-40.387-26-65 4.925 10.925 12.925 18.925 24 24a60.969 60.969 0 0 1 8.5-19c3.484-4.331 7.651-7.664 12.5-10Z" style="opacity:1"/><path fill="#fdc5aa" d="M242.5 243.5a216.953 216.953 0 0 1-14-31c2.442-1.726 5.109-3.226 8-4.5 9.604-.292 16.27-4.792 20-13.5 1.817 4.129 4.484 7.629 8 10.5 12.911 2.038 23.745 7.871 32.5 17.5-1.325 9.348-6.492 15.848-15.5 19.5-12.209 4.312-19.709.145-22.5-12.5-2.267-1.435-4.267-1.102-6 1-.725 6.56-4.225 10.893-10.5 13Z" style="opacity:1"/><path fill="#fca87b" d="M227.5 212.5h1a216.953 216.953 0 0 0 14 31c-8.777.195-16.277-2.805-22.5-9-3.066-3.125-4.733-6.792-5-11 3.767-4.276 7.934-7.943 12.5-11Z" style="opacity:1"/><path fill="#fb9460" d="M202.5 255.5a156.553 156.553 0 0 0 27 19.5c5.837 3.668 12.171 5.835 19 6.5-.79 14.254-6.79 25.588-18 34a59.598 59.598 0 0 1-10-8c-10.315-10.624-16.981-23.291-20-38a201.002 201.002 0 0 1 2-14Z" style="opacity:1"/><path fill="#fea97b" d="M308.5 254.5a116.31 116.31 0 0 0 2 15c-3.287 15.744-10.62 29.244-22 40.5L272 322.5a82.77 82.77 0 0 1-8.5 15c-5.433 1.302-10.766 1.302-16 0a82.77 82.77 0 0 1-8.5-15 111.781 111.781 0 0 1-8.5-7c11.21-8.412 17.21-19.746 18-34 4.969 1.283 9.969 1.283 15 0 17.362-5.176 32.362-14.176 45-27Z" style="opacity:1"/><path fill="#d2dbfa" d="M200.5 269.5c3.019 14.709 9.685 27.376 20 38-11.951 1.727-22.118 7.061-30.5 16-4.179 6.383-6.345 13.383-6.5 21h-1a2190.199 2190.199 0 0 1-14.5-35 27.32 27.32 0 0 1-2.5-13 10.134 10.134 0 0 1 1.5-4c7.481-8.474 15.981-15.641 25.5-21.5 2.496-2.116 5.163-2.616 8-1.5Z" style="opacity:1"/><path fill="#ddedfe" d="M345.5 296.5c-1.021 9.057-3.521 17.724-7.5 26a949.032 949.032 0 0 1-18 37c-4.173 3.691-9.007 4.858-14.5 3.5a54.817 54.817 0 0 1-11-10.5 651.016 651.016 0 0 0-15-17.5 619.407 619.407 0 0 0-16 2.5 82.77 82.77 0 0 0 8.5-15l16.5-12.5c11.38-11.256 18.713-24.756 22-40.5 1.238-.912 2.572-1.079 4-.5 12.858 6.412 23.191 15.579 31 27.5Z" style="opacity:1"/><path fill="#1fa1ea" d="M165.5 296.5a27.32 27.32 0 0 0 2.5 13 2190.199 2190.199 0 0 0 14.5 35c-16.112 1.731-31.112 6.898-45 15.5-7.21 5.594-12.043 12.76-14.5 21.5a511.925 511.925 0 0 0-.5 32c-2.216.703-4.049 2.036-5.5 4-.5 16.997-.667 33.997-.5 51-35.618-23.948-62.618-55.281-81-94 8.331-20.165 22.331-34.999 42-44.5a13273.022 13273.022 0 0 0 87-30.5c-.237-1.291.096-2.291 1-3Z" style="opacity:.998"/><path fill="#49b1f6" d="M345.5 296.5a44.093 44.093 0 0 1 2 3 2756.85 2756.85 0 0 0 88 31.5c18.724 9.557 32.058 24.057 40 43.5-10.211 21.861-23.544 41.527-40 59-5.271-16.447-15.271-29.28-30-38.5-4.845-1.163-8.679.337-11.5 4.5a795.73 795.73 0 0 0 .5 69c0 .667-.333 1-1 1a784.68 784.68 0 0 1-1-56h-270c-.167-10.672 0-21.339.5-32 2.457-8.74 7.29-15.906 14.5-21.5 13.888-8.602 28.888-13.769 45-15.5h1c2.244 7.39 6.244 13.557 12 18.5 3.333.667 6.667.667 10 0a45.169 45.169 0 0 0 10-9.5 240.747 240.747 0 0 0 25 6.5c18.803 2.574 36.803.074 54-7.5a54.817 54.817 0 0 0 11 10.5c5.493 1.358 10.327.191 14.5-3.5a949.032 949.032 0 0 0 18-37c3.979-8.276 6.479-16.943 7.5-26Z" style="opacity:.999"/><path fill="#ddecfe" d="M220.5 307.5a59.598 59.598 0 0 0 10 8 111.781 111.781 0 0 0 8.5 7 82.77 82.77 0 0 0 8.5 15c-5.52-.221-10.853-1.055-16-2.5a604.28 604.28 0 0 1-16 18.5 45.169 45.169 0 0 1-10 9.5 25.238 25.238 0 0 1-10 0c-5.756-4.943-9.756-11.11-12-18.5.155-7.617 2.321-14.617 6.5-21 8.382-8.939 18.549-14.273 30.5-16Z" style="opacity:1"/><path fill="#73c3f9" d="M247.5 337.5c5.234 1.302 10.567 1.302 16 0a619.407 619.407 0 0 1 16-2.5 651.016 651.016 0 0 1 15 17.5c-17.197 7.574-35.197 10.074-54 7.5a240.747 240.747 0 0 1-25-6.5 604.28 604.28 0 0 0 16-18.5c5.147 1.445 10.48 2.279 16 2.5Z" style="opacity:1"/><path fill="#1fa2ea" d="M435.5 433.5c-12.171 13.511-25.838 25.178-41 35a795.73 795.73 0 0 1-.5-69c2.821-4.163 6.655-5.663 11.5-4.5 14.729 9.22 24.729 22.053 30 38.5Z" style="opacity:1"/><path fill="#72c2f8" d="M122.5 413.5h270a784.68 784.68 0 0 0 1 56 75.717 75.717 0 0 1-14 9 7690.422 7690.422 0 0 0-248 0 174.024 174.024 0 0 1-15-10c-.167-17.003 0-34.003.5-51 1.451-1.964 3.284-3.297 5.5-4Z" style="opacity:1"/><path fill="#49b1f7" d="M131.5 478.5a7690.422 7690.422 0 0 1 248 0c-31.734 18.245-65.734 29.245-102 33h-44c-36.265-3.754-70.265-14.754-102-33Z" style="opacity:.984"/></svg>