<svg xmlns="http://www.w3.org/2000/svg" width="512" height="512" style="shape-rendering:geometricPrecision;text-rendering:geometricPrecision;image-rendering:optimizeQuality;fill-rule:evenodd;clip-rule:evenodd"><path fill="#5c2d6d" d="M235.5-.5h39c19.78 2.868 38.78 8.701 57 17.5 21.464 17.748 33.964 40.581 37.5 68.5a226.306 226.306 0 0 1 .5 63c-3.285-.231-5.785 1.103-7.5 4a26.16 26.16 0 0 0-2.5 12c-.489 8.016-1.822 16.016-4 24-1.058 1.1-1.892 2.434-2.5 4a68.766 68.766 0 0 0-1.5 15c-5.507 27.021-14.341 53.021-26.5 78-7.513 13.682-18.346 23.682-32.5 30a108.704 108.704 0 0 1-33 8c-14.273.789-27.94-1.545-41-7-14.615-5.108-25.782-14.441-33.5-28-13.039-24.615-22.205-50.615-27.5-78a66.208 66.208 0 0 0-2-16c-2.804-11.669-4.804-23.335-6-35 .046-6.274-2.954-9.941-9-11-4.664-30.91-2.164-61.243 7.5-91 6.049-15.707 15.549-28.873 28.5-39.5 18.762-9.434 38.429-15.6 59-18.5Z" style="opacity:.992"/><path fill="#f8c4b7" d="M235.5 62.5c30.218-1.017 60.052 1.65 89.5 8a1344.165 1344.165 0 0 1 9 35 581.047 581.047 0 0 0 14 29c.08 15.548.913 31.048 2.5 46.5-.068 4.094-1.901 7.261-5.5 9.5a138.084 138.084 0 0 0-10 29c-2.396 8.39-7.562 14.223-15.5 17.5-2 .667-4 .667-6 0a172.26 172.26 0 0 1-18-13 36.314 36.314 0 0 0-11-4 1445.77 1445.77 0 0 1-61 0c-8.906 2.561-16.572 7.227-23 14-10.001 5.926-17.835 3.759-23.5-6.5a292.884 292.884 0 0 1-11-32 131.49 131.49 0 0 0-7.5-11 1748.895 1748.895 0 0 0 3.5-51 579.235 579.235 0 0 0 14-29 322.697 322.697 0 0 1 9.5-34.5 532.662 532.662 0 0 1 50-7.5Z" style="opacity:1"/><path fill="#2e306e" d="M204.5 135.5c7.008-.166 14.008 0 21 .5 2.667 3 2.667 6 0 9l-17 1a103.738 103.738 0 0 1-16 4c-3.985-3.286-3.985-6.619 0-10 4.071-1.63 8.071-3.13 12-4.5Z" style="opacity:1"/><path fill="#31326f" d="M285.5 134.5c12.068-.783 23.235 1.884 33.5 8 1.539 4.305.206 6.972-4 8-10.147-3.719-20.647-5.553-31.5-5.5-3.04-4.264-2.374-7.764 2-10.5Z" style="opacity:1"/><path fill="#f4a896" d="M140.5 148.5c6.046 1.059 9.046 4.726 9 11a12.93 12.93 0 0 1-.5 5c-2.538-3.843-4.705-3.843-6.5 0a45.91 45.91 0 0 0 6 10 42.769 42.769 0 0 1-9 1.5c-1.333 1.667-1.333 3.333 0 5 3.317.498 6.65.665 10 .5a399.722 399.722 0 0 1-.5 16 7.248 7.248 0 0 0 2.5 2c2.041-1.207 3.374-2.874 4-5a66.208 66.208 0 0 1 2 16c-8.739 3.999-15.906 1.999-21.5-6-9.237-16.319-10.237-32.985-3-50 2.106-2.618 4.606-4.618 7.5-6Z" style="opacity:.98"/><path fill="#f4a896" d="M369.5 148.5c7.521 2.986 11.688 8.653 12.5 17 2.394 13.931.061 26.931-7 39-4.568 6.537-10.735 9.037-18.5 7.5-2.16-.996-3.827-2.496-5-4.5a68.766 68.766 0 0 1 1.5-15c.608-1.566 1.442-2.9 2.5-4a30.465 30.465 0 0 0 1.5 9c1.667 2.667 3.333 2.667 5 0a399.722 399.722 0 0 1-.5-16c3.35.165 6.683-.002 10-.5 1.333-1.667 1.333-3.333 0-5a36.167 36.167 0 0 1-8-2.5 48.493 48.493 0 0 1 4.5-7c1.254-3.611.088-5.111-3.5-4.5a17.842 17.842 0 0 0-4.5 5.5 4.934 4.934 0 0 1-.5-3 26.16 26.16 0 0 1 2.5-12c1.715-2.897 4.215-4.231 7.5-4Z" style="opacity:.976"/><path fill="#36346f" d="M211.5 154.5c8.496.998 13.163 5.831 14 14.5.185 3.997-1.481 5.497-5 4.5-.131-5.258-2.131-9.591-6-13-4.208 2.838-6.041 6.838-5.5 12-1.396 2.027-3.062 2.36-5 1-1.688-8.12.812-14.454 7.5-19ZM292.5 154.5c6.217.038 10.384 3.038 12.5 9 .789 3.591.622 7.091-.5 10.5-1.867.711-3.367.211-4.5-1.5l-1-8c-2.667-5.333-5.333-5.333-8 0a43.073 43.073 0 0 0-2 9c-1.938 1.36-3.604 1.027-5-1-.649-7.699 2.184-13.699 8.5-18Z" style="opacity:1"/><path fill="#e5827c" d="M149.5 159.5c1.196 11.665 3.196 23.331 6 35-.626 2.126-1.959 3.793-4 5a7.248 7.248 0 0 1-2.5-2c.272-5.288.439-10.622.5-16a50.464 50.464 0 0 1-10-.5c-1.333-1.667-1.333-3.333 0-5a42.769 42.769 0 0 0 9-1.5 45.91 45.91 0 0 1-6-10c1.795-3.843 3.962-3.843 6.5 0a12.93 12.93 0 0 0 .5-5Z" style="opacity:1"/><path fill="#e7837c" d="M355.5 188.5c2.178-7.984 3.511-15.984 4-24a4.934 4.934 0 0 0 .5 3 17.842 17.842 0 0 1 4.5-5.5c3.588-.611 4.754.889 3.5 4.5a48.493 48.493 0 0 0-4.5 7 36.167 36.167 0 0 0 8 2.5c1.333 1.667 1.333 3.333 0 5-3.317.498-6.65.665-10 .5.061 5.378.228 10.712.5 16-1.667 2.667-3.333 2.667-5 0a30.465 30.465 0 0 1-1.5-9Z" style="opacity:1"/><path fill="#f6afa8" d="M202.5 179.5a60.514 60.514 0 0 1 24 3.5c8.507 4.035 9.174 9.035 2 15-11.123 3.809-22.456 4.476-34 2-11.663-4.239-12.663-9.905-3-17a204.134 204.134 0 0 1 11-3.5ZM294.5 179.5c7.916-.347 15.582.82 23 3.5 4.782 2.073 6.949 5.573 6.5 10.5-3.917 4.209-8.75 6.709-14.5 7.5-9.173 1.136-18.173.469-27-2-9.682-6.631-9.016-12.298 2-17a135.21 135.21 0 0 0 10-2.5Z" style="opacity:1"/><path fill="#e9867d" d="M251.5 184.5c4.177-.658 5.677 1.008 4.5 5a245.465 245.465 0 0 0-10.5 18c.029 1.529.696 2.696 2 3.5a28.415 28.415 0 0 1 7.5 4.5c.942 2.73-.058 4.063-3 4-12.126-3.242-15.126-10.242-9-21a61.684 61.684 0 0 0 8.5-14Z" style="opacity:1"/><path fill="#d1c3d5" d="M286.5 243.5a512.628 512.628 0 0 0-64 0c-.543-.06-.876-.393-1-1 22-1.333 44-1.333 66 0-.124.607-.457.94-1 1Z" style="opacity:1"/><path fill="#fdfcfd" d="M286.5 243.5c-6.043 14.181-16.876 21.515-32.5 22-15.094-.951-25.594-8.284-31.5-22a512.628 512.628 0 0 1 64 0Z" style="opacity:1"/><path fill="#f8c4b7" d="M292.5 315.5c-.189 10.202 1.978 19.868 6.5 29a3052.71 3052.71 0 0 0 43.5 26 3434.776 3434.776 0 0 0-94 58 3539.77 3539.77 0 0 1-79-59 48623.28 48623.28 0 0 1 41-23.5c3.265-4.293 5.265-9.126 6-14.5a684.91 684.91 0 0 0 43-8 108.704 108.704 0 0 0 33-8Z" style="opacity:.996"/><path fill="#f0a697" d="M218.5 316.5c13.06 5.455 26.727 7.789 41 7a684.91 684.91 0 0 1-43 8 51.522 51.522 0 0 0 2-15Z" style="opacity:1"/><path fill="#3f5aa6" d="M169.5 369.5a3539.77 3539.77 0 0 0 79 59 3434.776 3434.776 0 0 1 94-58 4712.301 4712.301 0 0 1 113 63.5c22.065 21.008 32.065 46.842 30 77.5h-460c-2.065-30.658 7.935-56.492 30-77.5a9624.504 9624.504 0 0 1 114-64.5Z" style="opacity:1"/></svg>