<svg xmlns="http://www.w3.org/2000/svg" width="512" height="512" style="shape-rendering:geometricPrecision;text-rendering:geometricPrecision;image-rendering:optimizeQuality;fill-rule:evenodd;clip-rule:evenodd"><path fill="#945230" d="M267.5-.5h24a335.532 335.532 0 0 1 25 4.5c1.074.739 1.741 1.739 2 3a39.519 39.519 0 0 1-7 8 317.403 317.403 0 0 1 21 11 76.977 76.977 0 0 1 13 12.5c9.281 11.226 15.948 23.893 20 38a334.787 334.787 0 0 0-13.5 40 134.664 134.664 0 0 0-3.5 33c-3.254-.293-6.254.374-9 2-2.275-7.568-5.442-14.901-9.5-22a334.194 334.194 0 0 0-2-34c-4.954-17.608-16.62-25.941-35-25a133.486 133.486 0 0 0-32.5 6.5 45.514 45.514 0 0 1-15-.5v-1c-11.389-19.548-10.556-38.548 2.5-57 5.733-7.235 12.233-13.568 19.5-19Z" style="opacity:.997"/><path fill="#753616" d="M251.5-.5h16c-7.267 5.432-13.767 11.765-19.5 19-13.056 18.452-13.889 37.452-2.5 57-48.175-14.343-69.675 3.656-64.5 54-4.058 7.099-7.225 14.432-9.5 22-2.493-1.274-5.159-1.94-8-2-1.93-23.903-6.763-47.237-14.5-70-.972-6.403.694-12.07 5-17 6.863-9.52 16.03-15.687 27.5-18.5a49.715 49.715 0 0 0 10-14.5c9.916-12.974 22.916-21.474 39-25.5 7.09-1.73 14.09-3.23 21-4.5Z" style="opacity:1"/><path fill="#49b0f6" d="M191.5 29.5a49.715 49.715 0 0 1-10 14.5c-11.47 2.813-20.637 8.98-27.5 18.5-4.306 4.93-5.972 10.597-5 17 7.737 22.763 12.57 46.097 14.5 70-9.266 1.839-13.099 7.505-11.5 17a516.006 516.006 0 0 1 12 34c3.387 3.539 7.553 4.872 12.5 4v5c2.061 23.879 10.728 44.879 26 63a145.985 145.985 0 0 1-2 15c-2.044-1.278-4.044-1.112-6 .5a147.649 147.649 0 0 0-27.5 22.5 58.746 58.746 0 0 0-2.5 7 2500.658 2500.658 0 0 1-84 29.5 59.259 59.259 0 0 0-13 6.5c-11.79 7.787-21.123 17.787-28 30a193.084 193.084 0 0 1-15-34c25.5-22.938 54.5-40.438 87-52.5 11.643-5.57 21.477-13.404 29.5-23.5 4.539-8.262 5.539-16.928 3-26a291.224 291.224 0 0 0-12-30c-7.753-18.118-8.42-36.451-2-55 2.359-13.556.025-26.223-7-38-9.599-14.579-21.432-26.913-35.5-37 29.507-28.081 64.173-47.415 104-58Z" style="opacity:.996"/><path fill="#4ab0f6" d="M345.5 38.5c29.301 11.304 55.301 27.638 78 49-14.529 9.704-26.362 22.037-35.5 37-8.935 17.166-9.935 34.833-3 53 1.858 13.904-.142 27.237-6 40a184.504 184.504 0 0 0-13 34c-1.273 9.12.727 17.454 6 25 7.828 8.66 16.994 15.494 27.5 20.5 27.582 10.633 52.916 24.966 76 43a162.014 162.014 0 0 0 11 10.5 244.742 244.742 0 0 1-15 33c-6.542-11.878-15.542-21.545-27-29a102.91 102.91 0 0 0-12-6.5 4368.114 4368.114 0 0 1-86-30.5 58.746 58.746 0 0 0-2.5-7c-8.916-9.926-19.249-17.926-31-24-.902.243-1.735.577-2.5 1a92.343 92.343 0 0 1-2-15c15.272-18.121 23.939-39.121 26-63v-5c6.372.73 11.206-1.604 14.5-7a168.117 168.117 0 0 1 10-31c1.533-8.957-1.967-14.623-10.5-17-.194-11.14.972-22.14 3.5-33 3.675-13.666 8.175-27 13.5-40-4.052-14.107-10.719-26.774-20-38Z" style="opacity:.997"/><path fill="#fea97a" d="M245.5 75.5v1c-7.046 6.423-11.213 14.423-12.5 24l-1 29a97.232 97.232 0 0 0-9 21c-.667 6-.667 12 0 18a640.208 640.208 0 0 1 4.5 32l-3 2c-9.593 3.758-16.426 10.425-20.5 20a33.546 33.546 0 0 0-2.5 10c-11.19-4.521-19.523-12.188-25-23v-5a1000.866 1000.866 0 0 1-5-53c2.275-7.568 5.442-14.901 9.5-22-5.175-50.344 16.325-68.344 64.5-54Z" style="opacity:1"/><path fill="#fec6aa" d="M339.5 151.5a711.78 711.78 0 0 1-5 53v5c-4.951 9.617-12.284 16.951-22 22-3.087-9.918-8.42-18.418-16-25.5a184.748 184.748 0 0 0-32.5-10.5c-3.3-.101-5.8 1.233-7.5 4-1.834-2.917-4.5-4.25-8-4a482.047 482.047 0 0 0-21 5 640.208 640.208 0 0 0-4.5-32c-.667-6-.667-12 0-18a97.232 97.232 0 0 1 9-21l1-29c1.287-9.577 5.454-17.577 12.5-24a45.514 45.514 0 0 0 15 .5 133.486 133.486 0 0 1 32.5-6.5c18.38-.941 30.046 7.392 35 25a334.194 334.194 0 0 1 2 34c4.058 7.099 7.225 14.432 9.5 22Z" style="opacity:1"/><path fill="#72c2f8" d="M87.5 87.5c14.068 10.087 25.901 22.421 35.5 37 7.025 11.777 9.359 24.444 7 38-6.42 18.549-5.753 36.882 2 55a291.224 291.224 0 0 1 12 30c2.539 9.072 1.539 17.738-3 26-8.023 10.096-17.857 17.93-29.5 23.5-32.5 12.062-61.5 29.562-87 52.5-27.923-85.459-15.09-164.125 38.5-236a180.769 180.769 0 0 1 24.5-26ZM423.5 87.5c56.665 54.79 82.165 121.79 76.5 201a260.322 260.322 0 0 1-13.5 62 162.014 162.014 0 0 1-11-10.5c-23.084-18.034-48.418-32.367-76-43-10.506-5.006-19.672-11.84-27.5-20.5-5.273-7.546-7.273-15.88-6-25a184.504 184.504 0 0 1 13-34c5.858-12.763 7.858-26.096 6-40-6.935-18.167-5.935-35.834 3-53 9.138-14.963 20.971-27.296 35.5-37Z" style="opacity:1"/><path fill="#fdaa7c" d="M348.5 149.5c8.533 2.377 12.033 8.043 10.5 17a168.117 168.117 0 0 0-10 31c-3.294 5.396-8.128 7.73-14.5 7a711.78 711.78 0 0 0 5-53c2.746-1.626 5.746-2.293 9-2Z" style="opacity:1"/><path fill="#fa9461" d="M163.5 149.5c2.841.06 5.507.726 8 2a1000.866 1000.866 0 0 0 5 53c-4.947.872-9.113-.461-12.5-4a516.006 516.006 0 0 0-12-34c-1.599-9.495 2.234-15.161 11.5-17Z" style="opacity:1"/><path fill="#945230" d="M334.5 209.5c-2.061 23.879-10.728 44.879-26 63-12.869 13.204-28.203 22.204-46 27-7.579-5.098-12.746-12.098-15.5-21-.624-6.043-1.791-11.71-3.5-17l2-2c4.954-1.886 7.454-5.552 7.5-11 1.733-2.102 3.733-2.435 6-1 2.356 11.363 9.189 15.863 20.5 13.5 9.935-3.583 15.768-10.416 17.5-20.5-8.738-9.62-19.571-15.454-32.5-17.5-3.516-2.871-6.183-6.371-8-10.5-1.817 4.129-4.484 7.629-8 10.5a135.021 135.021 0 0 1-14 4c-1.442.377-2.442 1.21-3 2.5h-1c-2.634-2.496-4.8-5.496-6.5-9-.975-5.67-.475-11.17 1.5-16.5-.07-.765-.403-1.265-1-1.5l3-2a482.047 482.047 0 0 1 21-5c3.5-.25 6.166 1.083 8 4 1.7-2.767 4.2-4.101 7.5-4a184.748 184.748 0 0 1 32.5 10.5c7.58 7.082 12.913 15.582 16 25.5 9.716-5.049 17.049-12.383 22-22Z" style="opacity:1"/><path fill="#763717" d="M224.5 202.5c.597.235.93.735 1 1.5-1.975 5.33-2.475 10.83-1.5 16.5 1.7 3.504 3.866 6.504 6.5 9-6.128 2.613-11.295 6.613-15.5 12 2.273 9.946 8.439 16.446 18.5 19.5 3.317.498 6.65.665 10 .5 1.709 5.29 2.876 10.957 3.5 17 2.754 8.902 7.921 15.902 15.5 21-2.448.973-5.115 1.306-8 1-8.204-.234-15.871-2.401-23-6.5-10.953-5.456-20.62-12.623-29-21.5-15.272-18.121-23.939-39.121-26-63 5.477 10.812 13.81 18.479 25 23a33.546 33.546 0 0 1 2.5-10c4.074-9.575 10.907-16.242 20.5-20Z" style="opacity:1"/><path fill="#fdc5a9" d="M245.5 259.5c-5.784-9.563-10.45-19.563-14-30 .558-1.29 1.558-2.123 3-2.5a135.021 135.021 0 0 0 14-4c3.516-2.871 6.183-6.371 8-10.5 1.817 4.129 4.484 7.629 8 10.5 12.929 2.046 23.762 7.88 32.5 17.5-1.732 10.084-7.565 16.917-17.5 20.5-11.311 2.363-18.144-2.137-20.5-13.5-2.267-1.435-4.267-1.102-6 1-.046 5.448-2.546 9.114-7.5 11Z" style="opacity:1"/><path fill="#fda87a" d="M230.5 229.5h1c3.55 10.437 8.216 20.437 14 30l-2 2a50.464 50.464 0 0 1-10-.5c-10.061-3.054-16.227-9.554-18.5-19.5 4.205-5.387 9.372-9.387 15.5-12Z" style="opacity:1"/><path fill="#fb9360" d="M202.5 272.5c8.38 8.877 18.047 16.044 29 21.5 7.129 4.099 14.796 6.266 23 6.5-2.009 10.518-7.009 19.351-15 26.5-3.985 2.495-8.318 3.662-13 3.5-13.985-10.945-22.651-25.278-26-43a145.985 145.985 0 0 0 2-15Z" style="opacity:1"/><path fill="#feaa7b" d="M308.5 272.5a92.343 92.343 0 0 0 2 15c-5.019 23.382-17.852 41.049-38.5 53a82.77 82.77 0 0 1-8.5 15c-6 1.333-12 1.333-18 0a2.428 2.428 0 0 0 2-.5 48.992 48.992 0 0 1-8.5-14.5 89.313 89.313 0 0 0-12.5-9v-1c4.682.162 9.015-1.005 13-3.5 7.991-7.149 12.991-15.982 15-26.5 2.885.306 5.552-.027 8-1 17.797-4.796 33.131-13.796 46-27Z" style="opacity:1"/><path fill="#d2dbfa" d="M200.5 287.5c3.349 17.722 12.015 32.055 26 43v1c-23.773.786-37.439 12.786-41 36a391.007 391.007 0 0 1-21-50 58.746 58.746 0 0 1 2.5-7 147.649 147.649 0 0 1 27.5-22.5c1.956-1.612 3.956-1.778 6-.5Z" style="opacity:1"/><path fill="#ddedfd" d="M346.5 317.5c-6.871 20.753-15.704 40.753-26.5 60-5.759 5.888-11.926 6.388-18.5 1.5a25.122 25.122 0 0 0-7-7.5 358.03 358.03 0 0 0-16-19 59.927 59.927 0 0 1-15 3 82.77 82.77 0 0 0 8.5-15c20.648-11.951 33.481-29.618 38.5-53a11.123 11.123 0 0 1 2.5-1c11.751 6.074 22.084 14.074 31 24a58.746 58.746 0 0 1 2.5 7Z" style="opacity:1"/><path fill="#6faf46" d="M164.5 317.5a391.007 391.007 0 0 0 21 50v1c-12.602 3.382-23.436 9.715-32.5 19a53.212 53.212 0 0 0-6 11 1292.025 1292.025 0 0 0-1.5 87c-11.666-4.826-22.332-11.159-32-19 .167-19.003 0-38.003-.5-57-4.7-17.038-13.867-31.205-27.5-42.5-5.9-4.748-11.9-9.248-18-13.5a59.259 59.259 0 0 1 13-6.5 2500.658 2500.658 0 0 0 84-29.5Z" style="opacity:.999"/><path fill="#88ce65" d="M346.5 317.5a4368.114 4368.114 0 0 0 86 30.5 102.91 102.91 0 0 1 12 6.5c-23.26 11.761-38.76 30.095-46.5 55-.5 18.997-.667 37.997-.5 57-35.939 25.649-75.939 40.649-120 45h-44c-30.968-3.076-60.301-11.743-88-26-.476-29.063.024-58.063 1.5-87a53.212 53.212 0 0 1 6-11c9.064-9.285 19.898-15.618 32.5-19 2.028 4.203 4.695 8.036 8 11.5 4.667 2 9.333 2 14 0a108.262 108.262 0 0 1 9-8.5c12.239 4.581 24.905 7.248 38 8 13.766-.737 27.099-3.404 40-8a25.122 25.122 0 0 1 7 7.5c6.574 4.888 12.741 4.388 18.5-1.5 10.796-19.247 19.629-39.247 26.5-60Z" style="opacity:.998"/><path fill="#ddecfd" d="M226.5 331.5a89.313 89.313 0 0 1 12.5 9 48.992 48.992 0 0 0 8.5 14.5 2.428 2.428 0 0 1-2 .5c-4.742-.858-9.409-1.691-14-2.5a576.016 576.016 0 0 1-15 18.5 108.262 108.262 0 0 0-9 8.5c-4.667 2-9.333 2-14 0-3.305-3.464-5.972-7.297-8-11.5v-1c3.561-23.214 17.227-35.214 41-36Z" style="opacity:1"/><path fill="#b3d668" d="M245.5 355.5c6 1.333 12 1.333 18 0a59.927 59.927 0 0 0 15-3 358.03 358.03 0 0 1 16 19c-12.901 4.596-26.234 7.263-40 8-13.095-.752-25.761-3.419-38-8a576.016 576.016 0 0 0 15-18.5c4.591.809 9.258 1.642 14 2.5Z" style="opacity:1"/><path fill="#88cd65" d="M67.5 353.5c6.1 4.252 12.1 8.752 18 13.5 13.633 11.295 22.8 25.462 27.5 42.5.5 18.997.667 37.997.5 57-31.03-22.027-55.696-49.694-74-83 6.877-12.213 16.21-22.213 28-30Z" style="opacity:.994"/><path fill="#b3d667" d="M444.5 354.5c11.458 7.455 20.458 17.122 27 29-18.304 33.306-42.971 60.973-74 83-.167-19.003 0-38.003.5-57 7.74-24.905 23.24-43.239 46.5-55Z" style="opacity:.991"/></svg>