<svg xmlns="http://www.w3.org/2000/svg" width="512" height="512" style="shape-rendering:geometricPrecision;text-rendering:geometricPrecision;image-rendering:optimizeQuality;fill-rule:evenodd;clip-rule:evenodd"><path fill="#e99939" d="M251.5-.5h16c-13.044 9.552-22.544 21.885-28.5 37a60.682 60.682 0 0 0-1 20 93.47 93.47 0 0 0 7.5 19c-48.185-14.333-69.685 3.667-64.5 54-4.25 6.826-7.083 14.159-8.5 22a33.691 33.691 0 0 0-9-2 259.867 259.867 0 0 0-14.5-69c-1.338-6.276-.004-11.943 4-17 7.046-10.04 16.546-16.54 28.5-19.5a49.715 49.715 0 0 0 10-14.5c9.916-12.974 22.916-21.474 39-25.5 7.09-1.73 14.09-3.23 21-4.5Z" style="opacity:1"/><path fill="#e9af49" d="M267.5-.5h24a335.532 335.532 0 0 1 25 4.5c1.711 1.133 2.211 2.633 1.5 4.5a65.057 65.057 0 0 0-6.5 7c13.52 4.535 24.853 12.201 34 23 9.904 11.092 16.57 23.925 20 38.5a360.444 360.444 0 0 0-13.5 40.5 187.956 187.956 0 0 0-3.5 32c-3.254-.293-6.254.374-9 2-2.275-7.568-5.442-14.901-9.5-22a334.194 334.194 0 0 0-2-34c-4.954-17.608-16.62-25.941-35-25a133.486 133.486 0 0 0-32.5 6.5c-4.72.717-9.386.55-14-.5 0-.667-.333-1-1-1a93.47 93.47 0 0 1-7.5-19 60.682 60.682 0 0 1 1-20c5.956-15.115 15.456-27.448 28.5-37Z" style="opacity:.996"/><path fill="#45304c" d="M191.5 29.5a49.715 49.715 0 0 1-10 14.5c-11.954 2.96-21.454 9.46-28.5 19.5-4.004 5.057-5.338 10.724-4 17a259.867 259.867 0 0 1 14.5 69c-6.147-.005-9.981 2.995-11.5 9a16.242 16.242 0 0 0 0 8 168.117 168.117 0 0 1 10 31c3.193 5.685 8.026 8.018 14.5 7 1.812 24.78 10.478 46.78 26 66a181.279 181.279 0 0 1-3 21c-18.319 3.976-32.653 13.643-43 29a4089.15 4089.15 0 0 0-82 31.5c-14.427 8.923-25.093 21.09-32 36.5a207.14 207.14 0 0 1-18-39c18.042-16.203 38.042-29.703 60-40.5a248.587 248.587 0 0 0 45-23c14.555-10.999 19.055-25.165 13.5-42.5a277.7 277.7 0 0 1-17-47c-1.457-11.673-.123-23.006 4-34 2.359-13.556.025-26.223-7-38-9.138-14.963-20.971-27.296-35.5-37 29.507-28.081 64.173-47.415 104-58Z" style="opacity:.997"/><path fill="#45304c" d="M345.5 38.5c29.301 11.304 55.301 27.638 78 49-14.001 9.168-25.501 20.835-34.5 35-7.667 12.668-10.334 26.335-8 41 6.25 17.101 5.917 34.101-1 51a227.595 227.595 0 0 0-14 38c-1.135 8.792.865 16.792 6 24 7.362 8.033 15.862 14.533 25.5 19.5a588.15 588.15 0 0 1 58 29 226.965 226.965 0 0 1 31 25.5 247.821 247.821 0 0 1-18 38c-6.906-15.41-17.573-27.577-32-36.5a12173.28 12173.28 0 0 1-83-32.5c-9.982-14.508-23.648-23.842-41-28a44.093 44.093 0 0 0-2-3 247.906 247.906 0 0 1-2-18c15.518-19.205 24.184-41.205 26-66 5.57 1.084 10.07-.583 13.5-5a239.433 239.433 0 0 1 11-33c1.93-9.203-1.57-14.869-10.5-17a187.956 187.956 0 0 1 3.5-32A360.444 360.444 0 0 1 365.5 77c-3.43-14.575-10.096-27.408-20-38.5Z" style="opacity:.998"/><path fill="#fed8a0" d="M245.5 75.5c.667 0 1 .333 1 1-6.329 4.844-10.496 11.177-12.5 19a350.196 350.196 0 0 0-2 34 78.947 78.947 0 0 0-9 22c-.435 8.02-.101 16.02 1 24 2.377 17.32 4.711 34.653 7 52 8.265 28.227 24.931 49.893 50 65a60.631 60.631 0 0 1 6.5-3.5 184.336 184.336 0 0 0 21-18.5 247.906 247.906 0 0 0 2 18 716.538 716.538 0 0 1-1 53c-26.716 13.043-54.383 16.043-83 9 15.3-5.15 24.467-15.817 27.5-32a105.2 105.2 0 0 0 1.5-20c-11.579-.062-22.246-3.229-32-9.5a184.336 184.336 0 0 1-21-18.5c-15.522-19.22-24.188-41.22-26-66a1211.528 1211.528 0 0 0-5-46c.06-2.421.393-4.754 1-7 1.417-7.841 4.25-15.174 8.5-22-5.185-50.333 16.315-68.333 64.5-54Z" style="opacity:1"/><path fill="#fbe5c9" d="M339.5 151.5a791.862 791.862 0 0 1-5 53c-1.816 24.795-10.482 46.795-26 66a184.336 184.336 0 0 1-21 18.5 60.631 60.631 0 0 0-6.5 3.5c-25.069-15.107-41.735-36.773-50-65-2.289-17.347-4.623-34.68-7-52a125.478 125.478 0 0 1-1-24 78.947 78.947 0 0 1 9-22 350.196 350.196 0 0 1 2-34c2.004-7.823 6.171-14.156 12.5-19a37.297 37.297 0 0 0 14 .5 133.486 133.486 0 0 1 32.5-6.5c18.38-.941 30.046 7.392 35 25a334.194 334.194 0 0 1 2 34c4.058 7.099 7.225 14.432 9.5 22Z" style="opacity:1"/><path fill="#55405d" d="M87.5 87.5c14.529 9.704 26.362 22.037 35.5 37 7.025 11.777 9.359 24.444 7 38-4.123 10.994-5.457 22.327-4 34a277.7 277.7 0 0 0 17 47c5.555 17.335 1.055 31.501-13.5 42.5a248.587 248.587 0 0 1-45 23c-21.958 10.797-41.958 24.297-60 40.5-27.923-85.459-15.09-164.125 38.5-236a180.769 180.769 0 0 1 24.5-26ZM423.5 87.5c56.665 54.79 82.165 121.79 76.5 201a260.322 260.322 0 0 1-13.5 62 226.965 226.965 0 0 0-31-25.5 588.15 588.15 0 0 0-58-29c-9.638-4.967-18.138-11.467-25.5-19.5-5.135-7.208-7.135-15.208-6-24a227.595 227.595 0 0 1 14-38c6.917-16.899 7.25-33.899 1-51-2.334-14.665.333-28.332 8-41 8.999-14.165 20.499-25.832 34.5-35Z" style="opacity:1"/><path fill="#fcd7a0" d="M348.5 149.5c8.93 2.131 12.43 7.797 10.5 17a239.433 239.433 0 0 0-11 33c-3.43 4.417-7.93 6.084-13.5 5a791.862 791.862 0 0 0 5-53c2.746-1.626 5.746-2.293 9-2Z" style="opacity:1"/><path fill="#f7c789" d="M163.5 149.5c3.098.256 6.098.922 9 2a29.536 29.536 0 0 0-1 7 1211.528 1211.528 0 0 1 5 46c-6.474 1.018-11.307-1.315-14.5-7a168.117 168.117 0 0 0-10-31 16.242 16.242 0 0 1 0-8c1.519-6.005 5.353-9.005 11.5-9Z" style="opacity:1"/><path fill="#f8c88a" d="M202.5 270.5a184.336 184.336 0 0 0 21 18.5c9.754 6.271 20.421 9.438 32 9.5a105.2 105.2 0 0 1-1.5 20c-3.033 16.183-12.2 26.85-27.5 32a122.588 122.588 0 0 1-26-10 1636.968 1636.968 0 0 1-1-49 181.279 181.279 0 0 0 3-21Z" style="opacity:1"/><path fill="#73c2f8" d="M199.5 291.5c.089 16.339.422 32.673 1 49a238.473 238.473 0 0 0 1 29v7a314.118 314.118 0 0 0-24 18c-1.043-2.556-2.71-4.723-5-6.5-7.862-7.348-17.196-11.514-28-12.5a106.284 106.284 0 0 1-14-3.5c-2.597-2.317-3.43-5.15-2.5-8.5a1772.586 1772.586 0 0 0 28.5-43c10.347-15.357 24.681-25.024 43-29ZM310.5 288.5a44.093 44.093 0 0 1 2 3c17.352 4.158 31.018 13.492 41 28a2139.25 2139.25 0 0 1 28.5 44c1.106 5.915-1.394 9.415-7.5 10.5a367.157 367.157 0 0 0-26 6 104.211 104.211 0 0 0-16 13.5 299.978 299.978 0 0 1-22.5-17 24.935 24.935 0 0 1-.5-7v-28a716.538 716.538 0 0 0 1-53Z" style="opacity:1"/><path fill="#1fa1e9" d="M156.5 320.5a1772.586 1772.586 0 0 1-28.5 43c-.93 3.35-.097 6.183 2.5 8.5a106.284 106.284 0 0 0 14 3.5c-14.489 5.496-26.323 14.496-35.5 27a47.356 47.356 0 0 0-5 12 959.575 959.575 0 0 1-1.5 44c-24.72-19.38-44.72-42.713-60-70 6.907-15.41 17.573-27.577 32-36.5a4089.15 4089.15 0 0 1 82-31.5Z" style="opacity:.998"/><path fill="#49b0f6" d="M353.5 319.5a12173.28 12173.28 0 0 0 83 32.5c14.427 8.923 25.094 21.09 32 36.5-8.764 16.091-19.431 30.757-32 44-2.909-18.311-12.576-31.811-29-40.5-5.314-1.26-9.147.574-11.5 5.5a818.961 818.961 0 0 0 .5 70c-13.195 9.771-27.528 17.771-43 24a3881.873 3881.873 0 0 0 18.5-47c3.586-10.326 1.42-19.16-6.5-26.5a449.045 449.045 0 0 1-33-24.5 104.211 104.211 0 0 1 16-13.5 367.157 367.157 0 0 1 26-6c6.106-1.085 8.606-4.585 7.5-10.5a2139.25 2139.25 0 0 0-28.5-44Z" style="opacity:.996"/><path fill="#d3dcfa" d="M200.5 340.5a122.588 122.588 0 0 0 26 10c28.617 7.043 56.284 4.043 83-9v28h-1c-24.097 11.845-49.43 15.345-76 10.5a230.295 230.295 0 0 1-31-10.5 238.473 238.473 0 0 1-1-29Z" style="opacity:1"/><path fill="#ddedfe" d="M201.5 369.5a230.295 230.295 0 0 0 31 10.5c26.57 4.845 51.903 1.345 76-10.5a716.27 716.27 0 0 1-4.5 68 1457.503 1457.503 0 0 1-9.5 71 673.803 673.803 0 0 1-17 3h-44a812.263 812.263 0 0 1-17-3 1200.788 1200.788 0 0 1-15-132v-7Z" style="opacity:.999"/><path fill="#49b1f6" d="M144.5 375.5c10.804.986 20.138 5.152 28 12.5 2.29 1.777 3.957 3.944 5 6.5a24345.898 24345.898 0 0 1-31 22.5c-7.669 6.005-10.835 13.838-9.5 23.5a948.079 948.079 0 0 0 20.5 51c-20.165-8.237-38.498-19.237-55-33a959.575 959.575 0 0 0 1.5-44 47.356 47.356 0 0 1 5-12c9.177-12.504 21.011-21.504 35.5-27Z" style="opacity:.995"/><path fill="#9ad7f9" d="M201.5 376.5a1200.788 1200.788 0 0 0 15 132c-20.539-2.717-40.206-8.384-59-17a948.079 948.079 0 0 1-20.5-51c-1.335-9.662 1.831-17.495 9.5-23.5a24345.898 24345.898 0 0 0 31-22.5 314.118 314.118 0 0 1 24-18ZM308.5 369.5h1c-.163 2.357.003 4.69.5 7a299.978 299.978 0 0 0 22.5 17 449.045 449.045 0 0 0 33 24.5c7.92 7.34 10.086 16.174 6.5 26.5a3881.873 3881.873 0 0 1-18.5 47c-18.794 8.616-38.461 14.283-59 17a1457.503 1457.503 0 0 0 9.5-71 716.27 716.27 0 0 0 4.5-68Z" style="opacity:1"/><path fill="#1fa2ea" d="M436.5 432.5a248.951 248.951 0 0 1-40 35 818.961 818.961 0 0 1-.5-70c2.353-4.926 6.186-6.76 11.5-5.5 16.424 8.689 26.091 22.189 29 40.5Z" style="opacity:1"/></svg>