<svg xmlns="http://www.w3.org/2000/svg" xmlns:xlink="http://www.w3.org/1999/xlink" width="600" zoomAndPan="magnify" viewBox="0 0 450 449.999984" height="600" preserveAspectRatio="xMidYMid meet" version="1.0"><defs><clipPath id="aabe639e0e"><path d="M 122 72 L 328 72 L 328 378.9375 L 122 378.9375 Z M 122 72 " clip-rule="nonzero"/></clipPath></defs><path fill="#ffffff" d="M 129.96875 233.3125 L 52.492188 233.3125 C 48.230469 233.3125 44.773438 229.851562 44.773438 225.582031 C 44.773438 221.316406 48.230469 217.855469 52.492188 217.855469 L 129.96875 217.855469 C 134.230469 217.855469 137.6875 221.316406 137.6875 225.582031 C 137.6875 229.851562 134.230469 233.3125 129.96875 233.3125 Z M 129.96875 233.3125 " fill-opacity="1" fill-rule="nonzero"/><path fill="#ffffff" d="M 30.179688 255.652344 C 13.621094 255.652344 0.148438 242.164062 0.148438 225.582031 C 0.148438 209.003906 13.621094 195.515625 30.179688 195.515625 C 46.738281 195.515625 60.210938 209.003906 60.210938 225.582031 C 60.210938 242.164062 46.738281 255.652344 30.179688 255.652344 Z M 30.179688 210.972656 C 22.128906 210.972656 15.585938 217.523438 15.585938 225.582031 C 15.585938 233.644531 22.128906 240.195312 30.179688 240.195312 C 38.230469 240.195312 44.773438 233.644531 44.773438 225.582031 C 44.773438 217.523438 38.230469 210.972656 30.179688 210.972656 Z M 30.179688 210.972656 " fill-opacity="1" fill-rule="nonzero"/><path fill="#ffffff" d="M 19.09375 141.304688 C 10.113281 129.058594 12.636719 111.75 25.011719 102.628906 C 37.246094 93.636719 54.535156 96.167969 63.644531 108.554688 C 72.625 120.804688 70.097656 138.113281 57.722656 147.234375 C 45.539062 156.226562 28.164062 153.683594 19.09375 141.304688 Z M 41.355469 112.734375 C 31.480469 112.734375 25.601562 124.089844 31.542969 132.160156 C 35.523438 137.589844 43.167969 138.765625 48.589844 134.78125 C 54.011719 130.792969 55.183594 123.144531 51.203125 117.714844 C 48.820312 114.457031 45.105469 112.734375 41.355469 112.734375 Z M 41.355469 112.734375 " fill-opacity="1" fill-rule="nonzero"/><path fill="#ffffff" d="M 129.96875 179.304688 L 89.746094 179.304688 C 80.394531 179.304688 71.601562 175.179688 65.621094 167.988281 L 47.222656 145.980469 C 44.492188 142.710938 44.925781 137.832031 48.191406 135.097656 C 51.460938 132.367188 56.332031 132.800781 59.0625 136.070312 L 77.484375 158.078125 C 80.535156 161.742188 85 163.839844 89.746094 163.839844 L 129.96875 163.839844 C 134.230469 163.839844 137.6875 167.300781 137.6875 171.566406 C 137.6875 175.84375 134.230469 179.304688 129.96875 179.304688 Z M 129.96875 179.304688 " fill-opacity="1" fill-rule="nonzero"/><path fill="#ffffff" d="M 25.027344 348.539062 C 12.738281 339.507812 10.085938 322.160156 19.09375 309.859375 C 28.113281 297.558594 45.4375 294.902344 57.722656 303.921875 C 63.667969 308.289062 67.570312 314.726562 68.683594 322.035156 C 69.804688 329.339844 68.019531 336.644531 63.644531 342.597656 C 54.75 354.734375 37.539062 357.695312 25.027344 348.539062 Z M 31.542969 319.007812 C 29.617188 321.636719 28.828125 324.855469 29.324219 328.074219 C 30.996094 338.894531 44.8125 342.125 51.203125 333.453125 C 53.128906 330.820312 53.921875 327.601562 53.425781 324.382812 C 51.753906 313.617188 37.9375 310.28125 31.542969 319.007812 Z M 31.542969 319.007812 " fill-opacity="1" fill-rule="nonzero"/><path fill="#ffffff" d="M 48.207031 316.082031 C 44.941406 313.347656 44.507812 308.46875 47.238281 305.199219 L 65.644531 283.164062 C 71.617188 275.984375 80.40625 271.859375 89.757812 271.859375 L 129.980469 271.859375 C 134.242188 271.859375 137.699219 275.320312 137.699219 279.589844 C 137.699219 283.855469 134.242188 287.316406 129.980469 287.316406 L 89.746094 287.316406 C 85 287.316406 80.535156 289.410156 77.496094 293.0625 L 59.074219 315.109375 C 56.34375 318.394531 51.445312 318.8125 48.207031 316.082031 Z M 48.207031 316.082031 " fill-opacity="1" fill-rule="nonzero"/><path fill="#ffffff" d="M 397.507812 233.3125 L 320.03125 233.3125 C 315.769531 233.3125 312.3125 229.851562 312.3125 225.582031 C 312.3125 221.316406 315.769531 217.855469 320.03125 217.855469 L 397.507812 217.855469 C 401.769531 217.855469 405.226562 221.316406 405.226562 225.582031 C 405.226562 229.851562 401.769531 233.3125 397.507812 233.3125 Z M 397.507812 233.3125 " fill-opacity="1" fill-rule="nonzero"/><path fill="#ffffff" d="M 419.820312 255.652344 C 403.261719 255.652344 389.789062 242.164062 389.789062 225.582031 C 389.789062 209.003906 403.261719 195.515625 419.820312 195.515625 C 436.378906 195.515625 449.851562 209.003906 449.851562 225.582031 C 449.851562 242.164062 436.378906 255.652344 419.820312 255.652344 Z M 419.820312 210.972656 C 411.769531 210.972656 405.226562 217.523438 405.226562 225.582031 C 405.226562 233.644531 411.769531 240.195312 419.820312 240.195312 C 427.871094 240.195312 434.414062 233.644531 434.414062 225.582031 C 434.414062 217.523438 427.871094 210.972656 419.820312 210.972656 Z M 419.820312 210.972656 " fill-opacity="1" fill-rule="nonzero"/><path fill="#ffffff" d="M 392.277344 147.246094 C 379.75 138.035156 377.492188 120.625 386.355469 108.570312 C 395.375 96.269531 412.703125 93.613281 424.988281 102.628906 C 437.273438 111.660156 439.925781 129.007812 430.917969 141.304688 C 421.976562 153.515625 404.753906 156.378906 392.277344 147.246094 Z M 396.574219 126.785156 C 397.609375 133.476562 403.835938 138.035156 410.46875 137 C 421.160156 135.339844 424.589844 121.535156 415.839844 115.097656 C 407.023438 108.660156 394.929688 116.15625 396.574219 126.785156 Z M 396.574219 126.785156 " fill-opacity="1" fill-rule="nonzero"/><path fill="#ffffff" d="M 360.253906 179.304688 L 320.03125 179.304688 C 315.769531 179.304688 312.3125 175.84375 312.3125 171.578125 C 312.3125 167.3125 315.769531 163.851562 320.03125 163.851562 L 360.253906 163.851562 C 365 163.851562 369.464844 161.757812 372.503906 158.101562 L 390.925781 136.058594 C 393.65625 132.785156 398.527344 132.351562 401.792969 135.085938 C 405.058594 137.820312 405.492188 142.699219 402.761719 145.96875 L 384.355469 168.003906 C 378.398438 175.179688 369.59375 179.304688 360.253906 179.304688 Z M 360.253906 179.304688 " fill-opacity="1" fill-rule="nonzero"/><path fill="#ffffff" d="M 408.65625 353.875 C 391.664062 353.875 378.753906 338.792969 381.304688 322.019531 C 383.628906 306.882812 397.738281 296.539062 412.804688 298.863281 C 420.101562 299.988281 426.519531 303.882812 430.894531 309.835938 C 439.914062 322.136719 437.246094 339.480469 424.960938 348.511719 C 420.0625 352.140625 414.335938 353.875 408.65625 353.875 Z M 396.574219 324.382812 C 396.078125 327.601562 396.871094 330.832031 398.796875 333.453125 C 402.777344 338.894531 410.445312 340.042969 415.839844 336.070312 C 421.261719 332.085938 422.4375 324.433594 418.457031 319.007812 C 412.039062 310.242188 398.222656 313.679688 396.574219 324.382812 Z M 396.574219 324.382812 " fill-opacity="1" fill-rule="nonzero"/><path fill="#ffffff" d="M 390.925781 315.109375 L 372.515625 293.078125 C 369.464844 289.410156 365 287.316406 360.253906 287.316406 L 320.03125 287.316406 C 315.769531 287.316406 312.3125 283.855469 312.3125 279.589844 C 312.3125 275.320312 315.769531 271.859375 320.03125 271.859375 L 360.253906 271.859375 C 369.605469 271.859375 378.398438 275.984375 384.378906 283.175781 L 402.777344 305.183594 C 405.507812 308.457031 405.074219 313.335938 401.808594 316.066406 C 398.515625 318.839844 393.628906 318.367188 390.925781 315.109375 Z M 390.925781 315.109375 " fill-opacity="1" fill-rule="nonzero"/><g clip-path="url(#aabe639e0e)"><path fill="#ffffff" d="M 320.03125 378.9375 L 129.96875 378.9375 C 125.707031 378.9375 122.25 375.476562 122.25 371.210938 L 122.25 79.957031 C 122.25 75.691406 125.707031 72.230469 129.96875 72.230469 L 267.546875 72.230469 C 271.808594 72.230469 275.265625 75.691406 275.265625 79.957031 L 275.265625 123.882812 L 320.03125 123.882812 C 324.292969 123.882812 327.75 127.34375 327.75 131.613281 L 327.75 371.195312 C 327.75 375.476562 324.292969 378.9375 320.03125 378.9375 Z M 137.6875 363.46875 L 312.3125 363.46875 L 312.3125 139.339844 L 267.546875 139.339844 C 263.285156 139.339844 259.828125 135.878906 259.828125 131.613281 L 259.828125 87.699219 L 137.699219 87.699219 Z M 137.6875 363.46875 " fill-opacity="1" fill-rule="nonzero"/></g><path fill="#ffffff" d="M 320.03125 139.339844 C 318.078125 139.339844 316.128906 138.597656 314.621094 137.117188 L 262.136719 85.460938 C 259.101562 82.472656 259.050781 77.582031 262.046875 74.527344 C 265.03125 71.488281 269.917969 71.4375 272.96875 74.4375 L 325.453125 126.09375 C 330.402344 130.960938 326.882812 139.339844 320.03125 139.339844 Z M 320.03125 139.339844 " fill-opacity="1" fill-rule="nonzero"/><path fill="#ffffff" d="M 188.78125 207.484375 L 156.136719 207.484375 C 151.875 207.484375 148.417969 204.023438 148.417969 199.757812 L 148.417969 167.070312 C 148.417969 162.804688 151.875 159.34375 156.136719 159.34375 L 188.78125 159.34375 C 193.042969 159.34375 196.5 162.804688 196.5 167.070312 L 196.5 199.757812 C 196.5 204.023438 193.042969 207.484375 188.78125 207.484375 Z M 163.851562 192.027344 L 181.0625 192.027344 L 181.0625 174.796875 L 163.851562 174.796875 Z M 163.851562 192.027344 " fill-opacity="1" fill-rule="nonzero"/><path fill="#ffffff" d="M 293.789062 178.464844 L 220.878906 178.464844 C 216.617188 178.464844 213.160156 175 213.160156 170.734375 C 213.160156 166.46875 216.617188 163.007812 220.878906 163.007812 L 293.789062 163.007812 C 298.050781 163.007812 301.507812 166.46875 301.507812 170.734375 C 301.507812 175 298.050781 178.464844 293.789062 178.464844 Z M 293.789062 178.464844 " fill-opacity="1" fill-rule="nonzero"/><path fill="#ffffff" d="M 267.558594 203.816406 L 220.878906 203.816406 C 216.617188 203.816406 213.160156 200.355469 213.160156 196.089844 C 213.160156 191.824219 216.617188 188.363281 220.878906 188.363281 L 267.558594 188.363281 C 271.820312 188.363281 275.277344 191.824219 275.277344 196.089844 C 275.277344 200.355469 271.820312 203.816406 267.558594 203.816406 Z M 267.558594 203.816406 " fill-opacity="1" fill-rule="nonzero"/><path fill="#ffffff" d="M 188.78125 275.488281 L 156.136719 275.488281 C 151.875 275.488281 148.417969 272.027344 148.417969 267.761719 L 148.417969 235.074219 C 148.417969 230.808594 151.875 227.347656 156.136719 227.347656 L 188.78125 227.347656 C 193.042969 227.347656 196.5 230.808594 196.5 235.074219 L 196.5 267.761719 C 196.5 272.027344 193.042969 275.488281 188.78125 275.488281 Z M 163.851562 260.019531 L 181.0625 260.019531 L 181.0625 242.789062 L 163.851562 242.789062 Z M 163.851562 260.019531 " fill-opacity="1" fill-rule="nonzero"/><path fill="#ffffff" d="M 293.789062 246.453125 L 220.878906 246.453125 C 216.617188 246.453125 213.160156 242.992188 213.160156 238.726562 C 213.160156 234.460938 216.617188 231 220.878906 231 L 293.789062 231 C 298.050781 231 301.507812 234.460938 301.507812 238.726562 C 301.507812 242.992188 298.050781 246.453125 293.789062 246.453125 Z M 293.789062 246.453125 " fill-opacity="1" fill-rule="nonzero"/><path fill="#ffffff" d="M 267.558594 271.820312 L 220.878906 271.820312 C 216.617188 271.820312 213.160156 268.359375 213.160156 264.09375 C 213.160156 259.828125 216.617188 256.367188 220.878906 256.367188 L 267.558594 256.367188 C 271.820312 256.367188 275.277344 259.828125 275.277344 264.09375 C 275.277344 268.359375 271.820312 271.820312 267.558594 271.820312 Z M 267.558594 271.820312 " fill-opacity="1" fill-rule="nonzero"/><path fill="#ffffff" d="M 188.78125 343.480469 L 156.136719 343.480469 C 151.875 343.480469 148.417969 340.019531 148.417969 335.75 L 148.417969 303.066406 C 148.417969 298.800781 151.875 295.335938 156.136719 295.335938 L 188.78125 295.335938 C 193.042969 295.335938 196.5 298.800781 196.5 303.066406 L 196.5 335.75 C 196.5 340.019531 193.042969 343.480469 188.78125 343.480469 Z M 163.851562 328.023438 L 181.0625 328.023438 L 181.0625 310.792969 L 163.851562 310.792969 Z M 163.851562 328.023438 " fill-opacity="1" fill-rule="nonzero"/><path fill="#ffffff" d="M 293.789062 314.457031 L 220.878906 314.457031 C 216.617188 314.457031 213.160156 310.996094 213.160156 306.730469 C 213.160156 302.464844 216.617188 299.003906 220.878906 299.003906 L 293.789062 299.003906 C 298.050781 299.003906 301.507812 302.464844 301.507812 306.730469 C 301.507812 310.996094 298.050781 314.457031 293.789062 314.457031 Z M 293.789062 314.457031 " fill-opacity="1" fill-rule="nonzero"/><path fill="#ffffff" d="M 267.558594 339.8125 L 220.878906 339.8125 C 216.617188 339.8125 213.160156 336.351562 213.160156 332.085938 C 213.160156 327.820312 216.617188 324.359375 220.878906 324.359375 L 267.558594 324.359375 C 271.820312 324.359375 275.277344 327.820312 275.277344 332.085938 C 275.277344 336.351562 271.820312 339.8125 267.558594 339.8125 Z M 267.558594 339.8125 " fill-opacity="1" fill-rule="nonzero"/></svg>