<svg xmlns="http://www.w3.org/2000/svg" width="600" height="600" version="1.0" viewBox="0 0 450 450"><defs><clipPath id="a"><path d="M122 72h206v306.938H122Zm0 0"/></clipPath></defs><path fill="#fff" d="M129.969 233.313H52.492c-4.262 0-7.719-3.461-7.719-7.731 0-4.266 3.457-7.727 7.72-7.727h77.476c4.261 0 7.719 3.461 7.719 7.727 0 4.27-3.458 7.73-7.72 7.73Zm0 0"/><path fill="#fff" d="M30.18 255.652c-16.559 0-30.032-13.488-30.032-30.07 0-16.578 13.473-30.066 30.032-30.066 16.558 0 30.03 13.488 30.03 30.066 0 16.582-13.472 30.07-30.03 30.07Zm0-44.68c-8.051 0-14.594 6.551-14.594 14.61 0 8.063 6.543 14.613 14.594 14.613 8.05 0 14.593-6.55 14.593-14.613 0-8.059-6.543-14.61-14.593-14.61ZM19.094 141.305c-8.98-12.246-6.457-29.555 5.918-38.676 12.234-8.992 29.523-6.461 38.633 5.926 8.98 12.25 6.453 29.558-5.922 38.68-12.184 8.992-29.559 6.449-38.63-5.93Zm22.261-28.57c-9.875 0-15.753 11.355-9.812 19.425 3.98 5.43 11.625 6.606 17.047 2.621 5.422-3.988 6.594-11.636 2.613-17.066-2.383-3.258-6.098-4.98-9.848-4.98Zm0 0"/><path fill="#fff" d="M129.969 179.305H89.746a31.29 31.29 0 0 1-24.125-11.317L47.223 145.98c-2.73-3.27-2.297-8.148.968-10.882 3.27-2.73 8.141-2.297 10.871.972l18.422 22.008a15.912 15.912 0 0 0 12.262 5.762h40.223c4.261 0 7.719 3.46 7.719 7.726 0 4.278-3.458 7.739-7.72 7.739ZM25.027 348.54c-12.289-9.032-14.941-26.38-5.933-38.68 9.02-12.301 26.343-14.958 38.629-5.938 5.945 4.367 9.847 10.805 10.96 18.113 1.122 7.305-.663 14.61-5.038 20.563-8.895 12.136-26.106 15.097-38.618 5.941Zm6.516-29.532a12.118 12.118 0 0 0-2.219 9.066c1.672 10.82 15.488 14.051 21.88 5.38a12.134 12.134 0 0 0 2.222-9.071c-1.672-10.766-15.489-14.102-21.883-5.375Zm0 0"/><path fill="#fff" d="M48.207 316.082c-3.266-2.734-3.7-7.613-.969-10.883l18.407-22.035a31.282 31.282 0 0 1 24.113-11.305h40.222c4.262 0 7.72 3.461 7.72 7.73 0 4.266-3.458 7.727-7.72 7.727H89.746c-4.746 0-9.21 2.094-12.25 5.747l-18.422 22.046c-2.73 3.286-7.629 3.704-10.867.973ZM397.508 233.313H320.03c-4.261 0-7.719-3.461-7.719-7.731 0-4.266 3.458-7.727 7.72-7.727h77.476c4.262 0 7.719 3.461 7.719 7.727 0 4.27-3.457 7.73-7.72 7.73Zm0 0"/><path fill="#fff" d="M419.82 255.652c-16.558 0-30.03-13.488-30.03-30.07 0-16.578 13.472-30.066 30.03-30.066 16.559 0 30.032 13.488 30.032 30.066 0 16.582-13.473 30.07-30.032 30.07Zm0-44.68c-8.05 0-14.593 6.551-14.593 14.61 0 8.063 6.543 14.613 14.593 14.613 8.051 0 14.594-6.55 14.594-14.613 0-8.059-6.543-14.61-14.594-14.61ZM392.277 147.246c-12.527-9.21-14.785-26.621-5.922-38.676 9.02-12.3 26.348-14.957 38.633-5.941 12.285 9.031 14.938 26.379 5.93 38.676-8.941 12.21-26.164 15.074-38.64 5.941Zm4.297-20.46c1.035 6.69 7.262 11.25 13.895 10.214 10.691-1.66 14.12-15.465 5.37-21.902-8.816-6.438-20.91 1.058-19.265 11.687Zm0 0"/><path fill="#fff" d="M360.254 179.305H320.03c-4.261 0-7.719-3.461-7.719-7.727s3.458-7.726 7.72-7.726h40.222c4.746 0 9.21-2.094 12.25-5.75l18.422-22.043a7.71 7.71 0 0 1 10.867-.973c3.266 2.734 3.7 7.613.969 10.883l-18.407 22.035a31.26 31.26 0 0 1-24.101 11.3ZM408.656 353.875c-16.992 0-29.902-15.082-27.351-31.855 2.324-15.137 16.433-25.48 31.5-23.157 7.297 1.125 13.715 5.02 18.09 10.973 9.02 12.3 6.351 29.644-5.934 38.676-4.899 3.629-10.625 5.363-16.305 5.363Zm-12.082-29.492a12.121 12.121 0 0 0 2.223 9.07c3.98 5.442 11.648 6.59 17.043 2.617 5.422-3.984 6.598-11.636 2.617-17.062-6.418-8.766-20.234-5.328-21.883 5.375Zm0 0"/><path fill="#fff" d="m390.926 315.11-18.41-22.032a15.9 15.9 0 0 0-12.262-5.762H320.03c-4.261 0-7.719-3.46-7.719-7.726 0-4.27 3.458-7.73 7.72-7.73h40.222a31.29 31.29 0 0 1 24.125 11.316l18.398 22.008c2.73 3.273 2.297 8.152-.968 10.882-3.293 2.774-8.18 2.301-10.883-.957Zm0 0"/><g clip-path="url(#a)"><path fill="#fff" d="M320.031 378.938H129.97c-4.262 0-7.719-3.461-7.719-7.727V79.957c0-4.266 3.457-7.727 7.719-7.727h137.578c4.262 0 7.719 3.461 7.719 7.727v43.926h44.765c4.262 0 7.719 3.46 7.719 7.73v239.582c0 4.282-3.457 7.743-7.719 7.743Zm-182.344-15.47h174.625V139.34h-44.765c-4.262 0-7.719-3.461-7.719-7.727V87.7H137.7Zm0 0"/></g><path fill="#fff" d="M320.031 139.34a7.697 7.697 0 0 1-5.41-2.223l-52.484-51.656a7.738 7.738 0 0 1-.09-10.934 7.717 7.717 0 0 1 10.922-.09l52.484 51.657c4.95 4.867 1.43 13.246-5.422 13.246ZM188.781 207.484h-32.644c-4.262 0-7.719-3.46-7.719-7.726V167.07c0-4.265 3.457-7.726 7.719-7.726h32.644c4.262 0 7.719 3.46 7.719 7.726v32.688c0 4.265-3.457 7.726-7.719 7.726Zm-24.93-15.457h17.212v-17.23h-17.211ZM293.79 178.465h-72.911c-4.262 0-7.719-3.465-7.719-7.73 0-4.266 3.457-7.727 7.719-7.727h72.91c4.262 0 7.719 3.46 7.719 7.726s-3.457 7.73-7.719 7.73ZM267.559 203.816h-46.68c-4.262 0-7.719-3.46-7.719-7.726s3.457-7.727 7.719-7.727h46.68c4.261 0 7.718 3.461 7.718 7.727 0 4.265-3.457 7.726-7.718 7.726ZM188.781 275.488h-32.644c-4.262 0-7.719-3.46-7.719-7.726v-32.688c0-4.265 3.457-7.726 7.719-7.726h32.644c4.262 0 7.719 3.46 7.719 7.726v32.688c0 4.265-3.457 7.726-7.719 7.726Zm-24.93-15.468h17.212v-17.23h-17.211ZM293.79 246.453h-72.911c-4.262 0-7.719-3.46-7.719-7.726S216.617 231 220.88 231h72.91c4.262 0 7.719 3.46 7.719 7.727 0 4.265-3.457 7.726-7.719 7.726ZM267.559 271.82h-46.68c-4.262 0-7.719-3.46-7.719-7.726s3.457-7.727 7.719-7.727h46.68c4.261 0 7.718 3.461 7.718 7.727 0 4.265-3.457 7.726-7.718 7.726ZM188.781 343.48h-32.644c-4.262 0-7.719-3.46-7.719-7.73v-32.684c0-4.265 3.457-7.73 7.719-7.73h32.644c4.262 0 7.719 3.465 7.719 7.73v32.684c0 4.27-3.457 7.73-7.719 7.73Zm-24.93-15.457h17.212v-17.23h-17.211ZM293.79 314.457h-72.911c-4.262 0-7.719-3.46-7.719-7.727 0-4.265 3.457-7.726 7.719-7.726h72.91c4.262 0 7.719 3.46 7.719 7.726s-3.457 7.727-7.719 7.727ZM267.559 339.813h-46.68c-4.262 0-7.719-3.461-7.719-7.727s3.457-7.727 7.719-7.727h46.68c4.261 0 7.718 3.461 7.718 7.727s-3.457 7.726-7.718 7.726Zm0 0"/></svg>