<svg xmlns="http://www.w3.org/2000/svg" xmlns:xlink="http://www.w3.org/1999/xlink" width="600" zoomAndPan="magnify" viewBox="0 0 450 449.999984" height="600" preserveAspectRatio="xMidYMid meet" version="1.0"><path fill="#ffffff" d="M 448.601562 143.46875 C 448.601562 115.472656 425.503906 92.378906 397.511719 92.378906 C 385.613281 92.378906 375.117188 96.578125 366.71875 102.878906 L 346.421875 82.582031 C 352.722656 74.183594 356.921875 63.6875 356.921875 51.789062 C 356.921875 23.792969 333.824219 0.699219 305.832031 0.699219 C 277.839844 0.699219 254.742188 23.792969 254.742188 51.789062 C 254.742188 58.085938 256.144531 64.386719 258.242188 69.984375 L 223.25 88.878906 C 214.152344 76.28125 199.457031 68.585938 182.660156 68.585938 C 165.164062 68.585938 150.464844 76.984375 140.667969 90.28125 L 98.679688 68.585938 C 100.777344 62.984375 101.476562 57.386719 101.476562 51.789062 C 101.476562 23.792969 78.382812 0.699219 50.390625 0.699219 C 23.792969 1.398438 0.699219 24.496094 0.699219 52.488281 C 0.699219 78.382812 19.59375 99.378906 44.789062 102.878906 L 44.789062 170.761719 C 19.59375 174.261719 0.699219 195.257812 0.699219 221.152344 C 0.699219 249.144531 23.792969 272.238281 51.789062 272.238281 C 79.78125 272.238281 102.878906 249.144531 102.878906 221.152344 C 102.878906 212.054688 100.078125 202.953125 95.878906 195.957031 L 147.667969 156.066406 C 156.765625 165.164062 169.363281 170.761719 183.359375 170.761719 C 190.359375 170.761719 196.65625 169.363281 202.953125 166.5625 L 235.847656 223.25 C 223.949219 232.347656 216.25 247.046875 216.25 263.140625 C 216.25 270.839844 217.652344 277.839844 221.152344 284.136719 L 90.28125 366.019531 C 81.183594 354.820312 67.183594 347.824219 51.089844 347.824219 C 23.09375 347.824219 0 370.917969 0 398.910156 C 0 426.90625 23.792969 449.300781 51.789062 449.300781 C 77.683594 449.300781 98.679688 429.703125 102.175781 405.210938 L 216.25 405.210938 C 219.75 430.40625 240.746094 449.300781 266.640625 449.300781 C 294.632812 449.300781 317.730469 426.207031 317.730469 398.210938 C 317.730469 391.914062 316.328125 386.3125 314.929688 381.414062 L 356.921875 359.71875 C 366.019531 373.015625 381.414062 381.414062 398.910156 381.414062 C 426.90625 381.414062 450 358.320312 450 330.328125 C 450 304.433594 430.40625 283.4375 405.910156 279.9375 L 405.910156 193.855469 C 429.003906 190.359375 448.601562 168.664062 448.601562 143.46875 Z M 435.304688 143.46875 C 435.304688 163.761719 418.507812 180.558594 398.210938 180.558594 C 377.914062 180.558594 361.121094 163.761719 361.121094 143.46875 C 361.121094 123.171875 377.917969 106.375 398.210938 106.375 C 418.507812 105.675781 435.304688 122.472656 435.304688 143.46875 Z M 305.832031 14.695312 C 326.128906 14.695312 342.921875 31.492188 342.921875 51.789062 C 342.921875 72.085938 326.128906 88.878906 305.832031 88.878906 C 291.835938 88.878906 279.238281 81.183594 272.9375 69.285156 C 270.140625 63.6875 268.039062 58.085938 268.039062 51.089844 C 268.039062 31.492188 284.835938 14.695312 305.832031 14.695312 Z M 135.070312 102.878906 C 132.96875 108.476562 132.269531 114.074219 132.269531 119.671875 C 132.269531 128.769531 135.070312 137.871094 139.269531 144.867188 L 87.480469 184.757812 C 79.78125 177.0625 69.984375 172.160156 58.785156 170.761719 L 58.785156 102.878906 C 73.484375 100.777344 86.082031 93.078125 93.777344 81.882812 Z M 13.996094 52.488281 C 13.996094 32.191406 30.792969 15.398438 51.089844 15.398438 C 71.382812 15.398438 88.179688 32.191406 88.179688 52.488281 C 88.179688 72.785156 71.382812 89.582031 51.089844 89.582031 C 30.792969 89.582031 13.996094 72.785156 13.996094 52.488281 Z M 51.789062 258.242188 C 31.492188 258.242188 14.695312 241.445312 14.695312 221.152344 C 14.695312 200.855469 31.492188 184.058594 51.789062 184.058594 C 72.085938 184.058594 88.878906 200.855469 88.878906 221.152344 C 88.878906 241.445312 72.082031 258.242188 51.789062 258.242188 Z M 182.660156 156.765625 C 170.761719 156.765625 160.265625 151.167969 153.265625 142.070312 C 148.367188 135.769531 145.566406 128.070312 145.566406 119.671875 C 145.566406 99.378906 162.363281 82.582031 182.660156 82.582031 C 202.953125 82.582031 219.75 99.378906 219.75 119.671875 C 219.75 140.667969 203.65625 156.765625 182.660156 156.765625 C 181.960938 156.765625 181.960938 156.765625 182.660156 156.765625 Z M 214.152344 159.566406 C 226.050781 150.464844 233.746094 135.769531 233.746094 119.671875 C 233.746094 113.375 232.347656 107.078125 230.25 101.476562 L 265.242188 82.582031 C 274.339844 95.179688 289.035156 103.578125 305.832031 103.578125 C 317.730469 103.578125 328.226562 99.378906 336.625 93.078125 L 356.921875 113.375 C 350.621094 121.773438 346.421875 132.269531 346.421875 144.167969 C 346.421875 170.0625 365.320312 191.058594 390.511719 194.558594 L 390.511719 281.335938 C 375.816406 283.4375 363.917969 291.136719 355.519531 302.332031 L 314.230469 280.636719 C 316.328125 275.039062 317.03125 269.441406 317.03125 263.839844 C 317.03125 235.847656 293.933594 212.753906 265.941406 212.753906 C 258.941406 212.753906 252.644531 214.152344 246.34375 216.953125 Z M 266.640625 226.050781 C 286.9375 226.050781 303.734375 242.847656 303.734375 263.140625 C 303.734375 269.441406 302.332031 275.039062 299.535156 279.9375 C 293.234375 291.835938 280.636719 300.234375 266.640625 300.234375 C 253.34375 300.234375 241.445312 293.234375 235.148438 282.738281 C 231.648438 277.136719 229.550781 270.140625 229.550781 263.140625 C 229.550781 242.847656 245.644531 226.050781 266.640625 226.050781 Z M 51.789062 436.003906 C 31.492188 436.003906 14.695312 419.207031 14.695312 398.910156 C 14.695312 378.617188 31.492188 361.820312 51.789062 361.820312 C 72.085938 361.820312 88.878906 378.617188 88.878906 398.910156 C 88.878906 419.207031 72.082031 436.003906 51.789062 436.003906 Z M 266.640625 436.003906 C 246.34375 436.003906 229.550781 419.207031 229.550781 398.910156 C 229.550781 378.617188 246.34375 361.820312 266.640625 361.820312 C 281.335938 361.820312 293.234375 370.21875 299.535156 382.113281 C 302.332031 387.015625 303.734375 393.3125 303.734375 398.910156 C 303.734375 419.207031 286.9375 436.003906 266.640625 436.003906 Z M 307.929688 369.519531 C 298.832031 356.222656 283.4375 347.824219 265.941406 347.824219 C 240.046875 347.824219 219.050781 366.71875 215.550781 391.914062 L 102.175781 391.914062 C 101.476562 387.015625 100.078125 382.113281 97.976562 377.914062 L 227.449219 296.734375 C 236.546875 307.929688 250.542969 314.929688 266.640625 314.929688 C 284.136719 314.929688 298.832031 306.53125 308.632812 293.234375 L 349.921875 314.929688 C 347.824219 320.527344 347.121094 326.128906 347.121094 331.726562 C 347.121094 338.023438 348.523438 343.625 349.921875 348.523438 Z M 435.304688 331.027344 C 435.304688 351.320312 418.507812 368.117188 398.210938 368.117188 C 377.914062 368.117188 361.121094 351.320312 361.121094 331.027344 C 361.121094 310.730469 377.917969 293.933594 398.210938 293.933594 C 418.507812 293.933594 435.304688 310.03125 435.304688 331.027344 Z M 435.304688 331.027344 " fill-opacity="1" fill-rule="nonzero"/><path fill="#ffffff" d="M 266.640625 377.214844 C 254.742188 377.214844 244.945312 387.015625 244.945312 398.910156 C 244.945312 410.808594 254.742188 420.605469 266.640625 420.605469 C 278.539062 420.605469 288.335938 410.808594 288.335938 398.910156 C 288.335938 386.3125 278.539062 377.214844 266.640625 377.214844 Z M 266.640625 406.609375 C 262.441406 406.609375 258.941406 403.109375 258.941406 398.910156 C 258.941406 394.710938 262.441406 391.214844 266.640625 391.214844 C 270.839844 391.214844 274.339844 394.710938 274.339844 398.910156 C 274.339844 403.109375 270.839844 406.609375 266.640625 406.609375 Z M 266.640625 406.609375 " fill-opacity="1" fill-rule="nonzero"/><path fill="#ffffff" d="M 266.640625 284.835938 C 278.539062 284.835938 288.335938 275.039062 288.335938 263.140625 C 288.335938 251.246094 278.539062 241.445312 266.640625 241.445312 C 254.742188 241.445312 244.945312 251.246094 244.945312 263.140625 C 244.945312 275.039062 254.742188 284.835938 266.640625 284.835938 Z M 266.640625 255.441406 C 270.839844 255.441406 274.339844 258.941406 274.339844 263.140625 C 274.339844 267.339844 270.839844 270.839844 266.640625 270.839844 C 262.441406 270.839844 258.941406 267.339844 258.941406 263.140625 C 258.941406 258.941406 262.441406 255.441406 266.640625 255.441406 Z M 266.640625 255.441406 " fill-opacity="1" fill-rule="nonzero"/><path fill="#ffffff" d="M 397.511719 164.464844 C 409.410156 164.464844 419.207031 154.664062 419.207031 142.769531 C 419.207031 130.871094 409.410156 121.074219 397.511719 121.074219 C 385.613281 121.074219 375.816406 130.871094 375.816406 142.769531 C 376.515625 154.664062 385.613281 164.464844 397.511719 164.464844 Z M 397.511719 135.070312 C 401.710938 135.070312 405.210938 138.570312 405.210938 142.769531 C 405.210938 146.96875 401.710938 150.464844 397.511719 150.464844 C 393.3125 150.464844 389.8125 146.96875 389.8125 142.769531 C 389.8125 138.570312 393.3125 135.070312 397.511719 135.070312 Z M 397.511719 135.070312 " fill-opacity="1" fill-rule="nonzero"/><path fill="#ffffff" d="M 51.789062 199.457031 C 39.890625 199.457031 30.09375 209.253906 30.09375 221.152344 C 30.09375 233.046875 39.890625 242.847656 51.789062 242.847656 C 63.6875 242.847656 73.484375 233.046875 73.484375 221.152344 C 72.785156 209.253906 63.6875 199.457031 51.789062 199.457031 Z M 51.789062 228.847656 C 47.589844 228.847656 44.089844 225.351562 44.089844 221.152344 C 44.089844 216.953125 47.589844 213.453125 51.789062 213.453125 C 55.988281 213.453125 59.488281 216.953125 59.488281 221.152344 C 59.488281 225.351562 55.988281 228.847656 51.789062 228.847656 Z M 51.789062 228.847656 " fill-opacity="1" fill-rule="nonzero"/><path fill="#ffffff" d="M 182.660156 97.976562 C 170.761719 97.976562 160.964844 107.777344 160.964844 119.671875 C 160.964844 131.570312 170.761719 141.367188 182.660156 141.367188 C 194.558594 141.367188 204.355469 131.570312 204.355469 119.671875 C 204.355469 107.777344 194.558594 97.976562 182.660156 97.976562 Z M 182.660156 127.371094 C 178.460938 127.371094 174.960938 123.871094 174.960938 119.671875 C 174.960938 115.472656 178.460938 111.976562 182.660156 111.976562 C 186.859375 111.976562 190.359375 115.472656 190.359375 119.671875 C 190.359375 123.871094 186.859375 127.371094 182.660156 127.371094 Z M 182.660156 127.371094 " fill-opacity="1" fill-rule="nonzero"/><path fill="#ffffff" d="M 376.515625 331.027344 C 376.515625 342.921875 386.3125 352.722656 398.210938 352.722656 C 410.109375 352.722656 419.90625 342.921875 419.90625 331.027344 C 419.90625 319.128906 410.109375 309.332031 398.210938 309.332031 C 385.613281 309.332031 376.515625 319.128906 376.515625 331.027344 Z M 405.910156 331.027344 C 405.910156 335.226562 402.410156 338.726562 398.210938 338.726562 C 394.011719 338.726562 390.511719 335.226562 390.511719 331.027344 C 390.511719 326.828125 394.011719 323.328125 398.210938 323.328125 C 402.410156 323.328125 405.910156 326.828125 405.910156 331.027344 Z M 405.910156 331.027344 " fill-opacity="1" fill-rule="nonzero"/><path fill="#ffffff" d="M 72.785156 52.488281 C 72.785156 40.589844 62.984375 30.792969 51.089844 30.792969 C 39.191406 30.792969 29.394531 40.589844 29.394531 52.488281 C 29.394531 64.386719 39.191406 74.183594 51.089844 74.183594 C 63.6875 73.484375 72.785156 64.386719 72.785156 52.488281 Z M 43.390625 52.488281 C 43.390625 48.289062 46.890625 44.789062 51.089844 44.789062 C 55.289062 44.789062 58.785156 48.289062 58.785156 52.488281 C 58.785156 56.6875 55.289062 60.1875 51.089844 60.1875 C 46.890625 60.1875 43.390625 56.6875 43.390625 52.488281 Z M 43.390625 52.488281 " fill-opacity="1" fill-rule="nonzero"/><path fill="#ffffff" d="M 305.832031 73.484375 C 317.730469 73.484375 327.527344 63.6875 327.527344 51.789062 C 327.527344 39.890625 317.730469 30.09375 305.832031 30.09375 C 293.933594 30.09375 284.136719 39.890625 284.136719 51.789062 C 284.136719 64.386719 293.933594 73.484375 305.832031 73.484375 Z M 305.832031 44.089844 C 310.03125 44.089844 313.53125 47.589844 313.53125 51.789062 C 313.53125 55.988281 310.03125 59.488281 305.832031 59.488281 C 301.632812 59.488281 298.132812 55.988281 298.132812 51.789062 C 297.433594 47.589844 301.632812 44.089844 305.832031 44.089844 Z M 305.832031 44.089844 " fill-opacity="1" fill-rule="nonzero"/><path fill="#ffffff" d="M 51.789062 377.214844 C 39.890625 377.214844 30.09375 387.015625 30.09375 398.910156 C 30.09375 410.808594 39.890625 420.605469 51.789062 420.605469 C 63.6875 420.605469 73.484375 410.808594 73.484375 398.910156 C 72.785156 386.3125 63.6875 377.214844 51.789062 377.214844 Z M 51.789062 406.609375 C 47.589844 406.609375 44.089844 403.109375 44.089844 398.910156 C 44.089844 394.710938 47.589844 391.214844 51.789062 391.214844 C 55.988281 391.214844 59.488281 394.710938 59.488281 398.910156 C 59.488281 403.109375 55.988281 406.609375 51.789062 406.609375 Z M 51.789062 406.609375 " fill-opacity="1" fill-rule="nonzero"/></svg>
