<svg xmlns="http://www.w3.org/2000/svg" width="600" height="600" version="1.0" viewBox="0 0 450 450"><path fill="#fff" d="M443.625 327.809a6.377 6.377 0 0 0 6.375-6.38v-62.577a6.377 6.377 0 0 0-6.375-6.38h-28.738L365.8 205.618h27.515a6.374 6.374 0 0 0 6.375-6.375V136.66a6.374 6.374 0 0 0-6.375-6.375h-40.418L274.805 35.38V6.375A6.377 6.377 0 0 0 268.43 0h-86.86a6.377 6.377 0 0 0-6.375 6.375v28.852L97.262 122.19H56.684a6.374 6.374 0 0 0-6.375 6.375v62.582a6.374 6.374 0 0 0 6.375 6.375h28.87l-50.679 54.95h-28.5A6.377 6.377 0 0 0 0 258.852v62.578a6.377 6.377 0 0 0 6.375 6.379h24.914v46.855H6.375A6.377 6.377 0 0 0 0 381.043v62.582A6.377 6.377 0 0 0 6.375 450h62.582a6.377 6.377 0 0 0 6.375-6.375v-62.582a6.377 6.377 0 0 0-6.375-6.375H44.043v-46.86h24.914a6.377 6.377 0 0 0 6.375-6.374v-62.582a6.377 6.377 0 0 0-6.375-6.375H52.223l47.89-51.922L148 252.477h-16.734a6.374 6.374 0 0 0-6.375 6.375v62.582a6.374 6.374 0 0 0 6.375 6.375h24.914v46.859h-24.914a6.374 6.374 0 0 0-6.375 6.375v62.582a6.374 6.374 0 0 0 6.375 6.375h62.578a6.377 6.377 0 0 0 6.379-6.375v-62.582a6.377 6.377 0 0 0-6.38-6.375H168.93v-46.86h24.914a6.377 6.377 0 0 0 6.379-6.374v-62.582a6.377 6.377 0 0 0-6.38-6.375h-28.495l-50.68-54.95h28.871a6.377 6.377 0 0 0 6.375-6.379V128.57a6.377 6.377 0 0 0-6.375-6.379h-29.152l60.808-67.855v14.621a6.377 6.377 0 0 0 6.375 6.379h86.86a6.377 6.377 0 0 0 6.375-6.379V55.449l61.578 74.836H306.46a6.374 6.374 0 0 0-6.375 6.375v62.582a6.374 6.374 0 0 0 6.375 6.375h27.516l-49.086 46.86h-28.735a6.375 6.375 0 0 0-6.379 6.375v62.578a6.378 6.378 0 0 0 6.38 6.379h24.91v46.859h-24.91a6.375 6.375 0 0 0-6.38 6.375v62.582a6.377 6.377 0 0 0 6.38 6.375h62.577a6.377 6.377 0 0 0 6.375-6.375v-62.582a6.377 6.377 0 0 0-6.375-6.375H293.82v-46.86h24.914a6.377 6.377 0 0 0 6.375-6.374v-62.582a6.377 6.377 0 0 0-6.375-6.375H303.36l46.532-44.418 46.527 44.418h-15.375a6.377 6.377 0 0 0-6.375 6.375v62.582a6.377 6.377 0 0 0 6.375 6.375h24.914v46.859h-24.914a6.377 6.377 0 0 0-6.375 6.375v62.582a6.377 6.377 0 0 0 6.375 6.375h62.582a6.377 6.377 0 0 0 6.375-6.375v-62.582a6.377 6.377 0 0 0-6.375-6.375h-24.914v-46.86ZM62.578 437.246H12.754v-49.824h49.824Zm0-122.191H12.754v-49.828h49.824Zm124.89 122.191h-49.827v-49.824h49.828Zm0-122.191h-49.827v-49.828h49.828Zm-50.304-130.282H63.06v-49.828h74.105ZM262.051 62.582h-74.102V12.754h74.102Zm50.785 80.453h74.105v49.828H312.84v-49.828Zm-.48 294.211H262.53v-49.824h49.824Zm0-122.191H262.53v-49.828h49.824Zm124.89 122.191h-49.824v-49.824h49.824Zm-49.824-172.02h49.824v49.829h-49.824Zm0 0"/></svg>