<svg xmlns="http://www.w3.org/2000/svg" xmlns:xlink="http://www.w3.org/1999/xlink" width="600" zoomAndPan="magnify" viewBox="0 0 450 449.999984" height="600" preserveAspectRatio="xMidYMid meet" version="1.0"><path fill="#ffffff" d="M 443.625 327.808594 C 447.144531 327.808594 450 324.953125 450 321.429688 L 450 258.851562 C 450 255.328125 447.144531 252.472656 443.625 252.472656 L 414.886719 252.472656 L 365.800781 205.617188 L 393.316406 205.617188 C 396.839844 205.617188 399.691406 202.761719 399.691406 199.242188 L 399.691406 136.660156 C 399.691406 133.140625 396.839844 130.285156 393.316406 130.285156 L 352.898438 130.285156 L 274.804688 35.378906 L 274.804688 6.375 C 274.804688 2.855469 271.949219 0 268.429688 0 L 181.570312 0 C 178.050781 0 175.195312 2.855469 175.195312 6.375 L 175.195312 35.226562 L 97.261719 122.191406 L 56.683594 122.191406 C 53.160156 122.191406 50.308594 125.046875 50.308594 128.566406 L 50.308594 191.148438 C 50.308594 194.667969 53.160156 197.523438 56.683594 197.523438 L 85.554688 197.523438 L 34.875 252.472656 L 6.375 252.472656 C 2.855469 252.472656 0 255.328125 0 258.851562 L 0 321.429688 C 0 324.953125 2.855469 327.808594 6.375 327.808594 L 31.289062 327.808594 L 31.289062 374.664062 L 6.375 374.664062 C 2.855469 374.664062 0 377.519531 0 381.042969 L 0 443.625 C 0 447.144531 2.855469 450 6.375 450 L 68.957031 450 C 72.476562 450 75.332031 447.144531 75.332031 443.625 L 75.332031 381.042969 C 75.332031 377.523438 72.476562 374.667969 68.957031 374.667969 L 44.042969 374.667969 L 44.042969 327.808594 L 68.957031 327.808594 C 72.476562 327.808594 75.332031 324.953125 75.332031 321.433594 L 75.332031 258.851562 C 75.332031 255.332031 72.476562 252.476562 68.957031 252.476562 L 52.222656 252.476562 L 100.113281 200.554688 L 148 252.476562 L 131.265625 252.476562 C 127.742188 252.476562 124.890625 255.332031 124.890625 258.851562 L 124.890625 321.433594 C 124.890625 324.953125 127.742188 327.808594 131.265625 327.808594 L 156.179688 327.808594 L 156.179688 374.667969 L 131.265625 374.667969 C 127.742188 374.667969 124.890625 377.523438 124.890625 381.042969 L 124.890625 443.625 C 124.890625 447.144531 127.742188 450 131.265625 450 L 193.84375 450 C 197.367188 450 200.222656 447.144531 200.222656 443.625 L 200.222656 381.042969 C 200.222656 377.523438 197.367188 374.667969 193.84375 374.667969 L 168.929688 374.667969 L 168.929688 327.808594 L 193.84375 327.808594 C 197.367188 327.808594 200.222656 324.953125 200.222656 321.433594 L 200.222656 258.851562 C 200.222656 255.332031 197.367188 252.476562 193.84375 252.476562 L 165.347656 252.476562 L 114.667969 197.527344 L 143.539062 197.527344 C 147.058594 197.527344 149.914062 194.671875 149.914062 191.148438 L 149.914062 128.570312 C 149.914062 125.046875 147.058594 122.191406 143.539062 122.191406 L 114.386719 122.191406 L 175.195312 54.335938 L 175.195312 68.957031 C 175.195312 72.480469 178.050781 75.335938 181.570312 75.335938 L 268.429688 75.335938 C 271.949219 75.335938 274.804688 72.480469 274.804688 68.957031 L 274.804688 55.449219 L 336.382812 130.285156 L 306.460938 130.285156 C 302.9375 130.285156 300.085938 133.140625 300.085938 136.660156 L 300.085938 199.242188 C 300.085938 202.761719 302.9375 205.617188 306.460938 205.617188 L 333.976562 205.617188 L 284.890625 252.476562 L 256.15625 252.476562 C 252.632812 252.476562 249.777344 255.328125 249.777344 258.851562 L 249.777344 321.429688 C 249.777344 324.953125 252.632812 327.808594 256.15625 327.808594 L 281.066406 327.808594 L 281.066406 374.667969 L 256.15625 374.667969 C 252.632812 374.667969 249.777344 377.519531 249.777344 381.042969 L 249.777344 443.625 C 249.777344 447.144531 252.632812 450 256.15625 450 L 318.734375 450 C 322.253906 450 325.109375 447.144531 325.109375 443.625 L 325.109375 381.042969 C 325.109375 377.523438 322.253906 374.667969 318.734375 374.667969 L 293.820312 374.667969 L 293.820312 327.808594 L 318.734375 327.808594 C 322.253906 327.808594 325.109375 324.953125 325.109375 321.433594 L 325.109375 258.851562 C 325.109375 255.332031 322.253906 252.476562 318.734375 252.476562 L 303.359375 252.476562 L 349.890625 208.058594 L 396.417969 252.476562 L 381.042969 252.476562 C 377.523438 252.476562 374.667969 255.332031 374.667969 258.851562 L 374.667969 321.433594 C 374.667969 324.953125 377.523438 327.808594 381.042969 327.808594 L 405.957031 327.808594 L 405.957031 374.667969 L 381.042969 374.667969 C 377.523438 374.667969 374.667969 377.523438 374.667969 381.042969 L 374.667969 443.625 C 374.667969 447.144531 377.523438 450 381.042969 450 L 443.625 450 C 447.144531 450 450 447.144531 450 443.625 L 450 381.042969 C 450 377.523438 447.144531 374.667969 443.625 374.667969 L 418.710938 374.667969 L 418.710938 327.808594 Z M 62.578125 437.246094 L 12.753906 437.246094 L 12.753906 387.421875 L 62.578125 387.421875 Z M 62.578125 315.054688 L 12.753906 315.054688 L 12.753906 265.226562 L 62.578125 265.226562 Z M 187.46875 437.246094 L 137.640625 437.246094 L 137.640625 387.421875 L 187.46875 387.421875 Z M 187.46875 315.054688 L 137.640625 315.054688 L 137.640625 265.226562 L 187.46875 265.226562 Z M 137.164062 184.773438 L 63.058594 184.773438 L 63.058594 134.945312 L 137.164062 134.945312 Z M 262.050781 62.582031 L 187.949219 62.582031 L 187.949219 12.753906 L 262.050781 12.753906 Z M 312.835938 143.035156 L 386.941406 143.035156 L 386.941406 192.863281 L 349.894531 192.863281 C 349.890625 192.863281 349.886719 192.863281 349.886719 192.863281 L 312.839844 192.863281 L 312.839844 143.035156 Z M 312.355469 437.246094 L 262.53125 437.246094 L 262.53125 387.421875 L 312.355469 387.421875 Z M 312.355469 315.054688 L 262.53125 315.054688 L 262.53125 265.226562 L 312.355469 265.226562 Z M 437.246094 437.246094 L 387.421875 437.246094 L 387.421875 387.421875 L 437.246094 387.421875 Z M 387.421875 265.226562 L 437.246094 265.226562 L 437.246094 315.054688 L 387.421875 315.054688 Z M 387.421875 265.226562 " fill-opacity="1" fill-rule="nonzero"/></svg>