<svg xmlns="http://www.w3.org/2000/svg" xmlns:xlink="http://www.w3.org/1999/xlink" width="600" zoomAndPan="magnify" viewBox="0 0 450 449.999984" height="600" preserveAspectRatio="xMidYMid meet" version="1.0"><defs><clipPath id="618719bccc"><path d="M 7.59375 97 L 83 97 L 83 181 L 7.59375 181 Z M 7.59375 97 " clip-rule="nonzero"/></clipPath><clipPath id="a10723b36d"><path d="M 225 157 L 442.59375 157 L 442.59375 368 L 225 368 Z M 225 157 " clip-rule="nonzero"/></clipPath></defs><path fill="#ffffff" d="M 172.605469 82.730469 L 172.605469 135.195312 C 172.605469 138.007812 174.199219 140.632812 176.726562 141.941406 L 181.789062 144.472656 L 178.695312 149.71875 C 169.605469 147.9375 159.949219 151.875 154.980469 160.210938 L 147.296875 173.046875 C 144.203125 178.199219 143.359375 184.292969 144.765625 190.101562 C 146.265625 195.910156 149.921875 200.78125 155.074219 203.871094 C 158.636719 205.933594 162.574219 207.058594 166.605469 207.058594 C 168.480469 207.058594 170.355469 206.871094 172.136719 206.402344 C 177.945312 204.902344 182.820312 201.25 185.914062 196.097656 L 193.601562 183.261719 C 196.691406 178.109375 197.535156 172.015625 196.128906 166.207031 C 195.285156 162.929688 193.695312 159.929688 191.632812 157.402344 L 195.285156 151.21875 L 221.71875 164.429688 C 222.75 164.992188 223.96875 165.179688 225.09375 165.179688 C 226.21875 165.179688 227.4375 164.898438 228.46875 164.429688 L 254.902344 151.21875 L 258.554688 157.402344 C 256.398438 159.929688 254.902344 162.929688 254.058594 166.207031 C 252.558594 172.015625 253.496094 178.109375 256.585938 183.261719 L 264.273438 196.097656 C 267.367188 201.25 272.242188 204.902344 278.050781 206.402344 C 279.925781 206.871094 281.707031 207.058594 283.582031 207.058594 C 287.613281 207.058594 291.550781 205.933594 295.113281 203.871094 C 305.796875 197.5 309.265625 183.730469 302.890625 173.046875 L 295.207031 160.210938 C 290.238281 151.78125 280.582031 147.84375 271.492188 149.71875 L 268.398438 144.472656 L 273.460938 141.941406 C 275.988281 140.632812 277.582031 138.101562 277.582031 135.195312 L 277.582031 82.730469 C 277.582031 79.917969 275.988281 77.296875 273.460938 75.984375 L 228.46875 53.496094 C 226.3125 52.46875 223.875 52.46875 221.71875 53.496094 L 176.726562 75.984375 C 174.199219 77.296875 172.605469 79.917969 172.605469 82.730469 Z M 180.664062 175.578125 L 172.980469 188.414062 C 171.949219 190.101562 170.355469 191.316406 168.386719 191.878906 C 166.417969 192.347656 164.449219 192.066406 162.667969 191.035156 C 159.105469 188.882812 157.980469 184.292969 160.042969 180.730469 L 167.730469 167.894531 C 169.136719 165.554688 171.667969 164.242188 174.199219 164.242188 C 175.507812 164.242188 176.820312 164.617188 178.039062 165.273438 C 179.726562 166.300781 180.945312 167.894531 181.507812 169.863281 C 182.070312 171.832031 181.695312 173.796875 180.664062 175.578125 Z M 282.363281 167.894531 L 290.050781 180.730469 C 291.082031 182.417969 291.363281 184.476562 290.894531 186.445312 C 290.425781 188.414062 289.207031 190.007812 287.425781 191.035156 C 285.738281 192.066406 283.675781 192.347656 281.707031 191.878906 C 279.738281 191.410156 278.144531 190.195312 277.113281 188.414062 L 269.429688 175.578125 C 268.398438 173.890625 268.117188 171.832031 268.585938 169.863281 C 269.054688 167.894531 270.273438 166.300781 272.054688 165.273438 C 275.613281 163.117188 280.207031 164.335938 282.363281 167.894531 Z M 198.566406 116.363281 L 189.476562 131.542969 L 187.601562 130.605469 L 187.601562 94.910156 L 217.59375 109.898438 L 217.59375 145.597656 L 202.972656 138.289062 L 211.410156 124.046875 Z M 251.621094 116.363281 L 238.777344 124.046875 L 247.214844 138.289062 L 232.59375 145.597656 L 232.59375 109.898438 L 262.585938 94.910156 L 262.585938 130.605469 L 260.710938 131.542969 Z M 225.09375 68.582031 L 253.308594 82.730469 L 225.09375 96.878906 L 196.878906 82.730469 Z M 225.09375 68.582031 " fill-opacity="1" fill-rule="nonzero"/><path fill="#ffffff" d="M 150.109375 390.039062 L 150.109375 427.515625 C 150.109375 430.324219 151.703125 432.949219 154.234375 434.261719 L 184.226562 449.25 C 185.257812 449.8125 186.476562 450 187.601562 450 C 188.726562 450 189.945312 449.71875 190.976562 449.25 L 220.96875 434.261719 C 223.5 432.949219 225.09375 430.417969 225.09375 427.515625 L 225.09375 390.039062 C 225.09375 387.226562 223.5 384.601562 220.96875 383.292969 L 190.976562 368.300781 C 188.820312 367.269531 186.382812 367.269531 184.226562 368.300781 L 154.234375 383.292969 C 151.703125 384.601562 150.109375 387.226562 150.109375 390.039062 Z M 165.105469 402.125 L 180.101562 409.617188 L 180.101562 430.324219 L 165.105469 422.828125 Z M 195.097656 430.417969 L 195.097656 409.710938 L 210.097656 402.21875 L 210.097656 422.921875 Z M 187.601562 383.386719 L 200.816406 390.039062 L 187.601562 396.691406 L 174.386719 390.039062 Z M 187.601562 383.386719 " fill-opacity="1" fill-rule="nonzero"/><g clip-path="url(#618719bccc)"><path fill="#ffffff" d="M 11.761719 164.429688 L 41.753906 179.417969 C 42.785156 179.980469 44.003906 180.167969 45.128906 180.167969 C 46.253906 180.167969 47.472656 179.886719 48.503906 179.417969 L 78.496094 164.429688 C 81.027344 163.117188 82.621094 160.585938 82.621094 157.683594 L 82.621094 120.207031 C 82.621094 117.394531 81.027344 114.773438 78.496094 113.460938 L 48.503906 98.46875 C 46.347656 97.4375 43.910156 97.4375 41.753906 98.46875 L 11.761719 113.460938 C 9.230469 114.773438 7.636719 117.300781 7.636719 120.207031 L 7.636719 157.683594 C 7.636719 160.492188 9.230469 163.117188 11.761719 164.429688 Z M 22.632812 132.292969 L 37.628906 139.789062 L 37.628906 160.492188 L 22.632812 153 Z M 52.628906 160.585938 L 52.628906 139.882812 L 67.625 132.386719 L 67.625 153.09375 Z M 45.128906 113.554688 L 58.34375 120.207031 L 45.128906 126.859375 L 31.914062 120.207031 Z M 45.128906 113.554688 " fill-opacity="1" fill-rule="nonzero"/></g><path fill="#ffffff" d="M 56.75 66.988281 L 86.746094 81.980469 C 87.777344 82.542969 88.996094 82.730469 90.121094 82.730469 C 91.246094 82.730469 92.464844 82.449219 93.496094 81.980469 L 123.488281 66.988281 C 126.019531 65.679688 127.613281 63.148438 127.613281 60.242188 L 127.613281 22.765625 C 127.613281 19.957031 126.019531 17.332031 123.488281 16.019531 L 93.496094 1.03125 C 91.339844 0 88.902344 0 86.746094 1.03125 L 56.75 16.019531 C 54.21875 17.332031 52.628906 19.957031 52.628906 22.765625 L 52.628906 60.242188 C 52.628906 63.054688 54.21875 65.679688 56.75 66.988281 Z M 67.625 34.851562 L 82.621094 42.347656 L 82.621094 63.054688 L 67.625 55.558594 Z M 97.617188 63.148438 L 97.617188 42.347656 L 112.617188 34.851562 L 112.617188 55.558594 Z M 90.121094 16.113281 L 103.335938 22.765625 L 90.121094 29.417969 L 76.902344 22.765625 Z M 90.121094 16.113281 " fill-opacity="1" fill-rule="nonzero"/><path fill="#ffffff" d="M 341.695312 66.988281 L 371.691406 81.980469 C 372.722656 82.542969 373.941406 82.730469 375.066406 82.730469 C 376.191406 82.730469 377.40625 82.449219 378.4375 81.980469 L 408.433594 66.988281 C 410.964844 65.679688 412.558594 63.148438 412.558594 60.242188 L 412.558594 22.765625 C 412.558594 19.957031 410.964844 17.332031 408.433594 16.019531 L 378.4375 1.03125 C 376.285156 0 373.847656 0 371.691406 1.03125 L 341.695312 16.019531 C 339.164062 17.332031 337.570312 19.863281 337.570312 22.765625 L 337.570312 60.242188 C 337.570312 63.054688 339.164062 65.679688 341.695312 66.988281 Z M 352.570312 34.851562 L 367.566406 42.347656 L 367.566406 63.054688 L 352.570312 55.558594 Z M 382.5625 63.148438 L 382.5625 42.347656 L 397.558594 34.851562 L 397.558594 55.558594 Z M 375.066406 16.113281 L 388.28125 22.765625 L 375.066406 29.417969 L 361.847656 22.765625 Z M 375.066406 16.113281 " fill-opacity="1" fill-rule="nonzero"/><path fill="#ffffff" d="M 217.59375 75.234375 L 232.59375 75.234375 L 232.59375 90.226562 L 217.59375 90.226562 Z M 217.59375 75.234375 " fill-opacity="1" fill-rule="nonzero"/><path fill="#ffffff" d="M 360.066406 315.085938 L 375.066406 315.085938 L 375.066406 330.074219 L 360.066406 330.074219 Z M 360.066406 315.085938 " fill-opacity="1" fill-rule="nonzero"/><path fill="#ffffff" d="M 75.121094 315.085938 L 90.121094 315.085938 L 90.121094 330.074219 L 75.121094 330.074219 Z M 75.121094 315.085938 " fill-opacity="1" fill-rule="nonzero"/><path fill="#ffffff" d="M 202.597656 300.09375 L 187.601562 300.09375 C 177.851562 300.09375 169.511719 306.371094 166.417969 315.085938 L 157.605469 315.085938 L 157.605469 285.101562 C 157.605469 282.292969 156.011719 279.667969 153.484375 278.355469 L 127.144531 265.242188 L 131.363281 258.121094 C 132.769531 258.402344 134.269531 258.589844 135.765625 258.589844 C 137.640625 258.589844 139.515625 258.402344 141.296875 257.933594 C 147.109375 256.433594 151.984375 252.78125 155.074219 247.625 L 162.761719 234.789062 C 165.855469 229.636719 166.699219 223.546875 165.292969 217.738281 C 163.792969 211.929688 160.136719 207.058594 154.980469 203.964844 C 149.828125 200.875 143.734375 200.03125 137.921875 201.4375 C 132.113281 202.9375 127.238281 206.589844 124.144531 211.742188 L 116.457031 224.578125 C 113.367188 229.730469 112.523438 235.820312 113.929688 241.628906 C 114.769531 244.910156 116.363281 247.90625 118.425781 250.4375 L 113.554688 258.589844 L 108.304688 255.964844 C 106.148438 254.933594 103.710938 254.933594 101.554688 255.964844 L 56.5625 278.449219 C 54.03125 279.761719 52.441406 282.292969 52.441406 285.195312 L 52.441406 337.664062 C 52.441406 340.476562 54.03125 343.097656 56.5625 344.410156 L 101.554688 366.894531 C 102.585938 367.457031 103.804688 367.644531 104.929688 367.644531 C 106.054688 367.644531 107.273438 367.363281 108.304688 366.894531 L 153.296875 344.410156 C 155.824219 343.097656 157.417969 340.570312 157.417969 337.664062 L 157.417969 330.167969 L 166.230469 330.167969 C 169.324219 338.882812 177.664062 345.160156 187.414062 345.160156 L 202.410156 345.160156 C 214.785156 345.160156 224.90625 335.039062 224.90625 322.671875 C 224.90625 310.304688 214.96875 300.09375 202.597656 300.09375 Z M 129.394531 232.261719 L 137.078125 219.425781 C 138.109375 217.738281 139.703125 216.519531 141.671875 215.957031 C 142.328125 215.769531 142.890625 215.769531 143.546875 215.769531 C 144.859375 215.769531 146.171875 216.144531 147.390625 216.800781 C 149.078125 217.832031 150.296875 219.425781 150.859375 221.394531 C 151.421875 223.359375 151.046875 225.328125 150.015625 227.109375 L 142.328125 239.945312 C 141.296875 241.628906 139.703125 242.847656 137.734375 243.410156 C 135.765625 243.878906 133.800781 243.597656 132.019531 242.566406 C 130.332031 241.535156 129.113281 239.945312 128.550781 237.976562 C 127.988281 236.007812 128.363281 233.949219 129.394531 232.261719 Z M 105.117188 270.957031 L 106.054688 271.425781 L 98.742188 283.699219 L 111.585938 291.378906 L 119.457031 278.171875 L 133.332031 285.101562 L 105.117188 299.25 L 76.902344 285.101562 Z M 67.625 297.1875 L 97.617188 312.179688 L 97.617188 347.875 L 67.625 332.886719 Z M 142.609375 332.980469 L 112.617188 347.96875 L 112.617188 312.273438 L 142.609375 297.28125 L 142.609375 315.085938 L 127.613281 315.085938 L 127.613281 330.074219 L 142.609375 330.074219 Z M 202.597656 330.074219 L 187.601562 330.074219 C 183.476562 330.074219 180.101562 326.703125 180.101562 322.578125 C 180.101562 318.457031 183.476562 315.085938 187.601562 315.085938 L 202.597656 315.085938 C 206.722656 315.085938 210.097656 318.457031 210.097656 322.578125 C 210.097656 326.703125 206.722656 330.074219 202.597656 330.074219 Z M 202.597656 330.074219 " fill-opacity="1" fill-rule="nonzero"/><g clip-path="url(#a10723b36d)"><path fill="#ffffff" d="M 312.171875 201.4375 C 306.359375 199.9375 300.265625 200.875 295.113281 203.964844 C 289.957031 207.058594 286.300781 211.929688 284.800781 217.738281 C 283.300781 223.546875 284.238281 229.636719 287.332031 234.789062 L 295.019531 247.625 C 298.109375 252.78125 302.984375 256.433594 308.796875 257.933594 C 310.671875 258.402344 312.453125 258.589844 314.328125 258.589844 C 315.824219 258.589844 317.230469 258.402344 318.730469 258.121094 L 322.949219 265.242188 L 296.609375 278.355469 C 294.082031 279.667969 292.488281 282.199219 292.488281 285.101562 L 292.488281 315.085938 L 283.675781 315.085938 C 280.582031 306.371094 272.242188 300.09375 262.492188 300.09375 L 247.496094 300.09375 C 235.125 300.09375 225 310.210938 225 322.578125 C 225 334.945312 235.125 345.066406 247.496094 345.066406 L 262.492188 345.066406 C 272.242188 345.066406 280.582031 338.789062 283.675781 330.074219 L 292.488281 330.074219 L 292.488281 337.570312 C 292.488281 340.382812 294.082031 343.003906 296.609375 344.316406 L 341.601562 366.800781 C 342.632812 367.363281 343.851562 367.550781 344.976562 367.550781 C 346.101562 367.550781 347.320312 367.269531 348.351562 366.800781 L 393.34375 344.316406 C 395.875 343.003906 397.464844 340.476562 397.464844 337.570312 L 397.464844 285.101562 C 397.464844 282.292969 395.875 279.667969 393.34375 278.355469 L 378.53125 270.957031 L 393.8125 235.351562 L 401.683594 239.289062 C 402.714844 239.851562 403.933594 240.039062 405.058594 240.039062 C 406.183594 240.039062 407.402344 239.757812 408.433594 239.289062 L 438.425781 224.296875 C 440.957031 222.984375 442.550781 220.457031 442.550781 217.550781 L 442.550781 180.074219 C 442.550781 177.265625 440.957031 174.640625 438.425781 173.328125 L 408.433594 158.339844 C 406.277344 157.308594 403.839844 157.308594 401.683594 158.339844 L 371.691406 173.328125 C 369.160156 174.640625 367.566406 177.171875 367.566406 180.074219 L 367.566406 217.550781 C 367.566406 220.363281 369.160156 222.984375 371.691406 224.296875 L 380.40625 228.605469 L 365.128906 264.210938 L 348.445312 255.871094 C 346.289062 254.839844 343.851562 254.839844 341.695312 255.871094 L 336.445312 258.496094 L 331.574219 250.34375 C 333.730469 247.8125 335.230469 244.816406 336.070312 241.535156 C 337.570312 235.726562 336.632812 229.636719 333.542969 224.484375 L 325.855469 211.648438 C 322.855469 206.496094 317.980469 202.84375 312.171875 201.4375 Z M 262.585938 330.074219 L 247.589844 330.074219 C 243.464844 330.074219 240.089844 326.703125 240.089844 322.578125 C 240.089844 318.457031 243.464844 315.085938 247.589844 315.085938 L 262.585938 315.085938 C 266.710938 315.085938 270.085938 318.457031 270.085938 322.578125 C 270.085938 326.703125 266.710938 330.074219 262.585938 330.074219 Z M 382.5625 192.253906 L 397.558594 199.75 L 397.558594 220.457031 L 382.5625 212.960938 Z M 412.558594 220.550781 L 412.558594 199.84375 L 427.554688 192.347656 L 427.554688 213.054688 Z M 405.058594 173.515625 L 418.273438 180.167969 L 405.058594 186.820312 L 391.84375 180.167969 Z M 307.578125 330.074219 L 322.574219 330.074219 L 322.574219 315.085938 L 307.578125 315.085938 L 307.578125 297.1875 L 337.570312 312.179688 L 337.570312 347.875 L 307.578125 332.886719 Z M 352.570312 347.96875 L 352.570312 312.273438 L 382.5625 297.28125 L 382.5625 332.980469 Z M 345.070312 270.957031 L 373.285156 285.101562 L 345.070312 299.25 L 316.855469 285.101562 L 330.730469 278.171875 L 338.601562 291.378906 L 351.445312 283.699219 L 344.132812 271.425781 Z M 312.546875 243.316406 C 310.578125 242.847656 308.984375 241.628906 307.953125 239.851562 L 300.265625 227.015625 C 299.234375 225.328125 298.953125 223.265625 299.421875 221.300781 C 299.890625 219.332031 301.109375 217.738281 302.890625 216.707031 C 304.578125 215.675781 306.640625 215.398438 308.609375 215.863281 C 310.578125 216.332031 312.171875 217.550781 313.203125 219.332031 L 320.886719 232.167969 C 321.917969 233.855469 322.199219 235.914062 321.730469 237.882812 C 321.261719 239.851562 320.042969 241.441406 318.261719 242.472656 C 316.480469 243.503906 314.421875 243.785156 312.546875 243.316406 Z M 312.546875 243.316406 " fill-opacity="1" fill-rule="nonzero"/></g><path fill="#ffffff" d="M 53.023438 190.082031 L 67.25 185.34375 L 89.742188 252.804688 L 75.515625 257.546875 Z M 53.023438 190.082031 " fill-opacity="1" fill-rule="nonzero"/><path fill="#ffffff" d="M 95.78125 105.449219 L 155.800781 90.453125 L 159.4375 104.996094 L 99.417969 119.992188 Z M 95.78125 105.449219 " fill-opacity="1" fill-rule="nonzero"/><path fill="#ffffff" d="M 275.542969 53.035156 L 327.996094 38.054688 L 332.113281 52.46875 L 279.660156 67.449219 Z M 275.542969 53.035156 " fill-opacity="1" fill-rule="nonzero"/><path fill="#ffffff" d="M 382.636719 91.277344 L 397.480469 89.160156 L 404.984375 141.65625 L 390.136719 143.777344 Z M 382.636719 91.277344 " fill-opacity="1" fill-rule="nonzero"/><path fill="#ffffff" d="M 230.03125 390.496094 L 312.484375 360.53125 L 317.605469 374.617188 L 235.15625 404.585938 Z M 230.03125 390.496094 " fill-opacity="1" fill-rule="nonzero"/><path fill="#ffffff" d="M 135.917969 363.449219 L 149.332031 356.746094 L 156.835938 371.746094 L 143.421875 378.449219 Z M 135.917969 363.449219 " fill-opacity="1" fill-rule="nonzero"/><path fill="#ffffff" d="M 132.359375 52.222656 L 137.929688 38.304688 L 175.441406 53.300781 L 169.871094 67.21875 Z M 132.359375 52.222656 " fill-opacity="1" fill-rule="nonzero"/><path fill="#ffffff" d="M 38.4375 86.839844 L 45.941406 71.839844 L 59.355469 78.542969 L 51.851562 93.542969 Z M 38.4375 86.839844 " fill-opacity="1" fill-rule="nonzero"/></svg>