<svg xmlns="http://www.w3.org/2000/svg" width="600" height="600" version="1.0" viewBox="0 0 450 450"><defs><clipPath id="a"><path d="M7.594 97H83v84H7.594Zm0 0"/></clipPath><clipPath id="b"><path d="M225 157h217.594v211H225Zm0 0"/></clipPath></defs><path fill="#fff" d="M172.605 82.73v52.465c0 2.813 1.594 5.438 4.122 6.746l5.062 2.532-3.094 5.246c-9.09-1.781-18.746 2.156-23.715 10.492l-7.683 12.836c-3.094 5.152-3.938 11.246-2.531 17.055 1.5 5.808 5.156 10.68 10.308 13.77 3.563 2.062 7.5 3.187 11.531 3.187 1.875 0 3.75-.188 5.532-.657 5.808-1.5 10.683-5.152 13.777-10.304l7.688-12.836c3.09-5.153 3.933-11.246 2.527-17.055-.844-3.277-2.434-6.277-4.496-8.805l3.652-6.183 26.434 13.21c1.031.563 2.25.75 3.375.75s2.344-.28 3.375-.75l26.433-13.21 3.653 6.183c-2.157 2.528-3.653 5.528-4.496 8.805-1.5 5.809-.563 11.902 2.527 17.055l7.687 12.836c3.094 5.152 7.97 8.804 13.778 10.304 1.875.47 3.656.657 5.531.657 4.031 0 7.969-1.125 11.531-3.188 10.684-6.371 14.153-20.14 7.778-30.824l-7.684-12.836c-4.969-8.43-14.625-12.367-23.715-10.492l-3.094-5.246 5.063-2.532c2.527-1.308 4.121-3.84 4.121-6.746V82.73c0-2.812-1.594-5.433-4.121-6.746l-44.992-22.488a7.777 7.777 0 0 0-6.75 0l-44.992 22.488c-2.528 1.313-4.122 3.934-4.122 6.746Zm8.06 92.848-7.685 12.836c-1.03 1.688-2.625 2.902-4.593 3.465-1.969.469-3.938.187-5.719-.844-3.563-2.152-4.688-6.742-2.625-10.305l7.687-12.835c1.407-2.34 3.938-3.653 6.47-3.653 1.308 0 2.62.375 3.84 1.031 1.687 1.028 2.905 2.622 3.468 4.59.562 1.969.187 3.934-.844 5.715Zm101.698-7.683 7.688 12.835c1.031 1.688 1.312 3.747.844 5.715-.47 1.97-1.688 3.563-3.47 4.59-1.687 1.031-3.75 1.313-5.718.844-1.969-.469-3.562-1.684-4.594-3.465l-7.683-12.836c-1.032-1.687-1.313-3.746-.844-5.715.469-1.968 1.687-3.562 3.469-4.59 3.558-2.156 8.152-.937 10.308 2.622Zm-83.797-51.532-9.09 15.18-1.874-.938V94.91l29.992 14.988v35.7l-14.621-7.309 8.437-14.242Zm53.055 0-12.844 7.684 8.438 14.242-14.621 7.309v-35.7l29.992-14.988v35.695l-1.875.938Zm-26.527-47.781 28.215 14.148-28.215 14.149-28.215-14.149ZM150.11 390.04v37.476c0 2.808 1.593 5.433 4.124 6.746l29.993 14.988c1.03.563 2.25.75 3.375.75s2.343-.281 3.375-.75l29.992-14.988c2.531-1.313 4.125-3.844 4.125-6.746v-37.477c0-2.812-1.594-5.437-4.125-6.746l-29.992-14.992a7.75 7.75 0 0 0-6.75 0l-29.993 14.992c-2.53 1.309-4.125 3.934-4.125 6.746Zm14.995 12.085 14.997 7.492v20.707l-14.997-7.496Zm29.993 28.293v-20.707l15-7.492v20.703Zm-7.496-47.031 13.214 6.652-13.214 6.652-13.215-6.652Zm0 0"/><g clip-path="url(#a)"><path fill="#fff" d="m11.762 164.43 29.992 14.988c1.031.562 2.25.75 3.375.75s2.344-.281 3.375-.75l29.992-14.988c2.531-1.313 4.125-3.844 4.125-6.746v-37.477c0-2.812-1.594-5.434-4.125-6.746L48.504 98.469a7.75 7.75 0 0 0-6.75 0L11.762 113.46c-2.532 1.312-4.125 3.84-4.125 6.746v37.477c0 2.808 1.593 5.433 4.125 6.746Zm10.87-32.137 14.997 7.496v20.703L22.633 153Zm29.997 28.293v-20.703l14.996-7.496v20.707Zm-7.5-47.031 13.215 6.652-13.215 6.652-13.215-6.652Zm0 0"/></g><path fill="#fff" d="M56.75 66.988 86.746 81.98c1.031.563 2.25.75 3.375.75s2.344-.28 3.375-.75l29.992-14.992c2.532-1.308 4.125-3.84 4.125-6.746V22.766c0-2.809-1.593-5.434-4.125-6.746L93.496 1.03a7.75 7.75 0 0 0-6.75 0L56.75 16.02c-2.531 1.312-4.121 3.937-4.121 6.746v37.476a7.628 7.628 0 0 0 4.121 6.746Zm10.875-32.136 14.996 7.496v20.707l-14.996-7.496Zm29.992 28.296v-20.8l15-7.496v20.707Zm-7.496-47.035 13.215 6.653-13.215 6.652-13.219-6.652ZM341.695 66.988l29.996 14.992c1.032.563 2.25.75 3.375.75s2.34-.28 3.372-.75l29.996-14.992c2.53-1.308 4.125-3.84 4.125-6.746V22.766c0-2.809-1.594-5.434-4.125-6.746L378.437 1.03a7.742 7.742 0 0 0-6.746 0L341.695 16.02c-2.53 1.312-4.125 3.843-4.125 6.746v37.476c0 2.813 1.594 5.438 4.125 6.746Zm10.875-32.136 14.996 7.496v20.707l-14.996-7.496Zm29.993 28.296v-20.8l14.996-7.496v20.707Zm-7.497-47.035 13.215 6.653-13.215 6.652-13.218-6.652ZM217.594 75.234h15v14.993h-15ZM360.066 315.086h15v14.988h-15ZM75.121 315.086h15v14.988h-15Zm0 0"/><path fill="#fff" d="M202.598 300.094h-14.996c-9.75 0-18.09 6.277-21.184 14.992h-8.813v-29.984c0-2.809-1.593-5.434-4.12-6.747l-26.34-13.113 4.218-7.12c1.407.28 2.907.468 4.403.468 1.875 0 3.75-.188 5.53-.656 5.813-1.5 10.688-5.153 13.778-10.309l7.688-12.836c3.093-5.152 3.937-11.242 2.531-17.05-1.5-5.81-5.156-10.68-10.313-13.774-5.152-3.09-11.246-3.934-17.058-2.528-5.809 1.5-10.684 5.153-13.777 10.305l-7.688 12.836c-3.09 5.152-3.934 11.242-2.527 17.05.84 3.282 2.433 6.278 4.496 8.81l-4.871 8.152-5.25-2.625a7.75 7.75 0 0 0-6.75 0l-44.993 22.484c-2.53 1.313-4.12 3.844-4.12 6.746v52.47c0 2.812 1.59 5.433 4.12 6.745l44.993 22.485c1.03.562 2.25.75 3.375.75s2.343-.282 3.375-.75l44.992-22.485c2.527-1.312 4.121-3.84 4.121-6.746v-7.496h8.812c3.094 8.715 11.434 14.992 21.184 14.992h14.996c12.375 0 22.496-10.12 22.496-22.488 0-12.367-9.937-22.578-22.308-22.578Zm-73.203-67.832 7.683-12.836c1.031-1.688 2.625-2.906 4.594-3.469.656-.187 1.219-.187 1.875-.187 1.312 0 2.625.375 3.844 1.03 1.687 1.032 2.906 2.626 3.468 4.595.563 1.964.188 3.933-.843 5.714l-7.688 12.836c-1.031 1.684-2.625 2.903-4.594 3.465-1.968.469-3.933.188-5.714-.844-1.688-1.03-2.907-2.62-3.47-4.59-.562-1.968-.187-4.027.845-5.714Zm-24.278 38.695.938.469-7.313 12.273 12.844 7.68 7.871-13.207 13.875 6.93-28.215 14.148-28.215-14.148Zm-37.492 26.23 29.992 14.993v35.695l-29.992-14.988Zm74.984 35.793-29.992 14.989v-35.696l29.992-14.992v17.805h-14.996v14.988h14.996Zm59.989-2.906h-14.996c-4.125 0-7.5-3.37-7.5-7.496 0-4.121 3.375-7.492 7.5-7.492h14.996c4.125 0 7.5 3.371 7.5 7.492 0 4.125-3.375 7.496-7.5 7.496Zm0 0"/><g clip-path="url(#b)"><path fill="#fff" d="M312.172 201.438c-5.813-1.5-11.906-.563-17.059 2.527-5.156 3.094-8.812 7.965-10.312 13.773-1.5 5.809-.563 11.899 2.531 17.051l7.688 12.836c3.09 5.156 7.964 8.809 13.777 10.309 1.875.468 3.656.656 5.531.656 1.496 0 2.902-.188 4.402-.469l4.22 7.121-26.34 13.113c-2.528 1.313-4.122 3.844-4.122 6.747v29.984h-8.812c-3.094-8.715-11.434-14.992-21.184-14.992h-14.996c-12.371 0-22.496 10.117-22.496 22.484s10.125 22.488 22.496 22.488h14.996c9.75 0 18.09-6.277 21.184-14.992h8.812v7.496c0 2.813 1.594 5.434 4.121 6.746l44.993 22.485c1.03.562 2.25.75 3.375.75s2.343-.281 3.375-.75l44.992-22.485c2.531-1.312 4.12-3.84 4.12-6.746v-52.468c0-2.809-1.589-5.434-4.12-6.747l-14.813-7.398 15.281-35.605 7.872 3.937c1.03.563 2.25.75 3.375.75s2.343-.281 3.375-.75l29.992-14.992c2.531-1.313 4.125-3.84 4.125-6.746v-37.477c0-2.808-1.594-5.433-4.125-6.746l-29.992-14.988a7.75 7.75 0 0 0-6.75 0l-29.993 14.988c-2.53 1.313-4.125 3.844-4.125 6.746v37.477c0 2.812 1.594 5.433 4.125 6.746l8.715 4.308-15.277 35.606-16.684-8.34a7.75 7.75 0 0 0-6.75 0l-5.25 2.625-4.87-8.152c2.155-2.531 3.655-5.528 4.495-8.809 1.5-5.808.563-11.898-2.527-17.05l-7.688-12.837c-3-5.152-7.875-8.804-13.683-10.21Zm-49.586 128.636H247.59c-4.125 0-7.5-3.37-7.5-7.496 0-4.121 3.375-7.492 7.5-7.492h14.996c4.125 0 7.5 3.371 7.5 7.492 0 4.125-3.375 7.496-7.5 7.496Zm119.976-137.82 14.997 7.496v20.707l-14.997-7.496Zm29.997 28.297v-20.707l14.996-7.496v20.707Zm-7.5-47.035 13.214 6.652-13.214 6.652-13.215-6.652Zm-97.48 156.558h14.995v-14.988h-14.996v-17.899l29.992 14.993v35.695l-29.992-14.988Zm44.991 17.895v-35.696l29.993-14.992v35.7Zm-7.5-77.012 28.215 14.145-28.215 14.148-28.215-14.148 13.875-6.93 7.872 13.207 12.843-7.68-7.312-12.273Zm-32.523-27.64c-1.969-.47-3.563-1.688-4.594-3.465l-7.687-12.836c-1.032-1.688-1.313-3.75-.844-5.715.469-1.969 1.687-3.563 3.469-4.594 1.687-1.031 3.75-1.309 5.718-.844 1.97.469 3.563 1.688 4.594 3.469l7.684 12.836c1.031 1.687 1.312 3.746.843 5.715-.468 1.969-1.687 3.558-3.468 4.59-1.782 1.03-3.84 1.312-5.715.843Zm0 0"/></g><path fill="#fff" d="m53.023 190.082 14.227-4.738 22.492 67.46-14.226 4.743ZM95.781 105.45l60.02-14.997 3.637 14.543-60.02 14.996ZM275.543 53.035l52.453-14.98 4.117 14.414-52.453 14.98ZM382.637 91.277l14.843-2.117 7.504 52.496-14.847 2.121ZM230.031 390.496l82.453-29.965 5.121 14.086-82.449 29.969ZM135.918 363.45l13.414-6.704 7.504 15-13.414 6.703ZM132.36 52.223l5.57-13.918L175.44 53.3l-5.57 13.918ZM38.438 86.84l7.503-15 13.414 6.703-7.503 15Zm0 0"/></svg>