<svg xmlns="http://www.w3.org/2000/svg" width="512" height="512" style="shape-rendering:geometricPrecision;text-rendering:geometricPrecision;image-rendering:optimizeQuality;fill-rule:evenodd;clip-rule:evenodd"><path fill="#4a3149" d="M244.5 7.5c55.914-.631 98.08 23.036 126.5 71 25.155 43.953 36.821 91.287 35 142a146.306 146.306 0 0 0 4 13 526.603 526.603 0 0 1 17 40c4.601 15.659 4.601 31.326 0 47l-13 32c-2.9 11.248-3.234 22.581-1 34 7.965 18.528 12.465 37.862 13.5 58-.398 11.12-3.898 21.12-10.5 30-9.503 12.176-21.67 20.343-36.5 24.5-11.509 2.964-22.342 1.464-32.5-4.5-64.754 13.622-129.254 12.455-193.5-3.5-15.659-4.166-30.326-10.499-44-19-11.677-9.044-14.177-20.211-7.5-33.5a204.828 204.828 0 0 1 29.5-34c-4.729-11.801-11.229-22.468-19.5-32-13.685-20.633-17.351-42.966-11-67a866.646 866.646 0 0 1 16-44 190.386 190.386 0 0 0 5-23c.29-25.822.957-51.822 2-78 2.024-29.432 9.357-57.432 22-84 12.656-24.31 32.489-39.143 59.5-44.5 10.18-12.751 23.18-20.918 39-24.5Z" style="opacity:.975"/><path fill="#fe4f3e" d="M132.5 197.5c-.99-6.145-1.323-12.478-1-19-.144-35.754 8.022-69.421 24.5-101 11.907-20.873 29.741-33.206 53.5-37 16.389-21.84 38.056-29.673 65-23.5 39.266 9.616 69.1 31.783 89.5 66.5 13.802 23.739 23.469 49.072 29 76a599.08 599.08 0 0 1 2 45c1.304 14.611 4.97 28.611 11 42a155.4 155.4 0 0 1 15 38 107.802 107.802 0 0 1-2 32 183.16 183.16 0 0 1-12 29c-5.03 14.142-5.697 28.475-2 43a197.033 197.033 0 0 1 12 42c2.649 30.844-10.851 51.011-40.5 60.5-6.417.87-12.751.536-19-1-8.808-5.4-11.974-13.233-9.5-23.5 3.248-15.5 4.248-31.167 3-47a69.014 69.014 0 0 0-6-15 268.134 268.134 0 0 0-19-20c-16.417-19.003-20.417-40.337-12-64a394.886 394.886 0 0 0 27-65c5.282-23.239 4.616-46.239-2-69-11.334-29.688-27-56.688-47-81-26.727-26.884-57.561-32.717-92.5-17.5-15.393 12.403-26.56 27.903-33.5 46.5-7.062 18.708-10.562 38.042-10.5 58-8.22-.694-15.886.973-23 5Z" style="opacity:1"/><path fill="#fac9ae" d="m319.5 163.5-18 2a88.101 88.101 0 0 0-15 2.5c-5.306 2.995-5.306 5.828 0 8.5 12.453-3.723 25.12-4.723 38-3 10.579 19.732 14.413 40.732 11.5 63-4.144 25.43-12.477 49.43-25 72-18.927 13.885-40.093 21.051-63.5 21.5-42.741-8.408-68.574-33.908-77.5-76.5-6.402-28.394-8.068-57.06-5-86 4.3-27.434 16.133-50.934 35.5-70.5 7.711-5.504 16.378-8.171 26-8 22.411-2.863 41.578 3.637 57.5 19.5 14.841 16.351 26.675 34.685 35.5 55Z" style="opacity:1"/><path fill="#937074" d="M319.5 163.5c.543.06.876.393 1 1a91.123 91.123 0 0 1-19 1l18-2Z" style="opacity:1"/><path fill="#4d354c" d="M189.5 164.5a140.495 140.495 0 0 1 38 4.5c3.171 4.143 2.171 6.643-3 7.5-17.541-5.17-35.041-5.17-52.5 0-1.257-.35-1.591-1.017-1-2 4.976-5.701 11.143-9.034 18.5-10Z" style="opacity:1"/><path fill="#4a334b" d="M193.5 183.5c10.617-1.76 20.117.573 28.5 7 .743 1.941.576 3.774-.5 5.5-2.877.725-5.543.225-8-1.5l-1 1c1.764 5.376 1.097 10.376-2 15-5.075 3.071-9.575 2.404-13.5-2-2.61-6.108-1.776-11.608 2.5-16.5-6.08-1.347-11.58-.18-16.5 3.5l-1.5-1c2.389-5.511 6.389-9.178 12-11ZM301.5 183.5c6.425-.37 12.758.13 19 1.5 4.472 1.972 7.805 5.138 10 9.5l-1.5 1c-5.339-3.618-11.172-4.784-17.5-3.5 1.833.5 3 1.667 3.5 3.5.667 4 .667 8 0 12-2.663 4.225-6.496 5.725-11.5 4.5-2.167-.833-3.667-2.333-4.5-4.5-.796-4.255-.629-8.421.5-12.5-2.116.282-4.283.782-6.5 1.5-2.376-.043-3.876-1.209-4.5-3.5 3.325-4.652 7.658-7.818 13-9.5Z" style="opacity:1"/><path fill="#923c44" d="M131.5 178.5c-.323 6.522.01 12.855 1 19-.06.543-.393.876-1 1-1.318-6.822-1.318-13.489 0-20Z" style="opacity:1"/><path fill="#fab195" d="M145.5 200.5h10c.113 5.018.447 10.018 1 15a45.527 45.527 0 0 0-15-.5c-2.667 2.333-2.667 4.667 0 7l11 1c1.829.273 3.329 1.107 4.5 2.5a629.39 629.39 0 0 0 4.5 27c-20.303-.325-30.637-10.658-31-31-.748-11.234 4.252-18.234 15-21Z" style="opacity:1"/><path fill="#4d354c" d="M246.5 231.5a29.312 29.312 0 0 1 9 3 271.823 271.823 0 0 1 9-2.5c1.896 1.808 2.396 3.975 1.5 6.5-7.35 5.619-14.35 5.286-21-1-.748-2.34-.248-4.34 1.5-6Z" style="opacity:1"/><path fill="#fe4f3e" d="M129.5 246.5c8.736 10.526 20.07 15.359 34 14.5 8.216 35.043 29.216 58.543 63 70.5-.231 10.876-4.231 20.042-12 27.5a622.473 622.473 0 0 1-37 15 262.262 262.262 0 0 0-38.5 25.5l-6-12c-11.18-13.354-19.513-28.354-25-45-2.46-12.84-1.794-25.507 2-38a395.174 395.174 0 0 0 19.5-58Z" style="opacity:1"/><path fill="#4c344c" d="M236.5 260.5a8.43 8.43 0 0 1 4 .5c4.167 3.42 9 4.92 14.5 4.5 6.575.222 12.575-1.445 18-5 3.452 1.573 4.286 4.073 2.5 7.5-12.505 6.804-25.172 7.137-38 1-3.514-2.532-3.847-5.365-1-8.5Z" style="opacity:1"/><path fill="#ec3c3d" d="M304.5 321.5c.597.235.93.735 1 1.5-4.385 11.109-5.052 22.442-2 34l-1 1.5c-9.544-7.414-13.877-17.081-13-29 5.502-1.928 10.502-4.595 15-8Z" style="opacity:1"/><path fill="#fb7264" d="M281.5 341.5c-15.073 5.487-30.406 6.32-46 2.5-1.256-.417-1.923-1.25-2-2.5a12.93 12.93 0 0 1 .5-5 4.933 4.933 0 0 1 2.5-1c14.405 4.435 28.572 3.769 42.5-2a3.943 3.943 0 0 1 2 1c.497 2.31.663 4.643.5 7Z" style="opacity:1"/><path fill="#fdb296" d="M233.5 341.5c.077 1.25.744 2.083 2 2.5 15.594 3.82 30.927 2.987 46-2.5 4.392 13.566 13.226 23.233 26.5 29a115.697 115.697 0 0 0 8.5 15.5c-4.383 10.048-11.716 17.048-22 21-28.301 11.113-55.967 9.779-83-4-10.645-6.121-16.645-15.288-18-27.5a87.533 87.533 0 0 0 25-9.5c7.969-6.454 12.969-14.621 15-24.5Z" style="opacity:1"/><path fill="#f7deb3" d="M183.5 379.5h3c1.549 12.255 7.549 21.755 18 28.5 30.312 16.981 61.646 18.981 94 6 10.755-4.283 18.921-11.449 24.5-21.5l13 13a51.423 51.423 0 0 1 7 15c.667 8.667.667 17.333 0 26a753.276 753.276 0 0 1-3.5 25 37.13 37.13 0 0 0 3 15c-49.717 10.134-99.717 11.634-150 4.5a730.939 730.939 0 0 1-43-9.5 492.714 492.714 0 0 1 15-89c.51-1.588 1.51-2.755 3-3.5a185.931 185.931 0 0 0 16-9.5Z" style="opacity:1"/><path fill="#fcb295" d="M152.5 398.5c1.086.12 1.753.787 2 2a442.396 442.396 0 0 0-13 77 83.106 83.106 0 0 1-27-12.5c-10.13-8.566-10.63-17.733-1.5-27.5a148.791 148.791 0 0 1 13-16 284.086 284.086 0 0 1 26.5-23Z" style="opacity:1"/><path fill="#4b344c" d="M251.5 431.5c13.173-.995 19.006 5.005 17.5 18-3.833 7.622-9.999 10.455-18.5 8.5-7.04-4.255-9.54-10.422-7.5-18.5 2.074-3.577 4.907-6.244 8.5-8Z" style="opacity:1"/><path fill="#f8f7f8" d="M252.5 439.5c6.33-.834 9.163 1.833 8.5 8-3.048 3.51-6.381 3.843-10 1-.932-3.323-.432-6.323 1.5-9Z" style="opacity:1"/></svg>