<svg xmlns="http://www.w3.org/2000/svg" width="512" height="512" style="shape-rendering:geometricPrecision;text-rendering:geometricPrecision;image-rendering:optimizeQuality;fill-rule:evenodd;clip-rule:evenodd"><path fill="#865151" d="M241.5-.5h28c3.691.893 7.358 1.893 11 3-38.684 11.184-63.517 36.184-74.5 75a782.967 782.967 0 0 0-4 45c-2.777 6.443-7.277 11.277-13.5 14.5-9.707 9.784-13.874 21.618-12.5 35.5-2.686 8.019-7.019 15.019-13 21-11.219 22.217-8.219 42.217 9 60 3.863 7.843 5.529 16.176 5 25a37.282 37.282 0 0 0 2.5 8 1018.227 1018.227 0 0 1-39 15c-11.435-10.796-16.269-24.129-14.5-40-2.804-6.477-6.804-12.144-12-17-12.573-24.131-9.24-45.798 10-65a70.384 70.384 0 0 0 3-21c2.835-12.664 9.835-22.331 21-29 2.413-2.562 4.08-5.562 5-9-3.997-43.478 11.169-78.311 45.5-104.5 13.36-8.36 27.694-13.86 43-16.5Z" style="opacity:1"/><path fill="#9d5e5e" d="M280.5 2.5c39.958 11.46 64.792 37.46 74.5 78a340.764 340.764 0 0 1 3 40c2.351 7.019 6.851 12.186 13.5 15.5 6.891 5.945 11.057 13.445 12.5 22.5.182 6.397.848 12.73 2 19l12 16c11.503 23.653 7.836 44.653-11 63a22.981 22.981 0 0 1-2 5c1.769 15.871-3.065 29.204-14.5 40a1274.757 1274.757 0 0 0-45-16c-.342-.838-1.008-1.172-2-1-6.7-3.296-13.7-6.129-21-8.5a11.532 11.532 0 0 1-4.5-3.5 138.385 138.385 0 0 1-1.5-28c17.011-11.993 27.511-28.326 31.5-49 .667-18 .667-36 0-54a75.963 75.963 0 0 0-4-11 308.02 308.02 0 0 1-35-46l-9-18c-2.905-3.827-5.905-3.827-9 0-5.474 25.29-18.308 45.957-38.5 62a244.255 244.255 0 0 1-35 23.5c-13.418 11.923-18.252 26.756-14.5 44.5 4.287 20.283 14.787 36.283 31.5 48a142.774 142.774 0 0 1-1.5 28 312.036 312.036 0 0 1-26.5 12h-1a31.686 31.686 0 0 1-6 2 37.282 37.282 0 0 1-2.5-8c.529-8.824-1.137-17.157-5-25-17.219-17.783-20.219-37.783-9-60 5.981-5.981 10.314-12.981 13-21-1.374-13.882 2.793-25.716 12.5-35.5 6.223-3.223 10.723-8.057 13.5-14.5a782.967 782.967 0 0 1 4-45c10.983-38.816 35.816-63.816 74.5-75Z" style="opacity:.997"/><path fill="#fee4c0" d="M296.5 244.5c-5.253 3.631-10.919 6.131-17 7.5-26.977-11.773-42.477-32.273-46.5-61.5-.5-20.664-.667-41.331-.5-62 20.192-16.043 33.026-36.71 38.5-62 3.095-3.827 6.095-3.827 9 0l9 18a308.02 308.02 0 0 0 35 46 75.963 75.963 0 0 1 4 11c.667 18 .667 36 0 54-3.989 20.674-14.489 37.007-31.5 49Z" style="opacity:1"/><path fill="#fdd0a2" d="M232.5 128.5c-.167 20.669 0 41.336.5 62 4.023 29.227 19.523 49.727 46.5 61.5 6.081-1.369 11.747-3.869 17-7.5-.445 9.44.055 18.774 1.5 28a11.532 11.532 0 0 0 4.5 3.5c7.3 2.371 14.3 5.204 21 8.5a4310.97 4310.97 0 0 1-55 55.5c-5.693 3.964-12.027 5.464-19 4.5-1.291.237-2.291-.096-3-1 1.992-28.647 2.659-57.647 2-87-12.287-1.428-23.621-5.428-34-12-16.713-11.717-27.213-27.717-31.5-48-3.752-17.744 1.082-32.577 14.5-44.5a244.255 244.255 0 0 0 35-23.5Z" style="opacity:1"/><path fill="#febc85" d="M214.5 244.5c10.379 6.572 21.713 10.572 34 12 .659 29.353-.008 58.353-2 87a28.53 28.53 0 0 1-9-4.5 2147.485 2147.485 0 0 1-51-54.5 312.036 312.036 0 0 0 26.5-12 142.774 142.774 0 0 0 1.5-28Z" style="opacity:1"/><path fill="#da7e4a" d="M185.5 284.5a68272.68 68272.68 0 0 0 45 227h-95c.167-48.001 0-96.001-.5-144-3.013-5.035-7.18-6.202-12.5-3.5a6.978 6.978 0 0 0-2.5 3.5c-.5 47.999-.667 95.999-.5 144h-20c-.167-49.334 0-98.668.5-148 4.395-21.453 13.562-40.453 27.5-57a152.612 152.612 0 0 1 13-5 1018.227 1018.227 0 0 0 39-15 31.686 31.686 0 0 0 6-2Z" style="opacity:1"/><path fill="#fef4f4" d="M323.5 284.5c.992-.172 1.658.162 2 1a20437.888 20437.888 0 0 0-43 215 3294.994 3294.994 0 0 1-33-156c6.973.964 13.307-.536 19-4.5a4310.97 4310.97 0 0 0 55-55.5Z" style="opacity:1"/><path fill="#da7e4a" d="M325.5 285.5a1274.757 1274.757 0 0 1 45 16 1923.797 1923.797 0 0 0 33 12.5c23.022 10.2 36.856 27.7 41.5 52.5.667 45.667.667 91.333 0 137-1.69 3.521-4.19 6.188-7.5 8h-46c.167-48.001 0-96.001-.5-144-3.013-5.035-7.18-6.202-12.5-3.5a6.978 6.978 0 0 0-2.5 3.5c-.5 47.999-.667 95.999-.5 144h-95a40.1 40.1 0 0 1 2-11 20437.888 20437.888 0 0 1 43-215Z" style="opacity:.999"/><path fill="#eee0dc" d="M185.5 284.5h1a2147.485 2147.485 0 0 0 51 54.5 28.53 28.53 0 0 0 9 4.5c.709.904 1.709 1.237 3 1a3294.994 3294.994 0 0 0 33 156 40.1 40.1 0 0 0-2 11h-50a68272.68 68272.68 0 0 1-45-227Z" style="opacity:1"/><path fill="#cb6c35" d="M127.5 306.5c-13.938 16.547-23.105 35.547-27.5 57-.5 49.332-.667 98.666-.5 148h-26c-3.31-1.812-5.81-4.479-7.5-8-.667-46-.667-92 0-138 4.906-23.319 18.073-40.153 39.5-50.5a899.006 899.006 0 0 1 22-8.5ZM135.5 511.5h-16c-.167-48.001 0-96.001.5-144a6.978 6.978 0 0 1 2.5-3.5c5.32-2.702 9.487-1.535 12.5 3.5.5 47.999.667 95.999.5 144ZM391.5 511.5h-16c-.167-48.001 0-96.001.5-144a6.978 6.978 0 0 1 2.5-3.5c5.32-2.702 9.487-1.535 12.5 3.5.5 47.999.667 95.999.5 144Z" style="opacity:1"/></svg>