<svg xmlns="http://www.w3.org/2000/svg" width="512" height="512" style="shape-rendering:geometricPrecision;text-rendering:geometricPrecision;image-rendering:optimizeQuality;fill-rule:evenodd;clip-rule:evenodd"><path fill="#6b4f59" d="M238.5-.5h34c23.148 3.047 44.148 11.38 63 25-9.017 27.379-22.684 52.046-41 74-20.081 22.58-43.748 40.413-71 53.5a96.578 96.578 0 0 1-2 6.5 24.935 24.935 0 0 0-.5-7 6.978 6.978 0 0 0-3.5-2.5c-8-.667-16-.667-24 0-4.898 4.546-5.232 9.38-1 14.5-6.379 2.355-13.046 4.189-20 5.5a1626.325 1626.325 0 0 0-32 4.5c-8.484-.993-17.151-1.326-26-1-.167-14.337 0-28.671.5-43 6.537-58.292 36.703-98.792 90.5-121.5 10.856-3.93 21.856-6.764 33-8.5Z" style="opacity:.996"/><path fill="#87646e" d="M335.5 24.5c26.362 17.991 44.529 42.324 54.5 73a136.918 136.918 0 0 1 6 32c.667 29 .667 58 0 87-3.077 59.115-24.911 109.782-65.5 152a741.249 741.249 0 0 1-7.5-38c-5.384-6.242-11.217-6.576-17.5-1v-28c33.248-18.968 52.248-47.635 57-86 17.68-1.172 25.846-10.505 24.5-28-5.568-11.209-14.735-16.375-27.5-15.5-7.045-2.377-11.212-7.21-12.5-14.5 3.329-19.895-2.171-36.728-16.5-50.5a44.7 44.7 0 0 0-14-6.5c-7.088-1.739-14.421-2.406-22-2 18.316-21.954 31.983-46.621 41-74Z" style="opacity:.991"/><path fill="#f3aa72" d="M294.5 98.5c7.579-.406 14.912.261 22 2a4.934 4.934 0 0 0-3 .5c-27.281 33.626-60.948 58.459-101 74.5-3.431-1.888-7.098-2.388-11-1.5-2.234 1.638-3.567 3.805-4 6.5-12.515 5.011-17.848 14.345-16 28 2.935 47.42 26.268 80.254 70 98.5 7.028 2.755 14.361 4.255 22 4.5-23.293 3.953-45.626.62-67-10-33.907-18.617-53.24-47.284-58-86-17.68-1.172-25.846-10.505-24.5-28 2.926-7.763 8.426-12.43 16.5-14a1626.325 1626.325 0 0 1 32-4.5c6.954-1.311 13.621-3.145 20-5.5a115.168 115.168 0 0 0 25 .5c2.428-1.018 3.762-2.852 4-5.5a96.578 96.578 0 0 0 2-6.5c27.252-13.087 50.919-30.92 71-53.5Z" style="opacity:1"/><path fill="#f7b97d" d="M316.5 100.5a44.7 44.7 0 0 1 14 6.5c14.329 13.772 19.829 30.605 16.5 50.5 1.288 7.29 5.455 12.123 12.5 14.5 12.765-.875 21.932 4.291 27.5 15.5 1.346 17.495-6.82 26.828-24.5 28-4.752 38.365-23.752 67.032-57 86a127.457 127.457 0 0 1-32 10c-7.639-.245-14.972-1.745-22-4.5-43.732-18.246-67.065-51.08-70-98.5-1.848-13.655 3.485-22.989 16-28-.468 4.87.198 9.536 2 14 5.986 4.692 10.819 3.692 14.5-3 .997-5.55.497-10.883-1.5-16 40.052-16.041 73.719-40.874 101-74.5a4.934 4.934 0 0 1 3-.5Z" style="opacity:1"/><path fill="#61444f" d="M221.5 158.5c-.238 2.648-1.572 4.482-4 5.5-8.368.74-16.702.574-25-.5-4.232-5.12-3.898-9.954 1-14.5 8-.667 16-.667 24 0a6.978 6.978 0 0 1 3.5 2.5c.497 2.31.663 4.643.5 7Z" style="opacity:1"/><path fill="#88646f" d="M293.5 148.5c7.674-.166 15.341 0 23 .5 5.068 2.983 6.235 7.149 3.5 12.5a6.978 6.978 0 0 1-3.5 2.5c-7.667.667-15.333.667-23 0-6.611-5.202-6.611-10.369 0-15.5Z" style="opacity:1"/><path fill="#61444f" d="M114.5 172.5c8.849-.326 17.516.007 26 1-8.074 1.57-13.574 6.237-16.5 14-1.346 17.495 6.82 26.828 24.5 28 4.76 38.716 24.093 67.383 58 86v28c-.106 17.028-1.772 34.028-5 51-4.069 12.34-9.235 24.34-15.5 36a589.545 589.545 0 0 0-28 49c-6.816 14.581-9.983 29.914-9.5 46h-33c.332-39.17-.001-78.17-1-117v-222Z" style="opacity:.993"/><path fill="#654750" d="M212.5 175.5c1.997 5.117 2.497 10.45 1.5 16-3.681 6.692-8.514 7.692-14.5 3-1.802-4.464-2.468-9.13-2-14 .433-2.695 1.766-4.862 4-6.5 3.902-.888 7.569-.388 11 1.5ZM301.5 173.5c5.135-1.074 8.968.593 11.5 5a42.479 42.479 0 0 1 0 13c-2.083 5.404-5.916 7.237-11.5 5.5a17.842 17.842 0 0 1-4.5-5.5 42.479 42.479 0 0 1 0-13c1.025-2.187 2.525-3.854 4.5-5Z" style="opacity:1"/><path fill="#fb617a" d="M227.5 230.5a18.453 18.453 0 0 1 6 .5c9.132 7.066 19.466 9.399 31 7a111.158 111.158 0 0 0 15.5-7.5c7.635 1.608 9.968 5.941 7 13-6.941 7.099-15.441 10.933-25.5 11.5-14.504 2.386-27.004-1.448-37.5-11.5-1.422-2.53-1.755-5.197-1-8a31.447 31.447 0 0 0 4.5-5Z" style="opacity:1"/><path fill="#de966c" d="M206.5 301.5c21.374 10.62 43.707 13.953 67 10a127.457 127.457 0 0 0 32-10v28h-1a50.464 50.464 0 0 0-.5-10c-32.535 13.3-65.035 13.3-97.5 0v-18Z" style="opacity:1"/><path fill="#f4aa72" d="M206.5 319.5c32.465 13.3 64.965 13.3 97.5 0 .498 3.317.665 6.65.5 10-7.605 4.138-15.271 8.305-23 12.5-4.928 4.084-7.928 9.251-9 15.5a552.805 552.805 0 0 0-1 47c-10.667 6.667-21.333 6.667-32 0a552.805 552.805 0 0 0-1-47c-1.072-6.249-4.072-11.416-9-15.5-7.729-4.195-15.395-8.362-23-12.5v-10Z" style="opacity:1"/><path fill="#fb5f7a" d="M330.5 368.5v3a2419.516 2419.516 0 0 0-57 32 529.904 529.904 0 0 1-1-46c1.072-6.249 4.072-11.416 9-15.5 7.729-4.195 15.395-8.362 23-12.5h1c6.283-5.576 12.116-5.242 17.5 1a741.249 741.249 0 0 0 7.5 38Z" style="opacity:.999"/><path fill="#fa5f79" d="M206.5 329.5c7.605 4.138 15.271 8.305 23 12.5 4.928 4.084 7.928 9.251 9 15.5.167 15.337 0 30.67-.5 46a1845.133 1845.133 0 0 0-35.5-20c-.886-.825-1.219-1.825-1-3 3.228-16.972 4.894-33.972 5-51Z" style="opacity:1"/><path fill="#fe7d8e" d="M272.5 357.5a529.904 529.904 0 0 0 1 46 2419.516 2419.516 0 0 1 57-32c29.09 9.863 58.09 20.03 87 30.5 6.093 3.267 11.426 7.434 16 12.5a10.134 10.134 0 0 0-4 1.5l-42 36c-7.551 6.272-12.718 14.105-15.5 23.5a647.854 647.854 0 0 0-.5 36h-100v-107a552.805 552.805 0 0 1 1-47Z" style="opacity:1"/><path fill="#fd7d8e" d="M238.5 357.5a552.805 552.805 0 0 1 1 47v107h-91c-.483-16.086 2.684-31.419 9.5-46a589.545 589.545 0 0 1 28-49c6.265-11.66 11.431-23.66 15.5-36-.219 1.175.114 2.175 1 3a1845.133 1845.133 0 0 1 35.5 20c.5-15.33.667-30.663.5-46Z" style="opacity:1"/><path fill="#fa5f79" d="M114.5 394.5a3421.39 3421.39 0 0 1 1 117h-32c-8.983-2.818-14.817-8.818-17.5-18a467.378 467.378 0 0 1 1-60c4.26-14.36 13.094-24.86 26.5-31.5a795.919 795.919 0 0 1 21-7.5Z" style="opacity:1"/><path fill="#61444f" d="M239.5 404.5c10.667 6.667 21.333 6.667 32 0v107h-32v-107Z" style="opacity:1"/><path fill="#fc5f7a" d="M433.5 414.5c3.452 3.799 6.118 8.132 8 13a921.13 921.13 0 0 1-45 38.5c-4.051 3.721-6.884 8.221-8.5 13.5a511.925 511.925 0 0 0-.5 32h-16c-.167-12.005 0-24.005.5-36 2.782-9.395 7.949-17.228 15.5-23.5l42-36a10.134 10.134 0 0 1 4-1.5Z" style="opacity:1"/><path fill="#fe7e8e" d="M441.5 427.5c1.632 3.058 2.799 6.391 3.5 10a783.858 783.858 0 0 1 0 56c-2.683 9.182-8.517 15.182-17.5 18h-40c-.167-10.672 0-21.339.5-32 1.616-5.279 4.449-9.779 8.5-13.5a921.13 921.13 0 0 0 45-38.5Z" style="opacity:1"/></svg>