<svg xmlns="http://www.w3.org/2000/svg" width="512" height="512" style="shape-rendering:geometricPrecision;text-rendering:geometricPrecision;image-rendering:optimizeQuality;fill-rule:evenodd;clip-rule:evenodd"><path fill="#030202" d="M238.5-.5h34c60.808 10.304 101.308 44.637 121.5 103a179.035 179.035 0 0 1 5 26c.5 85.666.667 171.333.5 257 25.99 5.49 41.823 21.157 47.5 47 .667 25 .667 50 0 75-.69 1.85-1.856 3.184-3.5 4h-8c-2.35-1.713-3.35-4.047-3-7 .167-23.336 0-46.669-.5-70a20.093 20.093 0 0 1-1.5-6 4.934 4.934 0 0 0-3 .5l-27 23.5a676.55 676.55 0 0 0-1 52c-.071 3.152-1.405 5.486-4 7h-8c-2.078-1.89-3.411-4.224-4-7a10163.78 10163.78 0 0 0 0-285c-.607.124-.94.457-1 1a99.266 99.266 0 0 1-16.5 3c-7.228 38.502-28.062 66.836-62.5 85-28.186 11.705-56.853 13.038-86 4-.709-.904-1.709-1.237-3-1v28c-2.552 19.107-13.052 31.44-31.5 37 .712 3.447 2.045 6.781 4 10 26.268 36.115 60.435 46.282 102.5 30.5 7.628-3.634 14.294-8.467 20-14.5-6.723-15-10.89-30.667-12.5-47a132.434 132.434 0 0 1 0-23c1.539-3.021 4.039-4.354 7.5-4 3.175.34 5.341 2.007 6.5 5-.942 25.564 4.724 49.564 17 72a1117.597 1117.597 0 0 1 28 49c6.235 13.347 9.735 27.347 10.5 42-.306 2.885.027 5.552 1 8-.498 2.826-1.831 5.16-4 7h-8c-2.078-1.89-3.411-4.224-4-7 1.007-8.657.173-17.324-2.5-26a158.068 158.068 0 0 0-14.5-32.5c-1-.667-2-.667-3 0-43.665 30.112-89.331 33.446-137 10-26.185-15.013-45.518-36.18-58-63.5a415.037 415.037 0 0 0-40 15.5 24.724 24.724 0 0 0-7 6.5 1794.746 1794.746 0 0 0 38 32.5c6.977 6.121 11.81 13.621 14.5 22.5a604.989 604.989 0 0 0 1.5 35c-.589 2.776-1.922 5.11-4 7h-8c-2.595-1.514-3.929-3.848-4-7 .167-10.672 0-21.339-.5-32-1.616-5.279-4.449-9.779-8.5-13.5a744.922 744.922 0 0 1-35-30 4.934 4.934 0 0 0-3-.5 20.093 20.093 0 0 1-1.5 6c-.5 23.331-.667 46.664-.5 70 .35 2.953-.65 5.287-3 7h-8c-1.644-.816-2.81-2.15-3.5-4-.667-25-.667-50 0-75 4.095-19.76 15.262-33.926 33.5-42.5a1897.976 1897.976 0 0 0 73-26.5c-34.817-39.663-54.317-85.996-58.5-139-.667-32-.667-64 0-96C120.491 68.017 153.324 27.184 210.5 6a248.053 248.053 0 0 1 28-6.5Z" style="opacity:.985"/><path fill="#fde07c" d="M383.5 130.5c.648 13.376-.019 26.376-2 39-52.663 1.618-98.33-15.215-137-50.5-25.333-23.832-44.999-51.665-59-83.5 38.501-23.985 78.834-27.485 121-10.5 44.811 21.098 70.478 56.264 77 105.5Z" style="opacity:1"/><path fill="#fcc14f" d="M208.5 102.5c-6.581.308-12.915 1.974-19 5-3.366-4.666-7.366-5.166-12-1.5-14.39 13.304-20.556 29.804-18.5 49.5-1.833 5.833-5.667 9.667-11.5 11.5a71.507 71.507 0 0 0-21 3.5c-5.15-44.116 6.684-82.782 35.5-116a77.766 77.766 0 0 0 11-10c9.678 20.803 21.511 40.136 35.5 58Z" style="opacity:1"/><path fill="#f4cf8f" d="M208.5 102.5c43.688 54.01 100.355 81.51 170 82.5 7.646 6.204 7.979 12.871 1 20-6.874 4.282-12.207 2.949-16-4a18.453 18.453 0 0 0-6-.5c-.652-1.225-1.819-1.892-3.5-2a318.307 318.307 0 0 1-42.5-8c1.95-10.205-2.05-14.705-12-13.5l-2.5 2.5a84.902 84.902 0 0 0-.5 13c-.973-2.448-1.306-5.115-1-8-28.138-9.728-53.138-24.562-75-44.5-13.703-7.429-25.203-4.929-34.5 7.5a23.663 23.663 0 0 1-2.5 6c.457.798 1.124 1.131 2 1-.888 2.554-1.221 5.221-1 8a524.65 524.65 0 0 0-.5 56c5.721 39.194 26.221 67.527 61.5 85-44.278-6.775-72.445-31.775-84.5-75a229.13 229.13 0 0 1-2-22c-2.017-5.424-5.85-7.258-11.5-5.5-2.419 1.509-3.419 3.675-3 6.5-13.437 1.068-18.937-4.932-16.5-18 6.117-6.266 13.617-8.766 22.5-7.5 9.584-2.922 16.751-8.756 21.5-17.5 2.128-8.484 3.128-17.151 3-26 2.129-9.795 7.129-17.795 15-24 .703-2.429.537-4.762-.5-7 6.085-3.026 12.419-4.692 19-5Z" style="opacity:1"/><path fill="#fde09f" d="M296.5 192.5c2.113 5.987 6.113 7.487 12 4.5a19.209 19.209 0 0 0 3-6.5 318.307 318.307 0 0 0 42.5 8c1.681.108 2.848.775 3.5 2-2.961.893-4.794 2.893-5.5 6-.658 37.833-17.158 66.333-49.5 85.5-17.8 9.603-36.8 13.436-57 11.5-35.279-17.473-55.779-45.806-61.5-85a524.65 524.65 0 0 1 .5-56c2.358 3.577 5.691 4.744 10 3.5a598.89 598.89 0 0 0 26-9c2.845-4.264 2.512-8.264-1-12-12.028.619-23.361 3.786-34 9.5-.876.131-1.543-.202-2-1a23.663 23.663 0 0 0 2.5-6c9.297-12.429 20.797-14.929 34.5-7.5 21.862 19.938 46.862 34.772 75 44.5-.306 2.885.027 5.552 1 8Z" style="opacity:1"/><path fill="#b29e58" d="M383.5 130.5a400.456 400.456 0 0 1 1 40c-1.291.237-2.291-.096-3-1 1.981-12.624 2.648-25.624 2-39Z" style="opacity:1"/><path fill="#040302" d="M184.5 162.5c-.221-2.779.112-5.446 1-8 10.639-5.714 21.972-8.881 34-9.5 3.512 3.736 3.845 7.736 1 12a598.89 598.89 0 0 1-26 9c-4.309 1.244-7.642.077-10-3.5Z" style="opacity:1"/><path fill="#0a0906" d="M203.5 176.5c4.103-.731 7.603.269 10.5 3 .667 5 .667 10 0 15-2.981 4.196-6.814 5.029-11.5 2.5-4.271-7.15-3.938-13.984 1-20.5Z" style="opacity:1"/><path fill="#0a0806" d="M311.5 190.5a19.209 19.209 0 0 1-3 6.5c-5.887 2.987-9.887 1.487-12-4.5a84.902 84.902 0 0 1 .5-13l2.5-2.5c9.95-1.205 13.95 3.295 12 13.5Z" style="opacity:1"/><path fill="#fed063" d="M382.5 220.5c.999 94.165 1.333 188.499 1 283h-16c.302-2.559-.032-4.893-1-7-.765-14.653-4.265-28.653-10.5-42a1117.597 1117.597 0 0 0-28-49c-12.276-22.436-17.942-46.436-17-72-1.159-2.993-3.325-4.66-6.5-5a5.727 5.727 0 0 1-1-3v-17c34.438-18.164 55.272-46.498 62.5-85a99.266 99.266 0 0 0 16.5-3Z" style="opacity:1"/><path fill="#c5a250" d="M382.5 220.5c.06-.543.393-.876 1-1a10163.78 10163.78 0 0 1 0 285h-16c-.973-2.448-1.306-5.115-1-8 .968 2.107 1.302 4.441 1 7h16c.333-94.501-.001-188.835-1-283Z" style="opacity:1"/><path fill="#fcc04f" d="M127.5 220.5a127.002 127.002 0 0 0 17.5 3c6.084 34.87 24.084 61.536 54 80a420.29 420.29 0 0 1 0 41c-2.513 5.686-6.346 10.353-11.5 14-36.829-38.426-56.829-84.426-60-138Z" style="opacity:1"/><path fill="#050403" d="M227.5 232.5c2.357-.163 4.69.003 7 .5 9.077 6.182 19.077 8.182 30 6a296.967 296.967 0 0 1 15.5-6.5c4.167.167 6.333 2.333 6.5 6.5.092 2.814-.908 5.147-3 7-11.83 7.87-24.83 10.537-39 8-6.988-1.656-13.155-4.823-18.5-9.5-2.34-4.448-1.84-8.448 1.5-12Z" style="opacity:1"/><path fill="#edc080" d="M303.5 308.5v17c-28.926 12.193-58.259 13.193-88 3-.613-5.771.054-11.104 2-16 29.147 9.038 57.814 7.705 86-4Z" style="opacity:1"/><path fill="#8e744e" d="M217.5 312.5c-1.946 4.896-2.613 10.229-2 16 .315 3.871-.018 7.538-1 11v-28c1.291-.237 2.291.096 3 1Z" style="opacity:1"/><path fill="#f5d090" d="M303.5 325.5a5.727 5.727 0 0 0 1 3c-3.461-.354-5.961.979-7.5 4a132.434 132.434 0 0 0 0 23c1.61 16.333 5.777 32 12.5 47-5.706 6.033-12.372 10.866-20 14.5-42.065 15.782-76.232 5.615-102.5-30.5-1.955-3.219-3.288-6.553-4-10 18.448-5.56 28.948-17.893 31.5-37 .982-3.462 1.315-7.129 1-11 29.741 10.193 59.074 9.193 88-3Z" style="opacity:1"/><path fill="#e8e6e8" d="M163.5 382.5c1.788-.285 3.455.048 5 1 22.208 41.607 56.875 59.774 104 54.5 16.364-3.351 31.031-10.184 44-20.5 3.861 3.878 6.861 8.378 9 13.5-7.395 6.547-15.729 11.88-25 16-50.01 18.788-93.51 8.955-130.5-29.5a149.54 149.54 0 0 1-18.5-29.5 96.175 96.175 0 0 1 12-5.5Z" style="opacity:1"/><path fill="#a4cbfc" d="M351.5 504.5h-208a604.989 604.989 0 0 1-1.5-35c-2.69-8.879-7.523-16.379-14.5-22.5a1794.746 1794.746 0 0 1-38-32.5 24.724 24.724 0 0 1 7-6.5 415.037 415.037 0 0 1 40-15.5c12.482 27.32 31.815 48.487 58 63.5 47.669 23.446 93.335 20.112 137-10 1-.667 2-.667 3 0a158.068 158.068 0 0 1 14.5 32.5c2.673 8.676 3.507 17.343 2.5 26Z" style="opacity:1"/><path fill="#a1c8f9" d="M399.5 401.5c8.596 2.294 15.929 6.628 22 13a1047.699 1047.699 0 0 0-21.5 19 511.925 511.925 0 0 1-.5-32Z" style="opacity:1"/><path fill="#a4cbfc" d="M127.5 504.5h-49c-.167-23.336 0-46.669.5-70a20.093 20.093 0 0 0 1.5-6 4.934 4.934 0 0 1 3 .5 744.922 744.922 0 0 0 35 30c4.051 3.721 6.884 8.221 8.5 13.5.5 10.661.667 21.328.5 32ZM432.5 504.5h-33a676.55 676.55 0 0 1 1-52l27-23.5a4.934 4.934 0 0 1 3-.5 20.093 20.093 0 0 0 1.5 6c.5 23.331.667 46.664.5 70Z" style="opacity:1"/></svg>