<svg xmlns="http://www.w3.org/2000/svg" width="512" height="512" style="shape-rendering:geometricPrecision;text-rendering:geometricPrecision;image-rendering:optimizeQuality;fill-rule:evenodd;clip-rule:evenodd"><path fill="#906b5c" d="M267.5 7.5a9122.52 9122.52 0 0 1-127.5 100c-.399-.228-.565-.562-.5-1 1.968-9.911 5.302-19.244 10-28a8271.91 8271.91 0 0 0 89-68.5c-.556-.383-.889-.883-1-1.5a243.023 243.023 0 0 1 30-1Z" style="opacity:.997"/><path fill="#84614f" d="M267.5 7.5a90.436 90.436 0 0 1 24 4 29701.73 29701.73 0 0 1-156.5 123c-.232-1.237-.732-2.237-1.5-3 1.254-8.626 3.254-16.959 6-25-.065.438.101.772.5 1a9122.52 9122.52 0 0 0 127.5-100Z" style="opacity:.997"/><path fill="#9b7468" d="M237.5 8.5c.111.617.444 1.117 1 1.5a8271.91 8271.91 0 0 1-89 68.5c11.686-30.52 32.686-52.02 63-64.5a96.813 96.813 0 0 1 25-5.5Z" style="opacity:.968"/><path fill="#7c5946" d="M291.5 11.5a73.368 73.368 0 0 1 13 4 29683.008 29683.008 0 0 0-171.5 133c-.383-.556-.883-.889-1.5-1a458.82 458.82 0 0 1 2-16c.768.763 1.268 1.763 1.5 3a29701.73 29701.73 0 0 0 156.5-123Z" style="opacity:.995"/><path fill="#74533e" d="m304.5 15.5 9 4c-1.739 2.91-4.072 5.41-7 7.5A53819.734 53819.734 0 0 0 132 162.5c-.232-1.237-.732-2.237-1.5-3 .146-4.019.479-8.019 1-12 .617.111 1.117.444 1.5 1a29683.008 29683.008 0 0 1 171.5-133Z" style="opacity:.997"/><path fill="#6d4d36" d="M313.5 19.5a90.034 90.034 0 0 1 13 9 32555.423 32555.423 0 0 0-176 137.5 68.944 68.944 0 0 1-20 2.5v-9c.768.763 1.268 1.763 1.5 3A53819.734 53819.734 0 0 1 306.5 27c2.928-2.09 5.261-4.59 7-7.5Z" style="opacity:.998"/><path fill="#66472e" d="M326.5 28.5c2.589.92 4.589 2.586 6 5a7796.543 7796.543 0 0 1-166 129.5c-.752.671-1.086 1.504-1 2.5h-9a27.43 27.43 0 0 0 2 11c-9.75-.306-19.416.027-29 1 .463-2.982.796-5.982 1-9a68.944 68.944 0 0 0 20-2.5 32555.423 32555.423 0 0 1 176-137.5Z" style="opacity:.998"/><path fill="#614329" d="M332.5 33.5c2.927 1.257 5.261 3.257 7 6a26760.78 26760.78 0 0 1-152 118.5 2.428 2.428 0 0 0 2 .5c-1.187 1.034-2.02 2.367-2.5 4a407.352 407.352 0 0 1-3.5 31c-5.307.526-10.307-.14-15-2a345.222 345.222 0 0 1-3-26c-.086-.996.248-1.829 1-2.5a7796.543 7796.543 0 0 0 166-129.5Z" style="opacity:.999"/><path fill="#5a3d22" d="M339.5 39.5a21.62 21.62 0 0 1 4 5 4.934 4.934 0 0 1-.5 3A30278.558 30278.558 0 0 1 212.5 149a4.934 4.934 0 0 0 3 .5c-8.304 3.769-16.971 6.769-26 9a2.428 2.428 0 0 1-2-.5 26760.78 26760.78 0 0 0 152-118.5Z" style="opacity:.998"/><path fill="#54381b" d="M343.5 44.5c11.576 14.822 19.743 31.489 24.5 50a239.17 239.17 0 0 1 5.5 25 377.725 377.725 0 0 1-32 19c-5.694-2.133-11.361-2.466-17-1l-8-4c-10.015-8.339-17.349-18.672-22-31-23.975 19.493-50.308 35.16-79 47a4.934 4.934 0 0 1-3-.5c43.59-33.713 87.09-67.546 130.5-101.5a4.934 4.934 0 0 0 .5-3Z" style="opacity:.997"/><path fill="#fcc4a8" d="M316.5 133.5a9086.23 9086.23 0 0 1-120 106c-5.644-8.29-9.977-17.29-13-27-.758-6.257-.758-12.591 0-19a407.352 407.352 0 0 0 3.5-31c.48-1.633 1.313-2.966 2.5-4 9.029-2.231 17.696-5.231 26-9 28.692-11.84 55.025-27.507 79-47 4.651 12.328 11.985 22.661 22 31Z" style="opacity:1"/><path fill="#f9bfa6" d="m316.5 133.5 8 4a138.444 138.444 0 0 1 2 30v14a4059.887 4059.887 0 0 0-99 87.5 4.934 4.934 0 0 1-3 .5 2.428 2.428 0 0 0-2 .5 3282.459 3282.459 0 0 1 48 48.5l-2 4c-4.305 7.938-8.638 15.938-13 24-4.362-8.062-8.695-16.062-13-24a294.54 294.54 0 0 0-14-19 25447.785 25447.785 0 0 0-23-34 54.483 54.483 0 0 1 4-11 99.593 99.593 0 0 1-13-19 9086.23 9086.23 0 0 0 120-106Z" style="opacity:1"/><path fill="#593e22" d="M373.5 119.5a507 507 0 0 1 7 66h-32a104.272 104.272 0 0 0 6.5-17 67.189 67.189 0 0 0-.5-18 14.828 14.828 0 0 1-6.5-2 696.855 696.855 0 0 0-3.5 25h-17c.295-2.235-.039-4.235-1-6a138.444 138.444 0 0 0-2-30c5.639-1.466 11.306-1.133 17 1a377.725 377.725 0 0 0 32-19Z" style="opacity:.99"/><path fill="#e8ab93" d="M165.5 165.5a345.222 345.222 0 0 0 3 26v1c-4.32-4.624-7.654-9.957-10-16a27.43 27.43 0 0 1-2-11h9Z" style="opacity:1"/><path fill="#e8ad95" d="M348.5 185.5a35.916 35.916 0 0 0-6 8c-.597-.235-.93-.735-1-1.5a202.296 202.296 0 0 0 3-18.5 696.855 696.855 0 0 1 3.5-25 14.828 14.828 0 0 0 6.5 2 67.189 67.189 0 0 1 .5 18 104.272 104.272 0 0 1-6.5 17Z" style="opacity:1"/><path fill="#6b4b34" d="M327.5 173.5h17a202.296 202.296 0 0 1-3 18.5c.07.765.403 1.265 1 1.5a184.69 184.69 0 0 1-6 18 94.977 94.977 0 0 0-8-2 324.95 324.95 0 0 1-1-36Z" style="opacity:1"/><path fill="#55391c" d="M348.5 185.5h32a1285.706 1285.706 0 0 1 1 122 346.263 346.263 0 0 1-20-6 185.25 185.25 0 0 0-25-9c-.377-3.008-1.711-5.508-4-7.5a650.136 650.136 0 0 1-25-17.5c-.788 1.27-1.788 2.27-3 3a85.161 85.161 0 0 0-2-14c9.962-11.582 17.629-24.582 23-39 .663 2.141.997 4.475 1 7a498.758 498.758 0 0 0-1.5 27 906.022 906.022 0 0 0 11.5-40 184.69 184.69 0 0 0 6-18 35.916 35.916 0 0 1 6-8Z" style="opacity:.994"/><path fill="#624128" d="M158.5 176.5c2.346 6.043 5.68 11.376 10 16a126.54 126.54 0 0 0 2 9 452.669 452.669 0 0 1-42-1 139.2 139.2 0 0 0 1-23 218.833 218.833 0 0 1 29-1Z" style="opacity:.997"/><path fill="#f3b7a1" d="M326.5 181.5c.312 12.08-.021 24.08-1 36-5.371 14.418-13.038 27.418-23 39-19.938 22.151-43.938 27.984-72 17.5-2.247-1.277-4.247-2.777-6-4.5a4.934 4.934 0 0 0 3-.5 4059.887 4059.887 0 0 1 99-87.5Z" style="opacity:1"/><path fill="#765440" d="M168.5 191.5c4.693 1.86 9.693 2.526 15 2-.758 6.409-.758 12.743 0 19-1.661 14.459-2.494 29.126-2.5 44a581.455 581.455 0 0 0-3.5-15 1252.16 1252.16 0 0 0-7-40 126.54 126.54 0 0 1-2-9v-1Z" style="opacity:1"/><path fill="#815e4b" d="M326.5 167.5c.961 1.765 1.295 3.765 1 6a324.95 324.95 0 0 0 1 36 94.977 94.977 0 0 1 8 2 906.022 906.022 0 0 1-11.5 40c.254-8.978.754-17.978 1.5-27-.003-2.525-.337-4.859-1-7a334.103 334.103 0 0 0 1-36v-14Z" style="opacity:1"/><path fill="#5b3d22" d="M128.5 200.5a452.669 452.669 0 0 0 42 1 1252.16 1252.16 0 0 1 7 40h-49v-41Z" style="opacity:.987"/><path fill="#56391d" d="M183.5 212.5c3.023 9.71 7.356 18.71 13 27a99.593 99.593 0 0 0 13 19 54.483 54.483 0 0 0-4 11c-2.044-1.278-4.044-1.112-6 .5L176 287.5a27.603 27.603 0 0 1-1.5 5 234.563 234.563 0 0 0-23 8 387.555 387.555 0 0 1-21 7c-.602-22.002-1.269-44.002-2-66h49a581.455 581.455 0 0 1 3.5 15c.006-14.874.839-29.541 2.5-44Z" style="opacity:.998"/><path fill="#eba38d" d="M302.5 256.5a85.161 85.161 0 0 1 2 14l-22 33-12 15a3282.459 3282.459 0 0 0-48-48.5 2.428 2.428 0 0 1 2-.5c1.753 1.723 3.753 3.223 6 4.5 28.062 10.484 52.062 4.651 72-17.5Z" style="opacity:1"/><path fill="#fedcfd" d="M205.5 269.5a25447.785 25447.785 0 0 1 23 34c-18.364.653-36.364-.013-54-2v-9a27.603 27.603 0 0 0 1.5-5l23.5-17.5c1.956-1.612 3.956-1.778 6-.5Z" style="opacity:1"/><path fill="#fddbfd" d="M336.5 292.5v11h-54l22-33c1.212-.73 2.212-1.73 3-3a650.136 650.136 0 0 0 25 17.5c2.289 1.992 3.623 4.492 4 7.5Z" style="opacity:1"/><path fill="#1c669b" d="M151.5 300.5a2862.258 2862.258 0 0 0-25 67c-1.458 2.89-2.291 5.89-2.5 9a1569.11 1569.11 0 0 1 34 41c.483.948.649 1.948.5 3a17542.182 17542.182 0 0 1-25 17.5c-1.017 1.049-1.184 2.216-.5 3.5a4478.9 4478.9 0 0 1 57.5 62h-79v-19h-68c-1.395-38.298 4.772-75.298 18.5-111 10.034-24.027 25.868-43.194 47.5-57.5a116.487 116.487 0 0 1 21-8.5 387.555 387.555 0 0 0 21-7ZM361.5 301.5a346.263 346.263 0 0 0 20 6c21.882 7.042 39.382 20.042 52.5 39 14.972 23.241 24.639 48.574 29 76a293.188 293.188 0 0 1 4.5 62h-68v19h-80a5157.883 5157.883 0 0 0 58.5-62c.711-1.867.211-3.367-1.5-4.5a620.424 620.424 0 0 1-24-16.5 4.934 4.934 0 0 1 .5-3 1569.11 1569.11 0 0 1 34-41c-.301-3.079-1.134-6.079-2.5-9a1903.32 1903.32 0 0 0-24-65c.124-.607.457-.94 1-1Z" style="opacity:1"/><path fill="#fed7fe" d="M174.5 301.5c17.636 1.987 35.636 2.653 54 2a294.54 294.54 0 0 1 14 19c-3.687 5.012-8.354 9.012-14 12a813 813 0 0 0-57-1 445.996 445.996 0 0 1 3-32Z" style="opacity:1"/><path fill="#fed6fe" d="M282.5 303.5h54a250.77 250.77 0 0 1 3 30 813 813 0 0 0-57 1c-5.646-2.988-10.313-6.988-14-12l2-4 12-15Z" style="opacity:1"/><path fill="#125a87" d="M174.5 292.5v9a445.996 445.996 0 0 0-3 32 583.952 583.952 0 0 0-3 34h-42a2862.258 2862.258 0 0 1 25-67 234.563 234.563 0 0 1 23-8Z" style="opacity:1"/><path fill="#fedbfe" d="M242.5 322.5c4.305 7.938 8.638 15.938 13 24 4.362-8.062 8.695-16.062 13-24 3.687 5.012 8.354 9.012 14 12a250.264 250.264 0 0 1 17 13 990.872 990.872 0 0 1-89 0l18-13c5.646-2.988 10.313-6.988 14-12Z" style="opacity:1"/><path fill="#125a87" d="M336.5 292.5a185.25 185.25 0 0 1 25 9c-.543.06-.876.393-1 1a1903.32 1903.32 0 0 1 24 65h-42l-3-34a250.77 250.77 0 0 0-3-30v-11Z" style="opacity:1"/><path fill="#fdd0fe" d="M171.5 333.5a813 813 0 0 1 57 1l-18 13a5829.775 5829.775 0 0 0-18 14 621.439 621.439 0 0 0-24.5 18 71.59 71.59 0 0 1 .5-12 583.952 583.952 0 0 1 3-34ZM282.5 334.5a813 813 0 0 1 57-1l3 34a71.59 71.59 0 0 1 .5 12 347.628 347.628 0 0 0-24.5-18 304.433 304.433 0 0 0-19-14 250.264 250.264 0 0 0-17-13Z" style="opacity:1"/><path fill="#fed7fe" d="M210.5 347.5a990.872 990.872 0 0 0 89 0 304.433 304.433 0 0 1 19 14l-8 48h-110l-8-48a5829.775 5829.775 0 0 1 18-14Z" style="opacity:1"/><path fill="#145780" d="m192.5 361.5 8 48a41.73 41.73 0 0 1 1 9c-14.577-.623-28.911.044-43 2a4.934 4.934 0 0 0-.5-3 1569.11 1569.11 0 0 0-34-41c.209-3.11 1.042-6.11 2.5-9h42a71.59 71.59 0 0 0-.5 12 621.439 621.439 0 0 1 24.5-18ZM318.5 361.5a347.628 347.628 0 0 1 24.5 18 71.59 71.59 0 0 0-.5-12h42c1.366 2.921 2.199 5.921 2.5 9a1569.11 1569.11 0 0 0-34 41 4.934 4.934 0 0 0-.5 3c-14.089-1.956-28.423-2.623-43-2a41.73 41.73 0 0 1 1-9l8-48Z" style="opacity:1"/><path fill="#fed1fe" d="M200.5 409.5h110a41.73 41.73 0 0 0-1 9 2103.488 2103.488 0 0 0-9 52h-90a2103.488 2103.488 0 0 0-9-52 41.73 41.73 0 0 0-1-9Z" style="opacity:1"/><path fill="#165378" d="M201.5 418.5a2103.488 2103.488 0 0 1 9 52 1693.654 1693.654 0 0 1 5 33h-25a4478.9 4478.9 0 0 0-57.5-62c-.684-1.284-.517-2.451.5-3.5 8.362-5.843 16.696-11.676 25-17.5 14.089-1.956 28.423-2.623 43-2ZM309.5 418.5c14.577-.623 28.911.044 43 2a620.424 620.424 0 0 0 24 16.5c1.711 1.133 2.211 2.633 1.5 4.5a5157.883 5157.883 0 0 1-58.5 62h-24a655.623 655.623 0 0 1 5-33 2103.488 2103.488 0 0 1 9-52Z" style="opacity:1"/><path fill="#14537a" d="M110.5 396.5a1893.431 1893.431 0 0 1 1 87c-16.004.167-32.004 0-48-.5a3627.376 3627.376 0 0 0 47-86.5ZM399.5 396.5a10475.039 10475.039 0 0 1 48 86.5c-15.997.5-31.997.667-48 .5v-87Z" style="opacity:1"/><path fill="#feccfe" d="M210.5 470.5h90a655.623 655.623 0 0 0-5 33h-80a1693.654 1693.654 0 0 0-5-33Z" style="opacity:1"/></svg>