<svg xmlns="http://www.w3.org/2000/svg" width="512" height="512" style="shape-rendering:geometricPrecision;text-rendering:geometricPrecision;image-rendering:optimizeQuality;fill-rule:evenodd;clip-rule:evenodd"><path fill="#020101" d="M238.5-.5h34c66.233 11.395 107.733 49.728 124.5 115 .83 4.643 1.497 9.31 2 14 .667 32 .667 64 0 96-4.192 53.021-23.692 99.354-58.5 139a1897.976 1897.976 0 0 0 73 26.5c18.168 8.164 29.335 21.997 33.5 41.5.667 25.333.667 50.667 0 76-.69 1.85-1.856 3.184-3.5 4h-8c-2.078-1.89-3.411-4.224-4-7a818.961 818.961 0 0 0 .5-70c-.115-2.508-1.115-4.508-3-6a138847.834 138847.834 0 0 0-37.5 31.5c-3.287 3.293-5.787 7.127-7.5 11.5a544.417 544.417 0 0 0-.5 33c-.071 3.152-1.405 5.486-4 7h-8c-2.104-1.872-3.437-4.205-4-7a604.989 604.989 0 0 0 1.5-35c2.598-8.364 7.098-15.531 13.5-21.5a1899.563 1899.563 0 0 0 39-33.5c-4.008-4.83-9.008-8.33-15-10.5L328 376.5a1695.352 1695.352 0 0 0-48 27 5098.15 5098.15 0 0 0-.5 101c-.498 2.826-1.831 5.16-4 7h-8c-2.104-1.872-3.437-4.205-4-7a5701.237 5701.237 0 0 0 1-151c1.416-6.831 4.416-12.831 9-18a174.135 174.135 0 0 1 22-12c1.333-4 1.333-8 0-12-20.509 7.039-41.509 8.872-63 5.5a83.875 83.875 0 0 1-15-4.5c-.709-.904-1.709-1.237-3-1-.317 4.202.017 8.202 1 12a174.9 174.9 0 0 1 22 12c4.584 5.169 7.584 11.169 9 18a5701.237 5701.237 0 0 0 1 151c-.563 2.795-1.896 5.128-4 7h-8c-2.169-1.84-3.502-4.174-4-7a1669.852 1669.852 0 0 0 .5-100l-25-15a438.628 438.628 0 0 1-30 55c-10.356 16.734-16.522 34.901-18.5 54.5.006 2.033.339 3.866 1 5.5-.563 2.795-1.896 5.128-4 7h-8c-2.595-1.514-3.929-3.848-4-7 .024-16.761 3.524-32.761 10.5-48a687.056 687.056 0 0 1 30-53c7.932-14.726 12.932-30.393 15-47a468.796 468.796 0 0 0-.5-53c-29.557-18.742-47.391-45.408-53.5-80-4.08-.8-8.247-1.3-12.5-1.5a14.444 14.444 0 0 1-5.5-2.5c-.832 95.168-.666 190.168.5 285-.563 2.795-1.896 5.128-4 7h-8c-2.595-1.514-3.929-3.848-4-7a676.55 676.55 0 0 0-1-52 1621.733 1621.733 0 0 0-28.5-24c-1.885 1.492-2.885 3.492-3 6a819.043 819.043 0 0 0 .5 70c-.59 2.776-1.922 5.11-4 7h-8c-1.644-.816-2.81-2.15-3.5-4a1444.178 1444.178 0 0 1 0-76c6.127-25.293 21.96-40.626 47.5-46-.167-86.001 0-172.001.5-258 7.934-54.075 36.434-92.909 85.5-116.5 13.306-5.573 26.973-9.406 41-11.5Z" style="opacity:.986"/><path fill="#6a4e59" d="M241.5 14.5c18.686-.996 37.019 1.004 55 6-16.779 40.71-43.779 72.877-81 96.5-20.696 12.091-43.029 18.424-67 19-6.242 4.219-6.575 8.885-1 14 31.106.409 59.439-8.257 85-26 25.027-18.219 45.861-40.385 62.5-66.5a645.434 645.434 0 0 1 16.5-30 72.374 72.374 0 0 1 14 8c-19.328 45.16-49.661 80.994-91 107.5-30.784 18.363-64.117 26.696-100 25a19.06 19.06 0 0 0-7 2.5c-7.321-56.947 12.012-102.114 58-135.5 17.29-10.927 35.957-17.76 56-20.5Z" style="opacity:1"/><path fill="#85636d" d="M320.5 108.5c.131-.876-.202-1.543-1-2-5.751-2.442-11.751-3.442-18-3 14.662-17.963 26.828-37.63 36.5-59 26.602 22.863 41.935 51.863 46 87a400.05 400.05 0 0 1 0 40c-6.748-3.276-13.915-4.776-21.5-4.5-4.833-2.167-8.333-5.667-10.5-10.5 2.272-20.061-3.894-36.894-18.5-50.5-5.306-3.754-9.64-2.92-13 2.5Z" style="opacity:1"/><path fill="#f2a871" d="M301.5 103.5c6.249-.442 12.249.558 18 3 .798.457 1.131 1.124 1 2v4c-.768-.763-1.268-1.763-1.5-3-27.393 34.934-61.893 59.934-103.5 75 .306 2.885-.027 5.552-1 8a84.902 84.902 0 0 0-.5-13c-4.333-5.333-8.667-5.333-13 0-1.354 3.863-1.854 7.863-1.5 12-3.653 1.489-6.153 4.156-7.5 8-1.981 43.888 16.519 75.721 55.5 95.5a121.28 121.28 0 0 0 23 7.5c-47.261 5.117-81.761-13.55-103.5-56a155.376 155.376 0 0 1-10-44c-6.057-3.642-10.557-2.309-13.5 4-11.622 1.882-17.122-3.118-16.5-15 2.045-4.103 5.212-6.936 9.5-8.5 52.796.962 98.796-16.038 138-51a360.014 360.014 0 0 0 27-28.5Z" style="opacity:1"/><path fill="#f6b87d" d="M320.5 112.5a10.134 10.134 0 0 0 1.5 4c6.018 4.364 10.351 10.031 13 17a194.104 194.104 0 0 1 2 25c5.935 17.231 18.101 25.398 36.5 24.5 10.397 3.289 13.231 9.789 8.5 19.5-6.94 7.158-13.106 6.658-18.5-1.5-3.493-1.004-6.659-.504-9.5 1.5-1.349 38.218-17.849 67.718-49.5 88.5-10.59 6.141-21.923 9.974-34 11.5a121.28 121.28 0 0 1-23-7.5c-38.981-19.779-57.481-51.612-55.5-95.5 1.347-3.844 3.847-6.511 7.5-8 2.006 6.997 6.339 8.83 13 5.5a9.175 9.175 0 0 0 2-4.5c.973-2.448 1.306-5.115 1-8 41.607-15.066 76.107-40.066 103.5-75 .232 1.237.732 2.237 1.5 3Z" style="opacity:1"/><path fill="#090604" d="M293.5 151.5c6.675-.166 13.342 0 20 .5 4.724 2.435 6.224 6.269 4.5 11.5a6.978 6.978 0 0 1-3.5 2.5 121.19 121.19 0 0 1-22 0c-3.712-2.513-4.878-6.013-3.5-10.5 1.397-1.57 2.897-2.904 4.5-4Z" style="opacity:1"/><path fill="#0d0805" d="M214.5 192.5a9.175 9.175 0 0 1-2 4.5c-6.661 3.33-10.994 1.497-13-5.5-.354-4.137.146-8.137 1.5-12 4.333-5.333 8.667-5.333 13 0 .499 4.321.666 8.654.5 13Z" style="opacity:1"/><path fill="#0c0906" d="M301.5 175.5c4.523-.155 7.689 1.845 9.5 6 .667 4 .667 8 0 12-3.013 5.035-7.18 6.202-12.5 3.5a9.454 9.454 0 0 1-1.5-2.5c-.667-5-.667-10 0-15 1.397-1.57 2.897-2.904 4.5-4Z" style="opacity:1"/><path fill="#60434e" d="M143.5 504.5h-16a13547.481 13547.481 0 0 1-.5-285 14.444 14.444 0 0 0 5.5 2.5c4.253.2 8.42.7 12.5 1.5 6.109 34.592 23.943 61.258 53.5 80a468.796 468.796 0 0 1 .5 53c-2.068 16.607-7.068 32.274-15 47a687.056 687.056 0 0 0-30 53c-6.976 15.239-10.476 31.239-10.5 48Z" style="opacity:.999"/><path fill="#85626d" d="M381.5 220.5c1.193.47 1.86 1.47 2 3-3.562 47.4-20.562 89.067-51 125a165.466 165.466 0 0 0-5.5-25c-3.889-5.195-9.056-7.529-15.5-7a43.117 43.117 0 0 1 1-13c29.536-18.712 47.37-45.379 53.5-80a88.039 88.039 0 0 0 15.5-3Z" style="opacity:1"/><path fill="#060403" d="M227.5 232.5a32.462 32.462 0 0 1 8 .5c5.462 5.141 11.962 7.308 19.5 6.5 7.82.837 14.653-1.329 20.5-6.5 8.833-1.833 12.333 1.667 10.5 10.5-4.502 4.837-10.002 8.003-16.5 9.5-13.194 3.044-25.86 1.71-38-4-7.608-4.086-8.941-9.586-4-16.5Z" style="opacity:1"/><path fill="#7c543c" d="M217.5 312.5c-1.914 3.184-2.58 6.851-2 11-.983-3.798-1.317-7.798-1-12 1.291-.237 2.291.096 3 1Z" style="opacity:1"/><path fill="#d99369" d="M273.5 335.5c-12.014-.05-24.014-.05-36 0a174.9 174.9 0 0 0-22-12c-.58-4.149.086-7.816 2-11a83.875 83.875 0 0 0 15 4.5c21.491 3.372 42.491 1.539 63-5.5 1.333 4 1.333 8 0 12a174.135 174.135 0 0 0-22 12Z" style="opacity:1"/><path fill="#f55c76" d="M311.5 331.5h3a167.207 167.207 0 0 1 3.5 33 1380.48 1380.48 0 0 1-38.5 22 160.723 160.723 0 0 1-.5-31c1.505-4.855 4.338-8.688 8.5-11.5a405.338 405.338 0 0 0 24-12.5Z" style="opacity:1"/><path fill="#f3aa72" d="M273.5 335.5c-4.584 5.169-7.584 11.169-9 18-.667 16.505-1.333 33.172-2 50-4.864 1.312-9.697 1.312-14.5 0a1237.634 1237.634 0 0 0-1.5-50c-1.416-6.831-4.416-12.831-9-18 11.986-.05 23.986-.05 36 0Z" style="opacity:1"/><path fill="#f05a74" d="M214.5 340.5c15.277 4.353 21.277 14.52 18 30.5l-1 15.5a557.09 557.09 0 0 1-19.5-11 291.962 291.962 0 0 0 2.5-35Z" style="opacity:1"/><path fill="#fe7d8e" d="M367.5 504.5h-88c-.167-33.668 0-67.335.5-101a1695.352 1695.352 0 0 1 48-27l78.5 27.5c5.992 2.17 10.992 5.67 15 10.5a1899.563 1899.563 0 0 1-39 33.5c-6.402 5.969-10.902 13.136-13.5 21.5a604.989 604.989 0 0 1-1.5 35Z" style="opacity:.997"/><path fill="#fb7c8d" d="M231.5 504.5h-72c-.661-1.634-.994-3.467-1-5.5 1.978-19.599 8.144-37.766 18.5-54.5a438.628 438.628 0 0 0 30-55l25 15c.831 33.503.664 66.836-.5 100Z" style="opacity:.994"/><path fill="#f65c77" d="M109.5 401.5c1.328 4.956 1.995 10.289 2 16l-.5 16a566.871 566.871 0 0 0-21.5-19c5.705-5.85 12.372-10.184 20-13Z" style="opacity:1"/><path fill="#5d414a" d="M246.5 353.5a1237.634 1237.634 0 0 1 1.5 50c4.803 1.312 9.636 1.312 14.5 0 .667-16.828 1.333-33.495 2-50a5701.237 5701.237 0 0 1-1 151h-16a5701.237 5701.237 0 0 1-1-151Z" style="opacity:.995"/><path fill="#f95e79" d="M111.5 504.5h-32a819.043 819.043 0 0 1-.5-70c.115-2.508 1.115-4.508 3-6a1621.733 1621.733 0 0 1 28.5 24 676.55 676.55 0 0 1 1 52Z" style="opacity:.99"/><path fill="#fd7d8e" d="M431.5 504.5h-48c-.167-11.005 0-22.005.5-33 1.713-4.373 4.213-8.207 7.5-11.5 12.511-10.513 25.011-21.013 37.5-31.5 1.885 1.492 2.885 3.492 3 6 .83 23.504.663 46.837-.5 70Z" style="opacity:.992"/></svg>