<svg xmlns="http://www.w3.org/2000/svg" width="512" height="512" style="shape-rendering:geometricPrecision;text-rendering:geometricPrecision;image-rendering:optimizeQuality;fill-rule:evenodd;clip-rule:evenodd"><path fill="#fe503e" d="M349.5 489.5c-4.394-5.315-6.061-11.482-5-18.5a1584.875 1584.875 0 0 1 4-39.5c-.168-9.337-2.668-18.004-7.5-26a133.058 133.058 0 0 0-16.5-17c2.36-5.268.694-7.934-5-8-1.574-.437-2.741-1.437-3.5-3-1.689-4.06-3.856-7.727-6.5-11-5.954-18.024-4.954-35.691 3-53 11.13-19.878 19.63-40.878 25.5-63 5.659-26.356 2.826-51.69-8.5-76-14.419-2.768-28.752-2.101-43 2-5.306-2.672-5.306-5.505 0-8.5 12.497-3.47 25.164-4.304 38-2.5-9.955-24.408-24.288-45.908-43-64.5-20.741-16.677-44.075-21.344-70-14-10.252 4.21-18.752 10.71-25.5 19.5-16.505 23.346-25.338 49.346-26.5 78-.666 4.184-1.333 8.518-2 13-12.894-2.821-22.894 1.179-30 12-3.237-40.839 2.263-80.506 16.5-119 8.992-22.32 24.158-38.82 45.5-49.5a323.45 323.45 0 0 1 17-5c16.953-20.432 38.62-28.432 65-24 41.855 8.55 73.688 31.05 95.5 67.5 25.309 43.569 36.976 90.569 35 141a109.302 109.302 0 0 0 4 14 526.603 526.603 0 0 1 17 40c4.155 13.906 4.488 27.906 1 42a332.847 332.847 0 0 1-13 32c-3.294 11.108-4.294 22.441-3 34a360.799 360.799 0 0 1 13 46c4.531 30.434-7.302 51.934-35.5 64.5-9.897 4.104-19.897 4.437-30 1-2.247-1.277-4.247-2.777-6-4.5Z" style="opacity:.995"/><path fill="#fbc9ae" d="M312.5 313.5a274.21 274.21 0 0 1-28 14c-9.721 4.095-19.888 6.428-30.5 7a99.523 99.523 0 0 1-24.5-5c-34.991-12.59-55.991-37.257-63-74a312.876 312.876 0 0 1-5-28l-1-10a436.547 436.547 0 0 1-1-33c1.162-28.654 9.995-54.654 26.5-78 6.748-8.79 15.248-15.29 25.5-19.5 25.925-7.344 49.259-2.677 70 14 18.712 18.592 33.045 40.092 43 64.5-12.836-1.804-25.503-.97-38 2.5-5.306 2.995-5.306 5.828 0 8.5 14.248-4.101 28.581-4.768 43-2 11.326 24.31 14.159 49.644 8.5 76-5.87 22.122-14.37 43.122-25.5 63Z" style="opacity:1"/><path fill="#ff5642" d="M189.5 164.5a123.74 123.74 0 0 1 38 4.5c3.171 4.143 2.171 6.643-3 7.5-17.523-5.238-35.023-5.238-52.5 0-1.257-.35-1.591-1.017-1-2 4.936-5.694 11.102-9.027 18.5-10Z" style="opacity:1"/><path fill="#4f3d58" d="M212.5 194.5c-4.077-2.024-8.41-3.024-13-3-6.086-.849-11.586.485-16.5 4l-1.5-1c2.147-5.58 6.147-9.08 12-10.5 10.613-2.258 20.113-.091 28.5 6.5.743 1.941.576 3.774-.5 5.5-3.181.597-6.181.097-9-1.5Z" style="opacity:1"/><path fill="#503d58" d="M311.5 191.5c-4.424-.228-8.424.772-12 3-2.819 1.597-5.819 2.097-9 1.5-1.074-.739-1.741-1.739-2-3 3.053-4.705 7.387-7.705 13-9 8.029-1.356 15.695-.356 23 3 8.813 8.439 7.813 10.106-3 5a50.464 50.464 0 0 0-10-.5Z" style="opacity:1"/><path fill="#479ea4" d="M199.5 191.5c4.59-.024 8.923.976 13 3a32.588 32.588 0 0 1 .5 13c-6.201 6.993-11.868 6.659-17-1-1.441-5.728-.274-10.728 3.5-15Z" style="opacity:1"/><path fill="#499ea4" d="M311.5 191.5c5.108 4.694 6.275 10.361 3.5 17-4.719 4.866-9.719 5.199-15 1-1.776-4.965-1.942-9.965-.5-15 3.576-2.228 7.576-3.228 12-3Z" style="opacity:1"/><path fill="#ffb295" d="M159.5 184.5a436.547 436.547 0 0 0 1 33c-5.972-2.908-12.306-3.741-19-2.5-2.173 1.865-2.507 4.031-1 6.5a74.086 74.086 0 0 0 12 1.5c2.868.861 5.202 2.528 7 5 .937.692 1.603.525 2-.5a312.876 312.876 0 0 0 5 28c-19.333 2.669-32.667-4.998-40-23-1.492-7.755-1.159-15.421 1-23 7.106-10.821 17.106-14.821 30-12 .667-4.482 1.334-8.816 2-13Z" style="opacity:.995"/><path fill="#ff7566" d="m160.5 217.5 1 10c-.397 1.025-1.063 1.192-2 .5-1.798-2.472-4.132-4.139-7-5a74.086 74.086 0 0 1-12-1.5c-1.507-2.469-1.173-4.635 1-6.5 6.694-1.241 13.028-.408 19 2.5Z" style="opacity:1"/><path fill="#ff7767" d="M246.5 231.5a29.312 29.312 0 0 1 9 3c2.865-1.439 5.865-2.273 9-2.5 1.918 1.77 2.418 3.937 1.5 6.5-5.319 4.145-11.152 4.978-17.5 2.5-4.258-2.521-4.925-5.688-2-9.5Z" style="opacity:1"/><path fill="#ff503e" d="M126.5 232.5c7.333 18.002 20.667 25.669 40 23 7.009 36.743 28.009 61.41 63 74a54.968 54.968 0 0 1-1 12c-2.128 11.421-8.461 19.587-19 24.5a151.196 151.196 0 0 1-16 5.5c-4.316-3.257-6.982-2.257-8 3a212.466 212.466 0 0 0-24 14 356.937 356.937 0 0 0-26 18c-.932-5.293-2.765-10.293-5.5-15a210.483 210.483 0 0 1-23-37c-4.749-14.384-5.749-29.05-3-44a837.77 837.77 0 0 1 18-52 118.53 118.53 0 0 0 4.5-26Z" style="opacity:.995"/><path fill="#ff7666" d="M236.5 260.5a8.43 8.43 0 0 1 4 .5c4.167 3.42 9 4.92 14.5 4.5 6.575.222 12.575-1.445 18-5 3.452 1.573 4.286 4.073 2.5 7.5-11.952 6.533-24.285 7.2-37 2-4.271-2.567-4.938-5.734-2-9.5Z" style="opacity:1"/><path fill="#d83433" d="M312.5 313.5c-7.954 17.309-8.954 34.976-3 53-12.933-4.601-20.933-13.601-24-27l-1-12a274.21 274.21 0 0 0 28-14Z" style="opacity:1"/><path fill="#fe7465" d="m284.5 327.5 1 12c-18.744 8.421-37.744 9.087-57 2a54.968 54.968 0 0 0 1-12 99.523 99.523 0 0 0 24.5 5c10.612-.572 20.779-2.905 30.5-7Z" style="opacity:1"/><path fill="#ffb497" d="M285.5 339.5c3.067 13.399 11.067 22.399 24 27 2.644 3.273 4.811 6.94 6.5 11 .759 1.563 1.926 2.563 3.5 3-4.291 12.463-12.625 21.296-25 26.5-23.106 9.025-46.44 9.691-70 2-7.277-2.637-13.944-6.304-20-11-7.858-7.068-11.524-15.901-11-26.5a151.196 151.196 0 0 0 16-5.5c10.539-4.913 16.872-13.079 19-24.5 19.256 7.087 38.256 6.421 57-2Z" style="opacity:1"/><path fill="#fffcfb" d="M193.5 371.5c-.524 10.599 3.142 19.432 11 26.5 6.056 4.696 12.723 8.363 20 11 23.56 7.691 46.894 7.025 70-2 12.375-5.204 20.709-14.037 25-26.5 5.694.066 7.36 2.732 5 8-5.19 13.019-14.523 21.852-28 26.5-25.221 9.486-50.554 9.819-76 1-14.552-4.847-25.385-14.014-32.5-27.5a35.455 35.455 0 0 1-2.5-14c1.018-5.257 3.684-6.257 8-3Z" style="opacity:1"/><path fill="#f9dfb3" d="M185.5 374.5c-.113 4.83.72 9.497 2.5 14 7.115 13.486 17.948 22.653 32.5 27.5 25.446 8.819 50.779 8.486 76-1 13.477-4.648 22.81-13.481 28-26.5a133.058 133.058 0 0 1 16.5 17c4.832 7.996 7.332 16.663 7.5 26a1584.875 1584.875 0 0 0-4 39.5c-1.061 7.018.606 13.185 5 18.5-61.238 14.402-122.571 14.568-184 .5a154.455 154.455 0 0 1-21-6.5 525.524 525.524 0 0 1 17-95 212.466 212.466 0 0 1 24-14Z" style="opacity:1"/><path fill="#feb497" d="M161.5 388.5a525.524 525.524 0 0 0-17 95c-14.451-3.642-27.285-10.308-38.5-20-5.029-9.33-4.362-18.33 2-27a167.793 167.793 0 0 1 27.5-30 356.937 356.937 0 0 1 26-18Z" style="opacity:.987"/><path fill="#fefefd" d="M251.5 435.5c9.498-1.327 13.998 2.673 13.5 12-2.389 6.277-6.889 8.443-13.5 6.5-6.63-6.165-6.63-12.332 0-18.5Z" style="opacity:1"/></svg>