<svg xmlns="http://www.w3.org/2000/svg" width="512" height="512" style="shape-rendering:geometricPrecision;text-rendering:geometricPrecision;image-rendering:optimizeQuality;fill-rule:evenodd;clip-rule:evenodd"><path fill="#6d3175" d="M271.5-.5h36c47.324 6.474 79.491 32.14 96.5 77 13.557 37.019 17.224 75.019 11 114a1587.044 1587.044 0 0 1-24 101c-5.392 22.283-5.726 44.616-1 67 4.86 16.236 9.86 32.236 15 48-52.769-33.193-77.936-81.193-75.5-144 4.148-9.634 8.315-19.301 12.5-29a815.537 815.537 0 0 0 6.5-22c7.393 7.882 14.893 7.882 22.5 0 10.487-15.492 12.154-31.825 5-49-1.715-3.217-4.215-5.55-7.5-7 9.418-29.086 9.251-58.086-.5-87-11.713-25.042-30.546-42.542-56.5-52.5-19.58-7.916-39.914-11.416-61-10.5a101.622 101.622 0 0 1 21-6Z" style="opacity:.992"/><path fill="#793784" d="M250.5 5.5c21.086-.916 41.42 2.584 61 10.5 25.954 9.958 44.787 27.458 56.5 52.5 9.751 28.914 9.918 57.914.5 87a16.332 16.332 0 0 1-2 4c-5.453 2.565-8.12 6.898-8 13a206.05 206.05 0 0 1-5 28c-.283.789-.783 1.456-1.5 2-.191-2.208-.691-4.208-1.5-6a459.435 459.435 0 0 0-16.5-87c-15.133-35.005-41.966-51.338-80.5-49-37.105-.052-62.938 16.948-77.5 51a174.575 174.575 0 0 0-5 14 4084.406 4084.406 0 0 1-12.5 75c-.768.763-1.268 1.763-1.5 3-.399-.228-.565-.562-.5-1a1193.93 1193.93 0 0 1-5-32c-1.647-5.962-4.314-11.295-8-16-4.942-27.29-3.776-54.29 3.5-81 13.163-35.493 38.33-56.993 75.5-64.5a134.118 134.118 0 0 1 28-3.5Z" style="opacity:.996"/><path fill="#f8c4b7" d="M350.5 196.5a51.522 51.522 0 0 1-2 15 815.537 815.537 0 0 1-6.5 22c-4.185 9.699-8.352 19.366-12.5 29-6.338 9.519-13.671 18.352-22 26.5a64.587 64.587 0 0 1-16 9.5c-16.771 6.759-34.104 8.926-52 6.5a356.83 356.83 0 0 1-20-5.5c-13.976-5.914-25.142-15.247-33.5-28-11.762-17.526-20.262-36.526-25.5-57l-2-14c4.399-24.96 8.566-49.96 12.5-75a174.575 174.575 0 0 1 5-14c14.562-34.052 40.395-51.052 77.5-51 38.534-2.338 65.367 13.995 80.5 49a459.435 459.435 0 0 1 16.5 87Z" style="opacity:.999"/><path fill="#7b3a85" d="M209.5 140.5c8.185-.603 16.185.231 24 2.5 3.713 1.691 4.879 4.525 3.5 8.5-.674 1.078-1.674 1.745-3 2-14.93-4.787-29.43-3.787-43.5 3-1.114-1.223-1.281-2.556-.5-4 4.895-6.693 11.395-10.693 19.5-12Z" style="opacity:1"/><path fill="#7b3984" d="M280.5 140.5c9.922-.747 19.589.42 29 3.5 5.197 2.363 8.863 6.197 11 11.5l-1.5 1c-14.801-6.545-29.968-7.712-45.5-3.5-1.11-2.737-1.277-5.571-.5-8.5a83.484 83.484 0 0 1 7.5-4Z" style="opacity:1"/><path fill="#f4a897" d="M143.5 154.5c3.686 4.705 6.353 10.038 8 16a20.987 20.987 0 0 0-4.5-3c-1.732.234-2.566 1.234-2.5 3a47.486 47.486 0 0 1 5 11 32.462 32.462 0 0 0-8 .5c-.88 1.356-1.214 2.856-1 4.5h11a89.41 89.41 0 0 1-1 15c-5.91.809-8.077 4.142-6.5 10 3.484 4.867 7.318 5.2 11.5 1 1.224-2.995 1.224-5.995 0-9 0-.667.333-1 1-1-.065.438.101.772.5 1 .232-1.237.732-2.237 1.5-3l2 14c-7.223 5.173-14.056 4.507-20.5-2-8.344-12.05-11.344-25.384-9-40a38.623 38.623 0 0 1 5-13c2.128-2.308 4.628-3.974 7.5-5Z" style="opacity:.975"/><path fill="#f1a696" d="M368.5 155.5c3.285 1.45 5.785 3.783 7.5 7 7.154 17.175 5.487 33.508-5 49-7.607 7.882-15.107 7.882-22.5 0a51.522 51.522 0 0 0 2-15c.809 1.792 1.309 3.792 1.5 6 .717-.544 1.217-1.211 1.5-2l2 2c-4.788 5.942-3.621 10.275 3.5 13 5.876-1.412 7.876-5.078 6-11a11.105 11.105 0 0 0-4.5-3 68.206 68.206 0 0 1-1-14c3.606.289 7.106-.044 10.5-1 .72-1.612.554-3.112-.5-4.5a32.462 32.462 0 0 0-8-.5c.429-3.524 1.929-6.524 4.5-9 1.254-3.611.088-5.111-3.5-4.5-1.57 1.397-2.904 2.897-4 4.5-.12-6.102 2.547-10.435 8-13a16.332 16.332 0 0 0 2-4Z" style="opacity:1"/><path fill="#2e2f6c" d="M213.5 162.5c6.621 2.38 9.621 7.213 9 14.5.475 5.788-1.192 10.788-5 15-4.963.733-8.13-1.433-9.5-6.5-.667-5-.667-10 0-15 1.273-3.097 3.107-5.764 5.5-8Z" style="opacity:1"/><path fill="#31316d" d="M292.5 162.5c2.599.049 4.766 1.049 6.5 3 4.598 7.971 4.598 15.971 0 24-2.706 3.478-5.706 3.811-9 1-3.822-7.01-4.488-14.343-2-22a40.775 40.775 0 0 1 4.5-6Z" style="opacity:1"/><path fill="#e5817c" d="M151.5 170.5a1193.93 1193.93 0 0 0 5 32c-.667 0-1 .333-1 1a16.339 16.339 0 0 0-5-2 89.41 89.41 0 0 0 1-15h-11c-.214-1.644.12-3.144 1-4.5a32.462 32.462 0 0 1 8-.5 47.486 47.486 0 0 0-5-11c-.066-1.766.768-2.766 2.5-3a20.987 20.987 0 0 1 4.5 3Z" style="opacity:1"/><path fill="#e6827c" d="M360.5 201.5c-1.792-.134-3.458.199-5 1l-2-2a206.05 206.05 0 0 0 5-28c1.096-1.603 2.43-3.103 4-4.5 3.588-.611 4.754.889 3.5 4.5-2.571 2.476-4.071 5.476-4.5 9a32.462 32.462 0 0 1 8 .5c1.054 1.388 1.22 2.888.5 4.5-3.394.956-6.894 1.289-10.5 1a68.206 68.206 0 0 0 1 14Z" style="opacity:1"/><path fill="#f6afa8" d="M200.5 195.5c7.728-.311 15.395.189 23 1.5 3.664 1.002 6.831 2.836 9.5 5.5 2.034 5.387.201 9.22-5.5 11.5-11.675 4.665-23.341 4.665-35 0-6.197-2.862-7.531-7.196-4-13a94.836 94.836 0 0 1 12-5.5ZM289.5 195.5c9.591-.722 18.925.445 28 3.5 8.234 5.437 7.901 10.437-1 15-11.675 4.665-23.341 4.665-35 0-4.958-1.938-6.791-5.438-5.5-10.5 1.622-2.406 3.789-4.239 6.5-5.5a49.83 49.83 0 0 0 7-2.5Z" style="opacity:1"/><path fill="#fefaf9" d="M150.5 201.5a16.339 16.339 0 0 1 5 2c1.224 3.005 1.224 6.005 0 9-4.182 4.2-8.016 3.867-11.5-1-1.577-5.858.59-9.191 6.5-10Z" style="opacity:1"/><path fill="#fefafa" d="M360.5 201.5a11.105 11.105 0 0 1 4.5 3c1.876 5.922-.124 9.588-6 11-7.121-2.725-8.288-7.058-3.5-13 1.542-.801 3.208-1.134 5-1Z" style="opacity:1"/><path fill="#e9857d" d="M255.5 203.5c2.761-.585 4.427.415 5 3a256.871 256.871 0 0 1-10 19c.137 1.607.804 2.941 2 4a21.659 21.659 0 0 1 6.5 4c.942 2.73-.058 4.063-3 4-8.854-1.843-12.521-7.176-11-16a97.332 97.332 0 0 0 10.5-18ZM230.5 247.5a51.888 51.888 0 0 1 13 4.5 43.397 43.397 0 0 0 17 1 3460.245 3460.245 0 0 1 19-5.5 8.43 8.43 0 0 1-.5 4c-16.315 10.664-32.649 10.664-49 0-.579-1.428-.412-2.762.5-4Z" style="opacity:1"/><path fill="#f5a997" d="M291.5 298.5v12c-23.057 12.932-47.723 20.932-74 24a192.476 192.476 0 0 0 2-35 356.83 356.83 0 0 0 20 5.5c17.896 2.426 35.229.259 52-6.5Z" style="opacity:1"/><path fill="#f8c4b7" d="M291.5 310.5c-.678 13.269 1.655 25.936 7 38-28.763 26.463-57.43 26.463-86 0a87.385 87.385 0 0 0 5-14c26.277-3.068 50.943-11.068 74-24Z" style="opacity:.994"/><path fill="#c895c3" d="M212.5 348.5c28.57 26.463 57.237 26.463 86 0a20341.619 20341.619 0 0 1 153 86.5c22.058 20.639 32.058 46.139 30 76.5h-452c-2.06-30.357 7.94-55.857 30-76.5a20341.619 20341.619 0 0 1 153-86.5Z" style="opacity:1"/></svg>