<svg xmlns="http://www.w3.org/2000/svg" width="512" height="512" style="shape-rendering:geometricPrecision;text-rendering:geometricPrecision;image-rendering:optimizeQuality;fill-rule:evenodd;clip-rule:evenodd"><path fill="#753616" d="M247.5-.5h27c9.997 2.111 19.664 5.444 29 10-17.683 3.176-32.849 11.176-45.5 24-10.036 14.361-12.202 29.861-6.5 46.5-.228.399-.562.565-1 .5-24.697-17.062-45.53-13.062-62.5 12-4.255 6.767-6.922 14.1-8 22a50.937 50.937 0 0 0-8.5 17 31.147 31.147 0 0 0-2 2c-9.236-3.371-15.903-.705-20 8-1.715-26.735 1.785-52.735 10.5-78 4.768-11.222 11.268-21.222 19.5-30 8.545-8.609 18.878-14.109 31-16.5 10.865-9.1 23.198-14.934 37-17.5Z" style="opacity:1"/><path fill="#945230" d="M303.5 9.5c11.499 6.088 21.499 14.088 30 24 15.926 21.258 25.093 45.258 27.5 72 .5 11.995.667 23.995.5 36-5.077-9.17-12.41-11.504-22-7a26.523 26.523 0 0 0-6-3.5c-33.684.59-58.851-13.577-75.5-42.5a54.547 54.547 0 0 0-6.5-6l-1-2c.438.065.772-.101 1-.5-5.702-16.639-3.536-32.139 6.5-46.5 12.651-12.824 27.817-20.824 45.5-24Z" style="opacity:.999"/><path fill="#7e6dd0" d="M179.5 33.5c-8.232 8.778-14.732 18.778-19.5 30-8.715 25.265-12.215 51.265-10.5 78a60.931 60.931 0 0 0 .5 11 501.66 501.66 0 0 1 5.5 17c-1.009 4.352-2.842 8.352-5.5 12l-13 15c-2.936 7.183-3.27 14.516-1 22a104.383 104.383 0 0 0 14 20c8.31 14.787 6.31 28.12-6 40-6.274 13.272-5.774 26.272 1.5 39-.975 2.295-2.308 4.295-4 6a3245.356 3245.356 0 0 1-43 10.5c-27.754 11.984-44.754 32.817-51 62.5-9.785-14.906-17.452-30.906-23-48a357.408 357.408 0 0 1 26-29.5 2390.487 2390.487 0 0 1 53-39c9.311-8.114 13.478-18.281 12.5-30.5a270.927 270.927 0 0 1-10-37 193.088 193.088 0 0 1 2-45 373.376 373.376 0 0 1 11-36c3.091-15.299-.242-28.966-10-41a193.893 193.893 0 0 1-11.5-12c23.996-20.673 51.33-35.673 82-45ZM333.5 33.5c29.662 10.067 56.328 25.067 80 45-10.14 8.645-17.306 19.312-21.5 32-.667 7-.667 14 0 21a373.737 373.737 0 0 1 11 36c2.911 16.256 3.245 32.59 1 49a461.624 461.624 0 0 1-9 33c-1.07 11.701 2.763 21.534 11.5 29.5l53 39a383.572 383.572 0 0 1 27 30.5c-5.548 17.094-13.215 33.094-23 48-6.242-28.702-22.575-49.202-49-61.5a1070.634 1070.634 0 0 0-44-11.5c-1.692-1.705-3.025-3.705-4-6 4.555-9.512 6.055-19.512 4.5-30a91.264 91.264 0 0 0-13-22c-2.522-6.195-3.022-12.528-1.5-19 3.77-7.626 8.603-14.626 14.5-21 6.387-9.687 7.053-19.687 2-30l-13-15a32.062 32.062 0 0 1-4.5-11 501.66 501.66 0 0 1 5.5-17c.499-3.652.665-7.318.5-11 .167-12.005 0-24.005-.5-36-2.407-26.742-11.574-50.742-27.5-72Z" style="opacity:.996"/><path fill="#fed8a0" d="m250.5 80.5 1 2c-9.217 9.431-15.051 20.764-17.5 34-7.78 11.956-10.947 25.123-9.5 39.5 1.56 37.347 12.727 71.514 33.5 102.5a96.56 96.56 0 0 0 16.5 16.5 27.092 27.092 0 0 0 9.5 5.5 61.964 61.964 0 0 0 13.5-9c-.375 10.915 3.959 19.249 13 25-6.361 18.044-17.527 32.377-33.5 43-2.169 4.977-1.669 9.644 1.5 14-9.096 7.428-16.763 16.094-23 26-6.207-9.547-13.54-18.213-22-26 3.07-4.283 3.736-8.95 2-14 5.743-3.931 9.91-9.265 12.5-16a111.927 111.927 0 0 0 7.5-32c-9.311-1.272-17.978-4.438-26-9.5a208.07 208.07 0 0 1-16-11.5 6.547 6.547 0 0 0-3-3c-9.228-10.103-16.728-21.437-22.5-34-6.292-14.383-11.459-29.049-15.5-44a236.309 236.309 0 0 1-2.5-53c1.009-1.525 1.509-3.192 1.5-5a50.937 50.937 0 0 1 8.5-17c1.078-7.9 3.745-15.233 8-22 16.97-25.062 37.803-29.062 62.5-12Z" style="opacity:1"/><path fill="#9488e7" d="M97.5 78.5a193.893 193.893 0 0 0 11.5 12c9.758 12.034 13.091 25.701 10 41a373.376 373.376 0 0 0-11 36 193.088 193.088 0 0 0-2 45 270.927 270.927 0 0 0 10 37c.978 12.219-3.189 22.386-12.5 30.5a2390.487 2390.487 0 0 0-53 39 357.408 357.408 0 0 0-26 29.5C-1.045 272.24 7.455 199.906 50 131.5c13.533-19.701 29.366-37.368 47.5-53ZM413.5 78.5c63.213 55.474 92.046 125.474 86.5 210-1.692 20.757-6.192 40.757-13.5 60a383.572 383.572 0 0 0-27-30.5l-53-39c-8.737-7.966-12.57-17.799-11.5-29.5a461.624 461.624 0 0 0 9-33c2.245-16.41 1.911-32.744-1-49a373.737 373.737 0 0 0-11-36c-.667-7-.667-14 0-21 4.194-12.688 11.36-23.355 21.5-32Z" style="opacity:1"/><path fill="#fbe5c9" d="M251.5 82.5a54.547 54.547 0 0 1 6.5 6c16.649 28.923 41.816 43.09 75.5 42.5a26.523 26.523 0 0 1 6 3.5c3.493 6.279 4.826 13.112 4 20.5a175.1 175.1 0 0 1-4 34.5 267.674 267.674 0 0 1-13 39c-6.088 14.528-14.422 27.528-25 39-1.667 1-3 2.333-4 4a61.964 61.964 0 0 1-13.5 9 27.092 27.092 0 0 1-9.5-5.5 96.56 96.56 0 0 1-16.5-16.5c-20.773-30.986-31.94-65.153-33.5-102.5-1.447-14.377 1.72-27.544 9.5-39.5 2.449-13.236 8.283-24.569 17.5-34Z" style="opacity:1"/><path fill="#f7c789" d="M171.5 131.5c.009 1.808-.491 3.475-1.5 5a236.309 236.309 0 0 0 2.5 53c-5.64-.071-10.14-2.404-13.5-7a192.558 192.558 0 0 1-3.5-13 501.66 501.66 0 0 0-5.5-17 60.931 60.931 0 0 1-.5-11c4.097-8.705 10.764-11.371 20-8a31.147 31.147 0 0 1 2-2Z" style="opacity:1"/><path fill="#fdd7a0" d="M361.5 141.5a60.931 60.931 0 0 1-.5 11 501.66 501.66 0 0 0-5.5 17 192.558 192.558 0 0 1-3.5 13c-3.102 4.3-7.269 6.633-12.5 7a175.1 175.1 0 0 0 4-34.5c.826-7.388-.507-14.221-4-20.5 9.59-4.504 16.923-2.17 22 7Z" style="opacity:1"/><path fill="#945231" d="M355.5 169.5a32.062 32.062 0 0 0 4.5 11l13 15c5.053 10.313 4.387 20.313-2 30-5.897 6.374-10.73 13.374-14.5 21-5.151-.827-10.484-1.327-16-1.5-7.789-2.948-12.455-8.448-14-16.5a267.674 267.674 0 0 0 13-39c5.231-.367 9.398-2.7 12.5-7a192.558 192.558 0 0 0 3.5-13Z" style="opacity:1"/><path fill="#753617" d="M155.5 169.5a192.558 192.558 0 0 0 3.5 13c3.36 4.596 7.86 6.929 13.5 7 4.041 14.951 9.208 29.617 15.5 44 5.772 12.563 13.272 23.897 22.5 34a116.192 116.192 0 0 0-13 6c-15.527 3.696-28.36 11.696-38.5 24a303.44 303.44 0 0 1-13.5 20c-7.274-12.728-7.774-25.728-1.5-39 12.31-11.88 14.31-25.213 6-40a104.383 104.383 0 0 1-14-20c-2.27-7.484-1.936-14.817 1-22l13-15c2.658-3.648 4.491-7.648 5.5-12Z" style="opacity:1"/><path fill="#763717" d="M326.5 228.5c1.545 8.052 6.211 13.552 14 16.5 5.516.173 10.849.673 16 1.5-1.522 6.472-1.022 12.805 1.5 19a91.264 91.264 0 0 1 13 22c1.555 10.488.055 20.488-4.5 30-6.749-11.614-15.082-22.114-25-31.5a93.172 93.172 0 0 0-27-12.5 114.436 114.436 0 0 0-13-6c10.578-11.472 18.912-24.472 25-39Z" style="opacity:1"/><path fill="#fdc63b" d="M210.5 267.5a6.547 6.547 0 0 1 3 3c.544 10.577-3.456 18.91-12 25-.333-1-1-1.667-2-2a162.597 162.597 0 0 0-.5-18c-.278-.916-.778-1.582-1.5-2a116.192 116.192 0 0 1 13-6Z" style="opacity:1"/><path fill="#fec73b" d="M301.5 267.5a114.436 114.436 0 0 1 13 6c-.617.111-1.117.444-1.5 1-.5 6.325-.666 12.658-.5 19-1.406.473-2.073 1.473-2 3-9.041-5.751-13.375-14.085-13-25 1-1.667 2.333-3 4-4Z" style="opacity:1"/><path fill="#f8c98a" d="M213.5 270.5a208.07 208.07 0 0 0 16 11.5c8.022 5.062 16.689 8.228 26 9.5a111.927 111.927 0 0 1-7.5 32c-2.59 6.735-6.757 12.069-12.5 16-16.176-10.853-27.51-25.519-34-44 8.544-6.09 12.544-14.423 12-25Z" style="opacity:1"/><path fill="#fedc40" d="M197.5 273.5c.722.418 1.222 1.084 1.5 2 .499 5.991.666 11.991.5 18 .8 21.994 1.467 43.994 2 66l-24 18c-6.027-7.694-13.693-13.027-23-16a315.919 315.919 0 0 1-24-5.5c-4.033-3.168-4.867-7.001-2.5-11.5a176.146 176.146 0 0 0 13.5-21c1.692-1.705 3.025-3.705 4-6a303.44 303.44 0 0 0 13.5-20c10.14-12.304 22.973-20.304 38.5-24ZM314.5 273.5a93.172 93.172 0 0 1 27 12.5c9.918 9.386 18.251 19.886 25 31.5.975 2.295 2.308 4.295 4 6a7894.08 7894.08 0 0 1 13.5 21c3.185 6.838 1.018 11.005-6.5 12.5a1008.004 1008.004 0 0 1-25 6c-6.767 3.939-12.767 8.772-18 14.5a314.118 314.118 0 0 0-24-18 1418.603 1418.603 0 0 0 2-66c-.166-6.342 0-12.675.5-19 .383-.556.883-.889 1.5-1Z" style="opacity:1"/><path fill="#deedfc" d="M312.5 293.5a1418.603 1418.603 0 0 1-2 66 1158.26 1158.26 0 0 1-2 24 10.134 10.134 0 0 1-4-1.5 1325.765 1325.765 0 0 0-26-28.5c-3.169-4.356-3.669-9.023-1.5-14 15.973-10.623 27.139-24.956 33.5-43-.073-1.527.594-2.527 2-3Z" style="opacity:1"/><path fill="#deedfd" d="M199.5 293.5c1 .333 1.667 1 2 2 6.49 18.481 17.824 33.147 34 44 1.736 5.05 1.07 9.717-2 14a1019.433 1019.433 0 0 1-26 28.5 10.134 10.134 0 0 1-4 1.5 436.046 436.046 0 0 1-2-24c-.533-22.006-1.2-44.006-2-66Z" style="opacity:1"/><path fill="#feb232" d="M141.5 323.5a176.146 176.146 0 0 1-13.5 21c-2.367 4.499-1.533 8.332 2.5 11.5a315.919 315.919 0 0 0 24 5.5c.03.997-.47 1.664-1.5 2-17.835 4.206-32.168 13.539-43 28a36.201 36.201 0 0 0-5 13c-.5 18.33-.667 36.664-.5 55-18.311-13.478-34.144-29.478-47.5-48a88.212 88.212 0 0 1-9.5-15c6.246-29.683 23.246-50.516 51-62.5a3245.356 3245.356 0 0 0 43-10.5Z" style="opacity:.996"/><path fill="#fec739" d="M370.5 323.5a1070.634 1070.634 0 0 1 44 11.5c26.425 12.298 42.758 32.798 49 61.5a167.891 167.891 0 0 1-26 34c-4.25-14.437-12.916-25.604-26-33.5-6.185-2.002-10.685-.169-13.5 5.5a2047.17 2047.17 0 0 0-.5 64c-15.37 11.359-32.037 20.692-50 28a817.207 817.207 0 0 0 28.5-70c1.694-9.782-1.473-17.615-9.5-23.5a841.504 841.504 0 0 1-32-23.5c5.233-5.728 11.233-10.561 18-14.5a1008.004 1008.004 0 0 0 25-6c7.518-1.495 9.685-5.662 6.5-12.5a7894.08 7894.08 0 0 0-13.5-21Z" style="opacity:.998"/><path fill="#d3dbfa" d="M278.5 353.5a1325.765 1325.765 0 0 1 26 28.5 10.134 10.134 0 0 0 4 1.5 1080.769 1080.769 0 0 1-16 126c-5.194.241-10.194.907-15 2h-34c-.167-34.668 0-69.335.5-104 2.183-10.059 6.017-19.392 11.5-28 6.237-9.906 13.904-18.572 23-26Z" style="opacity:.999"/><path fill="#bec8f6" d="M233.5 353.5c8.46 7.787 15.793 16.453 22 26-5.483 8.608-9.317 17.941-11.5 28-.5 34.665-.667 69.332-.5 104h-10c-4.48-1.021-9.147-1.687-14-2a957.396 957.396 0 0 1-16-126 10.134 10.134 0 0 0 4-1.5 1019.433 1019.433 0 0 0 26-28.5Z" style="opacity:.999"/><path fill="#fde67f" d="M201.5 359.5a436.046 436.046 0 0 0 2 24 957.396 957.396 0 0 0 16 126 258.33 258.33 0 0 1-55-15 817.207 817.207 0 0 1-28.5-70c-1.694-9.782 1.473-17.615 9.5-23.5a808.319 808.319 0 0 0 32-23.5l24-18ZM310.5 359.5a314.118 314.118 0 0 1 24 18 841.504 841.504 0 0 0 32 23.5c8.027 5.885 11.194 13.718 9.5 23.5a817.207 817.207 0 0 1-28.5 70 285.916 285.916 0 0 1-55 15 1080.769 1080.769 0 0 0 16-126 1158.26 1158.26 0 0 0 2-24Z" style="opacity:.998"/><path fill="#ffc839" d="M154.5 361.5c9.307 2.973 16.973 8.306 23 16a808.319 808.319 0 0 1-32 23.5c-8.027 5.885-11.194 13.718-9.5 23.5a817.207 817.207 0 0 0 28.5 70c-21.945-8.629-41.945-20.295-60-35-.167-18.336 0-36.67.5-55a36.201 36.201 0 0 1 5-13c10.832-14.461 25.165-23.794 43-28 1.03-.336 1.53-1.003 1.5-2Z" style="opacity:.997"/><path fill="#ffb332" d="M437.5 430.5a116.21 116.21 0 0 1-15 16.5 231.935 231.935 0 0 1-25 19.5c-.167-21.336 0-42.669.5-64 2.815-5.669 7.315-7.502 13.5-5.5 13.084 7.896 21.75 19.063 26 33.5Z" style="opacity:1"/></svg>