<svg xmlns="http://www.w3.org/2000/svg" width="512" height="512" style="shape-rendering:geometricPrecision;text-rendering:geometricPrecision;image-rendering:optimizeQuality;fill-rule:evenodd;clip-rule:evenodd"><path fill="#56425e" d="M255.5-.5h10c13.623 3.615 23.29 11.948 29 25a55.124 55.124 0 0 1 2 18c-13.765-8.525-28.765-12.525-45-12 1.109-.79 2.442-1.29 4-1.5-9.28-9.81-9.28-19.643 0-29.5Z" style="opacity:.991"/><path fill="#45314c" d="M246.5-.5h9c-9.28 9.857-9.28 19.69 0 29.5-1.558.21-2.891.71-4 1.5-13.321.773-25.321 5.106-36 13-.536-6.939.464-13.606 3-20 5.938-11.937 15.272-19.937 28-24Z" style="opacity:1"/><path fill="#49b0f6" d="M218.5 23.5c-2.536 6.394-3.536 13.061-3 20-2.358 2.03-4.692 4.03-7 6-23.512 13.317-38.012 33.317-43.5 60-.5 16.997-.667 33.997-.5 51-4.593.047-8.093 2.047-10.5 6-1.545 4.547-1.879 9.213-1 14a258.442 258.442 0 0 1 9 30c3.477 4.322 7.977 6.322 13.5 6 5.439 22.545 13.939 43.879 25.5 64a103.217 103.217 0 0 0 13.5 16c-.237 12.303-5.571 21.803-16 28.5a185.683 185.683 0 0 1-44 19.5c-1.582-1.376-3.415-2.376-5.5-3-8.287 2.46-15.787 6.127-22.5 11-35.05 4.068-59.05 22.402-72 55-17.781-25.235-30.448-52.901-38-83 42.641 10.073 76.475-2.594 101.5-38 8.917-15.661 12.75-32.494 11.5-50.5a377.324 377.324 0 0 0-4.5-52.5c-1.994-19.382-.327-38.382 5-57 2.062-13.082-.605-25.082-8-36a84.89 84.89 0 0 0-16.5-18c33.33-25.82 70.997-42.153 113-49ZM294.5 24.5c41.38 6.333 78.38 22.333 111 48-11.875 9.398-20.042 21.398-24.5 36a72.464 72.464 0 0 0 0 17l5 21 .5 16a3208.518 3208.518 0 0 1-6 74.5c1.449 49.771 26.449 79.771 75 90 7.667.667 15.333.667 23 0a81.525 81.525 0 0 1 16-2.5c-7.571 30.133-20.237 57.799-38 83-13.069-33.045-37.402-51.379-73-55a18.473 18.473 0 0 0-2-3.5 205.566 205.566 0 0 1-15-6c-4.108-1.335-7.108-.168-9 3.5-2.553-2.084-5.553-3.417-9-4a320.638 320.638 0 0 0 .5-40c-1.027-7.341-2.861-14.341-5.5-21a317.267 317.267 0 0 0-5.5-24 256.662 256.662 0 0 1-3.5-30 43.145 43.145 0 0 1 2-11c5.505.222 10.005-1.778 13.5-6a279.95 279.95 0 0 1 10-31c1.572-6.949-.261-12.782-5.5-17.5a20.093 20.093 0 0 0-6-1.5c.167-15.337 0-30.67-.5-46-4.456-28.953-19.289-50.62-44.5-65a54.919 54.919 0 0 1-7-7 55.124 55.124 0 0 0-2-18Z" style="opacity:.996"/><path fill="#f7d97c" d="M251.5 30.5c16.235-.525 31.235 3.475 45 12a54.919 54.919 0 0 0 7 7c-18.641-8.278-37.974-11.611-58-10-12.999.889-25.332 4.222-37 10 2.308-1.97 4.642-3.97 7-6 10.679-7.894 22.679-12.227 36-13Z" style="opacity:1"/><path fill="#45304c" d="M245.5 39.5a40.939 40.939 0 0 1 9 .5c-16.459 12.673-20.293 28.506-11.5 47.5 2.523 4.388 5.023 8.722 7.5 13a243.44 243.44 0 0 1-15-3.5c-26.083-4.543-42.583 5.957-49.5 31.5a756.878 756.878 0 0 0-4 24c-2.298 3.649-4.798 6.982-7.5 10-3.135-1.523-6.468-2.19-10-2-.167-17.003 0-34.003.5-51 5.488-26.683 19.988-46.683 43.5-60 11.668-5.778 24.001-9.111 37-10Z" style="opacity:1"/><path fill="#56415e" d="M245.5 39.5c20.026-1.611 39.359 1.722 58 10 25.211 14.38 40.044 36.047 44.5 65 .5 15.33.667 30.663.5 46-3.872-.258-7.539.409-11 2a146.044 146.044 0 0 1-8.5-14c.21-17.045-5.29-31.879-16.5-44.5-7.588-5.54-16.088-8.04-25.5-7.5l-11.5.5a686.192 686.192 0 0 0-20 5.5 12.624 12.624 0 0 1-4-1c-.667 0-1-.333-1-1a5013.735 5013.735 0 0 1-7.5-13c-8.793-18.994-4.959-34.827 11.5-47.5a40.939 40.939 0 0 0-9-.5Z" style="opacity:1"/><path fill="#72c2f8" d="M105.5 72.5a84.89 84.89 0 0 1 16.5 18c7.395 10.918 10.062 22.918 8 36-5.327 18.618-6.994 37.618-5 57a377.324 377.324 0 0 1 4.5 52.5c1.25 18.006-2.583 34.839-11.5 50.5-25.025 35.406-58.859 48.073-101.5 38-18.848-93.27 5.485-173.103 73-239.5a95.29 95.29 0 0 1 16-12.5ZM405.5 72.5c55.669 43.642 87.169 100.975 94.5 172 1.949 26.956.116 53.623-5.5 80a81.525 81.525 0 0 0-16 2.5c-7.667.667-15.333.667-23 0-48.551-10.229-73.551-40.229-75-90 2.29-24.819 4.29-49.653 6-74.5l-.5-16-5-21a72.464 72.464 0 0 1 0-17c4.458-14.602 12.625-26.602 24.5-36Z" style="opacity:1"/><path fill="#fea97b" d="M250.5 100.5c0 .667.333 1 1 1-13.118 13.167-19.284 29.167-18.5 48-8.466 11.189-11.966 23.855-10.5 38 1.23 32.525 10.063 62.859 26.5 91 8.379 12.712 19.046 23.046 32 31a239.653 239.653 0 0 0 14.5-11c-5.401 40.319.932 78.652 19 115-13.214 12.112-28.214 21.445-45 28-4.08-2.46-8.58-3.46-13.5-3-4.92-.46-9.42.54-13.5 3-19.928-7.459-36.928-19.126-51-35 4.317-1.462 8.317-3.628 12-6.5 27.561-20.953 44.561-48.453 51-82.5-7.926-.587-15.259-3.087-22-7.5a119.405 119.405 0 0 1-18-13.5 103.217 103.217 0 0 1-13.5-16c-11.561-20.121-20.061-41.455-25.5-64-2.646-16.985-2.646-33.985 0-51a10.014 10.014 0 0 0-1-3c2.702-3.018 5.202-6.351 7.5-10a756.878 756.878 0 0 1 4-24c6.917-25.543 23.417-36.043 49.5-31.5a243.44 243.44 0 0 0 15 3.5Z" style="opacity:1"/><path fill="#fec6aa" d="M337.5 162.5c-.111.617-.444 1.117-1 1.5 3.913 17.462 3.913 34.962 0 52.5a43.145 43.145 0 0 0-2 11c-5.202 16.081-11.702 31.748-19.5 47a96.919 96.919 0 0 1-19.5 24 239.653 239.653 0 0 1-14.5 11c-12.954-7.954-23.621-18.288-32-31-16.437-28.141-25.27-58.475-26.5-91-1.466-14.145 2.034-26.811 10.5-38-.784-18.833 5.382-34.833 18.5-48 1.242.543 2.575.877 4 1a686.192 686.192 0 0 1 20-5.5l11.5-.5c9.412-.54 17.912 1.96 25.5 7.5 11.21 12.621 16.71 27.455 16.5 44.5a146.044 146.044 0 0 0 8.5 14Z" style="opacity:1"/><path fill="#fa9461" d="M164.5 160.5c3.532-.19 6.865.477 10 2 .482.916.815 1.916 1 3-2.646 17.015-2.646 34.015 0 51-5.523.322-10.023-1.678-13.5-6a258.442 258.442 0 0 0-9-30c-.879-4.787-.545-9.453 1-14 2.407-3.953 5.907-5.953 10.5-6Z" style="opacity:1"/><path fill="#fdaa7b" d="M348.5 160.5c2.064.187 4.064.687 6 1.5 5.239 4.718 7.072 10.551 5.5 17.5a279.95 279.95 0 0 0-10 31c-3.495 4.222-7.995 6.222-13.5 6 3.913-17.538 3.913-35.038 0-52.5.556-.383.889-.883 1-1.5 3.461-1.591 7.128-2.258 11-2Z" style="opacity:1"/><path fill="#46314c" d="M334.5 227.5a256.662 256.662 0 0 0 3.5 30 317.267 317.267 0 0 1 5.5 24c-24.614 14.305-32.447 35.305-23.5 63 2.311 12.453 9.144 21.119 20.5 26l-5 18a172.844 172.844 0 0 0-4.5 36c-2.497 1.978-5.331 2.478-8.5 1.5a35.374 35.374 0 0 1-8-12.5c-18.068-36.348-24.401-74.681-19-115a96.919 96.919 0 0 0 19.5-24c7.798-15.252 14.298-30.919 19.5-47Z" style="opacity:1"/><path fill="#56415e" d="M343.5 281.5c2.639 6.659 4.473 13.659 5.5 21a320.638 320.638 0 0 1-.5 40 438.053 438.053 0 0 1-8 28c-11.356-4.881-18.189-13.547-20.5-26-8.947-27.695-1.114-48.695 23.5-63Z" style="opacity:1"/><path fill="#fb9460" d="M214.5 296.5a119.405 119.405 0 0 0 18 13.5c6.741 4.413 14.074 6.913 22 7.5-6.439 34.047-23.439 61.547-51 82.5-3.683 2.872-7.683 5.038-12 6.5h-1c-15.696-18.4-27.696-39.067-36-62a185.683 185.683 0 0 0 44-19.5c10.429-6.697 15.763-16.197 16-28.5Z" style="opacity:1"/><path fill="#7e6dd0" d="M154.5 344.5c8.304 22.933 20.304 43.6 36 62-11.114 3.116-16.447 10.449-16 22-19.99-21.785-35.324-46.618-46-74.5-.336-1.03-1.003-1.53-2-1.5 6.713-4.873 14.213-8.54 22.5-11 2.085.624 3.918 1.624 5.5 3Z" style="opacity:1"/><path fill="#f8a67c" d="M348.5 342.5c3.447.583 6.447 1.916 9 4-5.79 14.918-13.124 28.918-22 42l5-18a438.053 438.053 0 0 0 8-28Z" style="opacity:1"/><path fill="#9488e6" d="M383.5 352.5c-16.919 51.747-49.919 89.247-99 112.5a339.622 339.622 0 0 1-14 4.5c.323 6.522-.01 12.855-1 19v-47c16.786-6.555 31.786-15.888 45-28a35.374 35.374 0 0 0 8 12.5c3.169.978 6.003.478 8.5-1.5a172.844 172.844 0 0 1 4.5-36c8.876-13.082 16.21-27.082 22-42 1.892-3.668 4.892-4.835 9-3.5 4.92 2.196 9.92 4.196 15 6a18.473 18.473 0 0 1 2 3.5Z" style="opacity:1"/><path fill="#7155ce" d="M126.5 352.5c.997-.03 1.664.47 2 1.5 10.676 27.882 26.01 52.715 46 74.5-11.425 1.251-22.425 4.418-33 9.5-5.415 3.074-8.915 7.574-10.5 13.5.141 8.727-.692 17.06-2.5 25-29.772-17.436-54.44-40.436-74-69 12.95-32.598 36.95-50.932 72-55Z" style="opacity:.996"/><path fill="#7d6dd1" d="M383.5 352.5c35.598 3.621 59.931 21.955 73 55a223.242 223.242 0 0 1-33 38c-5.08-12.747-14.08-21.414-27-26-4.071.236-6.904 2.236-8.5 6-.828 15.839-.661 31.505.5 47-33.831 21.944-70.831 34.944-111 39h-44c-37.59-3.863-72.59-15.53-105-35 1.808-7.94 2.641-16.273 2.5-25 1.585-5.926 5.085-10.426 10.5-13.5 10.575-5.082 21.575-8.249 33-9.5 18.757 18.721 40.757 32.387 66 41 .667 6.488 1.333 12.821 2 19 .754 2.591 2.421 4.424 5 5.5a72.464 72.464 0 0 0 17 0c2.579-1.076 4.246-2.909 5-5.5.99-6.145 1.323-12.478 1-19a339.622 339.622 0 0 0 14-4.5c49.081-23.253 82.081-60.753 99-112.5Z" style="opacity:.995"/><path fill="#9588e7" d="M190.5 406.5h1c14.072 15.874 31.072 27.541 51 35v47a3760.686 3760.686 0 0 1-2-19c-25.243-8.613-47.243-22.279-66-41-.447-11.551 4.886-18.884 16-22Z" style="opacity:1"/><path fill="#7255ce" d="M423.5 445.5a215.825 215.825 0 0 1-35 27c-1.161-15.495-1.328-31.161-.5-47 1.596-3.764 4.429-5.764 8.5-6 12.92 4.586 21.92 13.253 27 26Z" style="opacity:1"/><path fill="#b5aff6" d="M269.5 441.5v47c-.754 2.591-2.421 4.424-5 5.5a72.464 72.464 0 0 1-17 0c-2.579-1.076-4.246-2.909-5-5.5v-47c4.08-2.46 8.58-3.46 13.5-3 4.92-.46 9.42.54 13.5 3Z" style="opacity:1"/></svg>