<?xml version="1.0" encoding="UTF-8"?>
<!DOCTYPE svg PUBLIC "-//W3C//DTD SVG 1.1//EN" "http://www.w3.org/Graphics/SVG/1.1/DTD/svg11.dtd">
<svg xmlns="http://www.w3.org/2000/svg" version="1.1" width="512px" height="512px" style="shape-rendering:geometricPrecision; text-rendering:geometricPrecision; image-rendering:optimizeQuality; fill-rule:evenodd; clip-rule:evenodd" xmlns:xlink="http://www.w3.org/1999/xlink">
<g><path style="opacity:0.993" fill="#2a2e6d" d="M 244.5,-0.5 C 254.5,-0.5 264.5,-0.5 274.5,-0.5C 300.921,3.87527 324.921,14.0419 346.5,30C 372.628,55.991 387.462,87.491 391,124.5C 393.786,145.463 394.12,166.463 392,187.5C 383.904,254.601 375.404,321.601 366.5,388.5C 356.5,382.833 346.5,377.167 336.5,371.5C 322.951,364.476 309.784,356.809 297,348.5C 292.561,336.933 290.394,324.933 290.5,312.5C 290.586,308.143 290.92,303.81 291.5,299.5C 306.404,291.43 318.238,280.097 327,265.5C 336.436,249.007 343.602,231.674 348.5,213.5C 353.295,220.072 359.295,221.239 366.5,217C 377.094,205.21 381.261,191.376 379,175.5C 378.009,167.657 374.176,161.824 367.5,158C 363.454,157.676 360.621,159.509 359,163.5C 357.801,166.726 357.301,170.059 357.5,173.5C 356.555,181.764 355.222,190.097 353.5,198.5C 352.764,200.229 351.43,201.229 349.5,201.5C 346.165,182.318 343.998,162.984 343,143.5C 328.064,130.323 317.064,114.323 310,95.5C 306.361,85.2704 303.195,74.9371 300.5,64.5C 268.194,82.5767 233.527,91.91 196.5,92.5C 188.535,110.437 179.035,127.437 168,143.5C 168.502,163.809 165.335,183.476 158.5,202.5C 158.167,202.5 157.833,202.5 157.5,202.5C 155.903,192.016 154.236,181.682 152.5,171.5C 152.251,166.839 150.918,162.506 148.5,158.5C 145.178,157.054 142.178,157.554 139.5,160C 132.224,169.274 129.724,179.774 132,191.5C 133.122,201.556 137.289,210.056 144.5,217C 150.341,220.662 155.674,220.162 160.5,215.5C 161.117,215.611 161.617,215.944 162,216.5C 168.373,245.092 181.873,269.592 202.5,290C 207.929,294.04 213.595,297.54 219.5,300.5C 220.707,312.193 220.374,323.86 218.5,335.5C 217.376,341.246 215.043,346.412 211.5,351C 199.14,357.846 186.806,364.679 174.5,371.5C 165.661,376.754 156.661,381.754 147.5,386.5C 139.416,320.165 131.25,253.831 123,187.5C 119.253,151.696 122.919,116.696 134,82.5C 148.281,42.551 175.781,16.7177 216.5,5C 225.869,2.60934 235.202,0.776006 244.5,-0.5 Z"/></g>
<g><path style="opacity:1" fill="#f8c4b7" d="M 349.5,201.5 C 349.804,202.15 350.137,202.817 350.5,203.5C 349.449,206.757 348.782,210.09 348.5,213.5C 343.602,231.674 336.436,249.007 327,265.5C 318.238,280.097 306.404,291.43 291.5,299.5C 267.64,309.741 243.64,310.074 219.5,300.5C 213.595,297.54 207.929,294.04 202.5,290C 181.873,269.592 168.373,245.092 162,216.5C 161.617,215.944 161.117,215.611 160.5,215.5C 160.923,214.735 161.257,213.902 161.5,213C 160.263,209.549 159.263,206.049 158.5,202.5C 165.335,183.476 168.502,163.809 168,143.5C 179.035,127.437 188.535,110.437 196.5,92.5C 233.527,91.91 268.194,82.5767 300.5,64.5C 303.195,74.9371 306.361,85.2704 310,95.5C 317.064,114.323 328.064,130.323 343,143.5C 343.998,162.984 346.165,182.318 349.5,201.5 Z"/></g>
<g><path style="opacity:1" fill="#33336f" d="M 212.5,142.5 C 220.596,141.622 228.263,142.955 235.5,146.5C 236.84,147.688 237.507,149.188 237.5,151C 237.057,152.825 236.723,154.658 236.5,156.5C 226.339,153.763 216.006,152.93 205.5,154C 199.965,154.845 194.798,156.678 190,159.5C 189.365,157.365 189.699,155.365 191,153.5C 196.845,147.064 204.012,143.397 212.5,142.5 Z"/></g>
<g><path style="opacity:1" fill="#31326f" d="M 282.5,142.5 C 292.171,141.945 301.504,143.445 310.5,147C 315.479,149.623 318.813,153.623 320.5,159C 314.644,157.164 308.644,155.497 302.5,154C 292.943,152.776 283.61,153.61 274.5,156.5C 273.914,156.291 273.414,155.957 273,155.5C 272.333,152.833 272.333,150.167 273,147.5C 275.907,145.132 279.074,143.465 282.5,142.5 Z"/></g>
<g><path style="opacity:1" fill="#f1a696" d="M 152.5,171.5 C 152.253,173.975 151.587,173.975 150.5,171.5C 148.955,170.548 147.288,170.215 145.5,170.5C 145.34,172.199 145.506,173.866 146,175.5C 147.999,177.493 149.499,179.827 150.5,182.5C 147.893,183.318 145.226,183.818 142.5,184C 141.446,185.388 141.28,186.888 142,188.5C 145.394,189.456 148.894,189.789 152.5,189.5C 151.998,194.838 151.831,200.172 152,205.5C 155.058,206.966 156.891,205.966 157.5,202.5C 157.833,202.5 158.167,202.5 158.5,202.5C 159.263,206.049 160.263,209.549 161.5,213C 161.257,213.902 160.923,214.735 160.5,215.5C 155.674,220.162 150.341,220.662 144.5,217C 137.289,210.056 133.122,201.556 132,191.5C 129.724,179.774 132.224,169.274 139.5,160C 142.178,157.554 145.178,157.054 148.5,158.5C 150.918,162.506 152.251,166.839 152.5,171.5 Z"/></g>
<g><path style="opacity:1" fill="#f1a696" d="M 348.5,213.5 C 348.782,210.09 349.449,206.757 350.5,203.5C 350.137,202.817 349.804,202.15 349.5,201.5C 351.43,201.229 352.764,200.229 353.5,198.5C 353.523,200.927 354.023,203.26 355,205.5C 356.333,206.833 357.667,206.833 359,205.5C 359.169,200.172 359.002,194.838 358.5,189.5C 362.106,189.789 365.606,189.456 369,188.5C 369.72,186.888 369.554,185.388 368.5,184C 365.774,183.818 363.107,183.318 360.5,182.5C 363.31,178.892 364.977,174.892 365.5,170.5C 362.112,170.188 359.612,171.521 358,174.5C 357.601,174.272 357.435,173.938 357.5,173.5C 357.301,170.059 357.801,166.726 359,163.5C 360.621,159.509 363.454,157.676 367.5,158C 374.176,161.824 378.009,167.657 379,175.5C 381.261,191.376 377.094,205.21 366.5,217C 359.295,221.239 353.295,220.072 348.5,213.5 Z"/></g>
<g><path style="opacity:1" fill="#31316d" d="M 212.5,165.5 C 220.39,166.534 224.057,171.201 223.5,179.5C 223.354,184.772 221.688,189.438 218.5,193.5C 212.607,195.146 209.107,192.812 208,186.5C 206.292,178.716 207.792,171.716 212.5,165.5 Z"/></g>
<g><path style="opacity:1" fill="#2d2f6c" d="M 291.5,165.5 C 296.448,165.267 299.615,167.601 301,172.5C 301.789,178.237 301.456,183.903 300,189.5C 297.168,195.201 293.502,195.867 289,191.5C 286.586,185.388 285.919,179.054 287,172.5C 288.012,169.798 289.512,167.465 291.5,165.5 Z"/></g>
<g><path style="opacity:1" fill="#e5827b" d="M 152.5,171.5 C 154.236,181.682 155.903,192.016 157.5,202.5C 156.891,205.966 155.058,206.966 152,205.5C 151.831,200.172 151.998,194.838 152.5,189.5C 148.894,189.789 145.394,189.456 142,188.5C 141.28,186.888 141.446,185.388 142.5,184C 145.226,183.818 147.893,183.318 150.5,182.5C 149.499,179.827 147.999,177.493 146,175.5C 145.506,173.866 145.34,172.199 145.5,170.5C 147.288,170.215 148.955,170.548 150.5,171.5C 151.587,173.975 152.253,173.975 152.5,171.5 Z"/></g>
<g><path style="opacity:1" fill="#e6837b" d="M 353.5,198.5 C 355.222,190.097 356.555,181.764 357.5,173.5C 357.435,173.938 357.601,174.272 358,174.5C 359.612,171.521 362.112,170.188 365.5,170.5C 364.977,174.892 363.31,178.892 360.5,182.5C 363.107,183.318 365.774,183.818 368.5,184C 369.554,185.388 369.72,186.888 369,188.5C 365.606,189.456 362.106,189.789 358.5,189.5C 359.002,194.838 359.169,200.172 359,205.5C 357.667,206.833 356.333,206.833 355,205.5C 354.023,203.26 353.523,200.927 353.5,198.5 Z"/></g>
<g><path style="opacity:1" fill="#f6afa8" d="M 204.5,197.5 C 212.737,197.047 220.737,198.214 228.5,201C 236.983,207.772 235.983,213.106 225.5,217C 212.194,221.369 199.694,219.869 188,212.5C 186.627,210.305 186.294,207.971 187,205.5C 191.915,200.594 197.748,197.927 204.5,197.5 Z"/></g>
<g><path style="opacity:1" fill="#f6afa8" d="M 292.5,197.5 C 300.767,197.038 308.767,198.205 316.5,201C 324.743,206.549 324.409,211.549 315.5,216C 304.157,220.617 292.824,220.617 281.5,216C 277.196,214.071 275.03,210.904 275,206.5C 279.694,201.236 285.528,198.236 292.5,197.5 Z"/></g>
<g><path style="opacity:1" fill="#e9867d" d="M 255.5,205.5 C 258.261,204.915 259.927,205.915 260.5,208.5C 257.422,214.991 254.088,221.325 250.5,227.5C 250.876,229.383 251.876,230.883 253.5,232C 257.29,232.77 259.123,234.937 259,238.5C 252.877,239.436 248.21,237.102 245,231.5C 244.333,228.833 244.333,226.167 245,223.5C 249.154,217.855 252.654,211.855 255.5,205.5 Z"/></g>
<g><path style="opacity:1" fill="#e9867e" d="M 231.5,248.5 C 235.812,250.321 240.145,252.154 244.5,254C 250.097,255.456 255.763,255.789 261.5,255C 266.829,253.253 271.996,251.086 277,248.5C 279.59,249.687 280.09,251.52 278.5,254C 262.576,263.901 246.576,263.901 230.5,254C 229.243,251.924 229.576,250.09 231.5,248.5 Z"/></g>
<g><path style="opacity:1" fill="#f4a897" d="M 291.5,299.5 C 290.92,303.81 290.586,308.143 290.5,312.5C 268.005,324.792 244.005,332.459 218.5,335.5C 220.374,323.86 220.707,312.193 219.5,300.5C 243.64,310.074 267.64,309.741 291.5,299.5 Z"/></g>
<g><path style="opacity:1" fill="#f8c4b7" d="M 290.5,312.5 C 290.394,324.933 292.561,336.933 297,348.5C 309.784,356.809 322.951,364.476 336.5,371.5C 336.586,372.496 336.252,373.329 335.5,374C 296.868,395.586 256.202,400.252 213.5,388C 200.415,384.25 187.748,379.416 175.5,373.5C 174.702,373.043 174.369,372.376 174.5,371.5C 186.806,364.679 199.14,357.846 211.5,351C 215.043,346.412 217.376,341.246 218.5,335.5C 244.005,332.459 268.005,324.792 290.5,312.5 Z"/></g>
<g><path style="opacity:1" fill="#b690c1" d="M 174.5,371.5 C 174.369,372.376 174.702,373.043 175.5,373.5C 187.748,379.416 200.415,384.25 213.5,388C 256.202,400.252 296.868,395.586 335.5,374C 336.252,373.329 336.586,372.496 336.5,371.5C 346.5,377.167 356.5,382.833 366.5,388.5C 380.483,396.138 394.483,403.805 408.5,411.5C 405.249,422.591 403.082,433.925 402,445.5C 400.664,467.477 400.164,489.477 400.5,511.5C 303.833,511.5 207.167,511.5 110.5,511.5C 110.667,492.83 110.5,474.164 110,455.5C 109.221,440.824 106.721,426.49 102.5,412.5C 117.301,403.596 132.301,394.929 147.5,386.5C 156.661,381.754 165.661,376.754 174.5,371.5 Z"/></g>
<g><path style="opacity:0.994" fill="#f8c4b8" d="M 102.5,412.5 C 106.721,426.49 109.221,440.824 110,455.5C 110.5,474.164 110.667,492.83 110.5,511.5C 83.8333,511.5 57.1667,511.5 30.5,511.5C 28.8544,480.982 39.1877,455.482 61.5,435C 74.9001,426.968 88.5667,419.468 102.5,412.5 Z"/></g>
<g><path style="opacity:0.995" fill="#f8c4b8" d="M 408.5,411.5 C 422.139,419.322 435.806,427.155 449.5,435C 471.812,455.482 482.146,480.982 480.5,511.5C 453.833,511.5 427.167,511.5 400.5,511.5C 400.164,489.477 400.664,467.477 402,445.5C 403.082,433.925 405.249,422.591 408.5,411.5 Z"/></g>
</svg>
