<svg xmlns="http://www.w3.org/2000/svg" width="512" height="512" style="shape-rendering:geometricPrecision;text-rendering:geometricPrecision;image-rendering:optimizeQuality;fill-rule:evenodd;clip-rule:evenodd"><path fill="#64505a" d="M225.5-.5h49c69.584 10.873 117.75 48.873 144.5 114 11.003 33.707 13.336 68.041 7 103-5.981 37.257-16.314 73.257-31 108a1201.57 1201.57 0 0 1-28.5 59 262.216 262.216 0 0 1-47-16.5c-8.73-6.624-13.397-15.458-14-26.5v-39c22.648-13.275 39.315-31.941 50-56-3.089 9.812-.756 17.979 7 24.5 1.525 1.009 3.192 1.509 5 1.5 9.49 1.321 15.99-2.679 19.5-12-.576-16.239-4.742-31.572-12.5-46 12.947-7.679 16.113-18.346 9.5-32-3.757-4.628-8.59-7.295-14.5-8-1.765-.961-3.765-1.295-6-1a361.608 361.608 0 0 0-1-38c-3.789-23.789-17.456-38.122-41-43a4032.727 4032.727 0 0 0-127-1c-21.453-4.995-31.287-18.661-29.5-41 1.832-7.988 4.998-15.322 9.5-22 13.402-15.868 30.402-25.201 51-28Z" style="opacity:.991"/><path fill="#5a4650" d="M174.5 27.5c-4.502 6.678-7.668 14.012-9.5 22-1.787 22.339 8.047 36.005 29.5 41-25.981 3.479-41.481 18.145-46.5 44a721.824 721.824 0 0 0-.5 38c-17.305.803-25.138 9.803-23.5 27 2.636 6.131 6.803 10.797 12.5 14-6.419 12.758-10.752 26.258-13 40.5-.362 9.481 3.971 15.314 13 17.5 16.144-.199 22.477-8.533 19-25 10.363 24.031 27.029 42.364 50 55v39c-.578 13.997-7.245 23.831-20 29.5a678.402 678.402 0 0 1-44 14.5c-18.648-40.777-32.815-83.111-42.5-127-7.416-33.66-10.083-67.66-8-102 8.031-55.814 35.864-98.48 83.5-128Z" style="opacity:.988"/><path fill="#e2a974" d="M194.5 90.5c42.503-.332 84.837.001 127 1-.889 7.39-4.889 12.224-12 14.5-34.706.034-69.372.7-104 2-12.264 3.93-20.097 12.097-23.5 24.5a1935.283 1935.283 0 0 0 0 88c8.919 45.579 35.419 75.412 79.5 89.5a46.94 46.94 0 0 0 11 1.5c-23.332 4.333-45.665.999-67-10-22.971-12.636-39.637-30.969-50-55-1.975-5.586-3.975-11.253-6-17 .624-.417.957-1.084 1-2a87.719 87.719 0 0 1-2-13c-1.599-.268-2.932.066-4 1-1.542-.801-3.208-1.134-5-1-.709-.904-1.709-1.237-3-1-5.697-3.203-9.864-7.869-12.5-14-1.638-17.197 6.195-26.197 23.5-27-.167-12.671 0-25.338.5-38 5.019-25.855 20.519-40.521 46.5-44Z" style="opacity:1"/><path fill="#f4b87c" d="M321.5 91.5c23.544 4.878 37.211 19.211 41 43v39h7c5.91.705 10.743 3.372 14.5 8 6.613 13.654 3.447 24.321-9.5 32h-3c-1.792-.134-3.458.199-5 1-1.951-.273-3.451.393-4.5 2a91.083 91.083 0 0 1-2.5 16c-.963 4.549-2.296 8.883-4 13-10.685 24.059-27.352 42.725-50 56a118.16 118.16 0 0 1-33 10 46.94 46.94 0 0 1-11-1.5c-44.081-14.088-70.581-43.921-79.5-89.5a1935.283 1935.283 0 0 1 0-88c3.403-12.403 11.236-20.57 23.5-24.5a2846.26 2846.26 0 0 1 104-2c7.111-2.276 11.111-7.11 12-14.5Z" style="opacity:1"/><path fill="#987566" d="M362.5 134.5a361.608 361.608 0 0 1 1 38c2.235-.295 4.235.039 6 1h-7v-39Z" style="opacity:1"/><path fill="#a16f50" d="M203.5 144.5c8.658-1.173 12.492 2.494 11.5 11-1.944 3.234-4.778 5.4-8.5 6.5a32.5 32.5 0 0 0-7 3c-7.448-.125-10.615-3.958-9.5-11.5 4.136-3.644 8.636-6.644 13.5-9Z" style="opacity:1"/><path fill="#a16f51" d="M299.5 144.5c8.353.091 15.52 3.091 21.5 9 1.266 6.382-1.234 10.382-7.5 12a74.644 74.644 0 0 1-15-6.5c-4.232-5.191-3.899-10.025 1-14.5Z" style="opacity:1"/><path fill="#5f4a51" d="M202.5 173.5c5.239-.541 9.072 1.459 11.5 6 .826 5.089.492 10.089-1 15-6.54 6.159-11.54 5.159-15-3-1.774-6.977-.274-12.977 4.5-18ZM302.5 173.5c4.882-.325 8.382 1.675 10.5 6 .667 4 .667 8 0 12-1.672 6.007-5.505 8.173-11.5 6.5-2.31-1.637-3.81-3.804-4.5-6.5-.667-4-.667-8 0-12 1.36-2.523 3.193-4.523 5.5-6Z" style="opacity:1"/><path fill="#fdcf64" d="M136.5 213.5c1.291-.237 2.291.096 3 1v57h-3c-9.029-2.186-13.362-8.019-13-17.5 2.248-14.242 6.581-27.742 13-40.5Z" style="opacity:1"/><path fill="#fbdd7c" d="M371.5 213.5h3c7.758 14.428 11.924 29.761 12.5 46-3.51 9.321-10.01 13.321-19.5 12h4v-58Z" style="opacity:1"/><path fill="#fcdd7b" d="M139.5 214.5c1.792-.134 3.458.199 5 1a61.725 61.725 0 0 1 5 14c2.025 5.747 4.025 11.414 6 17 3.477 16.467-2.856 24.801-19 25h3v-57Z" style="opacity:1"/><path fill="#624c52" d="M149.5 229.5a61.725 61.725 0 0 0-5-14c1.068-.934 2.401-1.268 4-1a87.719 87.719 0 0 0 2 13c-.043.916-.376 1.583-1 2Z" style="opacity:1"/><path fill="#725b5d" d="M366.5 214.5a7796.063 7796.063 0 0 1-7 18 91.083 91.083 0 0 0 2.5-16c1.049-1.607 2.549-2.273 4.5-2Z" style="opacity:1"/><path fill="#fdd064" d="M371.5 213.5v58h-4c-1.808.009-3.475-.491-5-1.5-7.756-6.521-10.089-14.688-7-24.5 1.704-4.117 3.037-8.451 4-13a7796.063 7796.063 0 0 0 7-18c1.542-.801 3.208-1.134 5-1Z" style="opacity:1"/><path fill="#b7805f" d="M226.5 239.5a32.462 32.462 0 0 1 8 .5c13.958 9.825 27.958 9.825 42 0 8.616-1.717 12.449 1.783 11.5 10.5-11.821 11.504-25.988 15.671-42.5 12.5-8.095-1.381-15.095-4.881-21-10.5-2.918-4.831-2.251-9.165 2-13Z" style="opacity:1"/><path fill="#d09a6d" d="M205.5 301.5c21.335 10.999 43.668 14.333 67 10a118.16 118.16 0 0 0 33-10v39a5046.326 5046.326 0 0 1-2-21c-32.169 13.321-64.335 13.321-96.5 0a216.796 216.796 0 0 1-1.5 21v-39Z" style="opacity:1"/><path fill="#e2a974" d="M305.5 340.5c.603 11.042 5.27 19.876 14 26.5a262.216 262.216 0 0 0 47 16.5l26 10c-34.828 44.329-80.661 66.996-137.5 68-52.455-1.065-96.122-21.065-131-60a63.077 63.077 0 0 1-5.5-8 481.202 481.202 0 0 0 23-9 678.402 678.402 0 0 0 44-14.5c12.755-5.669 19.422-15.503 20-29.5a216.796 216.796 0 0 0 1.5-21c32.165 13.321 64.331 13.321 96.5 0 .667 7.155 1.333 14.155 2 21Z" style="opacity:.999"/><path fill="#dc7346" d="M118.5 393.5a63.077 63.077 0 0 0 5.5 8c34.878 38.935 78.545 58.935 131 60 56.839-1.004 102.672-23.671 137.5-68a176.645 176.645 0 0 1 20 7 8.43 8.43 0 0 0-4 .5c-45.539 57.92-105.206 83.254-179 76-52.676-8.4-95.009-33.733-127-76a8.43 8.43 0 0 0-4-.5 176.645 176.645 0 0 1 20-7Z" style="opacity:1"/><path fill="#fe8250" d="M98.5 400.5a8.43 8.43 0 0 1 4 .5c31.991 42.267 74.324 67.6 127 76 73.794 7.254 133.461-18.08 179-76a8.43 8.43 0 0 1 4-.5c17.576 6.775 28.41 19.441 32.5 38a756.122 756.122 0 0 1 0 55c-2.683 9.182-8.517 15.182-17.5 18h-344c-8.983-2.818-14.817-8.818-17.5-18a756.462 756.462 0 0 1 0-55c4.09-18.559 14.924-31.225 32.5-38Z" style="opacity:1"/></svg>