<svg xmlns="http://www.w3.org/2000/svg" width="512" height="512" style="shape-rendering:geometricPrecision;text-rendering:geometricPrecision;image-rendering:optimizeQuality;fill-rule:evenodd;clip-rule:evenodd"><path fill="#bdd7fa" d="M232.5-.5h46c89.644 10.888 157.144 55.221 202.5 133 16.695 31.471 26.861 64.804 30.5 100v46c-6.311 62.282-31.644 115.282-76 159 .167-12.005 0-24.005-.5-36-2.58-11.167-7.747-20.833-15.5-29l-2-2c.876.131 1.543-.202 2-1 37.753-80.529 35.919-160.196-5.5-239-43.113-72.922-106.613-115.922-190.5-129l9-2Z" style="opacity:.992"/><path fill="#cae1fe" d="M223.5 1.5c83.887 13.078 147.387 56.078 190.5 129 41.419 78.804 43.253 158.471 5.5 239-.457.798-1.124 1.131-2 1-6.411-5.893-13.745-10.393-22-13.5a937.95 937.95 0 0 0-53-10.5 25.14 25.14 0 0 0-4-4.5 408.966 408.966 0 0 1-33-20.5 242.01 242.01 0 0 0 32-16.5c14.619-10.402 22.619-24.569 24-42.5a1250.812 1250.812 0 0 0 0-100c-3.624-36.095-20.624-63.928-51-83.5a132.423 132.423 0 0 0-14-6.5c-45.958-16.467-86.125-7.467-120.5 27-14.918 16.843-23.585 36.51-26 59a1708.994 1708.994 0 0 0 1 115c3.436 10.709 9.269 19.875 17.5 27.5a241.442 241.442 0 0 0 37 20.5 855.276 855.276 0 0 1-34 21.5 14.698 14.698 0 0 0-3 3.5 1911.387 1911.387 0 0 0-51 9.5c-20.26 7.259-33.76 21.093-40.5 41.5a288.692 288.692 0 0 0-1.5 40c-32.06-30.411-54.226-67.078-66.5-110-4.415-16.239-7.582-32.572-9.5-49v-45C11.984 133.193 63.984 61.693 155.5 19c21.788-9.28 44.454-15.114 68-17.5Z" style="opacity:.997"/><path fill="#eec984" d="M296.5 72.5v42a82.399 82.399 0 0 1-3.5-9c-13.613 31.608-37.113 51.775-70.5 60.5a1190.578 1190.578 0 0 1-34 4c-3.89 2.596-6.723 6.096-8.5 10.5a272.786 272.786 0 0 0 2 54c5.623 18.955 16.623 33.955 33 45 .5 12.329.667 24.662.5 37l-10 5a241.442 241.442 0 0 1-37-20.5c-8.231-7.625-14.064-16.791-17.5-27.5a1708.994 1708.994 0 0 1-1-115c2.415-22.49 11.082-42.157 26-59 34.375-34.467 74.542-43.467 120.5-27Z" style="opacity:1"/><path fill="#eabc6b" d="M296.5 72.5a132.423 132.423 0 0 1 14 6.5c30.376 19.572 47.376 47.405 51 83.5.166 8.34 0 16.673-.5 25-6.61-11.273-16.443-15.273-29.5-12 .092-3.559-.741-6.892-2.5-10-13.848-14.372-24.682-30.705-32.5-49v-44Z" style="opacity:1"/><path fill="#fedccd" d="M296.5 114.5v2c.167 35.335 0 70.668-.5 106-5.034 29.039-21.2 49.206-48.5 60.5a83.019 83.019 0 0 1-15 4c2.798 1.453 5.798 2.453 9 3 19.365 2.929 37.365-.571 54-10.5v37a686.752 686.752 0 0 1-1 44c-16.763 9.986-34.763 13.486-54 10.5a93.161 93.161 0 0 1-24-10.5 597.706 597.706 0 0 1-1-44c.167-12.338 0-24.671-.5-37-16.377-11.045-27.377-26.045-33-45a272.786 272.786 0 0 1-2-54c1.777-4.404 4.61-7.904 8.5-10.5a1190.578 1190.578 0 0 0 34-4c33.387-8.725 56.887-28.892 70.5-60.5a82.399 82.399 0 0 0 3.5 9Z" style="opacity:1"/><path fill="#fecbbd" d="M296.5 116.5c7.818 18.295 18.652 34.628 32.5 49 1.759 3.108 2.592 6.441 2.5 10v37h14c-4.47.986-9.137 1.319-14 1-.03 28.739-12.03 50.739-36 66-16.635 9.929-34.635 13.429-54 10.5-3.202-.547-6.202-1.547-9-3a83.019 83.019 0 0 0 15-4c27.3-11.294 43.466-31.461 48.5-60.5.5-35.332.667-70.665.5-106Z" style="opacity:1"/><path fill="#fcdbca" d="M361.5 162.5a1250.812 1250.812 0 0 1 0 100c.167-21.003 0-42.003-.5-63-2.601 7.437-7.767 11.77-15.5 13h-14v-37c13.057-3.273 22.89.727 29.5 12 .5-8.327.666-16.66.5-25Z" style="opacity:1"/><path fill="#eabc6b" d="M361.5 262.5c-1.381 17.931-9.381 32.098-24 42.5a242.01 242.01 0 0 1-32 16.5l-10-5v-37c23.97-15.261 35.97-37.261 36-66 4.863.319 9.53-.014 14-1 7.733-1.23 12.899-5.563 15.5-13 .5 20.997.667 41.997.5 63Z" style="opacity:1"/><path fill="#375e7d" d="M215.5 316.5a597.706 597.706 0 0 0 1 44 565.053 565.053 0 0 0 12.5 71 1223.552 1223.552 0 0 0 23.5 80h-4a902.537 902.537 0 0 1-49.5-63c-10.781-15.14-19.447-31.473-26-49-.667-3-.667-6 0-9l14-14c.706-2.471.373-4.805-1-7a303.412 303.412 0 0 1-16-17 10.098 10.098 0 0 1-1.5-6 14.698 14.698 0 0 1 3-3.5 855.276 855.276 0 0 0 34-21.5l10-5ZM295.5 316.5l10 5a408.966 408.966 0 0 0 33 20.5 25.14 25.14 0 0 1 4 4.5 10.098 10.098 0 0 1-1.5 6 303.412 303.412 0 0 1-16 17c-1.373 2.195-1.706 4.529-1 7a188.69 188.69 0 0 1 14 14c.225 7.682-1.441 15.015-5 22a268.44 268.44 0 0 1-19 33 961.385 961.385 0 0 1-38.5 51 139.724 139.724 0 0 0-13 15h-4a867.206 867.206 0 0 0 30.5-113 744.616 744.616 0 0 0 5.5-38 686.752 686.752 0 0 0 1-44Z" style="opacity:1"/><path fill="#4a80a9" d="M168.5 346.5a10.098 10.098 0 0 0 1.5 6 303.412 303.412 0 0 0 16 17c1.373 2.195 1.706 4.529 1 7l-14 14c-.667 3-.667 6 0 9 6.553 17.527 15.219 33.86 26 49a902.537 902.537 0 0 0 49.5 63h-15c-55.611-5.477-104.611-26.31-147-62.5a177.563 177.563 0 0 1-11-11.5 288.692 288.692 0 0 1 1.5-40c6.74-20.407 20.24-34.241 40.5-41.5 16.972-3.4 33.972-6.567 51-9.5Z" style="opacity:.997"/><path fill="#4a7fa9" d="M342.5 346.5a937.95 937.95 0 0 1 53 10.5c8.255 3.107 15.589 7.607 22 13.5l2 2c-24.561 44.065-58.561 79.232-102 105.5a234.89 234.89 0 0 1-42 18.5 961.385 961.385 0 0 0 38.5-51 268.44 268.44 0 0 0 19-33c3.559-6.985 5.225-14.318 5-22a188.69 188.69 0 0 0-14-14c-.706-2.471-.373-4.805 1-7a303.412 303.412 0 0 0 16-17 10.098 10.098 0 0 0 1.5-6Z" style="opacity:1"/><path fill="#e17f85" d="M216.5 360.5a93.161 93.161 0 0 0 24 10.5c19.237 2.986 37.237-.514 54-10.5a744.616 744.616 0 0 1-5.5 38 867.206 867.206 0 0 1-30.5 113h-6a1223.552 1223.552 0 0 1-23.5-80 565.053 565.053 0 0 1-12.5-71Z" style="opacity:1"/><path fill="#407093" d="M419.5 372.5c7.753 8.167 12.92 17.833 15.5 29 .5 11.995.667 23.995.5 36-43.407 43.199-95.741 67.866-157 74h-16a139.724 139.724 0 0 1 13-15 234.89 234.89 0 0 0 42-18.5c43.439-26.268 77.439-61.435 102-105.5Z" style="opacity:.993"/></svg>