<svg xmlns="http://www.w3.org/2000/svg" width="512" height="512" style="shape-rendering:geometricPrecision;text-rendering:geometricPrecision;image-rendering:optimizeQuality;fill-rule:evenodd;clip-rule:evenodd"><path fill="#1e1c19" d="M256.5-.5h33c62.273 11.096 102.44 47.096 120.5 108 7.802 33.059 5.469 65.392-7 97a730.77 730.77 0 0 1-32.5 59.5c-5.323.499-10.656.666-16 .5 7.7-12.596 12.533-26.263 14.5-41a815.417 815.417 0 0 0 1.5-65c-21.29 1.951-35.456-7.049-42.5-27a430018.39 430018.39 0 0 0-14.5-52 181.705 181.705 0 0 0-5.5-18l-17 60c-5.738 22.25-19.905 34.584-42.5 37h-73c-.167 19.336 0 38.67.5 58 3.477 36.332 20.977 63.332 52.5 81v64a12.93 12.93 0 0 0-5 .5c12.572 11.981 20.239 26.481 23 43.5.864 43.094-19.47 69.428-61 79-34.284 2.448-59.117-11.552-74.5-42a83.453 83.453 0 0 1-5.5-29 87.901 87.901 0 0 1-9-2c-22.181-9.025-34.181-25.525-36-49.5 1.227-23.123 12.228-39.79 33-50a54.027 54.027 0 0 1 20-4c-15.253-7.995-20.42-20.162-15.5-36.5 3.326-7.993 9.159-13.159 17.5-15.5 18.009-.167 36.009-.667 54-1.5l-23.5-43c-18.18-42.265-19.18-84.932-3-128 23.258-47.766 61.092-75.766 113.5-84Z" style="opacity:.992"/><path fill="#d7c2ab" d="M313.5 79.5c-1.91 1.475-3.076 3.475-3.5 6a1287.878 1287.878 0 0 1-14 48c-10.433 18.225-26.267 26.558-47.5 25 22.595-2.416 36.762-14.75 42.5-37l17-60c2.14 5.89 3.973 11.89 5.5 18Z" style="opacity:1"/><path fill="#f1dabf" d="M313.5 79.5c4.829 17.315 9.663 34.648 14.5 52 7.044 19.951 21.21 28.951 42.5 27a815.417 815.417 0 0 1-1.5 65c-1.967 14.737-6.8 28.404-14.5 41-9.151 14.819-21.485 26.152-37 34 .065-.438-.101-.772-.5-1-29.037 13.873-58.204 14.206-87.5 1 0-.667-.333-1-1-1-31.523-17.668-49.023-44.668-52.5-81-.5-19.33-.667-38.664-.5-58h73c21.233 1.558 37.067-6.775 47.5-25a1287.878 1287.878 0 0 0 14-48c.424-2.525 1.59-4.525 3.5-6Z" style="opacity:.999"/><path fill="#322921" d="M223.5 187.5c9.621-1.44 16.455 2.226 20.5 11 .789 14.531-6.044 20.698-20.5 18.5-8.283-3.904-11.45-10.404-9.5-19.5 2.022-4.52 5.189-7.853 9.5-10Z" style="opacity:1"/><path fill="#332921" d="M311.5 187.5c14.496-1.665 21.33 4.668 20.5 19-3.663 9.35-10.497 12.85-20.5 10.5-10.741-6.561-12.574-15.061-5.5-25.5a35.524 35.524 0 0 0 5.5-4Z" style="opacity:1"/><path fill="#d9c4ab" d="M227.5 200.5h3v4c-3.454.233-4.454-1.1-3-4Z" style="opacity:1"/><path fill="#d7c2aa" d="M315.5 200.5c1.846-.278 3.18.389 4 2-.82 1.611-2.154 2.278-4 2v-4Z" style="opacity:1"/><path fill="#f0caa8" d="M240.5 246.5h13c.876 11.876 7.209 18.542 19 20 12.34-1.007 19.007-7.673 20-20h13c-1.268 20.435-12.102 31.435-32.5 33-20.408-1.574-31.241-12.574-32.5-33Z" style="opacity:1"/><path fill="#dbc6ae" d="M317.5 298.5v9a220.109 220.109 0 0 1-34 9.5c-18.86 1.617-36.86-1.549-54-9.5v-9c29.296 13.206 58.463 12.873 87.5-1 .399.228.565.562.5 1Z" style="opacity:1"/><path fill="#f1dabf" d="M229.5 307.5c17.14 7.951 35.14 11.117 54 9.5a220.109 220.109 0 0 0 34-9.5v53c23.161.998 46.494 1.331 70 1-1.895 23.98-14.562 38.48-38 43.5-31.332.5-62.665.667-94 .5h-1c-2.252-17.839-10.252-32.506-24-44a729.564 729.564 0 0 1-1-54Z" style="opacity:.998"/><path fill="#1c9698" d="M317.5 360.5c30.025-.416 60.025.084 90 1.5 26.23 7.229 40.397 24.396 42.5 51.5.5 32.665.667 65.332.5 98h-355c-.32-33.377.014-66.71 1-100 2.96.823 5.961 1.49 9 2a83.453 83.453 0 0 0 5.5 29c15.383 30.448 40.216 44.448 74.5 42 32.844-1.839 55.011-18.173 66.5-49 2.978-9.782 4.144-19.782 3.5-30 31.335.167 62.668 0 94-.5 23.438-5.02 36.105-19.52 38-43.5-23.506.331-46.839-.002-70-1Z" style="opacity:.992"/><path fill="#b0a08c" d="M228.5 297.5c.667 0 1 .333 1 1v9c-.333 18.012 0 36.012 1 54 13.748 11.494 21.748 26.161 24 44h-8c-2.761-17.019-10.428-31.519-23-43.5a12.93 12.93 0 0 1 5-.5v-64Z" style="opacity:1"/><path fill="#156e71" d="M246.5 405.5h9c.644 10.218-.522 20.218-3.5 30-11.489 30.827-33.656 47.161-66.5 49 41.53-9.572 61.864-35.906 61-79Z" style="opacity:1"/></svg>