<svg xmlns="http://www.w3.org/2000/svg" width="40" height="40" version="1.0" viewBox="0 0 30 30"><defs><clipPath id="a"><path d="M24 17h5.516v3H24Zm0 0"/></clipPath><clipPath id="b"><path d="M25 9h4.516v3H25Zm0 0"/></clipPath><clipPath id="c"><path d="M.484 9H5v3H.484Zm0 0"/></clipPath><clipPath id="d"><path d="M.484 17H6v3H.484Zm0 0"/></clipPath><clipPath id="e"><path d="M.484 16H13v13H.484Zm0 0"/></clipPath><clipPath id="f"><path d="M.484 0H13v13H.484Zm0 0"/></clipPath><clipPath id="g"><path d="M16 16h13.516v13H16Zm0 0"/></clipPath><clipPath id="h"><path d="M16 0h13.516v13H16Zm0 0"/></clipPath><clipPath id="i"><path d="M.484 0h29.032v29.031H.484Zm0 0"/></clipPath></defs><g clip-path="url(#a)"><path fill="#2c429c" d="M28.465 19.953c.312-.773.555-1.57.73-2.387h-4.71l3.98 2.387"/></g><path fill="#2c429c" d="M3.852 23.813a14.678 14.678 0 0 0 3.664 3.148 14.355 14.355 0 0 0 4.316 1.723V19l-7.98 4.813"/><g clip-path="url(#b)"><path fill="#2c429c" d="M29.105 11.078c-.168-.7-.386-1.379-.656-2.039l-3.375 2.04h4.031"/></g><g clip-path="url(#c)"><path fill="#2c429c" d="m1.508 9.14-.016.04c-.11.277-.207.554-.3.836l-.012.035c-.106.336-.203.68-.285 1.027h3.8L1.508 9.141"/></g><path fill="#2c429c" d="M26.055 5.105a14.79 14.79 0 0 0-.793-.855 14.404 14.404 0 0 0-2.504-2.008A14.25 14.25 0 0 0 17.992.31V9.96l8.063-4.856M11.832.348c-1.523.336-2.98.918-4.316 1.722l-.016.012c-.18.11-.36.223-.531.34-.617.41-1.203.867-1.754 1.375-.164.148-.324.297-.48.453-.016.02-.036.04-.055.059a13.524 13.524 0 0 0-.801.875l7.953 4.812V.348"/><g clip-path="url(#d)"><path fill="#2c429c" d="M.805 17.566c.168.782.398 1.547.687 2.29l3.79-2.29H.804"/></g><path fill="#2c429c" d="M16.633.09h-.008l.008 12.277V.09M17.992 28.723a14.25 14.25 0 0 0 4.766-1.934 14.404 14.404 0 0 0 2.504-2.008c.289-.289.562-.59.824-.894l-8.094-4.852v9.688"/><path fill="#fff" d="m22.684 17.566 5.406 3.235c.137-.281.262-.563.375-.848l-3.98-2.387h-1.801M25.074 11.078 28.45 9.04a14.088 14.088 0 0 0-1.195-2.312l-7.238 4.351h5.058M9.918 17.566H5.281l-3.789 2.29c.293.738.649 1.453 1.059 2.14l7.367-4.43M11.832 17.66l-8.695 5.227c.222.316.46.625.715.925L11.832 19v-1.34M11.832 11.078V9.996L3.879 5.184c-.106.128-.211.253-.313.382-.242.313-.472.63-.687.957-.121.18-.23.36-.34.54l6.645 4.015h2.648M17.992 17.566v1.47l8.094 4.85c.57-.675 1.074-1.39 1.508-2.144l-6.98-4.176h-2.622M17.992 11.047l8.656-5.2c-.191-.25-.386-.5-.593-.742l-8.063 4.856v1.086M7.11 11.078 2.022 8c-.187.371-.359.754-.515 1.14l3.187 1.938H7.11"/><path fill="#ef363c" d="M9.184 11.078 2.539 7.063c-.184.308-.355.617-.516.937l5.086 3.078h2.075M17.992 11.078h2.024l7.238-4.351c-.192-.301-.395-.59-.606-.88l-8.656 5.2v.031M11.832 17.566H9.918l-7.367 4.43c.183.3.379.598.586.89l8.695-5.226v-.094M20.613 17.566l6.98 4.176c.18-.308.345-.62.497-.941l-5.406-3.235h-2.07"/><g clip-path="url(#e)"><path fill="#fff" d="M9.918 17.566h1.914v11.118c.379.086.762.156 1.148.207V16.449H.613c.047.375.114.75.192 1.117h9.113"/></g><g clip-path="url(#f)"><path fill="#fff" d="M12.973.14c-.383.055-.766.122-1.141.208v10.73H.895c-.079.309-.145.621-.2.938-.02.117-.035.234-.05.351H12.98L12.973.141"/></g><g clip-path="url(#g)"><path fill="#fff" d="M16.633 28.941c.457-.05.91-.125 1.36-.218V17.566h11.202c.078-.367.14-.742.192-1.117H16.633v12.492"/></g><g clip-path="url(#h)"><path fill="#fff" d="M29.36 12.367a13.924 13.924 0 0 0-.255-1.289H17.992V.308a14.48 14.48 0 0 0-1.36-.218v12.277H29.36"/></g><g clip-path="url(#i)"><path fill="#ef363c" d="M12.98 28.89c.665.094 1.336.141 2.02.141.55 0 1.094-.031 1.633-.09V16.45h12.754a14.44 14.44 0 0 0 .129-1.933c0-.727-.055-1.446-.157-2.149H16.633L16.625.09A14.937 14.937 0 0 0 15 0h-.113c-.012 0-.028.004-.04.004-.316 0-.624.016-.933.035-.316.024-.629.059-.941.102l.007 12.226H.645a13.158 13.158 0 0 0-.141 1.406 14.44 14.44 0 0 0 .11 2.676H12.98v12.442"/></g></svg>